<svg xmlns="http://www.w3.org/2000/svg" xmlns:svg="http://www.w3.org/2000/svg" id="svg14" width="300" height="300" version="1"><metadata id="metadata20"/><g id="g12" stroke="#000"><path id="path2" d="m 190.797,154.49152 -15.212,15.5 h -59 l -15.517,-15.5 15.517,-15.5 h 59 z m 0,81.5 -15.212,15.5 h -59 l -15.517,-15.5 15.517,-15.5 h 59 z" style="fill:red;fill-rule:evenodd"/><path id="path4" fill="none" d="M98 75.385l15.5 15.212v45L98 151.115l-15.5-15.518v-45L98 75.385zM194 75.385l15.5 15.212v45L194 151.115l-15.5-15.518v-45L194 75.385z"/><path id="path6" d="M 190.797,72.5 175.585,88 h -59 L 101.068,72.5 116.585,57 h 59 z" style="fill:#fff;fill-opacity:1;fill-rule:evenodd"/><path id="path8" fill="none" d="M98 157.443l15.5 15.212v45L98 233.172l-15.5-15.517v-45L98 157.443zM194 157.443l15.5 15.212v45L194 233.172l-15.5-15.517v-45l15.5-15.212z"/><path id="path10" fill="none" stroke-linecap="round" d="M237.5 239.25a12.25 12.25 0 1 1-24.5 0 12.25 12.25 0 1 1 24.5 0z"/></g></svg>