<svg xmlns="http://www.w3.org/2000/svg" width="600" height="600" viewBox="0 0 600 600"><defs><path id="a" d="M62.2 129.1h650.7v72.6H62.2z"/></defs><path fill="#ffef4e" d="M0 0h600v600H0z"/><path fill="#5eb4b4" d="M-36.7 91.3 669.2-49.5V282L-36.7 422.8z"/><path d="M-36.3 76.8 669.6-64.1v331.5L-36.3 408.3z"/><path fill="#ff0" d="M283.3 210a75 75 0 0 1 1.4-15.3c.8-3 1.9-6.2 4.8-7.6l1.1-.4c1-.1 2-.4 3-.2l-.1.1c2.5 1.3 4.2-2.4 1.7-3.6l-1.4-.5c-1.5-.3-3.2.2-4.7.5-1.6.7-2.2.8-3.6 2a17 17 0 0 0-4.7 9c-1 5.2-1.6 10.6-1.5 16 0 2.8 4 2.8 4 0z"/><path fill="#ff0" d="m283.8 202.7 2.7-.6c2.8-.6 2-4.5-.8-3.9l-2.6.5c-2.8.5-2 4.5.7 4zm19.6 8.3c0-4 1.8-7.4 4-10.5-.4-.3 1-1.1 1.3-.8v.4c.1.5.6 1 .8 1.5l.6 1.4c.2 4.4-1.4 7-4.3 10-.4 0-.9.4-1.3 0l-.1-.5-.8-.8c-2-2-4.8.7-2.8 2.7 1.2 1.2 1.9 2.2 3.7 2.6 1.8.3 2.7-.5 4.1-1.3l1.5-1.5c2.4-2.8 4-6.2 4-10l-.3-2.7c-.7-1.5-1-2.7-2.2-3.9-1.8-1.8-3.9-2.3-6.1-.8-.6.3-1 1-1.4 1.4l-1.3 1.8c-2 3.4-3.4 7.2-3.4 11.2.2 2.8 4.2 2.6 4-.2zm22-10.7c.4 4.8 1.2 9.6 2 14.4.5 1.7.5 2.4 4-1 .6-.6 0-1.5.1-2.2.1-2.8.5-5.5 1-8.3.7-2.4 1.4-4.8 3.1-6.7 1.4-1.5 3.2-2.3 5-3l1.5-.6a2 2 0 0 0-1.4-3.8l-1.7.7c-1.8.8-3 1.2-4.5 2.4a17 17 0 0 0-5.8 10.2c-.6 3-1 6-1.2 9 0 .8-.6 1.8 0 2.2 6.6 4.5 4.6 1.6 3.9.5-.8-4.7-1.6-9.4-2-14.1a2 2 0 0 0-4 .3zm-259 75.4c2.4 12.2 4 24.5 6 36.7 1.6 12.2 3.7 24.3 5.6 36.4 1.8-1.3-.5 2.4.3 2.3 1.3-.2 2.6-.6 3.7-1.2.3-.2 0-.6 0-.9l-.4-3-.4-4.8c-.7-9.3-1.4-18.6-1.3-28 .1-5.5.3-6.3.7-11.7.3-1.5.4-3 .8-4.6 1.9-6.6 6.4-12 11.5-16.4l4.1-3c3.4-1.7 4.5-2.7 8.3-2.7 5 0 10.5 2.5 14.7 5 1.7 1 3.2 2.1 4.8 3.2 2.3 2.4 5.4 5 6.8 8.2.7 1.7 1 3.5 1.1 5.3.5 4.6-.1 8.5-1.2 13-.6 2.5-1.4 5-2.2 7.4a47 47 0 0 1-15 22.3c-4 3.2-6.4 4.3-10.8 6.8-6 2.8-12.3 5.6-18.8 7.3-3 .8-3.7.8-6.7 1.2l-2.6.2c-2.8.1-2.6 4.1.2 4l3-.2c3.3-.5 4-.5 7.2-1.3a115 115 0 0 0 19.6-7.7c4.8-2.7 7.3-3.9 11.6-7.3a52 52 0 0 0 16.2-24.2c.7-2.6 1.6-5.2 2.2-7.8a34.1 34.1 0 0 0-.5-21.2c-1.7-3.7-5-6.6-7.8-9.3-1.8-1.2-3.5-2.5-5.3-3.6a33 33 0 0 0-17.2-5.2c-4.6.1-6 1.4-10 3.4-1.5 1-3 2.1-4.4 3.3a38 38 0 0 0-12.7 18.6c-.4 1.6-.6 3.3-.9 5-.4 5.5-.6 6.4-.7 12.1 0 9.4.6 18.9 1.3 28.3l.8 8c0 .7-.2 1.8.4 2 1.3.3 2.7-.3 3.9-.9.7-.3-1.6-2.5-.4-2.5-1.9-12.1-3.9-24.2-5.6-36.4-1.9-12.3-3.6-24.6-6-36.8-.5-2.7-4.4-2-3.9.7zm93.4-2.3c0 10 1.8 19.9 3.5 29.7a158 158 0 0 0 6.4 24.3c1.4 4 1.7 4.5 3.4 8 2.7 5.3 6.2 9.6 10.9 13.1a9.9 9.9 0 0 0 8.5 1.7l2-.9c4-2.2 6.3-5.3 8.6-9.2 3.2-7.2 3.4-15.3 4-23 1-13.3 1.5-26.5 2.2-39.8l.4-9.3c.1-2.8-3.9-3-4-.2l-.4 9.3c-.6 13.2-1.3 26.5-2.2 39.7-.5 7.1-.7 14.5-3.5 21.2-1.7 3-3.8 5.9-6.8 7.7l-1.1.5c-2 .7-3.7.2-5.3-.9-4.1-3-7.3-7-9.6-11.5-1.7-3.4-2-4-3.4-7.7-2.8-7.7-4.6-15.6-6.2-23.7-1.6-9.6-3.3-19.2-3.4-29 0-2.8-4-2.8-4 0zm85.6 65.3a255.5 255.5 0 0 1-4.7-54c-.2-4.9 0-9.7.2-14.5 0-1.1.1-2.3.4-3.3l.1-.4-1.3 1.4c-.2.1-.6.2-.5.5.3.7 1.1 1.3 1.7 2l2.6 3.2 10.4 12.9 8.8 11 3.5 3.9 1.3 1c.8 0 1.8.6 2.5 0 2-1.2 2.2-4.6 2.5-6.5l.5-5.1 1-12c.8-8.3 1.5-16.7 3.1-25 .3-1.1.4-2.4 1-3.5 0-.1.3-.5.3-.3-.2.3.2 0 .2.1s-.4.1-.3.2l.8.7 1.6 1.7 2.6 3.3a227 227 0 0 1 7.7 11.5c5.4 8.4 10.5 17 15.6 25.5 6.2 10.6 12.7 21.2 17.7 32.5 1 2.4 2.1 4.9 3 7.4a2 2 0 0 0 3.8-1.4l-3.1-7.6c-5.2-11.5-11.6-22.2-18-33-5.1-8.6-10.2-17.2-15.7-25.6-2.4-3.8-5.2-8.1-7.9-11.8L284 250c-1.7-1.9-2.7-3.2-5.2-3.9a4 4 0 0 0-2.2.6l-.7.5c-1.6 1.5-1.9 3.9-2.3 5.9-1.7 8.4-2.4 16.9-3.2 25.4l-1 11.9-.5 4.8c0 1-.5 2-.4 3 0 .4 1.7 1 1.8 1-1.6-1-2.8-2.8-4-4.3l-8.9-10.9-10.4-13-2.7-3.3c-.6-.7-1.2-1.6-2-2.2-.7-.7-1.7-1-2.6-1.6-.7.5-1.5.9-2.1 1.5-.2.1-.1.4-.2.6-.3 1.3-.4 2.7-.5 4a362.4 362.4 0 0 0 1.1 46 260 260 0 0 0 3.5 23.5c.6 2.8 4.5 2 4-.8zm96.9-14c-.4-1.4-.5-1.5-.8-3.4-1-5.3-1.3-9.2-2-14.8-1-9-1.6-16.3-2.5-25.4-1.6-19-3.3-38.3-2.4-57.4l.5-2.5c.2 0 .6-.4.5-.3-.5.4-1.1.6-1.4 1.1-.2.4 0 .9.2 1.3 3.3 12.8-1.5-7.4 2.4 9.3 2 10 3.6 20.2 5.2 30.3.5 2.8.4 6 4.8 1.6.6-.6.2-1.7.4-2.6l1.2-7.3c2-8.7 4.8-17 8-25.3.4-1 1-2.8 1.8-3.7l.3-.1c-1.3 1.3-1.5 0-.4 2.4.3 1.1.8 2.3 1 3.4a235 235 0 0 1 3.3 12.4c2.2 9.4 4.2 19 6.2 28.4a322 322 0 0 0 9.5 37.2c.7 2.1 1.6 4.2 2.5 6.2 1.1 2.6 4.8 1 3.6-1.6L382 308c-4-12-6.9-24.3-9.4-36.7-2-9.6-4-19-6.2-28.5-.9-3.8-2.2-9-3.3-12.8l-1.3-3.8c-.8-1.5-1.4-3.5-3.3-4.1-3.4-1.1-4.8 3.6-5.7 5.7-3.3 8.5-6.2 17.2-8.2 26-.9 4.6-.7 3.3-1.3 7.5-.1.8-1 1.9-.3 2.5.8.8 2.3.3 3.5.6v.1l-.4-2.2a596.2 596.2 0 0 0-5.4-30.6c-.5-2.2-1.6-8-2.7-10.3-.5-1-1-2.5-2-3-2.6-1.3-4 .2-4.7 2l-.6 3-.2 4.8c-.4 17.8 1.1 35.6 2.6 53.3l2.6 25.5c.6 5.5 1 9.8 2 15.1.3 2.1.4 2.3 1 3.9.8 2.7 4.6 1.4 3.7-1.3zm64.1-106.2c1.3 7.9 2.2 15.8 3 23.7l2 17.8c0 2.4.3 4.8.4 7.1.1 5.2.4 10.4.8 15.6l1.5 14.3.2 1.3a2 2 0 0 0 4-.5l-.2-1.4c-.6-4.6-1-9.3-1.5-14a268 268 0 0 1-.8-15.5l-.5-7.2c-.5-6-1.3-12-1.9-17.9-.8-8-1.7-16-3-23.8-.4-2.8-4.4-2.3-4 .5z"/><path fill="#ff0" d="M398.6 220.6c6-.1 12-.6 18-1.5 2.7-.4 2.2-4.3-.6-4-6 1-11.8 1.4-17.8 1.5-2.8.3-2.4 4.3.4 4zm3.1 84.9a225 225 0 0 0 18.8-3c3.5-.6 7-1.4 10.6-1.9 1 0 1.9-.1 2.8-.3 2.8-.6 2-4.5-.8-4l-2.6.4c-3.6.5-7.2 1.2-10.8 2-6 1-12.1 2.1-18.3 2.8-2.8.2-2.5 4.2.3 4zm58.7-11.7c-1.6-8.1-3.4-16.3-4.4-24.5l-1.2-12a338 338 0 0 1-.3-54.6l.9-5.2c.5-1 .7-2.1 1.5-2.9 1.3-1.3 5-1.4 6.4-1.4 2.1 0 4.2.2 6.3.4 4.4.4 11 1.4 15.4 2 2.8.4 3.4-3.6.6-4-4.2-.5-11.5-1.6-15.8-2-5.3-.5-12.5-1.3-16.5 3.3-1 1-1.2 2.6-1.9 4l-.8 5.6c-.5 4-.8 13.7-1 17.2-.2 12.7 0 25.3 1.2 38l1.3 12.2c1 8.3 2.8 16.6 4.4 25 .7 2.6 4.6 1.6 3.9-1z"/><path fill="#ff0" d="m462.4 245.7 15.4-3.8 3.9-.8c2.7-.5 2-4.5-.8-4l-4 .9-15.6 3.9c-2.8.8-1.7 4.6 1 3.8zm3 45.6c7-1.9 14-3.5 21-5.5 3-1 6-1.7 9-2.8a2 2 0 0 0-1.2-3.8l-9 2.8c-7 2-14 3.6-21 5.4-2.6.8-1.6 4.6 1.2 3.9zm98.5-114.6a37.7 37.7 0 0 0-14.7 4c-1.8 1-3.5 1.8-5 3-1.6 1.1-3 2.6-4.4 4-.9 1.8-2 3.5-2.6 5.5-1.8 6.2 0 13 3.3 18.5 2.8 4.7 6.6 8.6 10.3 12.6 4.8 5.1 10 10 14.5 15.4a25 25 0 0 1 4.6 7.4c.3.9.3 1.8.4 2.7l-1.3 1.4c-3.6 2.8-10 4.3-14.2 5.5l-11.8 3c-2.7.6-1.8 4.5 1 3.8l12-3c2.1-.6 4.4-1.2 6.5-2 3.2-1 7.7-2.6 10-5.4 1-1.1 1.2-2.7 1.7-4-.2-1.3-.3-2.6-.7-3.8-1-3-3.2-5.8-5.2-8.2-4.5-5.5-9.7-10.3-14.6-15.5-5.7-6.3-12.5-13-13.2-22 0-1.6 0-3.2.3-4.8.3-1.5 1.2-2.8 1.8-4.2 1.2-1.2 2.2-2.5 3.6-3.5s3-1.9 4.6-2.7a34.8 34.8 0 0 1 13-3.7 2 2 0 0 0 0-4z"/><path fill="#fff" d="m66.5 168.9 6.8-33.6h32l-1.4 6.7H80.7l-1.7 9h17.9l-1.3 6.5h-18l-2.2 11.4zm37.6 0L111 135h8.4l-6.8 33.9zm50-.5-.8.4-1.3.4-1.6.3-1.8.2q-2.9 0-4.1-1-1.3-1.2-.8-3.8.1-.8.5-1.9l.9-2.5q-1 2.6-2.8 4.3-1.7 1.8-3.8 2.9-2 1-4.4 1.5-2.3.5-4.6.5-5.3 0-7.7-2-2.4-1.9-1.7-5.4.4-1.7 1.4-3 1.1-1.2 2.8-2 1.7-1 4-1.5 2.1-.5 4.8-.8l5.5-.3h6l.1-.3q.2-1 0-1.9-.2-.9-.9-1.6-.7-.7-2-1.1-1.3-.4-3.3-.4l-2.4.2-2.4.6q-1 .4-2 1.1-1 .7-1.6 1.6l-6-2.2q1.2-1.5 2.8-2.8 1.5-1.2 3.5-2 2-1 4.5-1.4 2.5-.5 5.6-.5 3.8 0 6.4.7 2.6.7 4.1 2.2 1.6 1.5 2 3.8.4 2.3-.2 5.4l-1.4 6.7q-.2 1.2 0 1.7.3.5 1.2.5l1.3-.1 1-.3zM142 158.2q-2.7 0-5 .2-2.3.1-4 .6-1.7.4-2.7 1.1-1.1.8-1.3 2-.2.6 0 1.1.1.6.6 1t1.3.7q1 .2 2.3.2 2 0 3.7-.6 1.9-.6 3.4-1.6t2.5-2.2q1-1.2 1.3-2.4zm30.2.8-2.5-.3-2.7-.4-2.6-.7q-1.2-.5-2-1.3-1-.8-1.4-2-.4-1.1 0-2.8.7-3.6 4.5-5.6 4-2 10.8-2 2.3 0 4.2.4 2 .2 3.7 1 1.7.6 3 1.8 1.3 1.2 2.3 3.1l-7 2q-.5-.8-1.2-1.4-.5-.6-1.4-1-.9-.4-2-.6-1.2-.2-2.9-.2-1.5 0-2.6.2-1 .2-1.8.6-.8.3-1.2.8-.4.4-.5 1-.1.6.3 1t1.3.7l2.3.5 3.2.4q3.3.4 5.7.9 2.4.5 3.9 1.3t2 2q.6 1.3.2 3-.4 2.1-1.7 3.7-1.3 1.5-3.5 2.5-2.1 1-5 1.6-3 .5-6.7.5-2.6 0-4.8-.4-2.1-.3-3.8-1-1.7-.9-2.9-2-1.1-1.3-1.6-3l6.9-2.3.9 1.3q.6.6 1.4 1.1 1 .5 2.3.9 1.3.3 3.1.3 1.9 0 3.2-.2 1.3-.2 2.1-.6.9-.3 1.3-.8t.6-1.2q0-.5-.3-1-.3-.3-1.2-.7l-2.3-.6-3.6-.5zm44.3 9.9 1.9-9.7q.4-1.8.4-3.5 0-1.6-.5-2.9-.5-1.2-1.7-2-1.2-.7-3.3-.7-1.7 0-3.4.8-1.6.7-3 2-1.5 1.2-2.6 2.8-1 1.6-1.3 3.4l-2 9.8h-8.4l6.8-33.9h8.4l-3 15.3q2.2-3 5.6-4.7 3.4-1.6 7.3-1.6 3.3 0 5.4 1 2.1 1 3.2 2.8 1.1 1.8 1.2 4.5.2 2.6-.5 5.9l-2.1 10.7zm16.5 0 4.8-24h8.4l-4.8 24zm5.2-26.8 1.4-6.8h8.6l-1.3 6.8zm35.4 26.8 2-9.6q.3-2 .3-3.6 0-1.7-.5-3-.5-1.2-1.7-1.9t-3.3-.7q-1.5 0-3.2.7-1.6.6-3 1.8-1.5 1.2-2.6 2.8-1.1 1.7-1.5 3.8l-2 9.7h-8.4l4.8-24h5.8v7q1.2-2 3-3.5 1.6-1.5 3.5-2.5 2-1 4-1.4 2-.5 4-.5 3.2 0 5.3 1 2.2.9 3.3 2.7 1 1.9 1.2 4.5.2 2.7-.5 6L282 169zm48.7-17.1q-.4 2-1.6 3.5-1.3 1.4-3.3 2.5-2 1-4.6 1.5-2.7.6-6 .6h-4.1l-2.3.3q-1.2 0-2.1.3-1 .2-1.6.6-.6.3-.7.8-.2.8.5 1.1.6.4 2.3.3h10.5q3.6-.2 5.9.2 2.3.4 3.6 1.2 1.2.8 1.6 2 .4 1.3 0 2.8-.3 1.8-1.2 3.1-1 1.4-2.4 2.3-1.4 1-3.2 1.6-1.7.6-3.7 1t-4 .5l-4.1.2q-3.9 0-6.6-.4-2.7-.4-4.4-1.2-1.6-.7-2.3-1.7-.7-1-.4-2.2l.4-1.3q.4-.7 1-1.3.6-.6 1.4-1.1l2-.9q-1.4-.3-2.3-.8-.8-.5-1.2-1.1-.4-.6-.5-1.4l.2-1.5q.2-1.4 1.1-2.4 1-1 2.2-1.5 1.2-.6 2.6-.9l2.8-.4q-2-1.1-2.8-2.8-.6-1.6-.3-3.5.4-1.8 1.5-3.2 1-1.5 2.9-2.5 1.8-1 4.5-1.6 2.6-.5 6-.5h3l2.6.4q.5 0 1-.3l1-.6.6-1 .5-1v-3.2l-.1-.6 6 .4v.4q.2.3.2.7l.1 1v1q-.4 1.5-1.8 2.7-1.4 1.1-3.8 1.5 2.2 1 3 2.6.8 1.6.4 3.8zM298 168.5h-1l-.8.5-.6.7-.4.8q0 .4-.2.7 0 .6.2 1 .4.5 1.3.8.9.3 2.5.5l4 .1q2.3 0 3.9-.2 1.5-.2 2.5-.6 1-.4 1.4-1 .5-.5.6-1v-1q-.2-.5-.8-.8-.5-.3-1.6-.5l-2.9-.1zm9.7-13q1.4 0 2.5-.3t1.9-.8q.8-.5 1.2-1.2.5-.6.7-1.3l-.1-1.3q-.2-.7-.8-1.2-.6-.5-1.6-.8-1-.3-2.4-.3t-2.5.3q-1.1.3-1.9.8-.7.5-1.2 1.1-.4.7-.5 1.4-.2.7 0 1.3.2.7.8 1.2.5.5 1.5.8 1 .3 2.4.3zm34.9 13.4 6.7-33.6h32.5l-1.3 6.7h-23.7l-1.3 7h19.3l-1 5.6h-19.5l-1.5 7.6H377l-1.3 6.7zm44.4-11.5q.4 1.3 1.3 2.4 1 1.1 2.4 2 1.4.7 3.3 1.1 1.9.4 4 .4 2.3 0 3.8-.3 1.6-.4 2.6-1 1-.4 1.5-1.1.5-.7.7-1.4.2-.9-.1-1.4-.3-.6-1-1t-1.8-.7l-2.6-.6-6.9-1.5q-5.3-1.2-7.5-3.7t-1.4-6.6q.5-2.3 1.9-4.1 1.4-1.8 3.6-3 2.3-1.3 5.3-2 3-.6 6.8-.6 2.6 0 5 .5 2.4.4 4.3 1.4 2 1 3.4 2.6 1.5 1.5 2.3 3.7l-6.9 2.9h-.2q-.4-1.5-1.5-2.4-1-1-2.3-1.4-1.4-.5-2.8-.7l-2.6-.2q-2 0-3.5.3-1.5.2-2.5.7-1 .4-1.5 1t-.7 1.3q-.1.9.2 1.5.3.5.9 1l1.5.6 1.8.4 8.1 2q2.6.5 4.5 1.3 2 .7 3.1 1.8 1.3 1.2 1.7 2.7.5 1.6 0 3.8-.4 2.4-2 4.4-1.4 2-3.8 3.4-2.3 1.4-5.5 2.2-3.1.8-6.9.8-3 0-5.9-.6-2.8-.6-5-1.8-2.2-1.2-3.7-3-1.5-1.7-2-4l6.4-3.1zm32.3 11.5 6.7-33.6h18.5l4.2.2q2 .2 3.8.6 1.8.5 3.3 1.3 1.4.7 2.3 2 .9 1.2 1.2 3 .3 1.6-.2 4-.6 3.1-2.2 5.4-1.5 2.2-3.7 3.6-2.3 1.5-5.2 2.1-2.8.7-6.1.7h-11.8l-2.1 10.7zm23-17q1.4 0 2.6-.4 1.3-.3 2.3-1 1-.5 1.7-1.5t1-2.5q.2-1.4 0-2.3-.4-1-1.1-1.5-.8-.5-2-.7-1.1-.2-2.5-.2h-11l-2 10zm47.2 17 2.7-13.6H472l-2.7 13.6h-8.9l6.7-33.6h8.9l-2.7 13.2h20.4l2.6-13.2h8.8l-6.7 33.6zm31.5.8q-2.3 0-4.4-.3-2-.4-3.8-1-1.8-.8-3.2-1.8-1.4-1-2.4-2.5-.9-1.4-1.2-3.2-.3-1.9.1-4 .5-2.2 1.5-4 1-1.8 2.5-3.3 1.5-1.4 3.4-2.5 1.9-1 4-1.7 2-.7 4.2-1 2.2-.4 4.4-.4t4.2.3q2.1.4 3.9 1 1.8.8 3.2 1.8 1.5 1.1 2.4 2.5.9 1.5 1.2 3.3.3 1.7-.1 3.9-.5 2.2-1.5 4-1 1.8-2.5 3.3-1.5 1.4-3.3 2.5-1.9 1-4 1.7-2 .7-4.3 1-2.2.4-4.4.4zm1.1-6q1.9 0 3.5-.5 1.7-.4 3-1.3 1.4-.9 2.3-2.1 1-1.3 1.3-3 .3-1.6 0-2.9-.5-1.3-1.5-2.1-1-.9-2.6-1.3-1.4-.5-3.2-.5-1.8 0-3.5.5-1.7.4-3 1.3-1.4.9-2.3 2.1-1 1.3-1.3 3-.3 1.6.1 2.9.4 1.2 1.4 2 1 1 2.5 1.4 1.5.4 3.3.4zm64.1 5.2 2.2-10.8q.4-2.1.4-3.6 0-1.6-.5-2.5-.4-1-1.3-1.4-.8-.4-2.1-.4-1.7 0-3.3.8-1.6.8-3 2.1-1.3 1.4-2.2 3-1 1.8-1.3 3.5l-1.8 9.3h-8.4L567 158q.5-2.4.4-3.9 0-1.5-.5-2.4-.5-1-1.4-1.3-.9-.3-2-.3-1.6 0-3.1.8-1.6.8-2.9 2-1.3 1.3-2.3 3-1 1.6-1.2 3.3l-2 9.6h-8.4l4.8-24h5.8l-.1 7q.8-1.3 2-2.7 1.4-1.4 3.1-2.5 1.8-1.2 4-2 2.2-.7 5-.7 2 0 3.4.7 1.5.6 2.4 1.7 1 1 1.3 2.5.4 1.5.2 3 .8-1.5 2.4-3 1.5-1.4 3.3-2.5 1.8-1.1 3.8-1.8 2-.6 3.7-.6 2.4 0 4.2.6 1.9.7 3 2.2 1.2 1.5 1.5 4 .3 2.6-.5 6.4l-2.3 11.7zm41.1-8.4h.3l5 2.7q-1.8 1.8-3.7 3-1.8 1.3-3.8 2-2 .8-4 1.2-2 .3-4.1.3-4 0-7.2-.9-3-.8-5-2.5t-2.7-4q-.8-2.4-.1-5.3.5-3 2.1-5.3 1.7-2.4 4.2-4.1 2.5-1.7 5.8-2.7 3.3-1 7.2-1 3.6 0 6.3 1.1 2.7 1 4.4 2.8 1.7 1.8 2.3 4.3.6 2.4 0 5.3v.4l-.1.4h-24.9q-.1 1.3.5 2.4.5 1.2 1.6 2 1.2.8 2.9 1.3 1.6.5 3.7.5l2.7-.2 2.5-.7q1.2-.5 2.2-1.2l2-1.8zm-.3-6.1q.1-1-.2-2-.4-1-1.2-1.8-.8-.8-2.2-1.3-1.4-.5-3.3-.5t-3.5.4q-1.6.5-2.9 1.2-1.3.8-2.2 1.9-1 1-1.3 2z" aria-label="Flashing ESPHome" font-family="Body Grotesque Large Trial" font-size="48" font-style="italic" letter-spacing="0" style="line-height:1.25;-inkscape-font-specification:'Body Grotesque Large Trial Italic';white-space:pre;shape-inside:url(#a)" transform="matrix(1 -.2169 0 1.99737 -50.6 -124)" word-spacing="0"/><g transform="matrix(1.54044 0 0 1.43647 -156.9 -256.1)"><path fill="#020202" stroke="#000" d="M376 600.3s34.9-57.9 60.8-58.3c25.9-.3 55 58 55 58z"/><ellipse cx="470.7" cy="475.5" fill="#fefefe" stroke="#292929" stroke-width="1.1" rx="14.7" ry="27.4"/><ellipse cx="399.7" cy="482.7" fill="#fefefe" stroke="#292929" stroke-width="1.1" rx="14.7" ry="27.4"/><path fill="#fff" stroke="#000" d="M389.2 454.2 440 579.5 475 450l-.9-28.6-39 19-49.9-14.6z"/><path fill="#050a0a" stroke="#000" d="m389.2 454.2-25-40.2 17.4 3.4 10-15.6 4 14.3 13.2-12.6s9.2 19.4 9 16c-.3-3.6 8-28.8 8-28.8l13.2 18.8 2.8-14.7 16.4 11.5 3.5-11.8 12.7 12.7 5.6-20.8 5.6 12.8-10.7 50.7-.8-28.6-39 19-49.9-14.6z"/><circle cx="460.1" cy="473.5" r="21.9" fill="#fefefe" stroke="#292929" stroke-width="1.2"/><circle cx="453.9" cy="469.3" r="5" fill="#020202"/><g transform="translate(-43.5)"><circle cx="460.1" cy="473.5" r="21.9" fill="#fefefe" stroke="#292929" stroke-width="1.2"/><circle cx="453.9" cy="469.3" r="5" fill="#020202"/></g><path fill="#020202" d="M398.5 451c2.5-2.5 5.9-3.7 9.2-4.7 1.6-.4 3.2-1 5-.5 1 .3 2 1 2.8 1.7.9.7 1.6 1.5 2.2 2.5 1.5 2.4 4.9.2 3.4-2.2a13 13 0 0 0-3.2-3.4 11 11 0 0 0-4.7-2.6c-2.4-.5-4.5 0-6.7.7-4 1.3-8.2 2.8-11.1 6-1.8 2.2 1.3 4.7 3 2.5zm55.6-7.8c1.2-1.1 2.6-2 4.2-2.5l1.2-.2c2.9-.1 4.1.4 6 2.3 1.1 1.2 1.6 2.7 2.1 4.2 1 2.7 4.7 1.4 3.8-1.2a15 15 0 0 0-3-6c-1-.7-1.4-1.2-2.4-1.8a11.5 11.5 0 0 0-7.2-1.4l-1.9.4c-2.2.6-4.2 2-5.9 3.6-1.8 2.2 1.3 4.8 3.1 2.6zm-22.4 96.7c2.8 1 5.7 1.7 8.6 2.5 2.2.5 4.6.4 6.4-1.2 1-1 1.3-1.8 1.9-3 1-2.3 1-4.9 1.3-7.4 0-.6 0-1.3.2-2 .5-2.7-3.5-3.4-4-.6l-.2 2.3c-.2 2-.2 4-1 6-.2.6-.5 1.5-1 1.9-.8.6-1.8.3-2.6.1-2.7-.7-5.4-1.4-8-2.3-2.7-1.1-4.2 2.6-1.6 3.7zm-1.5-39.9c1.8 2.7 3.2 5.6 4.7 8.4.8 1.6 2 4 4.2 3.4 1.7-.5 2.2-1.8 2.9-3.1l1.4-3.6c1-2.7-2.8-4-3.8-1.4-.7 2.1-.3 1.1-1.2 3.1 0 .3-.4.6-.4 1h.6l1 .5h-.1l-.5-.6-.6-1.1c-1.5-3-3-6-5-8.8-1.5-2.4-4.8 0-3.2 2.2z"/><path fill="#fdfdfd" stroke="#000" d="m376 600.3-27.5-59.2-15.9-14.7s-12-9.3-9.3-14.4c1.6-3.1 10.2 9.9 10.2 9.9s-8.3-11-6.5-13.6c1.8-2.6 10 7.7 10 7.7s-7.1-7.9-5.4-10.6c1.7-2.6 9.4 5.9 9.4 5.9s-17.7-24.8-13.6-28.3c4-3.5 18 22 18 22a25 25 0 0 1 12.9 11.2c3.1 6 4.9 10 6.6 15 1.7 5 36.2 69.7 36.2 69.7z"/><path fill="#fffbfb" stroke="#000" d="M345 516s.2-3-4-4.7c0 0-10.9.9-6.7-4.7 4.1-5.6 18.6 2.3 20.3 4.4"/></g></svg>
