<svg xmlns="http://www.w3.org/2000/svg" width="300" height="300" version="1"><g stroke="#000"><path d="M190.797 72.5L175.585 88h-59l-15.517-15.5L116.585 57h59l15.212 15.5z" fill="red" fill-rule="evenodd"/><path d="M190.797 154l-15.212 15.5h-59L101.068 154l15.517-15.5h59l15.212 15.5z" fill="none"/><path d="M98 75.385l15.5 15.212v45L98 151.115l-15.5-15.518v-45L98 75.385z" fill="red" fill-rule="evenodd"/><path d="M194 75.385l15.5 15.212v45L194 151.115l-15.5-15.518v-45L194 75.385z" fill="none"/><path d="M190.797 236.057l-15.212 15.5h-59l-15.517-15.5 15.517-15.5h59l15.212 15.5zM98 157.443l15.5 15.212v45L98 233.172l-15.5-15.517v-45L98 157.443z" fill="red" fill-rule="evenodd"/><path d="M194 157.443l15.5 15.212v45L194 233.172l-15.5-15.517v-45l15.5-15.212z" fill="none"/><path d="M237.5 239.25a12.25 12.25 0 1 1-24.5 0 12.25 12.25 0 1 1 24.5 0z" fill="none" stroke-linecap="round"/></g></svg>