<svg viewBox="0 0 263 25" id="svg5" xmlns="http://www.w3.org/2000/svg" xmlns:svg="http://www.w3.org/2000/svg"><defs id="defs9"/><path d="M5 0H258a5 5 0 015 5v15a5 5 0 01-5 5H5a5 5 0 01-5-5V5a5 5 0 015-5z" style="fill:#000" id="path2"/><g aria-label="component name" id="component-text" style="font-weight:900;font-size:25px;font-family:Montserrat;letter-spacing:1.1px;fill:#fffffc"><path d="m13.6 21.25q-2.35.0-4.175-.9-1.825-.9-2.875-2.5-1.025-1.625-1.025-3.7t1.025-3.675q1.05-1.6 2.875-2.5t4.175-.9q2.5.0 4.275 1.075t2.45 2.975l-4.375 2.15q-.425-.95-1.05-1.375-.6-.425-1.325-.425-.625.0-1.175.3-.525.3-.85.9-.3.575-.3 1.475t.3 1.5q.325.6.85.9.55.3 1.175.3.725.0 1.325-.425Q15.525 16 15.95 15.05l4.375 2.15Q19.65 19.1 17.875 20.175T13.6 21.25z" id="path11"/><path d="m29.825016 21.25q-2.325.0-4.125-.9-1.775-.925-2.8-2.525-1.025-1.6-1.025-3.675t1.025-3.675q1.025-1.6 2.8-2.5 1.8-.9 4.125-.9t4.125.9q1.8.9 2.8 2.5 1.025 1.6 1.025 3.675t-1.025 3.675q-1 1.6-2.8 2.525-1.8.9-4.125.9zm0-4.4q.625.0 1.125-.3t.8-.9q.3-.625.3-1.5.0-.9-.3-1.475-.3-.6-.8-.9t-1.125-.3-1.125.3-.8.9q-.3.575-.3 1.475.0.875.3 1.5.3.6.8.9t1.125.3z" id="path13"/><path d="m58.750002 7.075q1.55.0 2.775.65 1.25.625 1.95 1.975.725 1.35.725 3.5V21h-5.65v-6.825q0-1.275-.425-1.8-.425-.55-1.1-.55-.5.0-.9.25t-.65.8q-.225.525-.225 1.45V21h-5.65v-6.825q0-1.275-.4-1.8-.4-.55-1.125-.55-.5.0-.9.25t-.65.8q-.225.525-.225 1.45V21h-5.65V7.325h5.375v3.925l-1.1-1.1q.775-1.55 2.075-2.3 1.3-.775 2.9-.775 1.8.0 3.175.95 1.4.925 1.875 2.95l-1.725-.275q.75-1.7 2.175-2.65 1.45-.975 3.35-.975z" id="path15"/><path d="m76.875027 21.25q-1.775.0-2.95-.75-1.15-.775-1.7-2.325-.55-1.575-.55-4 0-2.475.5-4.025.525-1.575 1.675-2.325 1.15-.75 3.025-.75 1.8.0 3.3.875 1.5.85 2.4 2.45.9 1.575.9 3.775t-.9 3.8q-.9 1.575-2.4 2.425t-3.3.85zm-9.125 4.6V7.325h5.375v1.85l.025 5 .25 5v6.675zm7.775-9q.625.0 1.125-.3t.8-.9.3-1.475q0-.9-.3-1.5t-.8-.9-1.125-.3-1.125.3-.8.9-.3 1.5q0 .875.3 1.475t.8.9 1.125.3z" id="path17"/><path d="m93.575044 21.25q-2.325.0-4.125-.9-1.775-.925-2.8-2.525-1.025-1.6-1.025-3.675t1.025-3.675q1.025-1.6 2.8-2.5 1.8-.9 4.125-.9t4.125.9 2.799996 2.5q1.025 1.6 1.025 3.675t-1.025 3.675q-.999996 1.6-2.799996 2.525-1.8.9-4.125.9zm0-4.4q.625.0 1.125-.3t.8-.9q.3-.625.3-1.5.0-.9-.3-1.475-.3-.6-.8-.9t-1.125-.3-1.125.3-.8.9q-.3.575-.3 1.475.0.875.3 1.5.3.6.8.9t1.125.3z" id="path19"/><path d="m113.90003 7.075q1.575.0 2.85.65 1.275.625 2 1.975.75 1.35.75 3.5V21h-5.65v-6.825q0-1.275-.45-1.8-.45-.55-1.225-.55-.575.0-1.075.275-.475.25-.775.85-.275.6-.275 1.625V21h-5.65V7.325h5.375v4l-1.075-1.15q.8-1.55 2.15-2.325 1.375-.775 3.05-.775z" id="path21"/><path d="m130.85003 21.25q-2.5.0-4.375-.925-1.85-.925-2.875-2.525-1.025-1.625-1.025-3.65.0-2.075 1-3.675 1.025-1.6 2.775-2.5 1.775-.9 3.975-.9 2.025.0 3.725.8 1.725.8 2.75 2.375 1.05 1.575 1.05 3.9.0.3-.025.675-.025.35-.05.65h-10.525V12.75h7.525l-2.125.725q0-.8-.3-1.35-.275-.575-.775-.875-.5-.325-1.2-.325t-1.225.325q-.5.3-.775.875-.275.55-.275 1.35v.85q0 .875.35 1.5t1 .95q.65.3 1.575.3.95.0 1.55-.25.625-.25 1.3-.75l2.95 2.975q-1 1.075-2.475 1.65-1.45.55-3.5.55z" id="path23"/><path d="m150.22502 7.075q1.575.0 2.85.65 1.275.625 2 1.975.75 1.35.75 3.5V21h-5.65v-6.825q0-1.275-.45-1.8-.45-.55-1.225-.55-.575.0-1.075.275-.475.25-.775.85-.275.6-.275 1.625V21h-5.65V7.325h5.375v4l-1.075-1.15q.8-1.55 2.15-2.325 1.375-.775 3.05-.775z" id="path25"/><path d="m165.97502 21.25q-2.825.0-4.4-1.35-1.575-1.375-1.575-4.2V4.25h5.65v11.4q0 .625.325.975.35.35.85.35.725.0 1.275-.375l1.35 3.925q-.65.375-1.575.55-.9.175-1.9.175zm-7.85-9.05V8.075h10.325V12.2z" id="path27"/><path d="m190.07498 7.075q1.575.0 2.85.65 1.275.625 2 1.975.75 1.35.75 3.5V21h-5.65v-6.825q0-1.275-.45-1.8-.45-.55-1.225-.55-.575.0-1.075.275-.475.25-.775.85-.275.6-.275 1.625V21h-5.65V7.325h5.375v4l-1.075-1.15q.8-1.55 2.15-2.325 1.375-.775 3.05-.775z" id="path29"/><path d="m207.49996 21v-2.425l-.4-.65v-4.6q0-1-.625-1.525-.6-.525-1.975-.525-.925.0-1.875.3-.95.275-1.625.775l-1.8-3.725q1.2-.75 2.875-1.15t3.275-.4q3.525.0 5.45 1.575 1.95 1.575 1.95 5V21zm-3.875.25q-1.675.0-2.8-.575t-1.7-1.525q-.575-.975-.575-2.15.0-1.325.675-2.25t2.05-1.4q1.4-.475 3.525-.475h2.85V15.6h-1.95q-.9.0-1.325.3-.4.275-.4.85.0.475.35.8.375.3 1 .3.575.0 1.05-.3.5-.325.725-1l.725 1.675q-.325 1.525-1.375 2.275t-2.825.75z" id="path31"/><path d="m234.39997 7.075q1.55.0 2.775.65 1.25.625 1.95 1.975.725 1.35.725 3.5V21h-5.65v-6.825q0-1.275-.425-1.8-.425-.55-1.1-.55-.5.0-.9.25t-.65.8q-.225.525-.225 1.45V21h-5.65v-6.825q0-1.275-.4-1.8-.4-.55-1.125-.55-.5.0-.9.25t-.65.8q-.225.525-.225 1.45V21h-5.65V7.325h5.375v3.925l-1.1-1.1q.775-1.55 2.075-2.3 1.3-.775 2.9-.775 1.8.0 3.175.95 1.4.925 1.875 2.95l-1.725-.275q.75-1.7 2.175-2.65 1.45-.975 3.35-.975z" id="path33"/><path d="m251.19999 21.25q-2.5.0-4.375-.925-1.85-.925-2.875-2.525-1.025-1.625-1.025-3.65.0-2.075 1-3.675 1.025-1.6 2.775-2.5 1.775-.9 3.975-.9 2.025.0 3.725.8 1.725.8 2.75 2.375 1.05 1.575 1.05 3.9.0.3-.025.675-.025.35-.05.65h-10.525V12.75h7.525l-2.125.725q0-.8-.3-1.35-.275-.575-.775-.875-.5-.325-1.2-.325t-1.225.325q-.5.3-.775.875-.275.55-.275 1.35v.85q0 .875.35 1.5t1 .95q.65.3 1.575.3.95.0 1.55-.25.625-.25 1.3-.75l2.95 2.975q-1 1.075-2.475 1.65-1.45.55-3.5.55z" id="path35"/></g></svg>