<svg xmlns="http://www.w3.org/2000/svg" xmlns:svg="http://www.w3.org/2000/svg" id="svg7268" width="125.724" height="125.724" version="1.1" viewBox="0 0 125.724 125.724"><desc id="desc7230">plate.dxf - scale = 1.0, origin = (0.0, 0.0), method = manual</desc><defs id="defs7244"><marker id="DistanceX" orient="auto" refX="0" refY="0" style="overflow:visible"><path d="M 3,-3 -3,3 M 0,-5 V 5" style="stroke:#000;stroke-width:.5" id="path7232"/></marker><pattern id="Hatch" width="8" height="8" x="0" y="0" patternUnits="userSpaceOnUse"><path id="path7235" stroke="#000" stroke-width=".25" d="M8 4 l-4,4" linecap="square"/><path id="path7237" stroke="#000" stroke-width=".25" d="M6 2 l-4,4" linecap="square"/><path id="path7239" stroke="#000" stroke-width=".25" d="M4 0 l-4,4" linecap="square"/></pattern></defs><g id="g7266" transform="translate(62.862205,-1059.6575)"><path d="m 62.362205,1122.5197 a 62.362205,62.362205 0 1 0 -124.72441,0 62.362205,62.362205 0 1 0 124.72441,0 z" style="fill:none;stroke:#000" id="path7246"/><path d="m -18.059243,1151.9175 a 11.338583,11.338583 0 1 0 -22.677165,0 11.338583,11.338583 0 1 0 22.677165,0 z" style="fill:maroon;stroke:#000" id="path7250"/><path d="m 40.736408,1151.9175 a 11.338583,11.338583 0 1 0 -22.677165,0 11.338583,11.338583 0 1 0 22.677165,0 z" style="fill:maroon;stroke:#000" id="path7252"/><path d="m 40.736408,1093.1219 a 11.338583,11.338583 0 1 0 -22.677165,0 11.338583,11.338583 0 1 0 22.677165,0 z" style="fill:maroon;stroke:#000" id="path7254"/><path d="m -18.059243,1093.1219 a 11.338583,11.338583 0 1 0 -22.677165,0 11.338583,11.338583 0 1 0 22.677165,0 z" style="fill:maroon;stroke:#000" id="path7256"/><path d="m -3.779528,1122.5197 a 9.448819,9.448819 0 1 0 -18.897637,0 9.448819,9.448819 0 1 0 18.897637,0 z" style="fill:green;stroke:#000" id="path7262"/><path d="m 22.677165,1122.5197 a 9.448819,9.448819 0 1 0 -18.897637,0 9.448819,9.448819 0 1 0 18.897637,0 z" style="fill:green;stroke:#000" id="path7264"/></g></svg>