<?xml version="1.0" encoding="UTF-8" standalone="no"?>
<svg
   viewBox="0 0 125.72441 125.72436"
   width="125.72441"
   height="125.72436"
   version="1.1"
   id="svg7268"
   xmlns="http://www.w3.org/2000/svg"
   xmlns:svg="http://www.w3.org/2000/svg">
  <desc
     id="desc7230">plate.dxf - scale = 1.0, origin = (0.0, 0.0), method = manual</desc>
  <defs
     id="defs7244">
    <marker
       id="DistanceX"
       orient="auto"
       refX="0"
       refY="0"
       style="overflow:visible">
      <path
         d="M 3,-3 -3,3 M 0,-5 V 5"
         style="stroke:#000000;stroke-width:0.5"
         id="path7232" />
    </marker>
    <pattern
       id="Hatch"
       patternUnits="userSpaceOnUse"
       width="8"
       height="8"
       x="0"
       y="0">
      <path
         d="M8 4 l-4,4"
         stroke="#000000"
         stroke-width="0.25"
         linecap="square"
         id="path7235" />
      <path
         d="M6 2 l-4,4"
         stroke="#000000"
         stroke-width="0.25"
         linecap="square"
         id="path7237" />
      <path
         d="M4 0 l-4,4"
         stroke="#000000"
         stroke-width="0.25"
         linecap="square"
         id="path7239" />
    </pattern>
    <symbol
       id="*MODEL_SPACE" />
    <symbol
       id="*PAPER_SPACE" />
  </defs>
  <g
     id="g7266"
     transform="translate(62.862205,-1059.6575)">
    <path
       d="m 62.362205,1122.5197 a 62.362205,62.362205 0 1 0 -124.72441,0 62.362205,62.362205 0 1 0 124.72441,0 z"
       style="fill:none;stroke:#000000"
       id="path7246" />
    <path
       d="m -18.059243,1151.9175 a 11.338583,11.338583 0 1 0 -22.677165,0 11.338583,11.338583 0 1 0 22.677165,0 z"
       style="fill:#800000;stroke:#000000"
       id="path7250" />
    <path
       d="m 40.736408,1151.9175 a 11.338583,11.338583 0 1 0 -22.677165,0 11.338583,11.338583 0 1 0 22.677165,0 z"
       style="fill:#800000;stroke:#000000"
       id="path7252" />
    <path
       d="m 40.736408,1093.1219 a 11.338583,11.338583 0 1 0 -22.677165,0 11.338583,11.338583 0 1 0 22.677165,0 z"
       style="fill:#800000;stroke:#000000"
       id="path7254" />
    <path
       d="m -18.059243,1093.1219 a 11.338583,11.338583 0 1 0 -22.677165,0 11.338583,11.338583 0 1 0 22.677165,0 z"
       style="fill:#800000;stroke:#000000"
       id="path7256" />
    <path
       d="m -3.779528,1122.5197 a 9.448819,9.448819 0 1 0 -18.897637,0 9.448819,9.448819 0 1 0 18.897637,0 z"
       style="fill:#008000;stroke:#000000"
       id="path7262" />
    <path
       d="m 22.677165,1122.5197 a 9.448819,9.448819 0 1 0 -18.897637,0 9.448819,9.448819 0 1 0 18.897637,0 z"
       style="fill:#008000;stroke:#000000"
       id="path7264" />
  </g>
</svg>
