<svg xmlns="http://www.w3.org/2000/svg" xmlns:svg="http://www.w3.org/2000/svg" id="svg9883" width="315.743" height="250.497" version="1.1" viewBox="0 0 32889.892 26093.402"><title id="title8855">SVG Picture created as Optical Reader.svg date 2022/12/17 18:27:27</title><desc id="desc8857">Picture generated by Eeschema-SVG</desc><g style="fill:#000;fill-opacity:0;stroke:#000;stroke-width:60;stroke-linecap:round;stroke-linejoin:round;stroke-opacity:1" id="g8907" transform="translate(-29054.003,-16696)"><g style="fill:#840000;fill-opacity:0;stroke:#840000;stroke-width:100;stroke-linecap:round;stroke-linejoin:round;stroke-opacity:1" id="g8867"><rect id="rect8865" width="800" height="2000" x="46100" y="33000" rx="0"/></g><g style="fill:#840000;fill-opacity:0;stroke:#840000;stroke-width:60;stroke-linecap:round;stroke-linejoin:round;stroke-opacity:1" id="g8873"><path id="path8869" d="m 46500,33000 v -500"/><path id="path8871" d="m 46500,35000 v 500"/></g><g style="fill:#006464;fill-opacity:0;stroke:#006464;stroke-width:60;stroke-linecap:round;stroke-linejoin:round;stroke-opacity:1" id="g8905"><text id="text8875" x="48019.332" y="33749.922" font-size="666.654" lengthAdjust="spacingAndGlyphs" opacity="0" text-anchor="middle" textLength="1106.181">R3</text><g id="g8885" class="stroked-text"><desc id="desc8877">R3</desc><path id="path8879" d="m 47935,33726 -166,-239"/><path id="path8881" d="m 47650,33726 v -500 h 190 l 48,23 24,24 23,48 v 71 l -23,48 -24,24 -48,23 h -190"/><path id="path8883" d="m 48102,33226 h 310 l -167,190 h 71 l 48,24 24,24 24,47 v 119 l -24,48 -24,24 -48,24 h -142 l -48,-24 -24,-24"/></g><text id="text8887" x="48209.805" y="34749.922" font-size="666.654" lengthAdjust="spacingAndGlyphs" opacity="0" text-anchor="middle" textLength="1417.126">15k</text><g id="g8903" class="stroked-text"><desc id="desc8889">15k</desc><path id="path8891" d="m 47912,34726 h -286"/><path id="path8893" d="m 47769,34726 v -500 l -48,71 -47,48 -48,23"/><path id="path8895" d="m 48364,34226 h -238 l -24,238 24,-24 48,-24 h 119 l 47,24 24,24 24,47 v 119 l -24,48 -24,24 -47,24 h -119 l -48,-24 -24,-24"/><path id="path8897" d="m 48602,34726 v -500"/><path id="path8899" d="m 48650,34535 143,191"/><path id="path8901" d="m 48793,34392 -191,191"/></g></g></g><g style="fill:#006464;fill-opacity:0;stroke:#006464;stroke-width:60;stroke-linecap:round;stroke-linejoin:round;stroke-opacity:1" id="g9011" transform="translate(-29054.003,-16696)"><g style="fill:#840000;fill-opacity:0;stroke:#840000;stroke-width:60;stroke-linecap:round;stroke-linejoin:round;stroke-opacity:1" id="g8917"><path style="fill:none;fill-opacity:0;stroke:#840000;stroke-width:60;stroke-linecap:round;stroke-linejoin:round;stroke-opacity:1" id="path8911" d="m 50500,30000 h 250"/><path style="fill:none;fill-opacity:0;stroke:#840000;stroke-width:60;stroke-linecap:round;stroke-linejoin:round;stroke-opacity:1" id="path8913" d="m 50750,29750 750,-750"/><path style="fill:none;fill-opacity:0;stroke:#840000;stroke-width:60;stroke-linecap:round;stroke-linejoin:round;stroke-opacity:1" id="path8915" d="m 50750,30250 750,750 v 0"/></g><g style="fill:#840000;fill-opacity:0;stroke:#840000;stroke-width:200;stroke-linecap:round;stroke-linejoin:round;stroke-opacity:1" id="g8921"><path style="fill:none;fill-opacity:0;stroke:#840000;stroke-width:200;stroke-linecap:round;stroke-linejoin:round;stroke-opacity:1" id="path8919" d="m 50750,29250 v 1500 0"/></g><g style="fill:#840000;fill-opacity:1;stroke:#840000;stroke-width:60;stroke-linecap:round;stroke-linejoin:round;stroke-opacity:1" id="g8925"><path style="fill:#840000;fill-opacity:1;fill-rule:evenodd;stroke:#840000;stroke-width:60;stroke-linecap:round;stroke-linejoin:round;stroke-opacity:1" id="path8923" d="m 51000,30700 200,-200 200,400 z"/></g><g style="fill:#840000;fill-opacity:0;stroke:#840000;stroke-width:100;stroke-linecap:round;stroke-linejoin:round;stroke-opacity:1" id="g8929"><circle id="circle8927" cx="51000" cy="30000" r="1110"/></g><g style="fill:#840000;fill-opacity:0;stroke:#840000;stroke-width:60;stroke-linecap:round;stroke-linejoin:round;stroke-opacity:1" id="g8933"><path id="path8931" d="M 51500,29000 V 28000"/></g><g style="fill:#a90000;fill-opacity:0;stroke:#a90000;stroke-width:60;stroke-linecap:round;stroke-linejoin:round;stroke-opacity:1" id="g8947"><g id="g8937" transform="rotate(-90,51600,28500)"><text id="text8935" x="51600" y="29000" font-size="666.654" lengthAdjust="spacingAndGlyphs" opacity="0" text-anchor="middle" textLength="536.181">1</text></g><g id="g8945" class="stroked-text"><desc id="desc8939">1</desc><path id="path8941" d="m 52076,28357 v 285"/><path id="path8943" d="m 52076,28500 h -500 l 71,47 48,48 24,47"/></g></g><g style="fill:#840000;fill-opacity:0;stroke:#840000;stroke-width:60;stroke-linecap:round;stroke-linejoin:round;stroke-opacity:1" id="g8951"><path id="path8949" d="M 50500,30000 H 48500"/></g><g style="fill:#a90000;fill-opacity:0;stroke:#a90000;stroke-width:60;stroke-linecap:round;stroke-linejoin:round;stroke-opacity:1" id="g8961"><text id="text8953" x="49500" y="30600" font-size="666.654" lengthAdjust="spacingAndGlyphs" opacity="0" text-anchor="middle" textLength="536.181">2</text><g id="g8959" class="stroked-text"><desc id="desc8955">2</desc><path id="path8957" d="m 49357,30123 23,-23 48,-24 h 119 l 48,24 24,23 23,48 v 48 l -23,71 -286,286 h 309"/></g></g><g style="fill:#840000;fill-opacity:0;stroke:#840000;stroke-width:60;stroke-linecap:round;stroke-linejoin:round;stroke-opacity:1" id="g8965"><path id="path8963" d="m 51500,31000 v 1000"/></g><g style="fill:#a90000;fill-opacity:0;stroke:#a90000;stroke-width:60;stroke-linecap:round;stroke-linejoin:round;stroke-opacity:1" id="g8977"><g id="g8969" transform="rotate(-90,51600,31500)"><text id="text8967" x="51600" y="32000" font-size="666.654" lengthAdjust="spacingAndGlyphs" opacity="0" text-anchor="middle" textLength="536.181">3</text></g><g id="g8975" class="stroked-text"><desc id="desc8971">3</desc><path id="path8973" d="m 51576,31666 v -309 l 190,166 v -71 l 24,-48 24,-24 47,-23 h 119 l 48,23 24,24 24,48 v 143 l -24,47 -24,24"/></g></g><g style="fill:#006464;fill-opacity:0;stroke:#006464;stroke-width:60;stroke-linecap:round;stroke-linejoin:round;stroke-opacity:1" id="g9009"><text id="text8979" x="53031.262" y="29749.922" font-size="666.654" lengthAdjust="spacingAndGlyphs" opacity="0" text-anchor="middle" textLength="1060">Q2</text><g id="g8989" class="stroked-text"><desc id="desc8981">Q2</desc><path id="path8983" d="m 52983,29773 -48,-24 -47,-47 -72,-72 -47,-23 h -48"/><path id="path8985" d="m 52745,29726 -48,-24 -47,-48 -24,-95 v -167 l 24,-95 47,-48 48,-23 h 95 l 48,23 47,48 24,95 v 167 l -24,95 -47,48 -48,24 h -95"/><path id="path8987" d="m 53150,29273 24,-24 47,-23 h 119 l 48,23 24,24 23,48 v 47 l -23,72 -286,286 h 309"/></g><text id="text8991" x="53745.551" y="30749.922" font-size="666.654" lengthAdjust="spacingAndGlyphs" opacity="0" text-anchor="middle" textLength="2488.583">BC547</text><g id="g9007" class="stroked-text"><desc id="desc8993">BC547</desc><path id="path8995" d="m 52816,30464 72,23 24,24 24,48 v 71 l -24,48 -24,24 -48,24 h -190 v -500 h 166 l 48,23 24,24 24,48 v 47 l -24,48 -24,24 -48,24 h -166"/><path id="path8997" d="m 53436,30678 -24,24 -72,24 h -47 l -72,-24 -47,-48 -24,-47 -24,-96 v -71 l 24,-95 24,-48 47,-48 72,-23 h 47 l 72,23 24,24"/><path id="path8999" d="m 53888,30226 h -238 l -24,238 24,-24 47,-24 h 119 l 48,24 24,24 24,47 v 119 l -24,48 -24,24 -48,24 h -119 l -47,-24 -24,-24"/><path id="path9001" d="m 54340,30392 v 334"/><path id="path9003" d="m 54221,30202 -119,357 h 310"/><path id="path9005" d="m 54555,30226 h 333 l -214,500"/></g></g></g><g style="fill:#006464;fill-opacity:0;stroke:#006464;stroke-width:60;stroke-linecap:round;stroke-linejoin:round;stroke-opacity:1" id="g9041" transform="translate(-29054.003,-16696)"><g style="fill:#840000;fill-opacity:0;stroke:#840000;stroke-width:60;stroke-linecap:round;stroke-linejoin:round;stroke-opacity:1" id="g9021"><path style="fill:none;fill-opacity:0;stroke:#840000;stroke-width:60;stroke-linecap:round;stroke-linejoin:round;stroke-opacity:1" id="path9015" d="m 46200,18500 300,-500"/><path style="fill:none;fill-opacity:0;stroke:#840000;stroke-width:60;stroke-linecap:round;stroke-linejoin:round;stroke-opacity:1" id="path9017" d="M 46500,19000 V 18000"/><path style="fill:none;fill-opacity:0;stroke:#840000;stroke-width:60;stroke-linecap:round;stroke-linejoin:round;stroke-opacity:1" id="path9019" d="m 46500,18000 300,500"/></g><g style="fill:#006464;fill-opacity:0;stroke:#006464;stroke-width:60;stroke-linecap:round;stroke-linejoin:round;stroke-opacity:1" id="g9039"><text id="text9023" x="46500" y="17249.961" font-size="666.654" lengthAdjust="spacingAndGlyphs" opacity="0" text-anchor="middle" textLength="2060">+3V3</text><g id="g9037" class="stroked-text"><desc id="desc9025">+3V3</desc><path id="path9027" d="m 45619,17035 h 381"/><path id="path9029" d="m 45809,17226 v -381"/><path id="path9031" d="m 46190,16726 h 310 l -167,190 h 71 l 48,24 24,24 24,47 v 119 l -24,48 -24,24 -48,24 h -143 l -47,-24 -24,-24"/><path id="path9033" d="m 46642,16726 167,500 167,-500"/><path id="path9035" d="m 47095,16726 h 309 l -166,190 h 71 l 48,24 23,24 24,47 v 119 l -24,48 -23,24 -48,24 h -143 l -47,-24 -24,-24"/></g></g></g><g style="fill:#006464;fill-opacity:0;stroke:#006464;stroke-width:60;stroke-linecap:round;stroke-linejoin:round;stroke-opacity:1" id="g9125" transform="translate(-29054.003,-16696)"><g style="fill:#840000;fill-opacity:0;stroke:#840000;stroke-width:100;stroke-linecap:round;stroke-linejoin:round;stroke-opacity:1" id="g9049"><path style="fill:none;fill-opacity:0;stroke:#840000;stroke-width:100;stroke-linecap:round;stroke-linejoin:round;stroke-opacity:1" id="path9047" d="M 47000,24000 H 46000"/></g><g style="fill:#840000;fill-opacity:0;stroke:#840000;stroke-width:60;stroke-linecap:round;stroke-linejoin:round;stroke-opacity:1" id="g9057"><path style="fill:none;fill-opacity:0;stroke:#840000;stroke-width:60;stroke-linecap:round;stroke-linejoin:round;stroke-opacity:1" id="path9051" d="m 47200,24200 v 200"/><path style="fill:none;fill-opacity:0;stroke:#840000;stroke-width:60;stroke-linecap:round;stroke-linejoin:round;stroke-opacity:1" id="path9053" d="M 46500,25000 V 24000"/><path style="fill:none;fill-opacity:0;stroke:#840000;stroke-width:60;stroke-linecap:round;stroke-linejoin:round;stroke-opacity:1" id="path9055" d="m 47800,24800 -600,-600 h 200"/></g><g style="fill:#840000;fill-opacity:0;stroke:#840000;stroke-width:100;stroke-linecap:round;stroke-linejoin:round;stroke-opacity:1" id="g9061"><path style="fill:none;fill-opacity:0;stroke:#840000;stroke-width:100;stroke-linecap:round;stroke-linejoin:round;stroke-opacity:1" id="path9059" d="m 46000,25000 h 1000 l -500,-1000 z"/></g><g style="fill:#840000;fill-opacity:0;stroke:#840000;stroke-width:60;stroke-linecap:round;stroke-linejoin:round;stroke-opacity:1" id="g9069"><path style="fill:none;fill-opacity:0;stroke:#840000;stroke-width:60;stroke-linecap:round;stroke-linejoin:round;stroke-opacity:1" id="path9063" d="m 47800,25300 -600,-600 h 200 -200 v 200"/><path id="path9065" d="M 46500,24000 V 23000"/><path id="path9067" d="m 46500,25000 v 1000"/></g><g style="fill:#006464;fill-opacity:0;stroke:#006464;stroke-width:60;stroke-linecap:round;stroke-linejoin:round;stroke-opacity:1" id="g9123"><text id="text9071" x="49019.332" y="24374.922" font-size="666.654" lengthAdjust="spacingAndGlyphs" opacity="0" text-anchor="middle" textLength="1036.181">D2</text><g id="g9079" class="stroked-text"><desc id="desc9073">D2</desc><path id="path9075" d="m 48650,24351 v -500 h 119 l 71,23 48,48 24,48 23,95 v 71 l -23,96 -24,47 -48,48 -71,24 h -119"/><path id="path9077" d="m 49126,23898 24,-24 47,-23 h 119 l 48,23 24,24 24,48 v 47 l -24,72 -286,286 h 310"/></g><g id="g9083" transform="rotate(-90,45500,24388.386)"><text id="text9081" x="45500" y="24638.387" font-size="666.654" lengthAdjust="spacingAndGlyphs" opacity="0" text-anchor="middle" textLength="5774.292">IR Photo Diode</text></g><g id="g9121" class="stroked-text"><desc id="desc9085">IR Photo Diode</desc><path id="path9087" d="m 45726,27126 h -500"/><path id="path9089" d="m 45726,26602 -238,167"/><path id="path9091" d="m 45726,26888 h -500 v -191 l 24,-47 23,-24 48,-24 h 71 l 48,24 24,24 24,47 v 191"/><path id="path9093" d="m 45726,26007 h -500 v -191 l 24,-47 23,-24 48,-24 h 71 l 48,24 24,24 24,47 v 191"/><path id="path9095" d="m 45726,25507 h -500"/><path id="path9097" d="m 45726,25293 h -262 l -48,23 -24,48 v 71 l 24,48 24,24"/><path id="path9099" d="m 45726,24983 -24,48 -24,24 -48,23 h -142 l -48,-23 -24,-24 -24,-48 v -71 l 24,-48 24,-24 48,-24 h 142 l 48,24 24,24 24,48 v 71"/><path id="path9101" d="m 45392,24674 v -191"/><path id="path9103" d="m 45226,24602 h 428 l 48,-24 24,-47 v -48"/><path id="path9105" d="m 45726,24245 -24,48 -24,23 -48,24 h -142 l -48,-24 -24,-23 -24,-48 v -71 l 24,-48 24,-24 48,-24 h 142 l 48,24 24,24 24,48 v 71"/><path id="path9107" d="m 45726,23483 h -500 v -119 l 24,-71 47,-48 48,-24 95,-24 h 71 l 96,24 47,24 48,48 24,71 v 119"/><path id="path9109" d="m 45726,22983 h -334"/><path id="path9111" d="m 45226,22983 24,24 23,-24 -23,-24 -24,24 h 47"/><path id="path9113" d="m 45726,22674 -24,47 -24,24 -48,24 h -142 l -48,-24 -24,-24 -24,-47 v -72 l 24,-47 24,-24 48,-24 h 142 l 48,24 24,24 24,47 v 72"/><path id="path9115" d="m 45726,22078 h -500"/><path id="path9117" d="m 45702,22078 24,48 v 95 l -24,48 -24,24 -48,23 h -142 l -48,-23 -24,-24 -24,-48 v -95 l 24,-48"/><path id="path9119" d="m 45702,21650 24,47 v 96 l -24,47 -48,24 h -190 l -48,-24 -24,-47 v -96 l 24,-47 48,-24 h 47 l 48,238"/></g></g></g><g style="fill:#006464;fill-opacity:0;stroke:#006464;stroke-width:60;stroke-linecap:round;stroke-linejoin:round;stroke-opacity:1" id="g9229" transform="translate(-29054.003,-16696)"><g style="fill:#840000;fill-opacity:0;stroke:#840000;stroke-width:60;stroke-linecap:round;stroke-linejoin:round;stroke-opacity:1" id="g9135"><path style="fill:none;fill-opacity:0;stroke:#840000;stroke-width:60;stroke-linecap:round;stroke-linejoin:round;stroke-opacity:1" id="path9129" d="m 57000,34000 h 250"/><path style="fill:none;fill-opacity:0;stroke:#840000;stroke-width:60;stroke-linecap:round;stroke-linejoin:round;stroke-opacity:1" id="path9131" d="m 57250,33750 750,-750"/><path style="fill:none;fill-opacity:0;stroke:#840000;stroke-width:60;stroke-linecap:round;stroke-linejoin:round;stroke-opacity:1" id="path9133" d="m 57250,34250 750,750 v 0"/></g><g style="fill:#840000;fill-opacity:0;stroke:#840000;stroke-width:200;stroke-linecap:round;stroke-linejoin:round;stroke-opacity:1" id="g9139"><path style="fill:none;fill-opacity:0;stroke:#840000;stroke-width:200;stroke-linecap:round;stroke-linejoin:round;stroke-opacity:1" id="path9137" d="m 57250,33250 v 1500 0"/></g><g style="fill:#840000;fill-opacity:1;stroke:#840000;stroke-width:60;stroke-linecap:round;stroke-linejoin:round;stroke-opacity:1" id="g9143"><path style="fill:#840000;fill-opacity:1;fill-rule:evenodd;stroke:#840000;stroke-width:60;stroke-linecap:round;stroke-linejoin:round;stroke-opacity:1" id="path9141" d="m 57500,34700 200,-200 200,400 z"/></g><g style="fill:#840000;fill-opacity:0;stroke:#840000;stroke-width:100;stroke-linecap:round;stroke-linejoin:round;stroke-opacity:1" id="g9147"><circle id="circle9145" cx="57500" cy="34000" r="1110"/></g><g style="fill:#840000;fill-opacity:0;stroke:#840000;stroke-width:60;stroke-linecap:round;stroke-linejoin:round;stroke-opacity:1" id="g9151"><path id="path9149" d="M 58000,33000 V 32000"/></g><g style="fill:#a90000;fill-opacity:0;stroke:#a90000;stroke-width:60;stroke-linecap:round;stroke-linejoin:round;stroke-opacity:1" id="g9165"><g id="g9155" transform="rotate(-90,58100,32500)"><text id="text9153" x="58100" y="33000" font-size="666.654" lengthAdjust="spacingAndGlyphs" opacity="0" text-anchor="middle" textLength="536.181">1</text></g><g id="g9163" class="stroked-text"><desc id="desc9157">1</desc><path id="path9159" d="m 58576,32357 v 285"/><path id="path9161" d="m 58576,32500 h -500 l 71,47 48,48 24,47"/></g></g><g style="fill:#840000;fill-opacity:0;stroke:#840000;stroke-width:60;stroke-linecap:round;stroke-linejoin:round;stroke-opacity:1" id="g9169"><path id="path9167" d="M 57000,34000 H 55000"/></g><g style="fill:#a90000;fill-opacity:0;stroke:#a90000;stroke-width:60;stroke-linecap:round;stroke-linejoin:round;stroke-opacity:1" id="g9179"><text id="text9171" x="56000" y="34600" font-size="666.654" lengthAdjust="spacingAndGlyphs" opacity="0" text-anchor="middle" textLength="536.181">2</text><g id="g9177" class="stroked-text"><desc id="desc9173">2</desc><path id="path9175" d="m 55857,34123 23,-23 48,-24 h 119 l 48,24 24,23 23,48 v 48 l -23,71 -286,286 h 309"/></g></g><g style="fill:#840000;fill-opacity:0;stroke:#840000;stroke-width:60;stroke-linecap:round;stroke-linejoin:round;stroke-opacity:1" id="g9183"><path id="path9181" d="m 58000,35000 v 1000"/></g><g style="fill:#a90000;fill-opacity:0;stroke:#a90000;stroke-width:60;stroke-linecap:round;stroke-linejoin:round;stroke-opacity:1" id="g9195"><g id="g9187" transform="rotate(-90,58100,35500)"><text id="text9185" x="58100" y="36000" font-size="666.654" lengthAdjust="spacingAndGlyphs" opacity="0" text-anchor="middle" textLength="536.181">3</text></g><g id="g9193" class="stroked-text"><desc id="desc9189">3</desc><path id="path9191" d="m 58076,35666 v -309 l 190,166 v -71 l 24,-48 24,-24 47,-23 h 119 l 48,23 24,24 24,48 v 143 l -24,47 -24,24"/></g></g><g style="fill:#006464;fill-opacity:0;stroke:#006464;stroke-width:60;stroke-linecap:round;stroke-linejoin:round;stroke-opacity:1" id="g9227"><text id="text9197" x="59531.262" y="33749.922" font-size="666.654" lengthAdjust="spacingAndGlyphs" opacity="0" text-anchor="middle" textLength="1060">Q3</text><g id="g9207" class="stroked-text"><desc id="desc9199">Q3</desc><path id="path9201" d="m 59483,33773 -48,-24 -47,-47 -72,-72 -47,-23 h -48"/><path id="path9203" d="m 59245,33726 -48,-24 -47,-48 -24,-95 v -167 l 24,-95 47,-48 48,-23 h 95 l 48,23 47,48 24,95 v 167 l -24,95 -47,48 -48,24 h -95"/><path id="path9205" d="m 59626,33226 h 309 l -166,190 h 71 l 48,24 24,24 23,47 v 119 l -23,48 -24,24 -48,24 h -143 l -47,-24 -24,-24"/></g><text id="text9209" x="60245.551" y="34749.922" font-size="666.654" lengthAdjust="spacingAndGlyphs" opacity="0" text-anchor="middle" textLength="2488.583">BC547</text><g id="g9225" class="stroked-text"><desc id="desc9211">BC547</desc><path id="path9213" d="m 59316,34464 72,23 24,24 24,48 v 71 l -24,48 -24,24 -48,24 h -190 v -500 h 166 l 48,23 24,24 24,48 v 47 l -24,48 -24,24 -48,24 h -166"/><path id="path9215" d="m 59936,34678 -24,24 -72,24 h -47 l -72,-24 -47,-48 -24,-47 -24,-96 v -71 l 24,-95 24,-48 47,-48 72,-23 h 47 l 72,23 24,24"/><path id="path9217" d="m 60388,34226 h -238 l -24,238 24,-24 47,-24 h 119 l 48,24 24,24 24,47 v 119 l -24,48 -24,24 -48,24 h -119 l -47,-24 -24,-24"/><path id="path9219" d="m 60840,34392 v 334"/><path id="path9221" d="m 60721,34202 -119,357 h 310"/><path id="path9223" d="m 61055,34226 h 333 l -214,500"/></g></g></g><g style="fill:#006464;fill-opacity:0;stroke:#006464;stroke-width:60;stroke-linecap:round;stroke-linejoin:round;stroke-opacity:1" id="g9279" transform="translate(-29054.003,-16696)"><g style="fill:#840000;fill-opacity:0;stroke:#840000;stroke-width:100;stroke-linecap:round;stroke-linejoin:round;stroke-opacity:1" id="g9237"><rect id="rect9235" width="800" height="2000" x="51100" y="23500" rx="0"/></g><g style="fill:#840000;fill-opacity:0;stroke:#840000;stroke-width:60;stroke-linecap:round;stroke-linejoin:round;stroke-opacity:1" id="g9243"><path id="path9239" d="m 51500,23500 v -500"/><path id="path9241" d="m 51500,25500 v 500"/></g><g style="fill:#006464;fill-opacity:0;stroke:#006464;stroke-width:60;stroke-linecap:round;stroke-linejoin:round;stroke-opacity:1" id="g9277"><text id="text9245" x="53019.332" y="24249.922" font-size="666.654" lengthAdjust="spacingAndGlyphs" opacity="0" text-anchor="middle" textLength="1036.181">R4</text><g id="g9257" class="stroked-text"><desc id="desc9247">R4</desc><path id="path9249" d="m 52935,24226 -166,-239"/><path id="path9251" d="m 52650,24226 v -500 h 190 l 48,23 24,24 23,48 v 71 l -23,48 -24,24 -48,23 h -190"/><path id="path9253" d="m 53364,23892 v 334"/><path id="path9255" d="m 53245,23702 -119,357 h 309"/></g><text id="text9259" x="53209.805" y="25249.922" font-size="666.654" lengthAdjust="spacingAndGlyphs" opacity="0" text-anchor="middle" textLength="1417.126">10k</text><g id="g9275" class="stroked-text"><desc id="desc9261">10k</desc><path id="path9263" d="m 52912,25226 h -286"/><path id="path9265" d="m 52769,25226 v -500 l -48,71 -47,48 -48,23"/><path id="path9267" d="m 53221,24726 h 48 l 47,23 24,24 24,48 24,95 v 119 l -24,95 -24,48 -24,24 -47,24 h -48 l -47,-24 -24,-24 -24,-48 -24,-95 v -119 l 24,-95 24,-48 24,-24 47,-23"/><path id="path9269" d="m 53602,25226 v -500"/><path id="path9271" d="m 53650,25035 143,191"/><path id="path9273" d="m 53793,24892 -191,191"/></g></g></g><g style="fill:#006464;fill-opacity:0;stroke:#006464;stroke-width:60;stroke-linecap:round;stroke-linejoin:round;stroke-opacity:1" id="g9327" transform="translate(-29054.003,-16696)"><g style="fill:#840000;fill-opacity:0;stroke:#840000;stroke-width:100;stroke-linecap:round;stroke-linejoin:round;stroke-opacity:1" id="g9287"><rect id="rect9285" width="800" height="2000" x="57600" y="23500" rx="0"/></g><g style="fill:#840000;fill-opacity:0;stroke:#840000;stroke-width:60;stroke-linecap:round;stroke-linejoin:round;stroke-opacity:1" id="g9293"><path id="path9289" d="m 58000,23500 v -500"/><path id="path9291" d="m 58000,25500 v 500"/></g><g style="fill:#006464;fill-opacity:0;stroke:#006464;stroke-width:60;stroke-linecap:round;stroke-linejoin:round;stroke-opacity:1" id="g9325"><text id="text9295" x="59519.332" y="24249.922" font-size="666.654" lengthAdjust="spacingAndGlyphs" opacity="0" text-anchor="middle" textLength="1036.181">R5</text><g id="g9305" class="stroked-text"><desc id="desc9297">R5</desc><path id="path9299" d="m 59435,24226 -166,-239"/><path id="path9301" d="m 59150,24226 v -500 h 190 l 48,23 24,24 23,48 v 71 l -23,48 -24,24 -48,23 h -190"/><path id="path9303" d="m 59888,23726 h -238 l -24,238 24,-24 47,-24 h 119 l 48,24 24,24 24,47 v 119 l -24,48 -24,24 -48,24 h -119 l -47,-24 -24,-24"/></g><text id="text9307" x="59709.805" y="25249.922" font-size="666.654" lengthAdjust="spacingAndGlyphs" opacity="0" text-anchor="middle" textLength="1417.126">10k</text><g id="g9323" class="stroked-text"><desc id="desc9309">10k</desc><path id="path9311" d="m 59412,25226 h -286"/><path id="path9313" d="m 59269,25226 v -500 l -48,71 -47,48 -48,23"/><path id="path9315" d="m 59721,24726 h 48 l 47,23 24,24 24,48 24,95 v 119 l -24,95 -24,48 -24,24 -47,24 h -48 l -47,-24 -24,-24 -24,-48 -24,-95 v -119 l 24,-95 24,-48 24,-24 47,-23"/><path id="path9317" d="m 60102,25226 v -500"/><path id="path9319" d="m 60150,25035 143,191"/><path id="path9321" d="m 60293,24892 -191,191"/></g></g></g><g style="fill:#006464;fill-opacity:0;stroke:#006464;stroke-width:60;stroke-linecap:round;stroke-linejoin:round;stroke-opacity:1" id="g9389" transform="translate(-29054.003,-16696)"><g style="fill:#840000;fill-opacity:0;stroke:#840000;stroke-width:100;stroke-linecap:round;stroke-linejoin:round;stroke-opacity:1" id="g9335"><path style="fill:none;fill-opacity:0;stroke:#840000;stroke-width:100;stroke-linecap:round;stroke-linejoin:round;stroke-opacity:1" id="path9333" d="M 33000,36000 H 32000"/></g><g style="fill:#840000;fill-opacity:0;stroke:#840000;stroke-width:60;stroke-linecap:round;stroke-linejoin:round;stroke-opacity:1" id="g9339"><path style="fill:none;fill-opacity:0;stroke:#840000;stroke-width:60;stroke-linecap:round;stroke-linejoin:round;stroke-opacity:1" id="path9337" d="M 32500,36000 V 35000"/></g><g style="fill:#840000;fill-opacity:0;stroke:#840000;stroke-width:100;stroke-linecap:round;stroke-linejoin:round;stroke-opacity:1" id="g9343"><path style="fill:none;fill-opacity:0;stroke:#840000;stroke-width:100;stroke-linecap:round;stroke-linejoin:round;stroke-opacity:1" id="path9341" d="m 33000,35000 h -1000 l 500,1000 z"/></g><g style="fill:#840000;fill-opacity:0;stroke:#840000;stroke-width:60;stroke-linecap:round;stroke-linejoin:round;stroke-opacity:1" id="g9353"><path style="fill:none;fill-opacity:0;stroke:#840000;stroke-width:60;stroke-linecap:round;stroke-linejoin:round;stroke-opacity:1" id="path9345" d="m 32800,36700 600,600 v -300 300 h -300"/><path style="fill:none;fill-opacity:0;stroke:#840000;stroke-width:60;stroke-linecap:round;stroke-linejoin:round;stroke-opacity:1" id="path9347" d="m 32800,36200 600,600 v -300 300 h -300"/><path id="path9349" d="m 32500,36000 v 1000"/><path id="path9351" d="M 32500,35000 V 34000"/></g><g style="fill:#006464;fill-opacity:0;stroke:#006464;stroke-width:60;stroke-linecap:round;stroke-linejoin:round;stroke-opacity:1" id="g9387"><text id="text9355" x="34519.332" y="35874.961" font-size="666.654" lengthAdjust="spacingAndGlyphs" opacity="0" text-anchor="middle" textLength="1036.181">D1</text><g id="g9365" class="stroked-text"><desc id="desc9357">D1</desc><path id="path9359" d="m 34150,35851 v -500 h 119 l 71,23 48,48 24,48 23,95 v 71 l -23,96 -24,47 -48,48 -71,24 h -119"/><path id="path9361" d="m 34912,35851 h -286"/><path id="path9363" d="m 34769,35851 v -500 l -48,71 -47,48 -48,23"/></g><text id="text9367" x="35269.332" y="36874.961" font-size="666.654" lengthAdjust="spacingAndGlyphs" opacity="0" text-anchor="middle" textLength="2536.181">IR LED</text><g id="g9385" class="stroked-text"><desc id="desc9369">IR LED</desc><path id="path9371" d="m 34150,36851 v -500"/><path id="path9373" d="m 34674,36851 -167,-238"/><path id="path9375" d="m 34388,36851 v -500 h 190 l 48,23 24,24 24,48 v 71 l -24,48 -24,24 -48,24 h -190"/><path id="path9377" d="m 35507,36851 h -238 v -500"/><path id="path9379" d="m 35674,36589 h 166"/><path id="path9381" d="m 35912,36851 h -238 v -500 h 238"/><path id="path9383" d="m 36126,36851 v -500 h 119 l 71,23 48,48 24,48 24,95 v 71 l -24,96 -24,47 -48,48 -71,24 h -119"/></g></g></g><g style="fill:#006464;fill-opacity:0;stroke:#006464;stroke-width:60;stroke-linecap:round;stroke-linejoin:round;stroke-opacity:1" id="g9435" transform="translate(-29054.003,-16696)"><g style="fill:#840000;fill-opacity:0;stroke:#840000;stroke-width:100;stroke-linecap:round;stroke-linejoin:round;stroke-opacity:1" id="g9397"><rect id="rect9395" width="800" height="2000" x="32100" y="29500" rx="0"/></g><g style="fill:#840000;fill-opacity:0;stroke:#840000;stroke-width:60;stroke-linecap:round;stroke-linejoin:round;stroke-opacity:1" id="g9403"><path id="path9399" d="m 32500,29500 v -500"/><path id="path9401" d="m 32500,31500 v 500"/></g><g style="fill:#006464;fill-opacity:0;stroke:#006464;stroke-width:60;stroke-linecap:round;stroke-linejoin:round;stroke-opacity:1" id="g9433"><text id="text9405" x="34019.332" y="30249.922" font-size="666.654" lengthAdjust="spacingAndGlyphs" opacity="0" text-anchor="middle" textLength="1036.181">R1</text><g id="g9417" class="stroked-text"><desc id="desc9407">R1</desc><path id="path9409" d="m 33935,30226 -166,-239"/><path id="path9411" d="m 33650,30226 v -500 h 190 l 48,23 24,24 23,48 v 71 l -23,48 -24,24 -48,23 h -190"/><path id="path9413" d="m 34412,30226 h -286"/><path id="path9415" d="m 34269,30226 v -500 l -48,71 -47,48 -48,23"/></g><text id="text9419" x="34245.551" y="31249.922" font-size="666.654" lengthAdjust="spacingAndGlyphs" opacity="0" text-anchor="middle" textLength="1488.583">100</text><g id="g9431" class="stroked-text"><desc id="desc9421">100</desc><path id="path9423" d="m 33912,31226 h -286"/><path id="path9425" d="m 33769,31226 v -500 l -48,71 -47,48 -48,23"/><path id="path9427" d="m 34221,30726 h 48 l 47,23 24,24 24,48 24,95 v 119 l -24,95 -24,48 -24,24 -47,24 h -48 l -47,-24 -24,-24 -24,-48 -24,-95 v -119 l 24,-95 24,-48 24,-24 47,-23"/><path id="path9429" d="m 34697,30726 h 48 l 48,23 23,24 24,48 24,95 v 119 l -24,95 -24,48 -23,24 -48,24 h -48 l -47,-24 -24,-24 -24,-48 -24,-95 v -119 l 24,-95 24,-48 24,-24 47,-23"/></g></g></g><g style="fill:#006464;fill-opacity:0;stroke:#006464;stroke-width:60;stroke-linecap:round;stroke-linejoin:round;stroke-opacity:1" id="g9537" transform="translate(-29054.003,-16696)"><g style="fill:#840000;fill-opacity:0;stroke:#840000;stroke-width:60;stroke-linecap:round;stroke-linejoin:round;stroke-opacity:1" id="g9443"><path style="fill:none;fill-opacity:0;stroke:#840000;stroke-width:60;stroke-linecap:round;stroke-linejoin:round;stroke-opacity:1" id="path9439" d="m 33250,25250 -750,750"/><path style="fill:none;fill-opacity:0;stroke:#840000;stroke-width:60;stroke-linecap:round;stroke-linejoin:round;stroke-opacity:1" id="path9441" d="m 33250,24750 -750,-750 v 0"/></g><g style="fill:#840000;fill-opacity:0;stroke:#840000;stroke-width:200;stroke-linecap:round;stroke-linejoin:round;stroke-opacity:1" id="g9447"><path style="fill:none;fill-opacity:0;stroke:#840000;stroke-width:200;stroke-linecap:round;stroke-linejoin:round;stroke-opacity:1" id="path9445" d="m 33250,25750 v -1500 0"/></g><g style="fill:#840000;fill-opacity:1;stroke:#840000;stroke-width:60;stroke-linecap:round;stroke-linejoin:round;stroke-opacity:1" id="g9451"><path style="fill:#840000;fill-opacity:1;fill-rule:evenodd;stroke:#840000;stroke-width:60;stroke-linecap:round;stroke-linejoin:round;stroke-opacity:1" id="path9449" d="m 32600,24300 200,-200 200,400 z"/></g><g style="fill:#840000;fill-opacity:0;stroke:#840000;stroke-width:100;stroke-linecap:round;stroke-linejoin:round;stroke-opacity:1" id="g9455"><circle id="circle9453" cx="33000" cy="25000" r="1110"/></g><g style="fill:#840000;fill-opacity:0;stroke:#840000;stroke-width:60;stroke-linecap:round;stroke-linejoin:round;stroke-opacity:1" id="g9459"><path id="path9457" d="m 32500,26000 v 1000"/></g><g style="fill:#a90000;fill-opacity:0;stroke:#a90000;stroke-width:60;stroke-linecap:round;stroke-linejoin:round;stroke-opacity:1" id="g9473"><g id="g9463" transform="rotate(-90,32600,26500)"><text id="text9461" x="32600" y="27000" font-size="666.654" lengthAdjust="spacingAndGlyphs" opacity="0" text-anchor="middle" textLength="536.181">1</text></g><g id="g9471" class="stroked-text"><desc id="desc9465">1</desc><path id="path9467" d="m 33076,26357 v 285"/><path id="path9469" d="m 33076,26500 h -500 l 71,47 48,48 24,47"/></g></g><g style="fill:#840000;fill-opacity:0;stroke:#840000;stroke-width:60;stroke-linecap:round;stroke-linejoin:round;stroke-opacity:1" id="g9477"><path id="path9475" d="m 33250,25000 h 2250"/></g><g style="fill:#a90000;fill-opacity:0;stroke:#a90000;stroke-width:60;stroke-linecap:round;stroke-linejoin:round;stroke-opacity:1" id="g9487"><text id="text9479" x="34375" y="25600" font-size="666.654" lengthAdjust="spacingAndGlyphs" opacity="0" text-anchor="middle" textLength="536.181">2</text><g id="g9485" class="stroked-text"><desc id="desc9481">2</desc><path id="path9483" d="m 34232,25123 23,-23 48,-24 h 119 l 48,24 24,23 23,48 v 48 l -23,71 -286,286 h 309"/></g></g><g style="fill:#840000;fill-opacity:0;stroke:#840000;stroke-width:60;stroke-linecap:round;stroke-linejoin:round;stroke-opacity:1" id="g9491"><path id="path9489" d="M 32500,24000 V 23000"/></g><g style="fill:#a90000;fill-opacity:0;stroke:#a90000;stroke-width:60;stroke-linecap:round;stroke-linejoin:round;stroke-opacity:1" id="g9503"><g id="g9495" transform="rotate(-90,32600,23500)"><text id="text9493" x="32600" y="24000" font-size="666.654" lengthAdjust="spacingAndGlyphs" opacity="0" text-anchor="middle" textLength="536.181">3</text></g><g id="g9501" class="stroked-text"><desc id="desc9497">3</desc><path id="path9499" d="m 32576,23666 v -309 l 190,166 v -71 l 24,-48 24,-24 47,-23 h 119 l 48,23 24,24 24,48 v 143 l -24,47 -24,24"/></g></g><g style="fill:#006464;fill-opacity:0;stroke:#006464;stroke-width:60;stroke-linecap:round;stroke-linejoin:round;stroke-opacity:1" id="g9535"><text id="text9505" x="30968.74" y="24749.961" font-size="666.654" lengthAdjust="spacingAndGlyphs" opacity="0" text-anchor="middle" textLength="1060">Q1</text><g id="g9517" class="stroked-text"><desc id="desc9507">Q1</desc><path id="path9509" d="m 30921,24773 -48,-24 -48,-47 -71,-72 -48,-23 h -47"/><path id="path9511" d="m 30682,24726 -47,-24 -48,-48 -24,-95 v -167 l 24,-95 48,-48 47,-23 h 96 l 47,23 48,48 24,95 v 167 l -24,95 -48,48 -47,24 h -96"/><path id="path9513" d="m 31373,24726 h -286"/><path id="path9515" d="m 31230,24726 v -500 l -48,71 -47,48 -48,23"/></g><text id="text9519" x="30254.449" y="25749.961" font-size="666.654" lengthAdjust="spacingAndGlyphs" opacity="0" text-anchor="middle" textLength="2488.583">BC557</text><g id="g9533" class="stroked-text"><desc id="desc9521">BC557</desc><path id="path9523" d="m 29325,25464 72,24 24,23 23,48 v 71 l -23,48 -24,24 -48,24 h -190 v -500 h 166 l 48,23 24,24 24,48 v 47 l -24,48 -24,24 -48,24 h -166"/><path id="path9525" d="m 29944,25678 -23,24 -72,24 h -47 l -72,-24 -48,-48 -23,-47 -24,-96 v -71 l 24,-95 23,-48 48,-48 72,-23 h 47 l 72,23 23,24"/><path id="path9527" d="m 30397,25226 h -238 l -24,238 24,-24 47,-24 h 119 l 48,24 24,24 24,47 v 119 l -24,48 -24,24 -48,24 h -119 l -47,-24 -24,-24"/><path id="path9529" d="m 30873,25226 h -238 l -24,238 24,-24 47,-24 h 120 l 47,24 24,24 24,47 v 119 l -24,48 -24,24 -47,24 h -120 l -47,-24 -24,-24"/><path id="path9531" d="m 31063,25226 h 334 l -215,500"/></g></g></g><g style="fill:#006464;fill-opacity:0;stroke:#006464;stroke-width:60;stroke-linecap:round;stroke-linejoin:round;stroke-opacity:1" id="g9559" transform="translate(-29054.003,-16696)"><g style="fill:#840000;fill-opacity:0;stroke:#840000;stroke-width:60;stroke-linecap:round;stroke-linejoin:round;stroke-opacity:1" id="g9543"><path style="fill:none;fill-opacity:0;stroke:#840000;stroke-width:60;stroke-linecap:round;stroke-linejoin:round;stroke-opacity:1" id="path9541" d="m 46500,40500 v 500 h 500 l -500,500 -500,-500 h 500"/></g><g style="fill:#006464;fill-opacity:0;stroke:#006464;stroke-width:60;stroke-linecap:round;stroke-linejoin:round;stroke-opacity:1" id="g9557"><text id="text9545" x="46500" y="42749.961" font-size="666.654" lengthAdjust="spacingAndGlyphs" opacity="0" text-anchor="middle" textLength="1583.819">GND</text><g id="g9555" class="stroked-text"><desc id="desc9547">GND</desc><path id="path9549" d="m 46119,42249 -48,-23 h -71 l -72,23 -48,48 -23,48 -24,95 v 71 l 24,96 23,47 48,48 72,24 h 47 l 72,-24 23,-24 v -167 h -95"/><path id="path9551" d="m 46357,42726 v -500 l 285,500 v -500"/><path id="path9553" d="m 46880,42726 v -500 h 120 l 71,23 48,48 23,48 24,95 v 71 l -24,96 -23,47 -48,48 -71,24 h -120"/></g></g></g><g style="fill:#006464;fill-opacity:0;stroke:#006464;stroke-width:60;stroke-linecap:round;stroke-linejoin:round;stroke-opacity:1" id="g9605" transform="translate(-29054.003,-16696)"><g style="fill:#840000;fill-opacity:0;stroke:#840000;stroke-width:100;stroke-linecap:round;stroke-linejoin:round;stroke-opacity:1" id="g9567"><rect id="rect9565" width="2000" height="800" x="38500" y="24600" rx="0"/></g><g style="fill:#840000;fill-opacity:0;stroke:#840000;stroke-width:60;stroke-linecap:round;stroke-linejoin:round;stroke-opacity:1" id="g9573"><path id="path9569" d="m 40500,25000 h 500"/><path id="path9571" d="m 38500,25000 h -500"/></g><g style="fill:#006464;fill-opacity:0;stroke:#006464;stroke-width:60;stroke-linecap:round;stroke-linejoin:round;stroke-opacity:1" id="g9603"><text id="text9575" x="39500" y="22749.961" font-size="666.654" lengthAdjust="spacingAndGlyphs" opacity="0" text-anchor="middle" textLength="1036.181">R2</text><g id="g9585" class="stroked-text"><desc id="desc9577">R2</desc><path id="path9579" d="m 39416,22726 -166,-238"/><path id="path9581" d="m 39130,22726 v -500 h 191 l 48,23 23,24 24,48 v 71 l -24,48 -23,24 -48,24 h -191"/><path id="path9583" d="m 39607,22273 23,-24 48,-23 h 119 l 48,23 24,24 23,48 v 47 l -23,72 -286,286 h 309"/></g><text id="text9587" x="39500" y="23749.961" font-size="666.654" lengthAdjust="spacingAndGlyphs" opacity="0" text-anchor="middle" textLength="1417.126">39k</text><g id="g9601" class="stroked-text"><desc id="desc9589">39k</desc><path id="path9591" d="m 38892,23226 h 310 l -167,190 h 72 l 47,24 24,24 24,47 v 119 l -24,48 -24,24 -47,24 h -143 l -48,-24 -24,-24"/><path id="path9593" d="m 39440,23726 h 95 l 48,-24 24,-24 47,-71 24,-96 v -190 l -24,-48 -24,-24 -47,-23 h -95 l -48,23 -24,24 -24,48 v 119 l 24,48 24,23 48,24 h 95 l 47,-24 24,-23 24,-48"/><path id="path9595" d="m 39892,23726 v -500"/><path id="path9597" d="m 39940,23535 143,191"/><path id="path9599" d="m 40083,23392 -191,191"/></g></g></g><g style="fill:#840000;fill-opacity:0;stroke:#840000;stroke-width:60;stroke-linecap:round;stroke-linejoin:round;stroke-opacity:1" id="g9627" transform="translate(-29054.003,-16696)"><text id="text9611" x="60562.52" y="30285.748" font-size="666.654" lengthAdjust="spacingAndGlyphs" opacity="0" text-anchor="start" textLength="1036.181">RX</text><g id="g9623" class="stroked-text"><desc id="desc9613">RX</desc><path id="path9615" d="m 60997,30261 -167,-238"/><path id="path9617" d="m 60711,30261 v -500 h 191 l 47,24 24,24 24,48 v 71 l -24,48 -24,24 -47,23 h -191"/><path id="path9619" d="m 61163,29761 334,500"/><path id="path9621" d="m 61497,29761 -334,500"/></g><path style="fill:none;fill-opacity:0;stroke:#840000;stroke-width:60;stroke-linecap:round;stroke-linejoin:round;stroke-opacity:1" id="path9625" d="m 60000,30000 437.52,500.157 h 1476.378 V 30000 29499.843 H 60437.52 Z"/></g><g style="fill:#840000;fill-opacity:0;stroke:#840000;stroke-width:60;stroke-linecap:round;stroke-linejoin:round;stroke-opacity:1" id="g9647" transform="translate(-29054.003,-16696)"><text id="text9631" x="41437.48" y="30285.748" font-size="666.654" lengthAdjust="spacingAndGlyphs" opacity="0" text-anchor="end" textLength="919.646">TX</text><g id="g9643" class="stroked-text"><desc id="desc9633">TX</desc><path id="path9635" d="m 40597,29761 h 286"/><path id="path9637" d="m 40740,30261 v -500"/><path id="path9639" d="m 41002,29761 334,500"/><path id="path9641" d="m 41336,29761 -334,500"/></g><path style="fill:none;fill-opacity:0;stroke:#840000;stroke-width:60;stroke-linecap:round;stroke-linejoin:round;stroke-opacity:1" id="path9645" d="m 42000,30000 -437.52,-500.157 h -1357.323 v 500.157 500.157 h 1357.323 z"/></g><g style="fill:#0000c2;fill-opacity:0;stroke:#0000c2;stroke-width:60;stroke-linecap:round;stroke-linejoin:round;stroke-opacity:1" id="g9735" transform="translate(-29054.003,-16696)"><text id="text9653" x="33000" y="39862.48" font-size="666.654" lengthAdjust="spacingAndGlyphs" opacity="0" text-anchor="start" textLength="12800.63">IR LED and Photo Diode : 940nm</text><g id="g9733" class="stroked-text"><desc id="desc9655">IR LED and Photo Diode : 940nm</desc><path id="path9657" d="m 33149,39838 v -500"/><path id="path9659" d="m 33672,39838 -166,-238"/><path id="path9661" d="m 33387,39838 v -500 h 190 l 48,24 24,24 23,47 v 72 l -23,47 -24,24 -48,24 h -190"/><path id="path9663" d="m 34506,39838 h -238 v -500"/><path id="path9665" d="m 34672,39576 h 167"/><path id="path9667" d="m 34910,39838 h -238 v -500 h 238"/><path id="path9669" d="m 35125,39838 v -500 h 119 l 71,24 48,48 24,47 23,95 v 72 l -23,95 -24,48 -48,47 -71,24 h -119"/><path id="path9671" d="m 36220,39838 v -262 l -24,-47 -47,-24 h -96 l -47,24"/><path id="path9673" d="m 36220,39814 -48,24 h -119 l -47,-24 -24,-47 v -48 l 24,-48 47,-23 h 119 l 48,-24"/><path id="path9675" d="m 36458,39505 v 333"/><path id="path9677" d="m 36458,39552 24,-23 48,-24 h 71 l 48,24 23,47 v 262"/><path id="path9679" d="m 37125,39838 v -500"/><path id="path9681" d="m 37125,39814 -48,24 h -95 l -48,-24 -24,-23 -23,-48 v -143 l 23,-48 24,-23 48,-24 h 95 l 48,24"/><path id="path9683" d="m 37744,39838 v -500 h 190 l 48,24 24,24 24,47 v 72 l -24,47 -24,24 -48,24 h -190"/><path id="path9685" d="m 38244,39838 v -500"/><path id="path9687" d="m 38458,39838 v -262 l -24,-47 -47,-24 h -72 l -47,24 -24,23"/><path id="path9689" d="m 38768,39838 -48,-24 -24,-23 -24,-48 v -143 l 24,-48 24,-23 48,-24 h 71 l 48,24 23,23 24,48 v 143 l -24,48 -23,23 -48,24 h -71"/><path id="path9691" d="m 39077,39505 h 191"/><path id="path9693" d="m 39149,39338 v 429 l 23,47 48,24 h 48"/><path id="path9695" d="m 39506,39838 -48,-24 -24,-23 -24,-48 v -143 l 24,-48 24,-23 48,-24 h 71 l 48,24 24,23 23,48 v 143 l -23,48 -24,23 -48,24 h -71"/><path id="path9697" d="m 40268,39838 v -500 h 119 l 71,24 48,48 24,47 23,95 v 72 l -23,95 -24,48 -48,47 -71,24 h -119"/><path id="path9699" d="m 40768,39838 v -333"/><path id="path9701" d="m 40768,39338 -24,24 24,24 23,-24 -23,-24 v 48"/><path id="path9703" d="m 41077,39838 -47,-24 -24,-23 -24,-48 v -143 l 24,-48 24,-23 47,-24 h 72 l 47,24 24,23 24,48 v 143 l -24,48 -24,23 -47,24 h -72"/><path id="path9705" d="m 41672,39838 v -500"/><path id="path9707" d="m 41672,39814 -47,24 h -95 l -48,-24 -24,-23 -24,-48 v -143 l 24,-48 24,-23 48,-24 h 95 l 47,24"/><path id="path9709" d="m 42101,39814 -48,24 h -95 l -48,-24 -23,-47 v -191 l 23,-47 48,-24 h 95 l 48,24 24,47 v 48 l -238,47"/><path id="path9711" d="m 42720,39791 24,23 -24,24 -24,-24 24,-23 v 47"/><path id="path9713" d="m 42720,39529 24,23 -24,24 -24,-24 24,-23 v 47"/><path id="path9715" d="m 43363,39838 h 95 l 48,-24 24,-23 47,-72 24,-95 v -191 l -24,-47 -24,-24 -47,-24 h -96 l -47,24 -24,24 -24,47 v 119 l 24,48 24,24 47,24 h 96 l 47,-24 24,-24 24,-48"/><path id="path9717" d="m 44030,39505 v 333"/><path id="path9719" d="m 43910,39314 -119,357 h 310"/><path id="path9721" d="m 44387,39338 h 47 l 48,24 24,24 24,47 23,96 v 119 l -23,95 -24,48 -24,23 -48,24 h -47 l -48,-24 -24,-23 -24,-48 -23,-95 v -119 l 23,-96 24,-47 24,-24 48,-24"/><path id="path9723" d="m 44768,39505 v 333"/><path id="path9725" d="m 44768,39552 23,-23 48,-24 h 71 l 48,24 24,47 v 262"/><path id="path9727" d="m 45220,39838 v -333"/><path id="path9729" d="m 45220,39552 24,-23 47,-24 h 72 l 47,24 24,47 v 262"/><path id="path9731" d="m 45434,39576 24,-47 48,-24 h 71 l 48,24 24,47 v 262"/></g></g><g style="fill:#0000c2;fill-opacity:0;stroke:#0000c2;stroke-width:60;stroke-linecap:round;stroke-linejoin:round;stroke-opacity:1" id="g9801" transform="translate(-29054.003,-16696)"><text id="text9739" x="33000" y="19862.48" font-size="666.654" lengthAdjust="spacingAndGlyphs" opacity="0" text-anchor="start" textLength="7202.874">Optical transceiver</text><g id="g9799" class="stroked-text"><desc id="desc9741">Optical transceiver</desc><path id="path9743" d="m 33244,19338 h 95 l 48,24 47,48 24,95 v 166 l -24,96 -47,47 -48,24 h -95 l -48,-24 -47,-47 -24,-96 v -166 l 24,-95 47,-48 48,-24"/><path id="path9745" d="m 33672,19505 v 500"/><path id="path9747" d="m 33672,19529 48,-24 h 95 l 48,24 24,23 23,48 v 143 l -23,48 -24,23 -48,24 h -95 l -48,-24"/><path id="path9749" d="m 34053,19505 h 191"/><path id="path9751" d="m 34125,19338 v 429 l 24,47 47,24 h 48"/><path id="path9753" d="m 34410,19838 v -333"/><path id="path9755" d="m 34410,19338 -23,24 23,24 24,-24 -24,-24 v 48"/><path id="path9757" d="m 34863,19814 -48,24 h -95 l -48,-24 -23,-23 -24,-48 v -143 l 24,-48 23,-23 48,-24 h 95 l 48,24"/><path id="path9759" d="m 35291,19838 v -262 l -23,-47 -48,-24 h -95 l -48,24"/><path id="path9761" d="m 35291,19814 -47,24 h -119 l -48,-24 -24,-47 v -48 l 24,-48 48,-23 h 119 l 47,-24"/><path id="path9763" d="m 35601,19838 -48,-24 -23,-47 v -429"/><path id="path9765" d="m 36101,19505 h 190"/><path id="path9767" d="m 36172,19338 v 429 l 24,47 48,24 h 47"/><path id="path9769" d="m 36458,19838 v -333"/><path id="path9771" d="m 36458,19600 24,-48 24,-23 47,-24 h 48"/><path id="path9773" d="m 36982,19838 v -262 l -24,-47 -48,-24 h -95 l -47,24"/><path id="path9775" d="m 36982,19814 -48,24 h -119 l -47,-24 -24,-47 v -48 l 24,-48 47,-23 h 119 l 48,-24"/><path id="path9777" d="m 37220,19505 v 333"/><path id="path9779" d="m 37220,19552 24,-23 47,-24 h 72 l 47,24 24,47 v 262"/><path id="path9781" d="m 37649,19814 47,24 h 95 l 48,-24 24,-47 v -24 l -24,-48 -48,-24 h -71 l -48,-23 -23,-48 v -24 l 23,-47 48,-24 h 71 l 48,24"/><path id="path9783" d="m 38291,19814 -47,24 h -95 l -48,-24 -24,-23 -24,-48 v -143 l 24,-48 24,-23 48,-24 h 95 l 47,24"/><path id="path9785" d="m 38696,19814 -47,24 h -96 l -47,-24 -24,-47 v -191 l 24,-47 47,-24 h 96 l 47,24 24,47 v 48 l -238,47"/><path id="path9787" d="m 38934,19838 v -333"/><path id="path9789" d="m 38934,19338 -24,24 24,24 24,-24 -24,-24 v 48"/><path id="path9791" d="m 39125,19505 119,333 119,-333"/><path id="path9793" d="m 39744,19814 -48,24 h -95 l -48,-24 -23,-47 v -191 l 23,-47 48,-24 h 95 l 48,24 24,47 v 48 l -238,47"/><path id="path9795" d="m 39982,19838 v -333"/><path id="path9797" d="m 39982,19600 24,-48 24,-23 47,-24 h 48"/></g></g><g style="fill:#009600;fill-opacity:0;stroke:#009600;stroke-width:60;stroke-linecap:round;stroke-linejoin:round;stroke-opacity:1" id="g9865" transform="translate(-29054.003,-16696)"><path id="path9803" d="m 41000,25000 h 2500"/><path id="path9805" d="m 43500,25000 v 5000"/><path id="path9807" d="m 46500,26000 v 4000"/><path id="path9809" d="m 43500,30000 h 3000"/><path id="path9811" d="m 42000,30000 h 1500"/><path id="path9813" d="m 51500,21000 v 2000"/><path id="path9815" d="m 58000,21000 v 2000"/><path id="path9817" d="m 51500,26000 v 2000"/><path id="path9819" d="m 58000,26000 v 4000"/><path id="path9821" d="m 51500,21000 h 6500"/><path id="path9823" d="m 46500,21000 h 5000"/><path id="path9825" d="m 46500,19000 v 2000"/><path id="path9827" d="m 32500,37000 v 1500"/><path id="path9829" d="M 32500,38500 H 46500"/><path id="path9831" d="m 32500,32000 v 2000"/><path id="path9833" d="m 46500,25500 v 500"/><path id="path9835" d="m 58000,36000 v 2500"/><path id="path9837" d="m 58000,30000 h 2000"/><path id="path9839" d="m 58000,30000 v 2000"/><path id="path9841" d="m 46500,38500 v 2000"/><path id="path9843" d="m 51500,32000 v 2000"/><path id="path9845" d="m 51500,34000 h 3500"/><path id="path9847" d="M 58000,38500 H 46500"/><path id="path9849" d="M 48500,30000 H 46500"/><path id="path9851" d="m 32500,27000 v 2000"/><path id="path9853" d="M 46500,38500 V 35500"/><path id="path9855" d="m 35500,25000 h 2500"/><path id="path9857" d="M 32500,23000 V 21000"/><path id="path9859" d="m 46500,30000 v 2500"/><path id="path9861" d="m 46500,21000 v 2000"/><path id="path9863" d="M 32500,21000 H 46500"/></g><g style="fill:#009600;fill-opacity:1;stroke:#009600;stroke-width:60;stroke-linecap:round;stroke-linejoin:round;stroke-opacity:1" id="g9881" transform="translate(-29054.003,-16696)"><circle id="circle9867" cx="51500" cy="21000" r="180"/><circle id="circle9869" cx="46500" cy="21000" r="180"/><circle id="circle9871" cx="58000" cy="30000" r="180"/><circle id="circle9873" cx="46500" cy="30000" r="180"/><circle id="circle9875" cx="46500" cy="26000" r="180"/><circle id="circle9877" cx="43500" cy="30000" r="180"/><circle id="circle9879" cx="46500" cy="38500" r="180"/></g><metadata id="metadata9889"/></svg>