<?xml version="1.0" encoding="UTF-8" standalone="no"?>
<svg
   xmlns:dc="http://purl.org/dc/elements/1.1/"
   xmlns:cc="http://creativecommons.org/ns#"
   xmlns:rdf="http://www.w3.org/1999/02/22-rdf-syntax-ns#"
   xmlns:svg="http://www.w3.org/2000/svg"
   xmlns="http://www.w3.org/2000/svg"
   viewBox="0 0 336 60"
   height="60"
   width="336"
   xml:space="preserve"
   id="svg2"
   version="1.1"><metadata
     id="metadata8"><rdf:RDF><cc:Work
         rdf:about=""><dc:format>image/svg+xml</dc:format><dc:type
           rdf:resource="http://purl.org/dc/dcmitype/StillImage" /></cc:Work></rdf:RDF></metadata><defs
     id="defs6" /><g
     transform="matrix(1.3333333,0,0,-1.3333333,0,60)"
     id="g10"><g
       transform="scale(0.1)"
       id="g12"><path
         id="path14"
         style="fill:#000000;fill-opacity:1;fill-rule:nonzero;stroke:none"
         d="M 151.832,445 H 2375 c 77.32,0 140,-62.68 140,-140 V 150 C 2515,72.6797 2452.32,10 2375,10 H 151.832 c -77.3203,0 -140,62.6797 -140,140 v 155 c 0,77.32 62.6797,140 140,140 z" /><path
         id="path16"
         style="fill:none;stroke:#000000;stroke-width:10;stroke-linecap:round;stroke-linejoin:round;stroke-miterlimit:10;stroke-dasharray:none;stroke-opacity:1"
         d="M 151.832,445 H 2375 c 77.32,0 140,-62.68 140,-140 V 150 C 2515,72.6797 2452.32,10 2375,10 H 151.832 c -77.3164,0 -140,62.6797 -140,140 v 155 c 0,77.32 62.6836,140 140,140 z" /><g
         transform="scale(10)"
         id="g18"><text
           id="text22"
           style="font-variant:normal;font-weight:900;font-size:35px;font-family:Montserrat;-inkscape-font-specification:Montserrat-Black;writing-mode:lr-tb;fill:#ffffff;fill-opacity:1;fill-rule:nonzero;stroke:none"
           transform="matrix(1,0,0,-1,10.9043,10.25)"><tspan
             id="tspan20"
             y="0"
             x="0 29.075001 54.615002 68.114998 98.170006 127.245 142.49501 174.405 204.32001">RF BRIDGE</tspan></text>
</g></g></g></svg>