<svg id="svg" version="1.1" width="400" height="172.64653641207818" viewBox="0 0 400 172.64653641207818" xmlns="http://www.w3.org/2000/svg" xmlns:xlink="http://www.w3.org/1999/xlink" ><g id="svgg"><path id="path1" d="M97.792 21.033 C 96.701 22.177,96.525 22.520,96.806 22.961 C 96.996 23.261,98.678 25.138,99.125 25.549 C 99.331 25.738,99.500 25.958,99.500 26.037 C 99.500 26.116,99.800 26.587,100.167 27.083 C 100.533 27.580,100.833 28.060,100.833 28.151 C 100.833 28.242,100.937 28.377,101.064 28.450 C 101.192 28.523,101.449 28.883,101.636 29.250 C 102.565 31.072,103.000 32.004,103.000 32.175 C 103.000 32.279,103.141 32.544,103.314 32.763 C 103.487 32.983,103.679 33.500,103.741 33.912 C 103.802 34.324,103.953 34.719,104.074 34.789 C 104.196 34.859,104.387 35.367,104.499 35.917 C 104.611 36.467,104.772 37.002,104.857 37.107 C 104.942 37.212,105.085 37.962,105.176 38.774 C 105.267 39.586,105.431 40.512,105.541 40.833 C 105.814 41.628,105.806 48.164,105.531 49.109 C 105.420 49.489,105.259 50.354,105.173 51.031 C 105.087 51.708,104.901 52.484,104.760 52.756 C 104.618 53.028,104.501 53.475,104.500 53.750 C 104.499 54.025,104.353 54.488,104.176 54.780 C 103.998 55.071,103.800 55.596,103.736 55.946 C 103.671 56.297,103.479 56.762,103.309 56.981 C 103.139 57.199,103.000 57.485,103.000 57.614 C 103.000 57.817,102.656 58.569,102.137 59.500 C 102.061 59.637,101.867 60.010,101.707 60.328 C 101.547 60.646,101.304 61.030,101.167 61.182 C 101.029 61.333,100.692 61.840,100.417 62.309 C 100.142 62.777,99.859 63.162,99.788 63.164 C 99.717 63.165,99.587 63.354,99.500 63.583 C 99.413 63.813,99.270 64.000,99.182 64.000 C 99.094 64.000,98.978 64.131,98.924 64.292 C 98.869 64.452,98.339 65.101,97.746 65.734 C 97.152 66.366,96.667 67.022,96.667 67.190 C 96.667 67.743,98.869 70.000,99.407 70.000 C 99.690 70.000,101.667 68.104,101.667 67.833 C 101.667 67.748,101.817 67.598,102.000 67.500 C 102.183 67.402,102.333 67.237,102.333 67.133 C 102.333 67.029,102.448 66.826,102.587 66.681 C 103.134 66.111,103.833 65.109,103.833 64.894 C 103.833 64.769,103.938 64.667,104.067 64.667 C 104.196 64.667,104.386 64.460,104.490 64.208 C 104.594 63.956,104.864 63.450,105.089 63.083 C 105.314 62.717,105.618 62.154,105.765 61.833 C 105.913 61.512,106.129 61.137,106.247 61.000 C 106.364 60.862,106.516 60.563,106.583 60.333 C 106.651 60.104,106.803 59.804,106.921 59.667 C 107.039 59.529,107.216 59.114,107.314 58.745 C 107.413 58.375,107.605 57.925,107.741 57.745 C 107.878 57.564,107.992 57.229,107.996 57.000 C 107.999 56.771,108.120 56.358,108.265 56.083 C 108.410 55.808,108.600 55.145,108.687 54.610 C 108.774 54.074,108.949 53.474,109.076 53.277 C 109.202 53.079,109.354 52.392,109.412 51.750 C 109.471 51.108,109.646 50.246,109.801 49.833 C 110.216 48.732,110.218 41.152,109.804 39.917 C 109.651 39.458,109.477 38.589,109.419 37.984 C 109.360 37.380,109.205 36.678,109.074 36.425 C 108.942 36.172,108.765 35.529,108.679 34.997 C 108.593 34.464,108.405 33.800,108.262 33.522 C 108.118 33.244,108.000 32.900,108.000 32.758 C 108.000 32.615,107.850 32.219,107.667 31.877 C 107.483 31.535,107.333 31.097,107.333 30.903 C 107.333 30.710,107.183 30.416,107.000 30.250 C 106.817 30.084,106.667 29.820,106.667 29.664 C 106.667 29.508,106.479 29.104,106.250 28.766 C 106.021 28.428,105.833 28.047,105.833 27.919 C 105.833 27.791,105.767 27.645,105.686 27.595 C 105.605 27.545,105.386 27.179,105.199 26.782 C 105.013 26.385,104.592 25.709,104.263 25.279 C 103.935 24.849,103.667 24.423,103.667 24.332 C 103.667 24.241,103.593 24.167,103.503 24.167 C 103.414 24.167,103.196 23.884,103.020 23.539 C 102.844 23.194,102.430 22.617,102.100 22.256 C 101.770 21.896,101.500 21.541,101.500 21.467 C 101.500 21.394,101.385 21.333,101.245 21.333 C 101.104 21.333,100.946 21.220,100.893 21.081 C 100.295 19.524,99.246 19.508,97.792 21.033 M91.667 27.417 C 91.553 27.554,91.361 27.667,91.241 27.667 C 91.121 27.667,90.975 27.817,90.917 28.000 C 90.858 28.183,90.715 28.333,90.599 28.333 C 90.482 28.333,90.301 28.521,90.197 28.750 C 90.093 28.979,89.893 29.167,89.754 29.167 C 89.614 29.167,89.500 29.255,89.500 29.362 C 89.500 29.469,89.370 29.701,89.211 29.877 C 88.936 30.181,88.936 30.207,89.211 30.408 C 89.370 30.525,89.500 30.678,89.500 30.749 C 89.500 30.820,89.669 31.045,89.875 31.248 C 90.443 31.807,91.386 32.979,91.667 33.475 C 91.804 33.718,92.010 33.977,92.125 34.050 C 92.240 34.123,92.333 34.313,92.333 34.471 C 92.333 34.630,92.456 34.934,92.606 35.148 C 93.037 35.764,93.833 37.306,93.839 37.539 C 93.842 37.655,93.990 38.050,94.167 38.417 C 94.344 38.783,94.491 39.324,94.494 39.619 C 94.497 39.914,94.631 40.514,94.791 40.953 C 95.212 42.104,95.207 47.732,94.785 48.813 C 94.628 49.214,94.500 49.762,94.500 50.030 C 94.500 50.299,94.357 50.833,94.182 51.217 C 94.007 51.602,93.812 52.193,93.749 52.530 C 93.686 52.868,93.536 53.181,93.416 53.227 C 93.296 53.273,93.149 53.536,93.088 53.811 C 93.028 54.085,92.867 54.403,92.730 54.517 C 92.593 54.631,92.371 54.954,92.236 55.237 C 91.785 56.182,91.527 56.579,90.928 57.250 C 89.421 58.938,89.167 59.270,89.167 59.555 C 89.167 59.857,91.615 62.498,91.896 62.499 C 92.331 62.502,94.980 59.349,95.245 58.516 C 95.306 58.324,95.448 58.167,95.561 58.167 C 95.674 58.167,95.859 57.911,95.972 57.599 C 96.084 57.287,96.287 56.989,96.422 56.938 C 96.556 56.886,96.667 56.710,96.667 56.547 C 96.668 56.384,96.805 56.025,96.972 55.750 C 97.140 55.475,97.333 55.025,97.401 54.750 C 97.470 54.475,97.623 54.137,97.741 54.000 C 97.859 53.862,98.007 53.414,98.069 53.004 C 98.131 52.594,98.296 52.133,98.435 51.980 C 98.574 51.827,98.730 51.262,98.783 50.726 C 98.836 50.189,99.000 49.525,99.148 49.250 C 99.494 48.606,99.553 41.049,99.215 40.642 C 99.105 40.509,98.925 39.841,98.816 39.158 C 98.707 38.475,98.523 37.804,98.406 37.667 C 98.290 37.529,98.141 37.117,98.076 36.750 C 98.011 36.383,97.859 35.896,97.740 35.667 C 97.400 35.015,96.718 33.456,96.592 33.042 C 96.529 32.835,96.407 32.667,96.321 32.667 C 96.235 32.667,96.046 32.372,95.902 32.013 C 95.758 31.653,95.534 31.318,95.404 31.268 C 95.273 31.218,95.167 31.066,95.167 30.930 C 95.167 30.794,95.073 30.623,94.958 30.550 C 94.844 30.477,94.491 30.042,94.174 29.583 C 93.670 28.854,92.108 27.167,91.936 27.167 C 91.902 27.167,91.781 27.279,91.667 27.417 M83.227 35.917 C 83.174 36.054,83.062 36.167,82.977 36.167 C 82.789 36.167,81.667 37.269,81.667 37.454 C 81.667 37.527,81.517 37.680,81.333 37.795 C 80.931 38.046,80.873 38.962,81.250 39.106 C 81.387 39.159,81.500 39.281,81.500 39.377 C 81.500 39.473,81.706 39.820,81.958 40.148 C 83.356 41.967,83.894 44.091,83.455 46.049 C 83.306 46.709,83.139 47.487,83.082 47.778 C 83.026 48.068,82.881 48.343,82.761 48.389 C 82.641 48.435,82.490 48.682,82.426 48.937 C 82.362 49.193,82.165 49.503,81.988 49.627 C 81.811 49.751,81.667 49.942,81.667 50.053 C 81.667 50.163,81.517 50.347,81.333 50.461 C 80.627 50.902,81.898 53.333,82.834 53.333 C 82.913 53.333,83.025 53.483,83.083 53.667 C 83.313 54.389,84.916 53.551,85.237 52.541 C 85.302 52.335,85.501 52.089,85.678 51.994 C 85.855 51.899,86.000 51.705,86.000 51.562 C 86.000 51.419,86.150 51.112,86.333 50.879 C 86.517 50.646,86.667 50.288,86.667 50.083 C 86.667 49.879,86.817 49.521,87.000 49.288 C 87.183 49.055,87.333 48.660,87.333 48.411 C 87.333 48.162,87.494 47.274,87.691 46.437 C 88.000 45.123,88.021 44.804,87.852 44.083 C 87.744 43.625,87.560 42.663,87.444 41.946 C 87.327 41.229,87.151 40.592,87.053 40.530 C 86.955 40.468,86.819 40.154,86.751 39.833 C 86.601 39.131,85.873 37.838,85.559 37.718 C 85.435 37.670,85.333 37.518,85.333 37.380 C 85.333 36.670,83.442 35.356,83.227 35.917 M24.244 38.542 C 24.200 38.656,24.184 50.788,24.207 65.500 L 24.250 92.250 41.611 92.333 C 51.160 92.379,59.006 92.454,59.047 92.500 C 59.468 92.970,59.500 93.782,59.500 103.980 L 59.500 114.648 59.130 114.907 C 58.800 115.138,56.857 115.167,41.564 115.167 C 26.038 115.167,24.359 115.192,24.268 115.430 C 24.212 115.575,24.167 118.419,24.167 121.750 C 24.167 125.081,24.212 127.925,24.268 128.070 C 24.442 128.523,72.336 128.467,72.620 128.013 C 72.999 127.406,72.950 78.497,72.570 78.220 C 72.326 78.041,69.046 78.000,55.130 78.000 C 38.962 78.000,37.983 77.983,37.870 77.708 C 37.701 77.297,37.720 52.058,37.889 51.889 C 37.965 51.812,45.760 51.730,55.212 51.706 C 70.871 51.666,72.422 51.638,72.698 51.389 C 73.132 50.995,73.169 38.601,72.736 38.434 C 72.168 38.216,24.327 38.322,24.244 38.542 M86.744 79.041 C 86.700 79.156,86.684 90.313,86.707 103.833 L 86.750 128.417 111.167 128.417 L 135.583 128.417 135.583 103.667 L 135.583 78.917 111.203 78.874 C 91.787 78.841,86.807 78.875,86.744 79.041 M146.410 79.041 C 146.268 79.412,146.412 128.134,146.555 128.278 C 146.750 128.472,158.689 128.525,159.000 128.333 C 159.219 128.198,159.255 126.016,159.294 110.631 L 159.338 93.083 159.711 92.795 C 160.055 92.529,160.904 92.507,170.798 92.504 L 181.513 92.500 182.007 92.865 L 182.500 93.229 182.500 110.506 C 182.500 127.031,182.513 127.794,182.805 128.058 C 183.256 128.466,194.665 128.478,195.072 128.071 C 195.309 127.834,195.330 125.422,195.292 103.363 L 195.250 78.917 170.870 78.874 C 151.454 78.841,146.474 78.875,146.410 79.041 M205.935 79.096 C 205.673 79.779,205.827 127.584,206.093 127.963 L 206.352 128.333 230.231 128.333 L 254.110 128.333 254.308 127.958 C 254.459 127.673,254.495 121.771,254.461 103.250 L 254.417 78.917 230.226 78.874 C 208.276 78.836,206.027 78.857,205.935 79.096 M265.077 79.042 C 265.033 79.156,265.017 90.313,265.041 103.833 L 265.083 128.417 271.370 128.460 L 277.656 128.504 277.899 128.127 C 278.099 127.815,278.150 126.479,278.195 120.428 C 278.245 113.641,278.271 113.079,278.553 112.720 L 278.858 112.333 296.023 112.333 C 307.537 112.333,313.295 112.277,313.511 112.161 C 313.821 111.995,313.833 111.743,313.833 105.363 L 313.833 98.739 313.312 98.431 C 312.810 98.134,312.147 98.127,295.764 98.246 C 281.500 98.350,278.708 98.333,278.553 98.143 C 278.238 97.758,278.158 93.025,278.455 92.377 L 278.703 91.838 296.191 91.794 C 311.520 91.755,313.699 91.719,313.841 91.500 C 314.133 91.050,313.968 79.186,313.667 78.996 C 313.255 78.737,265.176 78.781,265.077 79.042 M324.479 79.109 C 324.288 79.339,324.242 83.231,324.199 102.651 C 324.148 126.334,324.172 127.815,324.609 128.252 C 324.905 128.548,336.311 128.627,337.072 128.337 L 337.500 128.175 337.500 120.599 C 337.500 113.935,337.531 112.992,337.762 112.762 C 337.906 112.618,338.037 112.482,338.054 112.460 C 338.070 112.438,345.921 112.382,355.500 112.335 L 372.917 112.250 372.957 105.500 C 372.981 101.413,372.934 98.651,372.838 98.500 C 372.697 98.280,370.572 98.250,355.365 98.250 C 340.936 98.250,338.006 98.212,337.776 98.021 C 337.540 97.825,337.500 97.401,337.500 95.067 L 337.500 92.342 337.992 92.088 C 338.423 91.865,340.589 91.833,355.653 91.833 C 372.457 91.833,372.825 91.826,372.994 91.511 C 373.220 91.089,373.229 79.852,373.004 79.261 L 372.842 78.833 348.775 78.833 C 326.592 78.833,324.690 78.855,324.479 79.109 M122.004 92.667 C 122.366 93.241,122.204 114.135,121.835 114.332 C 121.468 114.529,100.614 114.503,100.416 114.305 C 100.266 114.155,100.313 92.786,100.464 92.638 C 100.843 92.264,121.767 92.292,122.004 92.667 M240.333 92.816 L 240.750 92.932 240.750 103.674 L 240.750 114.417 230.269 114.460 C 222.665 114.491,219.725 114.451,219.560 114.314 C 219.373 114.159,219.333 112.288,219.333 103.667 C 219.333 92.631,219.309 92.977,220.083 92.787 C 220.606 92.659,239.867 92.686,240.333 92.816 " stroke="none" fill="#1e100f" fill-rule="evenodd"></path></g></svg>