<svg xmlns="http://www.w3.org/2000/svg" xmlns:svg="http://www.w3.org/2000/svg" id="svg5" viewBox="0 0 132 25"><path d="M5 0H127a5 5 0 015 5v15a5 5 0 01-5 5H5a5 5 0 01-5-5V5a5 5 0 015-5z" style="fill:#000" id="path2"/><g id="component-text" aria-label="ade7880" style="font-weight:900;font-size:25px;font-family:Montserrat;letter-spacing:1.1px;fill:#fffffc"><path id="path11" d="m14.525 21v-2.425l-.4-.65v-4.6q0-1-.625-1.525-.6-.525-1.975-.525-.925.0-1.875.3Q8.7 11.85 8.025 12.35l-1.8-3.725q1.2-.75 2.875-1.15t3.275-.4q3.525.0 5.45 1.575 1.95 1.575 1.95 5V21zm-3.875.25q-1.675.0-2.8-.575Q6.725 20.1 6.15 19.15 5.575 18.175 5.575 17q0-1.325.675-2.25t2.05-1.4q1.4-.475 3.525-.475h2.85V15.6h-1.95q-.9.0-1.325.3-.4.275-.4.85.0.475.35.8.375.3 1 .3.575.0 1.05-.3.5-.325.725-1l.725 1.675q-.325 1.525-1.375 2.275t-2.825.75z"/><path id="path13" d="m29.575005 21.25q-1.775.0-3.3-.85-1.5-.875-2.4-2.45-.9-1.6-.9-3.8t.9-3.775q.9-1.6 2.4-2.45 1.525-.85 3.3-.85 1.8.0 2.95.775 1.15.75 1.7 2.325.55 1.55.55 3.975.0 2.45-.525 4.025-.5 1.575-1.65 2.325-1.125.75-3.025.75zm1.35-4.4q.625.0 1.125-.3t.8-.9q.3-.625.3-1.5.0-.9-.3-1.475-.3-.6-.8-.9t-1.125-.3-1.125.3-.8.9q-.3.575-.3 1.475.0.875.3 1.5.3.6.8.9t1.125.3zm2.4 4.15v-1.85l-.025-5-.25-5v-6.7h5.65V21z"/><path id="path15" d="m49.850003 21.25q-2.5.0-4.375-.925-1.85-.925-2.875-2.525-1.025-1.625-1.025-3.65.0-2.075 1-3.675 1.025-1.6 2.775-2.5 1.775-.9 3.975-.9 2.025.0 3.725.8 1.725.8 2.75 2.375 1.05 1.575 1.05 3.9.0.3-.025.675-.025.35-.05.65h-10.525V12.75h7.525l-2.125.725q0-.8-.3-1.35-.275-.575-.775-.875-.5-.325-1.2-.325t-1.225.325q-.5.3-.775.875-.275.55-.275 1.35v.85q0 .875.35 1.5t1 .95q.65.3 1.575.3.95.0 1.55-.25.625-.25 1.3-.75l2.95 2.975q-1 1.075-2.475 1.65-1.45.55-3.5.55z"/><path id="path17" d="m61.07501 21 6.6-15.4 1.575 2.475h-8.3l2.3-2.675v5.225h-4.875V3.5h14.975V7.125L67.52501 21z"/><path id="path19" d="m83.175035 21.4q-2.325.0-4.1-.675-1.75-.7-2.75-1.95-1-1.275-1-2.975.0-1.7 1.025-2.9 1.025-1.2 2.8-1.825 1.775-.625 4.025-.625t4.025.625 2.8 1.825q1.025 1.2 1.025 2.9t-1 2.975q-1 1.25-2.775 1.95-1.75.675-4.075.675zm0-3.975q.85.0 1.375-.475.55-.5.55-1.35t-.55-1.325q-.525-.5-1.375-.5t-1.4.5q-.525.475-.525 1.325t.525 1.35q.55.475 1.4.475zm0-4.125q-2.05.0-3.7-.575-1.625-.6-2.575-1.7-.95-1.125-.95-2.7.0-1.6.925-2.75.925-1.175 2.55-1.825 1.625-.65 3.75-.65t3.75.65q1.625.65 2.55 1.825.925 1.15.925 2.75.0 1.575-.95 2.7-.95 1.1-2.575 1.7-1.625.575-3.7.575zm0-3.225q.6.0 1-.4t.4-1.1q0-.725-.4-1.1-.4-.4-1-.4t-1 .4q-.4.375-.4 1.1.0.7.4 1.1t1 .4z"/><path id="path21" d="m101.22502 21.4q-2.324997.0-4.099997-.675-1.75-.7-2.75-1.95-1-1.275-1-2.975.0-1.7 1.025-2.9 1.025-1.2 2.8-1.825 1.775-.625 4.024997-.625 2.25.0 4.025.625t2.8 1.825q1.025 1.2 1.025 2.9t-1 2.975q-1 1.25-2.775 1.95-1.75.675-4.075.675zm0-3.975q.85.0 1.375-.475.55-.5.55-1.35t-.55-1.325q-.525-.5-1.375-.5t-1.399997.5q-.525.475-.525 1.325t.525 1.35q.549997.475 1.399997.475zm0-4.125q-2.049997.0-3.699997-.575-1.625-.6-2.575-1.7-.95-1.125-.95-2.7.0-1.6.925-2.75.925-1.175 2.55-1.825 1.625-.65 3.749997-.65 2.125.0 3.75.65 1.625.65 2.55 1.825.925 1.15.925 2.75.0 1.575-.95 2.7-.95 1.1-2.575 1.7-1.625.575-3.7.575zm0-3.225q.6.0 1-.4t.4-1.1q0-.725-.4-1.1-.4-.4-1-.4t-1 .4q-.399997.375-.399997 1.1.0.7.399997 1.1.4.4 1 .4z"/><path id="path23" d="m119.45001 21.4q-2.325.0-4.125-1.075-1.775-1.075-2.8-3.125-1-2.05-1-4.95.0-2.9 1-4.95 1.025-2.05 2.8-3.125 1.8-1.075 4.125-1.075t4.1 1.075q1.8 1.075 2.8 3.125 1.025 2.05 1.025 4.95t-1.025 4.95q-1 2.05-2.8 3.125-1.775 1.075-4.1 1.075zm0-4.725q.575.0 1.025-.4.45-.4.7-1.375.275-.975.275-2.65.0-1.7-.275-2.65-.25-.975-.7-1.375t-1.025-.4-1.025.4-.725 1.375q-.25.95-.25 2.65.0 1.675.25 2.65.275.975.725 1.375.45.4 1.025.4z"/></g></svg>