<svg xmlns="http://www.w3.org/2000/svg" width="280" height="61.333"><path d="M20.533 1.867h239.511c10.31 0 18.667 8.357 18.667 18.666V41.2c0 10.31-8.358 18.667-18.667 18.667H20.534c-10.31 0-18.667-8.358-18.667-18.667V20.533c0-10.309 8.357-18.666 18.666-18.666z"/><path fill="none" stroke="#000" stroke-linecap="round" stroke-linejoin="round" stroke-miterlimit="10" stroke-width="1.333" d="M20.533 1.867h239.511c10.31 0 18.667 8.357 18.667 18.666V41.2c0 10.31-8.358 18.667-18.667 18.667H20.534c-10.31 0-18.667-8.358-18.667-18.667V20.533c0-10.309 8.357-18.666 18.666-18.666z"/><g fill="#fff"><path d="M38.252 41.84H25.839l-2.194 5.693h-11.2l14.28-32.666h10.827l14.28 32.666H40.445zm-3.033-7.933l-3.174-8.214-3.173 8.214zM57.652 14.867h16.1q5.46 0 9.613 2.006 4.2 1.96 6.487 5.647 2.333 3.687 2.333 8.68t-2.333 8.68q-2.287 3.687-6.487 5.693-4.153 1.96-9.613 1.96h-16.1zm15.633 24.08q3.547 0 5.647-2.007 2.147-2.053 2.147-5.74 0-3.687-2.147-5.693-2.1-2.054-5.647-2.054h-4.62v15.494zM127.359 39.227v8.306h-27.16V14.867h26.553v8.306h-15.727V27h13.814v7.933h-13.814v4.294zM161.879 14.867v6.766l-10.874 25.9h-12.04l10.36-24.126h-6.3v4.76h-9.1v-13.3zM180.859 14.12q4.713 0 8.213 1.82 3.547 1.82 5.507 5.413 1.96 3.594 1.96 8.82 0 5.6-2.287 9.707-2.24 4.107-6.347 6.253-4.06 2.147-9.473 2.147-2.94 0-5.6-.7-2.66-.653-4.527-1.867l3.967-7.7q2.427 1.727 5.927 1.727 2.846 0 4.666-1.4 1.867-1.447 2.427-4.153-2.567 1.82-6.487 1.82-2.986 0-5.553-1.307-2.567-1.307-4.107-3.687t-1.54-5.46q0-3.406 1.727-6.02 1.773-2.613 4.807-4.013 3.033-1.4 6.72-1.4zm.746 14.28q1.494 0 2.427-.887.933-.933.933-2.473 0-1.54-.933-2.427-.933-.886-2.427-.886-1.493 0-2.426.886-.934.887-.934 2.427t.934 2.473q.933.887 2.426.887zM216.592 26.393q6.86 0 10.08 2.894 3.267 2.846 3.267 7.513 0 3.08-1.634 5.693-1.586 2.567-4.946 4.2-3.36 1.587-8.354 1.587-3.453 0-6.906-.747-3.407-.746-5.974-2.193l3.734-8.12q2.053 1.167 4.293 1.773 2.287.607 4.433.607 1.914 0 3.08-.653 1.214-.7 1.214-1.914 0-1.166-1.074-1.726-1.073-.607-3.873-.607h-9.473l1.633-19.833h21.7v8.306h-12.647l-.233 3.22zM254.192 27.793q3.78.934 5.787 3.407 2.053 2.427 2.053 5.88 0 2.94-1.633 5.507-1.587 2.52-4.947 4.106-3.36 1.587-8.353 1.587-3.454 0-6.907-.747-3.407-.746-5.973-2.193l3.733-8.12q2.007 1.167 4.293 1.773 2.334.607 4.48.607 1.914 0 3.08-.653 1.167-.654 1.167-1.867 0-2.24-3.873-2.24h-4.34v-6.767l4.806-4.9H235.9v-8.306h24.36v6.766z"/></g></svg>