<svg xmlns="http://www.w3.org/2000/svg" width="24" height="24"><path d="M.139.409h24v24h-24z" fill="none"/><path d="M9.988 11.894c.923-.714 1.926.158 2.15 1.515.17 0 .336.048.486.135.205-.237.387-.56.316-.924-.166-.848.785-1.535 1.689-.363.714.923-.158 1.926-1.52 2.15 0 .17-.043.34-.134.49.237.201.56.383.924.312.84-.166 1.53.781.359 1.689-.924.714-1.926-.158-2.15-1.516a.946.946 0 0 1-.482-.138c-.206.237-.391.565-.32.928.166.844-.785 1.535-1.689.363-.718-.928.158-1.93 1.52-2.151 0-.17.05-.335.137-.485-.236-.202-.56-.387-.927-.316-.84.166-1.53-.781-.359-1.689m-.627 6.053h.789a.79.79 0 0 1 .79.79v2.367h-.79v-.789h-.79v.79h-.789v-2.368a.79.79 0 0 1 .79-.79m0 .79v.789h.789v-.79h-.79m3.13-.789h.817l-1.156 3.157h-.817l1.156-3.157m2 0h1.184v.79h-1.183v1.578h1.183v.79h-1.183a.79.79 0 0 1-.79-.79v-1.578a.79.79 0 0 1 .79-.79zm.649-8.538h-6c-.55 0-1 .45-1 1v12c0 .55.45 1 1 1h6c.55 0 1-.45 1-1v-12c0-.55-.45-1-1-1zm-7.95-2.95l1.41 1.41a5.022 5.022 0 0 1 7.08 0l1.41-1.41a6.976 6.976 0 0 0-4.95-2.05c-1.93 0-3.68.78-4.95 2.05zm4.95-6.05c-3.04 0-5.79 1.23-7.78 3.22l1.41 1.41a9.011 9.011 0 0 1 6.37-2.63c2.49 0 4.74 1.01 6.36 2.64l1.41-1.41c-1.98-2-4.73-3.23-7.77-3.23z"/></svg>