<?xml version="1.0" encoding="UTF-8" standalone="no"?>
<svg
   xmlns:dc="http://purl.org/dc/elements/1.1/"
   xmlns:cc="http://creativecommons.org/ns#"
   xmlns:rdf="http://www.w3.org/1999/02/22-rdf-syntax-ns#"
   xmlns:svg="http://www.w3.org/2000/svg"
   xmlns="http://www.w3.org/2000/svg"
   xmlns:sodipodi="http://sodipodi.sourceforge.net/DTD/sodipodi-0.dtd"
   xmlns:inkscape="http://www.inkscape.org/namespaces/inkscape"
   width="24"
   height="24"
   version="1.1"
   id="svg4"
   sodipodi:docname="air-conditioner-ir.svg"
   inkscape:version="0.92.4 (5da689c313, 2019-01-14)">
  <metadata
     id="metadata10">
    <rdf:RDF>
      <cc:Work
         rdf:about="">
        <dc:format>image/svg+xml</dc:format>
        <dc:type
           rdf:resource="http://purl.org/dc/dcmitype/StillImage" />
        <dc:title></dc:title>
      </cc:Work>
    </rdf:RDF>
  </metadata>
  <defs
     id="defs8" />
  <sodipodi:namedview
     pagecolor="#ffffff"
     bordercolor="#666666"
     borderopacity="1"
     objecttolerance="10"
     gridtolerance="10"
     guidetolerance="10"
     inkscape:pageopacity="0"
     inkscape:pageshadow="2"
     inkscape:window-width="1471"
     inkscape:window-height="1126"
     id="namedview6"
     showgrid="false"
     inkscape:zoom="12.205128"
     inkscape:cx="33.037366"
     inkscape:cy="5.2353219"
     inkscape:window-x="0"
     inkscape:window-y="0"
     inkscape:window-maximized="0"
     inkscape:current-layer="svg4" />
  <path
     style="fill:none"
     inkscape:connector-curvature="0"
     d="M 0.13865547,0.40895943 H 24.138655 V 24.40896 H 0.13865547 Z"
     id="path3747" />
  <path
     id="path2"
     style="fill:#000000;stroke-width:0.39460784"
     d="m 9.9880705,11.894042 c 0.9233815,-0.71424 1.9256855,0.157844 2.1506125,1.515294 0.169681,0 0.335416,0.04735 0.485367,0.134167 0.205197,-0.236764 0.386716,-0.560343 0.315687,-0.923382 -0.165736,-0.848407 0.78527,-1.535025 1.688922,-0.36304 0.714239,0.923383 -0.157844,1.925687 -1.519241,2.150614 0,0.169681 -0.04341,0.339362 -0.134167,0.489313 0.236765,0.20125 0.560344,0.382769 0.923383,0.31174 0.840515,-0.165735 1.531079,0.781324 0.359092,1.688922 -0.923382,0.71424 -1.925686,-0.157843 -2.150612,-1.515294 -0.169681,0 -0.335416,-0.0513 -0.481421,-0.138113 -0.205196,0.236764 -0.390663,0.564289 -0.319633,0.927328 0.165735,0.844461 -0.78527,1.535025 -1.6889205,0.36304 -0.718187,-0.927329 0.157842,-1.929633 1.5192395,-2.150614 0,-0.16968 0.0513,-0.335416 0.138113,-0.485367 C 11.037727,13.6974 10.714148,13.511935 10.347163,13.582964 9.5066485,13.748699 8.8160855,12.80164 9.9880705,11.894042 m -0.627426,6.053284 h 0.7892145 a 0.78921569,0.78921569 0 0 1 0.789216,0.789216 v 2.367647 H 10.149859 V 20.314974 H 9.3606445 v 0.789215 h -0.789216 v -2.367647 a 0.78921569,0.78921569 0 0 1 0.789216,-0.789216 m 0,0.789216 v 0.789216 H 10.149859 V 18.736542 H 9.3606445 m 3.1292395,-0.789216 h 0.816838 l -1.156201,3.156863 h -0.816839 l 1.156202,-3.156863 m 2.000662,0 h 1.183824 v 0.789216 h -1.183824 v 1.578432 h 1.183824 v 0.789215 h -1.183824 a 0.78921569,0.78921569 0 0 1 -0.789217,-0.789215 v -1.578432 a 0.78921569,0.78921569 0 0 1 0.789217,-0.789216 z M 15.138655,9.4089595 H 9.1386555 c -0.55,0 -1,0.45 -1,0.9999995 V 22.40896 c 0,0.55 0.45,1 1,1 h 5.9999995 c 0.55,0 1,-0.45 1,-1 V 10.408959 c 0,-0.5499995 -0.45,-0.9999995 -1,-0.9999995 z m -7.9499995,-2.95 1.41,1.41 c 1.9586485,-1.946472 5.1213505,-1.946472 7.0799995,0 l 1.41,-1.41 c -1.27,-1.27 -3.02,-2.05 -4.95,-2.05 -1.93,0 -3.6799995,0.78 -4.9499995,2.05 z M 12.138655,0.40895943 c -3.0399995,0 -5.7899995,1.23000007 -7.7799995,3.22000007 l 1.41,1.41 c 1.63,-1.62 3.88,-2.63 6.3699995,-2.63 2.49,0 4.74,1.01 6.36,2.64 l 1.41,-1.41 c -1.98,-2 -4.73,-3.23000007 -7.77,-3.23000007 z"
     inkscape:connector-curvature="0" />
</svg>
