<svg xmlns="http://www.w3.org/2000/svg" width="720" height="490" preserveAspectRatio="xMinYMin meet"><path fill="none" stroke="#00979c" stroke-width="60" d="M174 30a145.545 140 0 0 0 0 280C364 320 344 30 544 30a145.545 140 0 0 1 0 280C354 320 374 30 174 30"/><g fill="#00979c" stroke="#00979c" stroke-width="20"><path d="M528.069 204.674v-32.78h-32.536v-13.7h32.536V125.66h13.862v32.536h32.536v13.699H541.93v32.78z"/></g><path fill="#00979c" stroke="#00979c" d="M681.55 29.285V15.73h-5.155v-2.363h13.007v2.363h-5.195v13.555zm9.63 0V13.367h3.906l4.023 12.715 3.887-12.715h3.828v15.918h-2.422v-13.36l-4.101 13.36h-2.403l-4.277-13.555v13.555z"/><g fill="#00979c" stroke="#00979c" stroke-width="2.398" letter-spacing=".1em" text-anchor="left"><path d="M83.276 494.845l-6.409-22.963H36.281l-6.586 22.963H7.978l34.444-116.329H73.04l34.445 116.33zM56.84 399.878l-15.309 54.114h30.44zM178.154 494.845l-16.376-37.382c-1.543-3.56-3.694-6.245-6.453-8.054-2.76-1.81-6.008-2.715-9.746-2.715h-4.183v48.151H119.5V378.516h33.911c6.408 0 12.223.55 17.445 1.647 5.222 1.098 9.672 2.922 13.35 5.474 3.68 2.551 6.513 5.874 8.5 9.968 1.988 4.095 2.982 9.109 2.982 15.042 0 4.272-.623 8.07-1.869 11.393-1.246 3.323-2.996 6.186-5.251 8.589-2.255 2.403-4.94 4.346-8.055 5.83-3.115 1.483-6.512 2.521-10.19 3.115 2.847.593 5.458 2.21 7.831 4.85 2.374 2.64 4.747 6.453 7.12 11.437l18.603 38.984zm-5.429-82.062c0-5.696-1.81-9.79-5.43-12.282-3.619-2.492-9.048-3.739-16.287-3.739h-9.612v32.843h8.9c3.382 0 6.453-.356 9.212-1.068 2.76-.712 5.118-1.78 7.076-3.204 1.958-1.424 3.471-3.19 4.54-5.296 1.067-2.106 1.601-4.524 1.601-7.254zM303.918 435.212c0 9.02-1.113 17.208-3.338 24.566-2.225 7.357-5.696 13.632-10.413 18.824-4.718 5.192-10.755 9.197-18.113 12.016-7.357 2.818-16.169 4.227-26.434 4.227h-29.55V378.516h34.445c8.9 0 16.689 1.113 23.364 3.338 6.675 2.225 12.238 5.652 16.688 10.28 4.45 4.628 7.788 10.503 10.013 17.623 2.225 7.12 3.338 15.606 3.338 25.455zm-23.497 1.424c0-6.29-.505-11.896-1.513-16.821-1.01-4.925-2.715-9.094-5.118-12.506-2.403-3.411-5.622-6.007-9.657-7.788-4.035-1.78-9.049-2.67-15.042-2.67h-11.125v79.66h9.612c10.74 0 18.899-3.205 24.476-9.613 5.578-6.408 8.367-16.496 8.367-30.262zM401.289 452.034c0 7.417-.994 13.93-2.982 19.537-1.987 5.607-4.836 10.28-8.544 14.018-3.709 3.738-8.233 6.557-13.573 8.455-5.34 1.9-11.334 2.849-17.98 2.849-7.476 0-13.884-.95-19.224-2.849-5.34-1.898-9.672-4.628-12.995-8.188-3.323-3.56-5.726-7.892-7.21-12.995-1.483-5.103-2.224-10.829-2.224-17.178v-77.167h21.895v75.832c0 3.917.34 7.388 1.023 10.414.683 3.026 1.87 5.592 3.56 7.699 1.692 2.106 3.813 3.693 6.364 4.762 2.552 1.068 5.756 1.602 9.613 1.602 3.62 0 6.675-.46 9.167-1.38 2.492-.92 4.57-2.403 6.23-4.45 1.662-2.047 2.908-4.673 3.739-7.877.83-3.204 1.246-7.09 1.246-11.66v-74.942h21.895zM422.561 396.406v-17.89h73.518v17.89h-25.633v80.371h25.633v18.068h-73.518v-18.068h25.633v-80.37zM575.471 494.845l-31.152-69.423-6.408-14.953v84.376h-19.937V378.516h26.88l31.774 69.869 5.607 13.618v-83.486h19.937v116.328zM706.93 436.191c0 10.562-1.23 19.67-3.693 27.325-2.462 7.654-5.845 13.944-10.146 18.869-4.302 4.925-9.346 8.574-15.131 10.947-5.786 2.374-11.971 3.56-18.558 3.56-15.308 0-26.82-5.088-34.533-15.264-7.714-10.176-11.571-24.966-11.571-44.369 0-10.561 1.231-19.67 3.694-27.324 2.462-7.654 5.844-13.944 10.146-18.869 4.302-4.925 9.346-8.574 15.131-10.948 5.785-2.373 11.971-3.56 18.557-3.56 15.31 0 26.82 5.074 34.534 15.22 7.714 10.147 11.57 24.951 11.57 44.413zm-23.14 1.068c0-13.766-1.84-24.03-5.519-30.795-3.679-6.764-9.73-10.147-18.157-10.147-4.213 0-7.802.876-10.77 2.626-2.966 1.75-5.414 4.317-7.342 7.699-1.928 3.382-3.338 7.55-4.228 12.505-.89 4.955-1.335 10.636-1.335 17.044 0 13.766 1.854 24.032 5.563 30.796 3.708 6.764 9.746 10.147 18.112 10.147 4.213 0 7.818-.876 10.814-2.626 2.997-1.75 5.445-4.317 7.343-7.699 1.9-3.382 3.293-7.55 4.184-12.505.89-4.955 1.335-10.636 1.335-17.045z" transform="scale(1.01716 .98313)"/></g><g fill="#00979c" stroke="#00979c" stroke-width="20"><path stroke-width="23.619" d="M321.418 266.309v-17.43h53.253v17.43z" transform="matrix(1.5646 0 0 .63914 -365.795 .528)"/></g></svg>