<svg xmlns="http://www.w3.org/2000/svg" width="404.53" height="94.488" version="1.1" viewBox="0 0 107.03 25"><g><path stroke-width="2.176" d="m5.0006-2.5483e-5h97.032c2.7704 0 5.0006 2.2303 5.0006 5.0006v14.999c0 2.7704-2.2303 5.0006-5.0006 5.0006h-97.032c-2.7704 0-5.0006-2.2303-5.0006-5.0006v-14.999c0-2.7704 2.2303-5.0006 5.0006-5.0006z"/><g fill="#fffffc" stroke-width=".265" aria-label="BK72xx"><path d="m5.8934 20.666v-15.805h8.4441q3.2738 0 4.8317 1.1741 1.5579 1.1515 1.5579 2.9577 0 1.1966-0.67734 2.1449-0.65476 0.92569-1.9191 1.4676-1.2644 0.54187-3.1158 0.54187l0.45156-1.2192q1.8514 0 3.1835 0.51929 1.3547 0.51929 2.0772 1.5127 0.74507 0.97085 0.74507 2.3481 0 2.0546-1.7159 3.2061-1.6933 1.1515-4.9671 1.1515zm5.2381-3.7254h3.2061q0.88054 0 1.3095-0.31609 0.45156-0.31609 0.45156-0.92569t-0.45156-0.92569q-0.42898-0.31609-1.3095-0.31609h-3.5673v-3.5222h2.8448q0.90312 0 1.3095-0.29351 0.42898-0.31609 0.42898-0.88054 0-0.58703-0.42898-0.88054-0.4064-0.29351-1.3095-0.29351h-2.4836z"/><path d="m29.231 17.279-0.29351-5.8477 5.9606-6.5702h5.8025l-6.6831 7.3604-2.9577 3.0254zm-4.7639 3.3867v-15.805h5.2381v15.805zm10.386 0-4.651-6.1412 3.4544-3.6576 7.3604 9.7988z"/><path d="m44.49 20.666 5.9606-13.908 1.4224 2.2352h-7.4959l2.0772-2.4158v4.7188h-4.4027v-6.4347h13.524v3.2738l-5.2607 12.531z"/><path d="m57.873 20.666v-3.2738l5.7122-5.2832q0.54187-0.51929 0.79023-0.90312 0.27094-0.38382 0.36125-0.67734 0.09031-0.31609 0.09031-0.58703 0-0.58703-0.38382-0.90312-0.38382-0.33867-1.1515-0.33867-0.69992 0-1.3321 0.38382-0.63218 0.36125-0.99343 1.0837l-4.0189-2.0094q0.85796-1.6256 2.5739-2.6416 1.7159-1.016 4.2672-1.016 1.874 0 3.319 0.6096 1.445 0.6096 2.2578 1.7159 0.8128 1.1063 0.8128 2.619 0 0.76765-0.2032 1.5353-0.18062 0.76765-0.76765 1.6256-0.58702 0.83538-1.7385 1.874l-4.2898 3.906-0.83538-1.8514h8.1958v4.1318z"/><path d="m71.863 20.666 5.8251-7.6313-0.13547 2.9351-5.5542-7.6539h5.7574l2.7319 4.0866-2.1223 0.15804 3.0029-4.2446h5.351l-5.5767 7.4056v-2.8222l5.6896 7.7668h-5.8477l-2.8222-4.3575 2.1449 0.29351-2.9125 4.064z"/><path d="m87.527 20.666 5.8251-7.6313-0.13547 2.9351-5.5542-7.6539h5.7574l2.7319 4.0866-2.1223 0.15804 3.0029-4.2446h5.351l-5.5767 7.4056v-2.8222l5.6896 7.7668h-5.8477l-2.8222-4.3575 2.1449 0.29351-2.9125 4.064z"/></g></g></svg>