<svg xmlns="http://www.w3.org/2000/svg" xmlns:svg="http://www.w3.org/2000/svg" id="svg100" width="135mm" height="60mm" version="1.1" viewBox="0 0 135 60"><metadata id="metadata97"/><g id="layer1" transform="translate(0,-237)"><path id="path69" d="m 16.440094,239.55732 100.197636,-0.82276 c 7.87458,-0.0647 14.25779,8.06718 14.25779,18.01748 v 19.94787 c 0,9.9503 -6.38398,17.95186 -14.25779,18.01651 l -100.197636,0.82277 c -7.8745723,0.0647 -14.2585483,-8.0662 -14.2585483,-18.0165 v -19.94792 c 0,-9.95124 6.383809,-18.01745 14.2577863,-18.01745 z" style="stroke-width:.85861504"/><path id="path71" stroke-miterlimit="10" d="m 16.440094,239.55732 100.342446,-0.33525 c 7.87473,-0.0255 14.25779,8.06715 14.25779,18.01745 v 19.94792 c 0,9.9503 -6.38383,17.9902 -14.25779,18.01649 l -100.342446,0.33526 c -7.8747113,0.0255 -14.2585483,-8.0662 -14.2585483,-18.0165 v -19.94792 c 0,-9.95124 6.383809,-18.01745 14.2577863,-18.01745 z" style="fill:none;stroke:#000;stroke-width:1.14453387;stroke-linecap:round;stroke-linejoin:round;stroke-miterlimit:10"/><text style="font-style:normal;font-variant:normal;font-weight:400;font-stretch:normal;font-size:36.63424301px;line-height:1.25;font-family:'Arial Rounded MT Bold';-inkscape-font-specification:'Arial Rounded MT Bold, ';letter-spacing:0;word-spacing:0;fill:#fff;fill-opacity:1;stroke:none;stroke-width:.85861504" id="text114" x="19.824" y="250.492" transform="scale(0.8895678,1.1241414)" xml:space="preserve"><tspan id="tspan112" x="19.824" y="250.492" style="font-style:normal;font-variant:normal;font-weight:400;font-stretch:normal;font-size:36.63424301px;line-height:1.25;font-family:'Arial Rounded MT Bold';-inkscape-font-specification:'Arial Rounded MT Bold, ';fill:#fff;stroke-width:.85861504">CAN</tspan></text><text style="font-style:normal;font-variant:normal;font-weight:400;font-stretch:normal;font-size:18.48880768px;line-height:1.25;font-family:'Arial Rounded MT Bold';-inkscape-font-specification:'Arial Rounded MT Bold, ';letter-spacing:0;word-spacing:0;fill:#fff;fill-opacity:1;stroke:none;stroke-width:.86666292" id="text118" x="-352.345" y="87.275" transform="matrix(0,-0.80144605,1.2477446,0,0,0)" xml:space="preserve"><tspan id="tspan116" x="-352.345" y="87.275" style="font-style:normal;font-variant:normal;font-weight:400;font-stretch:normal;font-size:18.48880768px;font-family:'Arial Rounded MT Bold';-inkscape-font-specification:'Arial Rounded MT Bold, ';fill:#fff;stroke-width:.86666292">BUS</tspan></text></g></svg>