<svg viewBox="0 0 112 25" id="svg5" xmlns="http://www.w3.org/2000/svg" xmlns:svg="http://www.w3.org/2000/svg"><defs id="defs9"/><path d="M5 0H107a5 5 0 015 5v15a5 5 0 01-5 5H5a5 5 0 01-5-5V5a5 5 0 015-5z" style="fill:#000" id="path2"/><g aria-label="ch422g" id="component-text" style="font-weight:900;font-size:25px;font-family:Montserrat;letter-spacing:1.1px;fill:#fffffc"><path d="m13.6 21.25q-2.35.0-4.175-.9-1.825-.9-2.875-2.5-1.025-1.625-1.025-3.7t1.025-3.675q1.05-1.6 2.875-2.5t4.175-.9q2.5.0 4.275 1.075t2.45 2.975l-4.375 2.15q-.425-.95-1.05-1.375-.6-.425-1.325-.425-.625.0-1.175.3-.525.3-.85.9-.3.575-.3 1.475t.3 1.5q.325.6.85.9.55.3 1.175.3.725.0 1.325-.425Q15.525 16 15.95 15.05l4.375 2.15Q19.65 19.1 17.875 20.175T13.6 21.25z" id="path11"/><path d="m32.224995 7.075q1.575.0 2.85.65 1.275.625 2 1.975.75 1.35.75 3.5V21h-5.65v-6.825q0-1.275-.45-1.8-.45-.55-1.225-.55-.575.0-1.075.275-.475.25-.775.85-.275.6-.275 1.625V21h-5.65V2.45h5.65v8.875l-1.35-1.15q.8-1.55 2.15-2.325 1.375-.775 3.05-.775z" id="path13"/><path d="m40.699985 18v-3.75l7.425-10.75h6.05l-7.15 10.75-2.75-.825h13.55V18zm9.075 3v-3l.175-4.575V10.75h5.55V21z" id="path15"/><path d="m59.724982 21v-3.625l6.325-5.85q.6-.575.875-1 .3-.425.4-.75.1-.35.1-.65.0-.65-.425-1-.425-.375-1.275-.375-.775.0-1.475.425-.7.4-1.1 1.2l-4.45-2.225q.95-1.8 2.85-2.925t4.725-1.125q2.075.0 3.675.675t2.5 1.9q.9 1.225.9 2.9.0.85-.225 1.7-.2.85-.85 1.8-.65.925-1.925 2.075l-4.75 4.325-.925-2.05h9.075V21z" id="path17"/><path d="m76.024982 21v-3.625l6.325-5.85q.6-.575.875-1 .3-.425.4-.75.1-.35.1-.65.0-.65-.425-1-.425-.375-1.275-.375-.775.0-1.475.425-.7.4-1.1 1.2l-4.45-2.225q.95-1.8 2.85-2.925 1.9-1.125 4.725-1.125 2.075.0 3.675.675t2.5 1.9q.9 1.225.9 2.9.0.85-.225 1.7-.2.85-.85 1.8-.65.925-1.925 2.075l-4.75 4.325-.925-2.05h9.075V21z" id="path19"/><path d="m99.574969 26.1q-2.025.0-3.8-.425-1.775-.425-3.05-1.275l1.9-3.85q.8.625 2.025.975 1.25.375 2.35.375 1.750001.0 2.500001-.75.75-.725.75-2.1V17.9l.25-4.25.025-4.25V7.325h5.375v10.95q0 3.975-2.2 5.9-2.2 1.925-6.125001 1.925zm-1.1-5.85q-1.725.0-3.225-.8-1.5-.825-2.425-2.3-.925-1.475-.925-3.5t.925-3.5 2.425-2.275q1.5-.8 3.225-.8 1.775001.0 2.900001.7 1.15.7 1.7 2.175.55 1.45.55 3.7t-.55 3.725q-.55 1.45-1.7 2.175-1.125.7-2.900001.7zm1.5-4.4q.675001.0 1.200001-.275t.825-.775.3-1.15q0-.675-.3-1.15-.3-.5-.825-.75-.525-.275-1.200001-.275-.65.0-1.2.275-.525.25-.85.75-.3.475-.3 1.15.0.65.3 1.15.325.5.85.775.55.275 1.2.275z" id="path21"/></g></svg>
