<svg xmlns="http://www.w3.org/2000/svg" width="261.333" height="60"><path d="M19.333.667H242c10.31 0 18.667 8.357 18.667 18.666V40c0 10.31-8.358 18.667-18.667 18.667H19.333C9.024 58.667.667 50.309.667 40V19.333C.667 9.024 9.024.667 19.333.667z"/><path d="M19.333.667H242c10.31 0 18.667 8.357 18.667 18.666V40c0 10.31-8.358 18.667-18.667 18.667H19.333C9.024 58.667.667 50.309.667 40V19.333C.667 9.024 9.024.667 19.333.667z" fill="none" stroke="#000" stroke-width="1.333" stroke-linecap="round" stroke-linejoin="round" stroke-miterlimit="10"/><path d="M27.58 47.08q-5.18 0-9.333-2.147-4.154-2.193-6.534-6.066Q9.38 34.947 9.38 30q0-4.947 2.333-8.82 2.38-3.92 6.534-6.067Q22.4 12.92 27.58 12.92q4.76 0 8.493 1.68 3.734 1.68 6.16 4.853L35.28 25.66q-3.033-3.827-7.14-3.827-3.453 0-5.553 2.24-2.1 2.194-2.1 5.927 0 3.733 2.1 5.973 2.1 2.194 5.553 2.194 4.107 0 7.14-3.827l6.953 6.207q-2.426 3.173-6.16 4.853-3.733 1.68-8.493 1.68zm33.54 0q-4.06 0-7.933-.887-3.827-.933-6.3-2.473l3.546-8.027q2.334 1.354 5.227 2.194 2.893.793 5.553.793 2.287 0 3.267-.42.98-.467.98-1.353 0-1.027-1.307-1.54-1.26-.514-4.2-1.12-3.78-.794-6.3-1.68-2.52-.934-4.386-2.987-1.867-2.1-1.867-5.647 0-3.08 1.727-5.6 1.726-2.52 5.133-3.966 3.453-1.447 8.353-1.447 3.36 0 6.58.747 3.267.7 5.74 2.1l-3.313 7.98q-4.807-2.427-9.1-2.427-4.247 0-4.247 2.053 0 .98 1.26 1.494 1.26.466 4.154 1.026 3.733.7 6.3 1.634 2.566.886 4.433 2.94 1.913 2.053 1.913 5.6 0 3.08-1.726 5.6-1.727 2.473-5.18 3.966-3.407 1.447-8.307 1.447zm49.64-9.053v8.306H83.6V13.667h26.553v8.306H94.427V25.8h13.813v7.933H94.427v4.294zm34.52-24.36v6.766l-10.873 25.9h-12.04l10.36-24.126h-6.3v4.76h-9.1v-13.3zm34.1 0v6.766l-10.873 25.9h-12.04l10.36-24.126h-6.3v4.76h-9.1v-13.3zm23.32 11.526q2.987 0 5.553 1.307 2.567 1.307 4.107 3.687t1.54 5.46q0 3.406-1.773 6.02-1.727 2.613-4.76 4.013-3.034 1.4-6.72 1.4-4.714 0-8.26-1.82-3.5-1.82-5.46-5.413-1.96-3.594-1.96-8.82 0-5.6 2.24-9.707 2.286-4.107 6.346-6.253 4.107-2.147 9.52-2.147 2.94 0 5.6.7 2.66.653 4.527 1.867l-3.967 7.7q-2.426-1.727-5.926-1.727-2.847 0-4.714 1.447-1.82 1.4-2.38 4.106 2.567-1.82 6.487-1.82zm-2.8 14.28q1.493 0 2.427-.886.933-.887.933-2.427t-.933-2.427q-.934-.933-2.427-.933-1.493 0-2.427.933-.933.887-.933 2.427t.933 2.427q.934.886 2.427.886zm37.647-14.28q2.986 0 5.553 1.307 2.567 1.307 4.107 3.687t1.54 5.46q0 3.406-1.774 6.02-1.726 2.613-4.76 4.013-3.033 1.4-6.72 1.4-4.713 0-8.26-1.82-3.5-1.82-5.46-5.413-1.96-3.594-1.96-8.82 0-5.6 2.24-9.707 2.287-4.107 6.347-6.253 4.107-2.147 9.52-2.147 2.94 0 5.6.7 2.66.653 4.527 1.867l-3.967 7.7q-2.427-1.727-5.927-1.727-2.846 0-4.713 1.447-1.82 1.4-2.38 4.106 2.567-1.82 6.487-1.82zm-2.8 14.28q1.493 0 2.426-.886.934-.887.934-2.427t-.934-2.427q-.933-.933-2.426-.933-1.494 0-2.427.933-.933.887-.933 2.427t.933 2.427q.933.886 2.427.886z" aria-label="CSE7766" fill="#fff"/></svg>