<svg xmlns="http://www.w3.org/2000/svg" xmlns:svg="http://www.w3.org/2000/svg" id="svg8" width="261.333" height="60" version="1.1"><path id="path2" d="M19.333.667H242c10.31 0 18.667 8.357 18.667 18.666V40c0 10.31-8.358 18.667-18.667 18.667H19.333C9.024 58.667.667 50.309.667 40V19.333C.667 9.024 9.024.667 19.333.667z"/><path id="path4" fill="none" stroke="#000" stroke-linecap="round" stroke-linejoin="round" stroke-miterlimit="10" stroke-width="1.333" d="M19.333.667H242c10.31 0 18.667 8.357 18.667 18.666V40c0 10.31-8.358 18.667-18.667 18.667H19.333C9.024 58.667.667 50.309.667 40V19.333C.667 9.024 9.024.667 19.333.667z"/><path id="path866" d="m 245.01812,13.6665 v 32.667 h -11.014 v -24.36 h -5.6 v -8.307 z M 34.51588,47.08 c -3.453333,0 -6.564333,-0.715667 -9.333,-2.147 -2.769333,-1.462 -4.947333,-3.484 -6.534,-6.066 -1.555333,-2.613333 -2.333,-5.569 -2.333,-8.867 0,-3.298 0.777667,-6.238 2.333,-8.82 1.586667,-2.613333 3.764667,-4.635667 6.534,-6.067 2.768667,-1.462 5.879667,-2.193 9.333,-2.193 3.173333,0 6.004333,0.56 8.493,1.68 2.489333,1.12 4.542667,2.737667 6.16,4.853 l -6.953,6.207 c -2.022,-2.551333 -4.402,-3.827 -7.14,-3.827 -2.302,0 -4.153,0.746667 -5.553,2.24 -1.4,1.462667 -2.1,3.438333 -2.1,5.927 0,2.488667 0.7,4.479667 2.1,5.973 1.4,1.462667 3.251,2.194 5.553,2.194 2.738,0 5.118,-1.275667 7.14,-3.827 l 6.953,6.207 c -1.617333,2.115333 -3.670667,3.733 -6.16,4.853 -2.488667,1.12 -5.319667,1.68 -8.493,1.68 z m 33.54,0 c -2.706667,0 -5.351,-0.295667 -7.933,-0.887 -2.551333,-0.622 -4.651333,-1.446333 -6.3,-2.473 l 3.546,-8.027 c 1.556,0.902667 3.298333,1.634 5.227,2.194 1.928667,0.528667 3.779667,0.793 5.553,0.793 1.524667,0 2.613667,-0.14 3.267,-0.42 0.653333,-0.311333 0.98,-0.762333 0.98,-1.353 0,-0.684667 -0.435667,-1.198 -1.307,-1.54 -0.84,-0.342667 -2.24,-0.716 -4.2,-1.12 -2.52,-0.529333 -4.62,-1.089333 -6.3,-1.68 -1.68,-0.622667 -3.142,-1.618333 -4.386,-2.987 -1.244667,-1.4 -1.867,-3.282333 -1.867,-5.647 0,-2.053333 0.575667,-3.92 1.727,-5.6 1.150667,-1.68 2.861667,-3.002 5.133,-3.966 2.302,-0.964667 5.086333,-1.447 8.353,-1.447 2.24,0 4.433333,0.249 6.58,0.747 2.178,0.466667 4.091333,1.166667 5.74,2.1 l -3.313,7.98 c -3.204667,-1.618 -6.238,-2.427 -9.1,-2.427 -2.831333,0 -4.247,0.684333 -4.247,2.053 0,0.653333 0.42,1.151333 1.26,1.494 0.84,0.310667 2.224667,0.652667 4.154,1.026 2.488667,0.466667 4.588667,1.011333 6.3,1.634 1.710667,0.590667 3.188333,1.570667 4.433,2.94 1.275333,1.368667 1.913,3.235333 1.913,5.6 0,2.053333 -0.575333,3.92 -1.726,5.6 -1.151333,1.648667 -2.878,2.970667 -5.18,3.966 -2.271333,0.964667 -5.040333,1.447 -8.307,1.447 z m 49.64,-9.053 v 8.306 h -27.16 V 13.667 h 26.553 v 8.306 h -15.726 V 25.8 h 13.813 v 7.933 h -13.813 v 4.294 z m 34.52,-24.36 v 6.766 l -10.873,25.9 h -12.04 l 10.36,-24.126 h -6.3 v 4.76 h -9.1 v -13.3 z m 34.1,0 v 6.766 l -10.873,25.9 h -12.04 l 10.36,-24.126 h -6.3 v 4.76 h -9.1 v -13.3 z m 23.32,11.526 c 1.99133,0 3.84233,0.435667 5.553,1.307 1.71133,0.871333 3.08033,2.100333 4.107,3.687 1.02667,1.586667 1.54,3.406667 1.54,5.46 0,2.270667 -0.591,4.277333 -1.773,6.02 -1.15133,1.742 -2.738,3.079667 -4.76,4.013 -2.02267,0.933333 -4.26267,1.4 -6.72,1.4 -3.14267,0 -5.896,-0.606667 -8.26,-1.82 -2.33333,-1.213333 -4.15333,-3.017667 -5.46,-5.413 -1.30667,-2.396 -1.96,-5.336 -1.96,-8.82 0,-3.733333 0.74667,-6.969 2.24,-9.707 1.524,-2.738 3.63933,-4.822333 6.346,-6.253 2.738,-1.431333 5.91133,-2.147 9.52,-2.147 1.96,0 3.82667,0.233333 5.6,0.7 1.77333,0.435333 3.28233,1.057667 4.527,1.867 l -3.967,7.7 c -1.61733,-1.151333 -3.59267,-1.727 -5.926,-1.727 -1.898,0 -3.46933,0.482333 -4.714,1.447 -1.21333,0.933333 -2.00667,2.302 -2.38,4.106 1.71133,-1.213333 3.87367,-1.82 6.487,-1.82 z m -2.8,14.28 c 0.99533,0 1.80433,-0.295333 2.427,-0.886 0.622,-0.591333 0.933,-1.400333 0.933,-2.427 0,-1.026667 -0.311,-1.835667 -0.933,-2.427 -0.62267,-0.622 -1.43167,-0.933 -2.427,-0.933 -0.99533,0 -1.80433,0.311 -2.427,0.933 -0.622,0.591333 -0.933,1.400333 -0.933,2.427 0,1.026667 0.311,1.835667 0.933,2.427 0.62267,0.590667 1.43167,0.886 2.427,0.886 z" style="fill:#fff"/></svg>