<svg xmlns="http://www.w3.org/2000/svg" viewBox="0 0 24 24"><path fill="none" d="M0 0h24v24H0V0z"/><path d="M20 4H4c-1.1 0-2 .9-2 2v12c0 1.1.9 2 2 2h16c1.1 0 2-.9 2-2V6c0-1.1-.9-2-2-2z"/><path fill="#fff" d="M3.7 8.8h1.8c1.9 0 3.1 1 3.1 3.2s-1.2 3.3-3 3.3H3.7V8.8zm1.7 5.4c1 0 1.7-.5 1.7-2.1s-.7-2-1.7-2h-.2v4.1h.2zm5.7-5.4h1.8l2 6.5h-1.6l-.8-3.3c-.2-.7-.4-1.4-.5-2.1-.2.7-.3 1.5-.5 2.1l-.8 3.3H9.1l2-6.5zm-.7 3.9h3.1v1.1h-3.1v-1.1zm5.1-.6c0-2.2 1.4-3.4 3.1-3.4.8 0 1.5.4 1.9.8l-.8.9c-.3-.3-.7-.5-1.1-.5-.9 0-1.6.8-1.6 2.1s.7 2.1 1.7 2.1c.5 0 .9-.2 1.2-.6l.8.9c-.5.6-1.3 1-2.1 1-1.7.1-3.1-1.1-3.1-3.3z"/></svg>