<?xml version="1.0" encoding="utf-8"?>
<!-- Generator: Adobe Illustrator 24.1.1, SVG Export Plug-In . SVG Version: 6.00 Build 0)  -->
<svg version="1.1" id="Layer_1" xmlns="http://www.w3.org/2000/svg" xmlns:xlink="http://www.w3.org/1999/xlink" x="0px" y="0px"
	 viewBox="0 0 24 24" style="enable-background:new 0 0 24 24;" xml:space="preserve">
<style type="text/css">
	.st0{fill:none;}
	.st1{fill:#FFFFFF;}
</style>
<path class="st0" d="M0,0h24v24H0V0z"/>
<path d="M20,4H4C2.9,4,2,4.9,2,6l0,12c0,1.1,0.9,2,2,2h16c1.1,0,2-0.9,2-2V6C22,4.9,21.1,4,20,4z"/>
<g>
	<g>
		<path class="st1" d="M3.7,8.8h1.8c1.9,0,3.1,1,3.1,3.2c0,2.2-1.2,3.3-3,3.3H3.7V8.8z M5.4,14.2c1,0,1.7-0.5,1.7-2.1
			c0-1.6-0.7-2-1.7-2H5.2v4.1H5.4z"/>
		<path class="st1" d="M11.1,8.8h1.8l2,6.5h-1.6l-0.8-3.3c-0.2-0.7-0.4-1.4-0.5-2.1h0c-0.2,0.7-0.3,1.5-0.5,2.1l-0.8,3.3H9.1
			L11.1,8.8z M10.4,12.7h3.1v1.1h-3.1V12.7z"/>
		<path class="st1" d="M15.5,12.1c0-2.2,1.4-3.4,3.1-3.4c0.8,0,1.5,0.4,1.9,0.8l-0.8,0.9c-0.3-0.3-0.7-0.5-1.1-0.5
			c-0.9,0-1.6,0.8-1.6,2.1c0,1.3,0.7,2.1,1.7,2.1c0.5,0,0.9-0.2,1.2-0.6l0.8,0.9c-0.5,0.6-1.3,1-2.1,1
			C16.9,15.5,15.5,14.3,15.5,12.1z"/>
	</g>
</g>
</svg>
