<svg width="491.773" height="98.944" viewBox="0 0 130.115 26.179" xmlns="http://www.w3.org/2000/svg"><path style="fill:#000;fill-opacity:1;stroke-width:.133497;stroke-miterlimit:4;stroke-dasharray:none" d="M6.271 0h117.573a6.257 6.257 0 0 1 6.271 6.271v13.637a6.257 6.257 0 0 1-6.271 6.271H6.27A6.257 6.257 0 0 1 0 19.908V6.27A6.257 6.257 0 0 1 6.271 0Z"/><g aria-label="EKTF2232" style="font-size:10.5833px;line-height:1.25;letter-spacing:1.08479px;fill:#fffffc;stroke-width:.264583"><path d="M10.115 14.073v3.658h8.602v2.935H6.48V4.862h11.944v2.935h-8.309v3.431h7.338v2.845zM37.796 20.666H33.53l-5.057-6.209-2.123 2.213v3.996h-3.635V4.862h3.635v7.382l7-7.382h4.064l-6.548 7.044zM46.354 20.666h-3.657V7.842h-5.058v-2.98h13.773v2.98h-5.058zM66.405 4.862v2.935h-8.286v4.177h7.315v2.935h-7.315v5.757H54.46V4.862ZM74.082 17.686h6.796v2.98H68.934v-2.37l6.096-5.758q.971-.926 1.31-1.58.339-.678.339-1.333 0-.948-.655-1.445-.632-.519-1.874-.519-1.039 0-1.874.407-.836.383-1.4 1.174l-2.664-1.716q.926-1.378 2.551-2.145 1.626-.79 3.725-.79 1.762 0 3.071.587 1.332.564 2.055 1.625.745 1.039.745 2.461 0 1.287-.542 2.416t-2.1 2.574zM88.488 17.686h6.796v2.98H83.34v-2.37l6.096-5.758q.97-.926 1.31-1.58.338-.678.338-1.333 0-.948-.655-1.445-.632-.519-1.873-.519-1.04 0-1.874.407-.836.383-1.4 1.174l-2.664-1.716q.925-1.378 2.55-2.145 1.626-.79 3.726-.79 1.761 0 3.07.587 1.333.564 2.055 1.625.745 1.039.745 2.461 0 1.287-.541 2.416-.542 1.129-2.1 2.574zM105.264 11.296q2.077.339 3.184 1.558 1.106 1.197 1.106 2.98 0 1.378-.723 2.552-.722 1.151-2.212 1.851-1.468.7-3.613.7-1.67 0-3.296-.429-1.603-.452-2.732-1.264l1.422-2.8q.904.677 2.078 1.061 1.196.361 2.438.361 1.377 0 2.168-.519.79-.542.79-1.513 0-1.941-2.958-1.941h-1.67v-2.416l3.25-3.68h-6.728V4.862h11.063v2.37zM117.231 17.686h6.796v2.98h-11.943v-2.37l6.096-5.758q.97-.926 1.31-1.58.338-.678.338-1.333 0-.948-.655-1.445-.632-.519-1.874-.519-1.038 0-1.874.407-.835.383-1.4 1.174l-2.664-1.716q.926-1.378 2.551-2.145 1.626-.79 3.726-.79 1.76 0 3.07.587 1.333.564 2.055 1.625.745 1.039.745 2.461 0 1.287-.542 2.416t-2.1 2.574z" style="font-weight:700;font-size:22.5778px;font-family:Montserrat;-inkscape-font-specification:'Montserrat, Bold'"/></g></svg>