<svg xmlns="http://www.w3.org/2000/svg" width="201.333" height="60"><path d="M20.667.667H182c10.31 0 18.667 8.357 18.667 18.666v21.334c0 10.309-8.358 18.666-18.667 18.666H20.667C10.357 59.333 2 50.976 2 40.667V19.333C2 9.024 10.357.667 20.667.667z"/><path d="M20.667.667H182c10.31 0 18.667 8.357 18.667 18.666v21.334c0 10.309-8.358 18.666-18.667 18.666H20.667C10.357 59.333 2 50.976 2 40.667V19.333C2 9.024 10.357.667 20.667.667z" fill="none" stroke="#000" stroke-width="1.333" stroke-linecap="round" stroke-linejoin="round" stroke-miterlimit="10"/><path d="M44.314 38.027v8.306h-27.16V13.667h26.554v8.306H27.98V25.8h13.813v7.933H27.981v4.294zM64.74 47.08q-4.06 0-7.932-.887-3.827-.933-6.3-2.473l3.546-8.027q2.334 1.354 5.227 2.194 2.893.793 5.553.793 2.287 0 3.267-.42.98-.467.98-1.353 0-1.027-1.307-1.54-1.26-.514-4.2-1.12-3.78-.794-6.3-1.68-2.52-.934-4.386-2.987-1.867-2.1-1.867-5.647 0-3.08 1.727-5.6 1.726-2.52 5.133-3.966 3.453-1.447 8.353-1.447 3.36 0 6.58.747 3.267.7 5.74 2.1l-3.313 7.98q-4.807-2.427-9.1-2.427-4.247 0-4.247 2.053 0 .98 1.26 1.494 1.26.466 4.154 1.026 3.733.7 6.3 1.634 2.566.886 4.433 2.94 1.913 2.053 1.913 5.6 0 3.08-1.726 5.6-1.727 2.473-5.18 3.966-3.407 1.447-8.307 1.447zm38.208-33.413q4.526 0 7.886 1.493 3.36 1.493 5.18 4.293 1.82 2.8 1.82 6.534 0 3.733-1.82 6.533-1.82 2.8-5.18 4.293-3.36 1.494-7.886 1.494h-4.714v8.026H87.221V13.667zm-.7 16.146q2.24 0 3.36-.98 1.12-1.026 1.12-2.846t-1.12-2.8q-1.12-1.027-3.36-1.027h-4.014v7.653zm39.932-3.22q3.78.934 5.788 3.407 2.053 2.427 2.053 5.88 0 2.94-1.633 5.507-1.587 2.52-4.947 4.106-3.36 1.587-8.353 1.587-3.454 0-6.907-.747-3.407-.746-5.973-2.193l3.733-8.12q2.007 1.167 4.293 1.773 2.334.607 4.48.607 1.914 0 3.08-.653 1.167-.654 1.167-1.867 0-2.24-3.873-2.24h-4.34v-6.767l4.806-4.9h-11.666v-8.306h24.36v6.766zm40.214 11.2v8.54h-26.18v-6.766l11.807-10.92q1.54-1.447 2.053-2.474.514-1.026.514-2.006 0-1.214-.84-1.867-.794-.7-2.334-.7-1.493 0-2.8.793-1.306.794-2.006 2.24L154.3 20.48q1.867-3.5 5.46-5.507 3.593-2.053 8.68-2.053 3.873 0 6.86 1.26t4.667 3.593q1.68 2.334 1.68 5.367 0 2.707-1.167 5.087-1.12 2.333-4.433 5.32l-4.667 4.246z" aria-label="ESP32" fill="#fff"/></svg>