<svg xmlns="http://www.w3.org/2000/svg" width="278.667" height="60"><path d="M20.667 2h238.666C269.643 2 278 10.357 278 20.667v20c0 10.309-8.357 18.666-18.667 18.666H20.667C10.357 59.333 2 50.976 2 40.667v-20C2 10.357 10.357 2 20.667 2z"/><path d="M20.667 2h238.666C269.643 2 278 10.357 278 20.667v20c0 10.309-8.357 18.666-18.667 18.666H20.667C10.357 59.333 2 50.976 2 40.667v-20C2 10.357 10.357 2 20.667 2z" fill="none" stroke="#000" stroke-width="1.333" stroke-linecap="round" stroke-linejoin="round" stroke-miterlimit="10"/><path d="M46.408 38.693V47h-27.16V14.333h26.553v8.307H30.075v3.827h13.813V34.4H30.075v4.293zm20.427 9.054q-4.06 0-7.934-.887-3.826-.933-6.3-2.473l3.547-8.027q2.333 1.353 5.227 2.193 2.893.794 5.553.794 2.287 0 3.267-.42.98-.467.98-1.354 0-1.026-1.307-1.54-1.26-.513-4.2-1.12-3.78-.793-6.3-1.68-2.52-.933-4.387-2.986-1.866-2.1-1.866-5.647 0-3.08 1.726-5.6 1.727-2.52 5.134-3.967 3.453-1.446 8.353-1.446 3.36 0 6.58.746 3.267.7 5.74 2.1l-3.313 7.98q-4.807-2.426-9.1-2.426-4.247 0-4.247 2.053 0 .98 1.26 1.493 1.26.467 4.153 1.027 3.734.7 6.3 1.633 2.567.887 4.434 2.94 1.913 2.054 1.913 5.6 0 3.08-1.727 5.6-1.726 2.474-5.18 3.967-3.406 1.447-8.306 1.447zm38.206-33.414q4.527 0 7.887 1.494 3.36 1.493 5.18 4.293 1.82 2.8 1.82 6.533 0 3.734-1.82 6.534t-5.18 4.293q-3.36 1.493-7.887 1.493h-4.713V47H89.315V14.333zm-.7 16.147q2.24 0 3.36-.98 1.12-1.027 1.12-2.847t-1.12-2.8q-1.12-1.026-3.36-1.026h-4.013v7.653zm46.607-.7q2.1 1.307 3.22 3.22 1.167 1.867 1.167 4.293 0 3.127-1.867 5.507-1.82 2.38-5.18 3.687-3.313 1.26-7.607 1.26-4.293 0-7.653-1.26-3.313-1.307-5.18-3.687-1.82-2.38-1.82-5.507 0-2.426 1.12-4.293 1.167-1.913 3.267-3.22-3.22-2.567-3.22-6.44 0-2.94 1.68-5.133 1.726-2.194 4.76-3.407 3.08-1.213 7.046-1.213 3.967 0 7 1.213 3.08 1.213 4.76 3.407 1.727 2.193 1.727 5.133 0 3.873-3.22 6.44zm-10.267-8.773q-1.166 0-1.913.746-.7.747-.7 2.054 0 1.306.7 2.053.747.747 1.913.747 1.167 0 1.867-.747.747-.747.747-2.053 0-1.307-.747-2.054-.7-.746-1.867-.746zm0 19.32q1.587 0 2.567-.934 1.027-.933 1.027-2.473 0-1.54-1.027-2.473-.98-.934-2.567-.934-1.586 0-2.613.934-.98.933-.98 2.473 0 1.54.98 2.473 1.027.934 2.613.934zm47.26-1.867V47h-26.18v-6.767l11.807-10.92q1.54-1.446 2.053-2.473.514-1.027.514-2.007 0-1.213-.84-1.866-.794-.7-2.334-.7-1.493 0-2.8.793-1.306.793-2.006 2.24l-8.307-4.153q1.867-3.5 5.46-5.507 3.593-2.053 8.68-2.053 3.873 0 6.86 1.26t4.667 3.593q1.68 2.333 1.68 5.367 0 2.706-1.167 5.086-1.12 2.334-4.433 5.32l-4.667 4.247zm24.02-12.6q2.987 0 5.554 1.307 2.566 1.306 4.106 3.686t1.54 5.46q0 3.407-1.773 6.02-1.727 2.614-4.76 4.014-3.033 1.4-6.72 1.4-4.713 0-8.26-1.82-3.5-1.82-5.46-5.414-1.96-3.593-1.96-8.82 0-5.6 2.24-9.706 2.287-4.107 6.347-6.254 4.106-2.146 9.52-2.146 2.94 0 5.6.7 2.66.653 4.526 1.866l-3.966 7.7q-2.427-1.726-5.927-1.726-2.847 0-4.713 1.446-1.82 1.4-2.38 4.107 2.566-1.82 6.486-1.82zm-2.8 14.28q1.494 0 2.427-.887.933-.886.933-2.426t-.933-2.427q-.933-.933-2.427-.933-1.493 0-2.426.933-.934.887-.934 2.427t.934 2.426q.933.887 2.426.887zm37.647-14.28q2.987 0 5.553 1.307 2.567 1.306 4.107 3.686t1.54 5.46q0 3.407-1.773 6.02-1.727 2.614-4.76 4.014-3.034 1.4-6.72 1.4-4.714 0-8.26-1.82-3.5-1.82-5.46-5.414-1.96-3.593-1.96-8.82 0-5.6 2.24-9.706 2.286-4.107 6.346-6.254 4.107-2.146 9.52-2.146 2.94 0 5.6.7 2.66.653 4.527 1.866l-3.967 7.7q-2.426-1.726-5.926-1.726-2.847 0-4.714 1.446-1.82 1.4-2.38 4.107 2.567-1.82 6.487-1.82zm-2.8 14.28q1.493 0 2.427-.887.933-.886.933-2.426t-.933-2.427q-.934-.933-2.427-.933-1.493 0-2.427.933-.933.887-.933 2.427t.933 2.426q.934.887 2.427.887z" aria-label="ESP8266" fill="#fff"/></svg>