<svg xmlns="http://www.w3.org/2000/svg" width="278.667" height="60"><path d="M20.667.667h238.666C269.643.667 278 9.024 278 19.333v21.334c0 10.309-8.357 18.666-18.667 18.666H20.667C10.357 59.333 2 50.976 2 40.667V19.333C2 9.024 10.357.667 20.667.667z"/><path d="M20.667.667h238.666C269.643.667 278 9.024 278 19.333v21.334c0 10.309-8.357 18.666-18.667 18.666H20.667C10.357 59.333 2 50.976 2 40.667V19.333C2 9.024 10.357.667 20.667.667z" fill="none" stroke="#000" stroke-width="1.333" stroke-linecap="round" stroke-linejoin="round" stroke-miterlimit="10"/><path d="M50.004 38.027v8.306h-27.16V13.667h26.554v8.306H33.67V25.8h13.813v7.933H33.671v4.294zm20.427 9.053q-4.06 0-7.933-.887-3.827-.933-6.3-2.473l3.546-8.027q2.334 1.354 5.227 2.194 2.893.793 5.553.793 2.287 0 3.267-.42.98-.467.98-1.353 0-1.027-1.307-1.54-1.26-.514-4.2-1.12-3.78-.794-6.3-1.68-2.52-.934-4.386-2.987-1.867-2.1-1.867-5.647 0-3.08 1.727-5.6 1.726-2.52 5.133-3.966 3.453-1.447 8.353-1.447 3.36 0 6.58.747 3.267.7 5.74 2.1l-3.313 7.98q-4.807-2.427-9.1-2.427-4.247 0-4.247 2.053 0 .98 1.26 1.494 1.26.466 4.154 1.026 3.733.7 6.3 1.634 2.566.886 4.433 2.94 1.913 2.053 1.913 5.6 0 3.08-1.726 5.6-1.727 2.473-5.18 3.966-3.407 1.447-8.307 1.447zm38.207-33.413q4.526 0 7.886 1.493 3.36 1.493 5.18 4.293 1.82 2.8 1.82 6.534 0 3.733-1.82 6.533-1.82 2.8-5.18 4.293-3.36 1.494-7.886 1.494h-4.714v8.026H92.911V13.667zm-.7 16.146q2.24 0 3.36-.98 1.12-1.026 1.12-2.846t-1.12-2.8q-1.12-1.027-3.36-1.027h-4.014v7.653zm47.673 8.214v8.306h-27.16V13.667h26.554v8.306h-15.727V25.8h13.813v7.933h-13.813v4.294zm19.354-17.687q6.72 0 10.266 3.033 3.547 2.987 3.547 9.24v13.72h-9.8v-3.36q-1.82 3.827-7.233 3.827-3.034 0-5.18-1.027-2.1-1.073-3.22-2.846-1.074-1.82-1.074-4.06 0-3.78 2.894-5.74 2.893-1.96 8.773-1.96h4.247q-.514-2.987-4.807-2.987-1.727 0-3.5.56-1.773.513-3.033 1.447l-3.36-6.954q2.193-1.353 5.273-2.1 3.127-.793 6.207-.793zm-.047 20.113q1.12 0 2.007-.606.886-.607 1.306-1.82v-1.774h-2.613q-3.22 0-3.22 2.147 0 .887.653 1.493.7.56 1.867.56zm32.42 6.347q-3.267 0-6.44-.7-3.173-.7-5.133-1.82l2.893-6.953q1.773 1.073 4.2 1.68 2.427.606 4.713.606 1.82 0 2.52-.28.747-.326.747-.933t-.933-.84q-.887-.233-2.94-.467-3.127-.373-5.32-.933-2.194-.607-3.874-2.287-1.633-1.68-1.633-4.806 0-2.474 1.493-4.434 1.494-1.96 4.434-3.126 2.986-1.167 7.14-1.167 2.893 0 5.646.56 2.8.513 4.76 1.54l-2.893 6.953q-3.36-1.866-7.373-1.866-3.454 0-3.454 1.213 0 .607.934.887.933.233 2.94.466 3.126.374 5.273.98 2.193.607 3.827 2.287 1.68 1.68 1.68 4.807 0 2.38-1.494 4.34-1.493 1.96-4.48 3.126-2.986 1.167-7.233 1.167zm48.287-25.993l-10.5 26.04q-2.007 4.993-4.994 7-2.986 2.006-7.326 2.006-2.147 0-4.34-.653-2.147-.607-3.407-1.633l3.5-7.234q.793.607 1.773.98 1.027.374 1.96.374 1.727 0 2.614-1.027L224.17 20.807h10.827l5.273 13.673 5.367-13.673z" aria-label="ESPEasy" fill="#fff"/></svg>