<svg xmlns="http://www.w3.org/2000/svg" width="278.667" height="60"><path d="M20.667 2h238.666C269.643 2 278 10.357 278 20.667v20c0 10.309-8.357 18.666-18.667 18.666H20.667C10.357 59.333 2 50.976 2 40.667v-20C2 10.357 10.357 2 20.667 2z"/><path d="M20.667 2h238.666C269.643 2 278 10.357 278 20.667v20c0 10.309-8.357 18.666-18.667 18.666H20.667C10.357 59.333 2 50.976 2 40.667v-20C2 10.357 10.357 2 20.667 2z" fill="none" stroke="#000" stroke-width="1.333" stroke-linecap="round" stroke-linejoin="round" stroke-miterlimit="10"/><path d="M50.145 38.693V47h-27.16V14.333h26.553v8.307H33.81v3.827h13.814V34.4H33.81v4.293zm20.426 9.054q-4.06 0-7.933-.887-3.827-.933-6.3-2.473l3.547-8.027q2.333 1.353 5.226 2.193 2.894.794 5.554.794 2.286 0 3.266-.42.98-.467.98-1.354 0-1.026-1.306-1.54-1.26-.513-4.2-1.12-3.78-.793-6.3-1.68-2.52-.933-4.387-2.986-1.867-2.1-1.867-5.647 0-3.08 1.727-5.6 1.727-2.52 5.133-3.967 3.454-1.446 8.354-1.446 3.36 0 6.58.746 3.266.7 5.74 2.1l-3.314 7.98q-4.806-2.426-9.1-2.426-4.246 0-4.246 2.053 0 .98 1.26 1.493 1.26.467 4.153 1.027 3.733.7 6.3 1.633 2.567.887 4.433 2.94 1.914 2.054 1.914 5.6 0 3.08-1.727 5.6-1.727 2.474-5.18 3.967-3.407 1.447-8.307 1.447zm38.207-33.414q4.527 0 7.887 1.494 3.36 1.493 5.18 4.293 1.82 2.8 1.82 6.533 0 3.734-1.82 6.534t-5.18 4.293q-3.36 1.493-7.887 1.493h-4.713V47H93.05V14.333zm-.7 16.147q2.24 0 3.36-.98 1.12-1.027 1.12-2.847t-1.12-2.8q-1.12-1.026-3.36-1.026h-4.013v7.653zm48.56-9.007V47h-10.033v-2.427q-1.4 1.447-3.267 2.194-1.867.7-3.967.7-4.853 0-7.793-2.94-2.94-2.987-2.94-8.96V21.473h10.547v12.274q0 2.613.84 3.733t2.473 1.12q1.54 0 2.567-1.213 1.026-1.26 1.026-3.92V21.473zm18.7 2.754q2.8-3.22 8.26-3.22v9.333q-1.26-.187-2.333-.187-5.414 0-5.414 5.507V47h-10.546V21.473h10.033zm32.98-3.22q4.713 0 7.56 2.846 2.893 2.847 2.893 8.587V47h-10.546V34.26q0-4.387-3.127-4.387-1.773 0-2.893 1.26-1.074 1.214-1.074 3.874V47h-10.546V21.473h10.033v2.52q1.493-1.493 3.453-2.24 1.96-.746 4.247-.746zm30.46 0q6.72 0 10.267 3.033 3.546 2.987 3.546 9.24V47h-9.8v-3.36q-1.82 3.827-7.233 3.827-3.033 0-5.18-1.027-2.1-1.073-3.22-2.847-1.073-1.82-1.073-4.06 0-3.78 2.893-5.74 2.893-1.96 8.773-1.96h4.247q-.513-2.986-4.807-2.986-1.726 0-3.5.56-1.773.513-3.033 1.446l-3.36-6.953q2.193-1.353 5.273-2.1 3.127-.793 6.207-.793zm-.047 20.113q1.12 0 2.007-.607.887-.606 1.307-1.82V36.92h-2.614q-3.22 0-3.22 2.147 0 .886.654 1.493.7.56 1.866.56z" aria-label="ESPurna" fill="#fff"/></svg>