<svg xmlns="http://www.w3.org/2000/svg" xmlns:svg="http://www.w3.org/2000/svg" xmlns:xlink="http://www.w3.org/1999/xlink" width="24" height="24" version="1.1"><g class="layer"><title>Layer 1</title><path id="svg_1" d="m3.859691,11l4,0l0,-2l4,0l0,2l4,0l0,-7l-12,0l0,7m12,2l-12,0l0,7l12,0l0,-7m-12,-11l12,0a2,2 0 0 1 2,2l0,16a2,2 0 0 1 -2,2l-12,0a2,2 0 0 1 -2,-2l0,-16a2,2 0 0 1 2,-2z" transform="matrix(1 0 0 1 0 0)"/><ellipse id="svg_6" cx="19.177" cy="20.221" fill="#fff" stroke="#000" stroke-opacity="0" rx="2.438" ry="2.438"/><use id="svg_3" x="45.303" y="47.8" fill="#000" stroke="#000" stroke-opacity="0" transform="matrix(0.333333 0 0 0.333333 0 0)" xlink:href="#svg_2"/><use id="svg_7" x="-194.266" y="-13.119" fill="#4c4c4c" transform="matrix(0.232786 0 0 0.232786 62.8523 13.3204)" xlink:href="#svg_4"/><use id="svg_8" x="-373.556" y="-74.414" fill="#4c4c4c" transform="matrix(0.232786 0 0 0.232786 104.588 20.2169)" xlink:href="#svg_4"/><use id="svg_9" x="-553.866" y="-76.457" fill="#4c4c4c" transform="matrix(0.232786 0 0 0.232786 146.443 25.5677)" xlink:href="#svg_4"/><use id="svg_10" x="-552.334" y="-98.422" fill="#4c4c4c" transform="matrix(0.232786 0 0 0.232786 146.205 28.2869)" xlink:href="#svg_4"/></g><defs><symbol xmlns="http://www.w3.org/2000/svg" xmlns:xlink="http://www.w3.org/1999/xlink" id="svg_2" width="24" height="24" version="1.1" viewBox="0 0 24 24"><path d="m12,20a7,7 0 0 1 -7,-7a7,7 0 0 1 7,-7a7,7 0 0 1 7,7a7,7 0 0 1 -7,7m7.03,-12.61l1.42,-1.42c-0.45,-0.51 -0.9,-0.97 -1.41,-1.41l-1.42,1.44c-1.55,-1.26 -3.5,-2 -5.62,-2a9,9 0 0 0 -9,9a9,9 0 0 0 9,9c5,0 9,-4.03 9,-9c0,-2.12 -0.74,-4.07 -1.97,-5.61m-8.03,6.61l2,0l0,-6l-2,0m4,-7l-6,0l0,2l6,0l0,-2z"/></symbol><symbol xmlns="http://www.w3.org/2000/svg" xmlns:xlink="http://www.w3.org/1999/xlink" id="svg_4" width="24" height="24" version="1.1" viewBox="0 0 24 24"><path d="m1,11l2.17,0c0.41,-1.17 1.52,-2 2.83,-2c0.65,0 1.25,0.21 1.74,0.56l6.7,-4.69l1.14,1.63l-6.69,4.7c0.07,0.25 0.11,0.52 0.11,0.8a3,3 0 0 1 -3,3c-1.31,0 -2.42,-0.83 -2.83,-2l-2.17,0l0,-2m22,0l0,2l-2.17,0c-0.41,1.17 -1.52,2 -2.83,2a3,3 0 0 1 -3,-3a3,3 0 0 1 3,-3c1.31,0 2.42,0.83 2.83,2l2.17,0m-17,0a1,1 0 0 0 -1,1a1,1 0 0 0 1,1a1,1 0 0 0 1,-1a1,1 0 0 0 -1,-1m12,0a1,1 0 0 0 -1,1a1,1 0 0 0 1,1a1,1 0 0 0 1,-1a1,1 0 0 0 -1,-1z"/></symbol></defs></svg>