<svg xmlns="http://www.w3.org/2000/svg" viewBox="0 0 98 25"><path d="M5 0h88a5 5 0 0 1 5 5v15a5 5 0 0 1-5 5H5a5 5 0 0 1-5-5V5a5 5 0 0 1 5-5Z" style="fill:#000"/><path d="M18.9 11.975h3.7v7.1q-1.425 1.075-3.3 1.65-1.875.575-3.775.575-2.725 0-4.9-1.15Q8.45 18.975 7.2 16.925 5.975 14.85 5.975 12.25q0-2.6 1.225-4.65 1.25-2.075 3.45-3.225Q12.85 3.2 15.6 3.2q2.3 0 4.175.775t3.15 2.25l-2.6 2.4Q18.45 6.65 15.8 6.65q-1.675 0-2.975.7T10.8 9.325q-.725 1.275-.725 2.925 0 1.625.725 2.9t2 2q1.3.7 2.95.7 1.75 0 3.15-.75zM35.825 21.3q-2.675 0-4.85-1.15-2.15-1.175-3.4-3.225-1.225-2.075-1.225-4.675 0-2.6 1.225-4.65 1.25-2.075 3.4-3.225Q33.15 3.2 35.85 3.2q2.275 0 4.1.8 1.85.8 3.1 2.3l-2.6 2.4q-1.775-2.05-4.4-2.05-1.625 0-2.9.725-1.275.7-2 1.975-.7 1.275-.7 2.9t.7 2.9q.725 1.275 2 2 1.275.7 2.9.7 2.625 0 4.4-2.075l2.6 2.4Q41.8 19.7 39.95 20.5q-1.85.8-4.125.8zm14.275 0q-1.775 0-3.275-.65-1.475-.675-2.425-1.9l2.25-2.7q1.425 1.925 3.25 1.925 2.475 0 2.475-2.9V6.75h-6.15V3.5H56.4v11.35q0 3.225-1.6 4.85-1.6 1.6-4.7 1.6zm28.35-.3H74.2l-1.55-3.75h-8.125L62.975 21h-4.15l7.8-17.5h4zM68.6 7.475l-2.775 6.7h5.55zm17.675 2.6q3.7 0 5.45 1.475Q93.5 13.025 93.5 15.5q0 1.6-.8 2.925-.8 1.3-2.45 2.1-1.625.775-4.025.775-1.85 0-3.65-.475-1.775-.5-3.025-1.4l1.6-3.1q1 .75 2.3 1.175 1.3.4 2.675.4 1.525 0 2.4-.6t.875-1.675q0-1.125-.925-1.7-.9-.575-3.15-.575H80.85l.9-9.85h10.675v3.25h-7.3l-.275 3.325z" aria-label="GCJA5" style="font-weight:700;font-size:25px;font-family:Montserrat;letter-spacing:1.1px;fill:#fffffc"/></svg>