<svg xmlns="http://www.w3.org/2000/svg" xmlns:xlink="http://www.w3.org/1999/xlink" id="Layer_1" width="824" height="256" x="0" y="0" enable-background="new 0 0 824 256" version="1.1" viewBox="0 0 824 256" xml:space="preserve"><g><g><path fill="#005BAA" d="M712.652,171.532c0.348-3.178,0.552-6.388,0.552-9.638c0-49.205-40.776-89.07-91.083-89.07 c-50.293,0-91.063,39.865-91.063,89.07c0,49.189,40.771,89.039,91.063,89.039c38.259,0,70.963-23.021,84.481-55.729l-39.257-6.878 c-8.696,15.914-25.151,26.634-43.96,26.634c-24.967,0-45.642-18.778-49.801-43.429H712.652z M623.386,109.79 c21.319,0,39.528,13.729,46.96,33.163h-93.977C583.781,123.52,602.03,109.79,623.386,109.79z"/><rect width="46.512" height="171.18" x="460.066" y="76.555" fill="#005BAA"/><path fill="#005BAA" d="M483.339,6.758c-14.358,0-25.95,11.655-25.95,25.953c0,14.276,11.592,25.9,25.95,25.9 c14.3,0,25.917-11.624,25.917-25.9C509.256,18.413,497.639,6.758,483.339,6.758"/><polygon fill="#005BAA" points="175.389 21.671 175.389 113.822 75.133 113.822 75.133 21.671 24.291 21.671 24.291 247.582 75.133 247.582 75.133 155.427 175.389 155.427 175.389 247.582 226.273 247.582 226.273 21.671"/><path fill="#005BAA" d="M385.318,76.634v9.185c-13.519-8.191-29.361-12.896-46.336-12.896c-49.308,0-89.3,39.84-89.3,89.006 c0,49.156,39.992,89.006,89.3,89.006c16.534,0,31.981-4.491,45.262-12.27v8.918h45.384V76.634H385.318z M341.25,213.408 c-28.777,0-52.04-23.027-52.04-51.459c0-28.456,23.262-51.5,52.04-51.5c28.77,0,52.071,23.044,52.071,51.5 C393.32,190.381,370.019,213.408,341.25,213.408z"/><path fill="#005BAA" d="M809.376,60.657c-42.832,7.472-75.396,44.736-75.896,89.679v97.398h44.535l0.023-99.229 c0-22.716,17.053-41.463,39.032-44.153L809.376,60.657z"/></g></g></svg>