<?xml version="1.0" encoding="UTF-8" standalone="no"?>
<!-- Created with Sodipodi ("http://www.sodipodi.com/") -->
<svg id="svg602" xmlns:rdf="http://www.w3.org/1999/02/22-rdf-syntax-ns#" xmlns="http://www.w3.org/2000/svg" xml:space="preserve" height="590.51" width="704.26" version="1.0" y="0" x="0" xmlns:cc="http://web.resource.org/cc/" xmlns:dc="http://purl.org/dc/elements/1.1/"><metadata id="metadata2230"><rdf:RDF><cc:Work rdf:about=""><dc:format>image/svg+xml</dc:format><dc:type rdf:resource="http://purl.org/dc/dcmitype/StillImage"/></cc:Work></rdf:RDF></metadata><path id="path634" stroke-linejoin="round" d="m666.48 585.05l-634.18 0.46c-24.787 0.02-35.217-24.94-20.626-49.36l304.68-509.93c17.4-28.298 49.66-28.606 67.06 0.955l308.18 508.52c16.95 24.27 4.62 49.78-25.11 49.35z" fill-rule="evenodd" stroke="#ffe600" stroke-width="10"/><path id="path609" fill-rule="evenodd" fill="#ffe600" d="m507.62 360.36l89.41 153.81-307.47 2.61-180.25-1.77 150-262.2 90.84-152.05 157.47 259.6z"/><path id="path615" fill-rule="evenodd" d="m331.93 194.79l-76.78 187.8 107.49-36.61-37.8 140.56 80.32-172.45-114.57 35.43 82.68-155.91-41.34 1.18z"/><path id="path617" fill-rule="evenodd" d="m316.57 434.56l9.45 57.88 41.34-48.43-29.53 7.09-21.26-16.54z"/></svg>
