<svg xmlns="http://www.w3.org/2000/svg" width="278.667" height="60"><path d="M19.822 1.333h239.511C269.643 1.333 278 9.691 278 20v20.667c0 10.309-8.357 18.666-18.667 18.666H19.823c-10.31 0-18.667-8.357-18.667-18.666V20c0-10.31 8.357-18.667 18.666-18.667z"/><path d="M19.822 1.333h239.511C269.643 1.333 278 9.691 278 20v20.667c0 10.309-8.357 18.666-18.667 18.666H19.823c-10.31 0-18.667-8.357-18.667-18.666V20c0-10.31 8.357-18.667 18.666-18.667z" fill="none" stroke="#000" stroke-width="1.333" stroke-linecap="round" stroke-linejoin="round" stroke-miterlimit="10"/><path d="M44.984 14.333V47H33.971V34.96H23.798V47H12.784V14.333h11.014v11.574H33.97V14.333zm9.32 0h11.014V38.46h14.746V47h-25.76zm83.847 0L127.698 47H115.89l-5.273-17.453L105.064 47H93.258L82.804 14.333h11.34l5.694 18.574 6.02-18.574h10.126l5.694 18.807 6.02-18.807zm29.62 15.447q2.1 1.307 3.22 3.22 1.167 1.867 1.167 4.293 0 3.127-1.867 5.507-1.82 2.38-5.18 3.687-3.313 1.26-7.607 1.26-4.293 0-7.653-1.26-3.313-1.307-5.18-3.687-1.82-2.38-1.82-5.507 0-2.426 1.12-4.293 1.167-1.913 3.267-3.22-3.22-2.567-3.22-6.44 0-2.94 1.68-5.133 1.726-2.194 4.76-3.407 3.08-1.213 7.046-1.213 3.967 0 7 1.213 3.08 1.213 4.76 3.407 1.727 2.193 1.727 5.133 0 3.873-3.22 6.44zm-10.267-8.773q-1.166 0-1.913.746-.7.747-.7 2.054 0 1.306.7 2.053.747.747 1.913.747 1.167 0 1.867-.747.747-.747.747-2.053 0-1.307-.747-2.054-.7-.746-1.867-.746zm0 19.32q1.587 0 2.567-.934 1.027-.933 1.027-2.473 0-1.54-1.027-2.473-.98-.934-2.567-.934-1.586 0-2.613.934-.98.933-.98 2.473 0 1.54.98 2.473 1.027.934 2.613.934zm35.967 7.42q-4.34 0-7.7-2.007-3.313-2.053-5.227-5.88-1.866-3.873-1.866-9.193 0-5.32 1.866-9.147 1.914-3.873 5.227-5.88 3.36-2.053 7.7-2.053t7.653 2.053q3.36 2.007 5.227 5.88 1.913 3.827 1.913 9.147t-1.913 9.193q-1.867 3.827-5.227 5.88-3.313 2.007-7.653 2.007zm0-8.82q3.733 0 3.733-8.26t-3.733-8.26q-3.733 0-3.733 8.26t3.733 8.26zm36.527-24.594V47h-11.014V22.64h-5.6v-8.307zm34.1 24.127V47h-26.18v-6.767l11.806-10.92q1.54-1.446 2.054-2.473.513-1.027.513-2.007 0-1.213-.84-1.866-.793-.7-2.333-.7-1.494 0-2.8.793-1.307.793-2.007 2.24l-8.307-4.153q1.867-3.5 5.46-5.507 3.594-2.053 8.68-2.053 3.874 0 6.86 1.26 2.987 1.26 4.667 3.593 1.68 2.333 1.68 5.367 0 2.706-1.167 5.086-1.12 2.334-4.433 5.32l-4.667 4.247z" aria-label="HLW8012" fill="#fff"/></svg>