<svg viewBox="0 0 83 25" id="svg5" xmlns="http://www.w3.org/2000/svg" xmlns:svg="http://www.w3.org/2000/svg"><defs id="defs9"/><path d="M5 0H78a5 5 0 015 5v15a5 5 0 01-5 5H5a5 5 0 01-5-5V5a5 5 0 015-5z" style="fill:#000" id="path2"/><g aria-label="HTTP" id="component-text" style="font-weight:900;font-size:25px;font-family:Montserrat;letter-spacing:1.1px;fill:#fffffc"><path d="m17.775 3.5h5.9V21h-5.9zM12.325 21h-5.9V3.5h5.9zm5.85-6.45h-6.25V9.7h6.25z" id="path11"/><path d="M31.425022 21V8.075h-5.125V3.5h16.15v4.575h-5.125V21z" id="path13"/><path d="M49.125009 21V8.075h-5.125V3.5h16.15v4.575h-5.125V21z" id="path15"/><path d="M62.774995 21V3.5h8.425q2.45.0 4.225.8 1.8.8 2.775 2.3.975 1.475.975 3.5t-.975 3.5-2.775 2.3q-1.775.8-4.225.8h-5.15l2.625-2.525V21zm5.9-6.175-2.625-2.675h4.775q1.225.0 1.8-.55.6-.55.6-1.5t-.6-1.5q-.575-.55-1.8-.55h-4.775l2.625-2.675z" id="path17"/></g></svg>