<svg xmlns="http://www.w3.org/2000/svg" width="153.011" height="170.05"><g fill-rule="evenodd"><path d="M152.6 83.303l-30.396.208v17.435h-14.832V46.66h14.205v18.791l31.023-.104V8.867c0-4.593-4.805-8.456-9.297-8.456H8.871C4.275.411.411 4.274.411 8.867v152.315c0 4.594 3.76 8.457 8.46 8.457h134.432c4.596 0 9.297-3.863 9.297-8.457V83.303z" fill="#fff" stroke="#000" stroke-width=".822" stroke-miterlimit="2.613"/><path d="M147.272 88.313v67.13c0 3.757-5.223 8.454-8.982 8.454H14.407c-4.596 0-8.46-3.758-8.46-8.455V14.714c0-4.698 3.865-8.456 8.46-8.456H138.29c4.596 0 8.982 4.176 8.982 8.456v46.98l-20.89.103V41.962H101v62.43h25.381V88.208l20.891.104z" fill="#c8c9ca" stroke="#000" stroke-width=".822" stroke-miterlimit="2.613"/><path d="M13.258 124.541v32.152H40.31c5.536 0 10.76-2.607 10.76-9.603 0-2.4-.837-4.28-3.344-6.367 6.372-5.846 2.924-15.346-4.7-16.182H13.258zm9.61 6.992h16.189c2.298 1.254 1.777 5.221-1.67 5.951h-14.52v-5.95zm0 12.319h15.355c3.657.836 2.61 5.116-.524 5.638H22.868v-5.638zM110.401 124.54c-11.594 1.357-11.28 16.81-1.254 18.896h17.861c3.762.416 3.971 5.533-.104 6.367h-12.639c-1.672 0-2.508-1.67-2.508-3.445H101.73c-.209 7.936 5.12 10.232 8.773 10.336h18.803c12.848-.73 13.057-17.225 2.924-18.896h-17.547c-3.97-.52-4.283-6.055-.418-6.576h12.43c2.088 0 3.238 1.88 3.238 3.34h9.504c-.207-5.326-3.969-10.02-8.459-10.02h-20.577v-.002zM57.651 124.852v28.291c0 1.881 2.821 3.97 4.701 3.97h28.411c1.984 0 5.12-2.612 5.12-5.013v-27.248h-9.61v21.715c0 1.67-2.09 3.236-3.656 3.236h-12.22c-1.15 0-3.135-1.357-3.135-3.027v-21.924h-9.61z"/><path fill="#fff" stroke="#000" stroke-width=".822" stroke-miterlimit="2.613" d="M.411 118.694v-89.99h32.8v89.99zM152.6 82.676l-31.44-.104-.105 11.274c0 2.924-2.82 6.264-6.268 6.264-3.55 0-6.37-2.818-6.37-6.264V53.55c0-3.445 2.82-6.369 6.37-6.369 3.447 0 6.268 3.237 6.268 6.37v12.736H152.6V37.681c0-4.906-4.074-9.5-9.19-9.5H88.986c-5.223 0-9.4 4.28-9.4 9.5v70.886c0 5.324 4.49 9.604 9.4 9.604h54.422c4.908 0 9.191-4.697 9.191-9.604v-25.89z"/><path fill="#c8c9ca" stroke="#000" stroke-width=".822" stroke-miterlimit="2.613" d="M27.882 34.445H5.633v78.61h22.25zM147.272 61.276v-22.55c0-1.984-2.193-4.699-4.699-4.699H89.614c-2.506 0-4.805 2.192-4.805 4.7v69.631c0 2.506 2.3 4.697 4.805 4.697h52.96c2.82 0 4.698-2.4 4.698-4.697V87.895l-20.89.105v12.11c0 2.714-2.612 5.323-5.327 5.323h-12.639c-2.926 0-5.328-2.4-5.328-5.324V47.18c0-2.923 2.402-5.219 5.328-5.219h12.64c2.82 0 5.325 2.401 5.325 5.22v14.094h20.891v.001z"/><path d="M45.43 18.576c-3.76 1.252-6.372 4.49-6.372 9.605h5.746c0-1.567 1.044-3.967 2.924-3.967h16.608c3.657.94 2.82 7.412.417 8.247H44.28c-2.82 0-4.805 3.445-4.805 5.742V49.06h34.053v-5.742h-27.68l-.417-.313v-2.61c.417-.313 1.044-1.669 1.88-1.879h17.444c3.97 0 8.043-4.07 8.043-7.412v-4.593c0-3.132-4.283-7.935-8.252-7.935H45.43z" fill="#fff" stroke="#000" stroke-width=".822" stroke-miterlimit="2.613"/></g></svg>