<?xml version="1.0" encoding="UTF-8" standalone="no"?>
<!DOCTYPE svg PUBLIC "-//W3C//DTD SVG 1.1//EN" "http://www.w3.org/Graphics/SVG/1.1/DTD/svg11.dtd">
<svg width="100%" height="100%" viewBox="0 0 124 60" version="1.1" xmlns="http://www.w3.org/2000/svg" xmlns:xlink="http://www.w3.org/1999/xlink" xml:space="preserve" xmlns:serif="http://www.serif.com/" style="fill-rule:evenodd;clip-rule:evenodd;stroke-linecap:round;stroke-linejoin:round;stroke-miterlimit:10;">
    <path d="M20.489,1.333L104,1.333C114.31,1.333 122.667,9.691 122.667,20L122.667,40.667C122.667,50.976 114.309,59.333 104,59.333L20.49,59.333C10.18,59.333 1.822,50.976 1.822,40.667L1.822,20C1.822,9.69 10.18,1.333 20.489,1.333Z" style="fill-rule:nonzero;"/>
    <path d="M20.489,1.333L104,1.333C114.31,1.333 122.667,9.691 122.667,20L122.667,40.667C122.667,50.976 114.309,59.333 104,59.333L20.49,59.333C10.18,59.333 1.822,50.976 1.822,40.667L1.822,20C1.822,9.69 10.18,1.333 20.489,1.333Z" style="fill:none;fill-rule:nonzero;stroke:black;stroke-width:1.33px;"/>
    <g transform="matrix(1.28074,0,0,1.28074,-10.9778,-6.27092)">
        <rect x="25.784" y="11.966" width="5.315" height="32.693" style="fill:white;fill-rule:nonzero;"/>
        <path d="M43.359,27.374C41.736,26.675 40.545,25.759 39.786,24.628C39.026,23.496 38.647,22.082 38.647,20.385C38.647,17.764 39.57,15.65 41.416,14.042C43.262,12.435 45.703,11.631 48.741,11.631C51.852,11.631 54.323,12.446 56.155,14.076C57.986,15.706 58.901,17.883 58.901,20.608C58.901,22.216 58.503,23.597 57.707,24.75C56.91,25.904 55.738,26.779 54.189,27.374C56.006,27.97 57.428,29.023 58.455,30.534C59.482,32.045 59.996,33.828 59.996,35.883C59.996,38.89 59.002,41.25 57.014,42.962C55.027,44.674 52.269,45.53 48.741,45.53C45.272,45.53 42.54,44.674 40.545,42.962C38.55,41.25 37.552,38.92 37.552,35.972C37.552,33.828 38.059,32.008 39.071,30.512C40.083,29.016 41.513,27.97 43.359,27.374ZM48.852,15.941C47.304,15.941 46.083,16.346 45.19,17.158C44.297,17.969 43.85,19.074 43.85,20.474C43.85,21.844 44.285,22.915 45.156,23.69C46.027,24.464 47.222,24.851 48.741,24.851C50.304,24.851 51.521,24.468 52.392,23.701C53.263,22.934 53.698,21.858 53.698,20.474C53.698,19.06 53.266,17.95 52.403,17.146C51.539,16.343 50.356,15.941 48.852,15.941ZM48.741,41.175C50.661,41.175 52.165,40.673 53.252,39.668C54.338,38.663 54.882,37.275 54.882,35.503C54.882,33.717 54.338,32.317 53.252,31.305C52.165,30.292 50.661,29.786 48.741,29.786C46.865,29.786 45.383,30.3 44.297,31.327C43.21,32.354 42.666,33.746 42.666,35.503C42.666,37.275 43.202,38.663 44.274,39.668C45.346,40.673 46.835,41.175 48.741,41.175Z" style="fill:white;fill-rule:nonzero;"/>
        <path d="M88.178,28.915C88.178,34.111 87.132,38.179 85.041,41.119C82.949,44.06 80.072,45.53 76.409,45.53C72.702,45.53 69.818,44.045 67.756,41.075C65.694,38.105 64.663,33.932 64.663,28.558C64.663,23.228 65.705,19.074 67.789,16.097C69.874,13.119 72.769,11.631 76.476,11.631C80.228,11.631 83.116,13.123 85.141,16.108C87.166,19.093 88.178,23.362 88.178,28.915ZM76.32,40.952C78.494,40.952 80.128,39.914 81.222,37.837C82.316,35.76 82.863,32.652 82.863,28.513C82.863,24.494 82.324,21.43 81.244,19.324C80.165,17.217 78.59,16.164 76.521,16.164C74.362,16.164 72.732,17.213 71.63,19.313C70.529,21.412 69.978,24.508 69.978,28.603C69.978,32.578 70.525,35.63 71.619,37.759C72.714,39.887 74.28,40.952 76.32,40.952Z" style="fill:white;fill-rule:nonzero;"/>
    </g>
</svg>
