<?xml version="1.0" encoding="UTF-8" standalone="no"?>
<svg
   width="183.333"
   height="60"
   version="1.1"
   id="svg180"
   xmlns="http://www.w3.org/2000/svg"
   xmlns:svg="http://www.w3.org/2000/svg">
  <defs
     id="defs184" />
  <path
     d="M19.333.667h145C174.643.667 183 9.024 183 19.333V40c0 10.31-8.358 18.667-18.667 18.667h-145C9.024 58.667.667 50.309.667 40V19.333C.667 9.024 9.024.667 19.333.667z"
     id="path172" />
  <path
     d="M19.333.667h144C173.643.667 182 9.024 182 19.333V40c0 10.31-8.358 18.667-18.667 18.667h-144C9.024 58.667.667 50.309.667 40V19.333C.667 9.024 9.024.667 19.333.667z"
     stroke-miterlimit="10"
     fill="none"
     stroke="#000"
     stroke-width="1.333"
     stroke-linecap="round"
     stroke-linejoin="round"
     id="path174" />
  <text
     xml:space="preserve"
     style="font-style:normal;font-variant:normal;font-weight:800;font-stretch:normal;font-size:29.3333px;line-height:1.25;font-family:Montserrat;-inkscape-font-specification:'Montserrat, Ultra-Bold';font-variant-ligatures:normal;font-variant-caps:normal;font-variant-numeric:normal;font-variant-east-asian:normal;fill:#f9f9f9;fill-opacity:1;stroke:none"
     x="3.4804366"
     y="39.799999"
     id="text326"><tspan
       id="tspan324"
       x="3.4804366"
       y="39.799999"
       style="font-style:normal;font-variant:normal;font-weight:800;font-stretch:normal;font-size:28px;font-family:Montserrat;-inkscape-font-specification:'Montserrat, Ultra-Bold';font-variant-ligatures:normal;font-variant-caps:normal;font-variant-numeric:normal;font-variant-east-asian:normal;fill:#f9f9f9">IEC62056-21</tspan></text>
</svg>
