<svg viewBox="0 0 116 25" id="svg5" xmlns="http://www.w3.org/2000/svg" xmlns:svg="http://www.w3.org/2000/svg"><defs id="defs9"/><path d="M5 0H111a5 5 0 015 5v15a5 5 0 01-5 5H5a5 5 0 01-5-5V5a5 5 0 015-5z" style="fill:#000" id="path2"/><g aria-label="ILI9486" id="component-text" style="font-weight:900;font-size:25px;font-family:Montserrat;letter-spacing:1.1px;fill:#fffffc"><path d="M6.425 21V3.5h5.9V21z" id="path11"/><path d="M16.27501 21V3.5h5.9v12.925h7.9V21z" id="path13"/><path d="M32.800025 21V3.5h5.9V21z" id="path15"/><path d="m48.625033 3.1q2.5.0 4.375.975 1.9.95 2.95 2.85 1.075 1.9 1.075 4.775.0 3.075-1.225 5.25-1.225 2.15-3.4 3.3-2.175 1.15-5.075 1.15-1.55.0-3-.375-1.425-.35-2.425-1l2.125-4.125q.775.55 1.55.75.8.175 1.625.175 1.775.0 2.825-1.05 1.075-1.075 1.075-3.1.0-.375.0-.725.0-.375.0-.75l1.35.975q-.475.85-1.175 1.45-.675.575-1.6.9-.925.3-2.15.3-1.6.0-2.975-.675-1.35-.7-2.2-1.95-.825-1.275-.825-2.975.0-1.875.95-3.25t2.55-2.125q1.625-.75 3.6-.75zm.4 4.075q-.525.0-.925.225-.4.2-.65.6-.225.4-.225.95.0.825.5 1.325.525.475 1.3.475.525.0.925-.225.425-.225.65-.625t.225-.95q0-.55-.225-.95-.225-.4-.65-.6-.4-.225-.925-.225z" id="path17"/><path d="m59.425018 18v-3.75l7.425-10.75h6.05l-7.15 10.75-2.75-.825h13.55V18zm9.075 3v-3l.175-4.575V10.75h5.55V21z" id="path19"/><path d="m86.475023 21.4q-2.325.0-4.1-.675-1.75-.7-2.75-1.95-1-1.275-1-2.975.0-1.7 1.025-2.9 1.025-1.2 2.8-1.825 1.775-.625 4.025-.625t4.025.625 2.8 1.825q1.025 1.2 1.025 2.9t-1 2.975q-1 1.25-2.775 1.95-1.75.675-4.075.675zm0-3.975q.85.0 1.375-.475.55-.5.55-1.35t-.55-1.325q-.525-.5-1.375-.5t-1.4.5q-.525.475-.525 1.325t.525 1.35q.55.475 1.4.475zm0-4.125q-2.05.0-3.7-.575-1.625-.6-2.575-1.7-.95-1.125-.95-2.7.0-1.6.925-2.75.925-1.175 2.55-1.825 1.625-.65 3.75-.65t3.75.65q1.625.65 2.55 1.825.925 1.15.925 2.75.0 1.575-.95 2.7-.95 1.1-2.575 1.7-1.625.575-3.7.575zm0-3.225q.6.0 1-.4t.4-1.1q0-.725-.4-1.1-.4-.4-1-.4t-1 .4q-.4.375-.4 1.1.0.7.4 1.1t1 .4z" id="path21"/><path d="m105.175 21.4q-2.5.0-4.4-.95-1.874997-.975-2.949997-2.875-1.05-1.925-1.05-4.775.0-3.075 1.225-5.225Q99.225003 5.4 101.4 4.25q2.2-1.15 5.075-1.15 1.55.0 2.975.375 1.45.35 2.45 1L109.775 8.6Q109 8.05 108.2 7.875q-.775-.2-1.6-.2-1.775.0-2.85 1.075-1.05 1.05-1.05 3.075.0.375.0.75.0.35.0.725l-1.35-.975q.5-.85 1.175-1.425.675-.6 1.6-.9.925-.325 2.15-.325 1.6.0 2.95.7 1.375.675 2.2 1.925.85 1.25.85 2.975.0 1.875-.95 3.25t-2.575 2.125q-1.6.75-3.575.75zm-.4-4.075q.525.0.925-.2.425-.225.65-.625.225-.4.225-.95.0-.825-.5-1.3-.5-.5-1.3-.5-.525.0-.925.225-.4.225-.65.625-.225.4-.225.95t.225.95q.25.4.65.625.4.2.925.2z" id="path23"/></g></svg>