<svg xmlns="http://www.w3.org/2000/svg" viewBox="0 0 101 25"><path d="M5 0h91a5 5 0 0 1 5 5v15a5 5 0 0 1-5 5H5a5 5 0 0 1-5-5V5a5 5 0 0 1 5-5Z" style="fill:#000"/><g aria-label="ILI9341" style="font-weight:700;font-size:25px;font-family:Montserrat;letter-spacing:1.1px;fill:#fffffc"><path d="M11.125 21h-4.05V3.5h4.05zM29.2 21H16.375V3.5h4.05v14.2H29.2zM36.625 21h-4.05V3.5h4.05zM46.925 3.2q3.675 0 5.75 2.25 2.075 2.225 2.075 6.425 0 2.975-1.125 5.1-1.1 2.125-3.125 3.225t-4.675 1.1q-1.4 0-2.675-.3-1.275-.325-2.175-.9l1.5-2.975Q43.75 18 45.75 18q2.225 0 3.525-1.3 1.3-1.325 1.4-3.8-1.575 1.575-4.35 1.575-1.675 0-3.05-.675-1.375-.675-2.175-1.9-.8-1.25-.8-2.875 0-1.75.875-3.075.875-1.325 2.375-2.025 1.525-.725 3.375-.725zm.3 8.25q1.325 0 2.15-.725.85-.75.85-1.9T49.4 6.95q-.8-.725-2.225-.725-1.3 0-2.125.7-.8.7-.8 1.9t.8 1.925q.825.7 2.175.7zM65.725 10.625q2.3.375 3.525 1.725 1.225 1.325 1.225 3.3 0 1.525-.8 2.825-.8 1.275-2.45 2.05-1.625.775-4 .775-1.85 0-3.65-.475-1.775-.5-3.025-1.4l1.575-3.1q1 .75 2.3 1.175 1.325.4 2.7.4 1.525 0 2.4-.575.875-.6.875-1.675 0-2.15-3.275-2.15h-1.85v-2.675l3.6-4.075h-7.45V3.5h12.25v2.625zM86.625 14.025h2.85v3.3h-2.85V21h-3.95v-3.675H73.25V14.6L81.5 3.5h4.25L78.1 14.025h4.7V10.75h3.825zM90.35 6.75V3.5h7.55V21h-4.05V6.75Z"/></g></svg>