<svg xmlns="http://www.w3.org/2000/svg" viewBox="0 0 104 25"><path d="M5 0h94a5 5 0 0 1 5 5v15a5 5 0 0 1-5 5H5a5 5 0 0 1-5-5V5a5 5 0 0 1 5-5Z" style="fill:#000"/><g aria-label="ILI9481" style="font-weight:700;font-size:25px;font-family:Montserrat;letter-spacing:1.1px;fill:#fffffc"><path d="M11.125 21h-4.05V3.5h4.05zM29.2 21H16.375V3.5h4.05v14.2H29.2zM36.625 21h-4.05V3.5h4.05zM46.925 3.2q3.675 0 5.75 2.25 2.075 2.225 2.075 6.425 0 2.975-1.125 5.1-1.1 2.125-3.125 3.225t-4.675 1.1q-1.4 0-2.675-.3-1.275-.325-2.175-.9l1.5-2.975Q43.75 18 45.75 18q2.225 0 3.525-1.3 1.3-1.325 1.4-3.8-1.575 1.575-4.35 1.575-1.675 0-3.05-.675-1.375-.675-2.175-1.9-.8-1.25-.8-2.875 0-1.75.875-3.075.875-1.325 2.375-2.025 1.525-.725 3.375-.725zm.3 8.25q1.325 0 2.15-.725.85-.75.85-1.9T49.4 6.95q-.8-.725-2.225-.725-1.3 0-2.125.7-.8.7-.8 1.9t.8 1.925q.825.7 2.175.7zM70.975 14.025h2.85v3.3h-2.85V21h-3.95v-3.675H57.6V14.6l8.25-11.1h4.25l-7.65 10.525h4.7V10.75h3.825zM88.35 11.8q1.3.65 1.975 1.7.7 1.05.7 2.425 0 1.625-.925 2.85-.925 1.2-2.6 1.875-1.675.65-3.875.65t-3.875-.65q-1.65-.675-2.575-1.875-.9-1.225-.9-2.85 0-1.375.675-2.425.7-1.05 1.975-1.7-.975-.6-1.5-1.5-.525-.925-.525-2.1 0-1.525.85-2.65t2.375-1.725q1.525-.625 3.5-.625 2 0 3.525.625 1.55.6 2.4 1.725.85 1.125.85 2.65 0 1.175-.525 2.1-.525.9-1.525 1.5zm-4.725-5.625q-1.225 0-1.975.6-.725.575-.725 1.6 0 1 .725 1.575t1.975.575q1.25 0 2-.575t.75-1.575q0-1.025-.75-1.6-.75-.6-2-.6zm0 12.15q1.525 0 2.4-.675.9-.7.9-1.85 0-1.15-.9-1.825-.875-.675-2.4-.675-1.5 0-2.375.675t-.875 1.825q0 1.175.875 1.85t2.375.675zM93.175 6.75V3.5h7.55V21h-4.05V6.75Z"/></g></svg>