<?xml version="1.0" encoding="UTF-8" standalone="no"?>
<!-- Created with Inkscape (http://www.inkscape.org/) -->

<svg
   xmlns:dc="http://purl.org/dc/elements/1.1/"
   xmlns:cc="http://creativecommons.org/ns#"
   xmlns:rdf="http://www.w3.org/1999/02/22-rdf-syntax-ns#"
   xmlns:svg="http://www.w3.org/2000/svg"
   xmlns="http://www.w3.org/2000/svg"
   xmlns:sodipodi="http://sodipodi.sourceforge.net/DTD/sodipodi-0.dtd"
   xmlns:inkscape="http://www.inkscape.org/namespaces/inkscape"
   width="52.211113mm"
   height="9.9613209mm"
   viewBox="0 0 185.00001 35.296019"
   id="svg8145"
   version="1.1"
   inkscape:version="0.91 r13725"
   sodipodi:docname="logo-jablotron.svg">
  <defs
     id="defs8147">
    <clipPath
       id="clipPath8082"
       clipPathUnits="userSpaceOnUse">
      <path
         inkscape:connector-curvature="0"
         id="path8084"
         d="m 0,0 l 595.276,0 l 0,841.89 L 0,841.89 L 0,0 Z" />
    </clipPath>
  </defs>
  <sodipodi:namedview
     id="base"
     pagecolor="#ffffff"
     bordercolor="#666666"
     borderopacity="1.0"
     inkscape:pageopacity="0.0"
     inkscape:pageshadow="2"
     inkscape:zoom="1.979899"
     inkscape:cx="112.62942"
     inkscape:cy="96.075967"
     inkscape:document-units="px"
     inkscape:current-layer="layer1"
     showgrid="false"
     fit-margin-top="0"
     fit-margin-left="0"
     fit-margin-right="0"
     fit-margin-bottom="0"
     inkscape:window-width="2560"
     inkscape:window-height="1361"
     inkscape:window-x="-9"
     inkscape:window-y="-9"
     inkscape:window-maximized="1" />
  <metadata
     id="metadata8150">
    <rdf:RDF>
      <cc:Work
         rdf:about="">
        <dc:format>image/svg+xml</dc:format>
        <dc:type
           rdf:resource="http://purl.org/dc/dcmitype/StillImage" />
        <dc:title></dc:title>
      </cc:Work>
    </rdf:RDF>
  </metadata>
  <g
     inkscape:label="Layer 1"
     inkscape:groupmode="layer"
     id="layer1"
     transform="translate(-9.6722493e-7,-1017.0661)">
    <g
       id="g8078"
       transform="matrix(0.96023735,0,0,-0.96023735,-352.01677,1794.7087)">
      <g
         clip-path="url(#clipPath8082)"
         id="g8080">
        <g
           transform="translate(553.4205,806.4563)"
           id="g8086">
          <path
             inkscape:connector-curvature="0"
             id="path8088"
             style="fill:#231f20;fill-opacity:1;fill-rule:nonzero;stroke:none"
             d="M 0,0 L 0,-14.922 L -9.515,0 l -7.358,0 l 0,-23.956 l 5.646,0 l 0,15.742 l 9.824,-15.742 l 6.981,0 L 5.578,0 L 0,0 Z m -39.016,-11.979 c 0,3.765 2.978,6.708 6.743,6.708 c 3.765,0 6.708,-2.943 6.708,-6.708 c 0,-3.764 -2.943,-6.742 -6.708,-6.742 c -3.765,0 -6.743,2.978 -6.743,6.742 m -5.715,0 c 0,-6.981 5.476,-12.456 12.458,-12.456 c 6.982,0 12.458,5.475 12.458,12.456 c 0,6.982 -5.476,12.458 -12.458,12.458 c -6.982,0 -12.458,-5.476 -12.458,-12.458 m -10.677,7.086 c 1.847,0 2.976,-1.507 2.976,-2.842 c 0,-1.335 -0.82,-2.908 -3.628,-2.908 l -3.01,0 l 0,5.75 l 3.662,0 z m 3.285,-19.063 l 6.81,0 l -5.408,9.445 c 3.15,1.54 4.314,4.517 4.314,6.947 c 0,3.799 -3.252,7.564 -8.556,7.564 l -9.994,0 l 0,-23.956 l 5.887,0 l 0,8.418 l 2.669,0 l 4.278,-8.418 z M -85.971,0 l 0,-4.893 l 6.366,0 l 0,-19.063 l 5.99,0 l 0,19.063 l 6.776,0 l 0,4.893 l -19.132,0 z m -13.141,0.479 l 0.445,0 c 6.981,0 12.457,-5.476 12.457,-12.458 c 0,-6.981 -5.476,-12.456 -12.457,-12.456 c -6.982,0 -12.458,5.475 -12.458,12.456 c 0,0.651 0.035,1.267 0.102,1.883 l 5.614,-1.712 l 0,-0.171 c 0,-3.764 2.976,-6.742 6.742,-6.742 c 3.765,0 6.708,2.978 6.708,6.742 c 0,3.491 -2.602,6.263 -5.989,6.64 l -1.164,5.818 z m -21.047,-19.542 l 0,19.063 l -6.025,0 l 0,-23.956 l 14.922,0 l 0,4.893 l -8.897,0 z m -17.9,14.17 c 1.78,0 2.703,-1.028 2.703,-2.328 c 0,-1.3 -1.128,-2.293 -2.909,-2.293 l -3.489,0 l 0,4.621 l 3.695,0 z m 0,-9.516 c 1.711,0 3.046,-1.026 3.046,-2.327 c 0,-1.3 -1.266,-2.327 -3.046,-2.327 l -3.695,0 l 0,4.654 l 3.695,0 z m -9.583,-9.547 l 9.583,0 c 5.066,0 9.104,2.908 9.104,6.638 c 0,3.081 -1.985,4.929 -4.551,5.682 c 2.429,0.787 4.038,2.772 4.038,5.681 c 0,3.662 -2.977,5.955 -8.591,5.955 l -9.583,0 l 0,-23.956 z m -14.27,17.59 l 2.875,-8.316 l -5.75,0 l 2.875,8.316 z M -158.559,0 l -6.604,0 l -9.001,-23.956 l 6.16,0 l 1.506,4.38 l 9.138,0 l 1.54,-4.38 l 6.638,0 L -158.559,0 Z m -28.268,-23.956 c 1.027,-0.206 2.875,-0.377 3.97,-0.377 c 6.023,0 8.282,3.354 8.282,8.658 l 0,15.675 l -5.921,0 l 0,-14.237 c 0,-3.902 -1.609,-4.86 -3.49,-4.86 c -0.788,0 -1.712,0.102 -2.499,0.308 l -0.342,-5.167 z" />
        </g>
        <g
           transform="translate(454.8902,794.3411)"
           id="g8090">
          <path
             inkscape:connector-curvature="0"
             id="path8092"
             style="fill:#fab20b;fill-opacity:1;fill-rule:nonzero;stroke:none"
             d="M 0,0 L -3.217,15.503 C -8.932,14.408 -13.416,10.267 -15.093,4.826 L 0,0 Z" />
        </g>
        <g
           transform="translate(558.0992,774.5095)"
           id="g8094">
          <path
             inkscape:connector-curvature="0"
             id="path8096"
             style="fill:#918f90;fill-opacity:1;fill-rule:nonzero;stroke:none"
             d="m 0,0 c 0,-0.268 -0.314,-0.405 -0.726,-0.405 c -0.345,0 -0.633,0.085 -0.901,0.163 l -0.04,-1.051 c 0.275,-0.072 0.811,-0.13 1.281,-0.13 c 1.104,0 1.541,0.737 1.541,1.462 c 0,1.34 -1.769,1.255 -1.769,1.909 c 0,0.274 0.313,0.353 0.666,0.353 c 0.307,0 0.594,-0.059 0.842,-0.164 l 0.04,1.052 C 0.659,3.267 0.274,3.326 -0.138,3.326 c -1.006,0 -1.627,-0.588 -1.627,-1.417 C -1.765,0.464 0,0.621 0,0 m -7.481,-1.339 l 1.097,0 l 0.993,2.907 l 0,-2.907 l 1.111,0 l 0,4.573 l -1.529,0 L -6.933,0.131 l -1.144,3.103 l -1.515,0 l 0,-4.573 l 1.077,0 l 0,2.901 l 1.034,-2.901 z m -6.358,3.64 c 0.354,0 0.569,-0.288 0.569,-0.543 c 0,-0.255 -0.157,-0.556 -0.693,-0.556 l -0.575,0 l 0,1.099 l 0.699,0 z m 0.628,-3.64 l 1.299,0 l -1.031,1.804 c 0.6,0.293 0.822,0.861 0.822,1.326 c 0,0.725 -0.62,1.443 -1.633,1.443 l -1.907,0 l 0,-4.573 l 1.123,0 l 0,1.608 l 0.51,0 l 0.817,-1.608 z m -7.103,3.358 l 0.549,-1.588 l -1.097,0 l 0.548,1.588 z m 0.641,1.215 l -1.261,0 l -1.718,-4.573 l 1.175,0 l 0.288,0.837 l 1.745,0 l 0.294,-0.837 l 1.267,0 l -1.79,4.573 z m -6.201,-3.639 l 0,3.639 l -1.148,0 l 0,-4.573 l 2.847,0 l 0,0.934 l -1.699,0 z m -5.802,2.424 l 0.549,-1.588 l -1.097,0 l 0.548,1.588 z m 0.641,1.215 l -1.261,0 l -1.719,-4.573 l 1.176,0 l 0.288,0.837 l 1.744,0 l 0.294,-0.837 l 1.268,0 l -1.79,4.573 z m -9.71,-2.286 l -1.109,0 l 0,-1.32 c -0.785,0 -1.413,0.411 -1.413,1.307 c 0,0.83 0.616,1.333 1.354,1.333 c 0.372,0 0.758,-0.039 1.057,-0.163 l 0.041,1.084 c -0.276,0.091 -0.726,0.137 -1.144,0.137 c -1.379,0 -2.403,-1.012 -2.403,-2.398 c 0,-1.392 1.024,-2.351 2.455,-2.351 c 0.366,0 0.888,0.052 1.162,0.137 l 0,2.234 z m -7.146,2.286 l 0,-2.848 l -1.817,2.848 l -1.404,0 l 0,-4.573 l 1.077,0 l 0,3.005 l 1.876,-3.005 l 1.332,0 l 0,4.573 l -1.064,0 z m -7.089,-4.573 l 1.123,0 l 0,4.573 l -1.123,0 l 0,-4.573 z m -6.004,4.573 l 0,-0.933 l 1.215,0 l 0,-3.64 l 1.142,0 l 0,3.64 l 1.294,0 l 0,0.933 l -3.651,0 z m -3.804,-1.215 l 0.55,-1.588 l -1.099,0 l 0.549,1.588 z m 0.641,1.215 l -1.261,0 l -1.719,-4.573 l 1.176,0 l 0.288,0.837 l 1.744,0 l 0.294,-0.837 l 1.269,0 l -1.791,4.573 z m -8.108,-4.573 l 3.037,0 l 0,0.934 l -1.914,0 l 0,0.896 l 1.849,0 l 0,0.933 l -1.849,0 l 0,0.877 l 1.914,0 l 0,0.933 l -3.037,0 l 0,-4.573 z m -4.247,3.64 c 0.354,0 0.568,-0.288 0.568,-0.543 c 0,-0.255 -0.156,-0.556 -0.693,-0.556 l -0.575,0 l 0,1.099 l 0.7,0 z m 0.627,-3.64 l 1.3,0 l -1.031,1.804 c 0.6,0.293 0.822,0.861 0.822,1.326 c 0,0.725 -0.62,1.443 -1.633,1.443 l -1.908,0 l 0,-4.573 l 1.123,0 l 0,1.608 l 0.511,0 l 0.816,-1.608 z m -5.038,1.13 c -0.287,-0.105 -0.574,-0.163 -0.907,-0.163 c -0.811,0 -1.393,0.522 -1.393,1.307 c 0,0.83 0.614,1.333 1.354,1.333 c 0.372,0 0.627,-0.039 0.926,-0.163 l 0.04,1.084 c -0.275,0.084 -0.594,0.137 -1.012,0.137 c -1.38,0 -2.405,-1.019 -2.405,-2.404 c 0,-1.334 1.025,-2.345 2.405,-2.345 c 0.397,0 0.758,0.052 1.031,0.13 l -0.039,1.084 z" />
        </g>
      </g>
    </g>
  </g>
</svg>
