<svg xmlns="http://www.w3.org/2000/svg" width="493.56" height="116.85" version="1.1" viewBox="0 0 130.59 30.916"><g><path stroke-width="2.672" d="m5.0006-2.5483e-5h120.59c2.7704 0 5.0006 2.2303 5.0006 5.0006v20.914c0 2.7704-2.2303 5.0006-5.0006 5.0006h-120.59c-2.7704 0-5.0006-2.2303-5.0006-5.0006v-20.914c0-2.7704 2.2303-5.0006 5.0006-5.0006z"/><g fill="#fffffc" stroke-width=".265" aria-label="LibreTiny"><path d="m5.8934 23.398v-15.805h5.3284v11.673h7.1346v4.1318z"/><path d="m20.781 23.398v-12.35h5.1026v12.35zm2.5513-13.344q-1.3998 0-2.2352-0.74507-0.83538-0.74507-0.83538-1.8514t0.83538-1.8514q0.83538-0.74507 2.2352-0.74507t2.2352 0.69991 0.83538 1.8062q0 1.1741-0.83538 1.9417-0.83538 0.74507-2.2352 0.74507z"/><path d="m37.498 23.623q-1.6933 0-2.7319-0.67734-1.0386-0.67734-1.5127-2.0997-0.45156-1.4224-0.45156-3.635 0-2.1901 0.49671-3.5899 0.49671-1.4224 1.5353-2.0997 1.0612-0.69992 2.6642-0.69992 1.6256 0 2.9803 0.76765 1.3547 0.76765 2.1675 2.2126 0.8128 1.4224 0.8128 3.4093 0 1.9869-0.8128 3.4318-0.8128 1.4224-2.1675 2.2126-1.3547 0.76765-2.9803 0.76765zm-8.2409-0.22578v-16.753h5.1026v6.0509l-0.22578 4.5156-0.02258 4.5156v1.6708zm7.0217-3.7479q0.56445 0 1.016-0.27094t0.72249-0.8128q0.27094-0.56445 0.27094-1.3547 0-0.8128-0.27094-1.3321-0.27094-0.54187-0.72249-0.8128t-1.016-0.27094q-0.56445 0-1.016 0.27094t-0.72249 0.8128q-0.27093 0.51929-0.27093 1.3321 0 0.79023 0.27093 1.3547 0.27094 0.54187 0.72249 0.8128t1.016 0.27094z"/><path d="m46.155 23.398v-12.35h4.8542v3.7254l-0.79023-1.0612q0.56445-1.445 1.8062-2.1675 1.2418-0.72249 2.9803-0.72249v4.5156q-0.33867-0.04516-0.6096-0.06773-0.24836-0.02258-0.51929-0.02258-1.1515 0-1.8965 0.6096-0.72249 0.58702-0.72249 2.0546v5.4864z"/><path d="m64.227 23.623q-2.2578 0-3.9511-0.83538-1.6708-0.83538-2.5965-2.2804-0.92569-1.4676-0.92569-3.2964 0-1.874 0.90312-3.319 0.92569-1.445 2.5061-2.2578 1.603-0.8128 3.5899-0.8128 1.8288 0 3.3641 0.72249 1.5579 0.72249 2.4836 2.1449 0.94827 1.4224 0.94827 3.5222 0 0.27093-0.02258 0.6096-0.02258 0.31609-0.04516 0.58702h-9.5053v-2.461h6.7959l-1.9191 0.65476q0-0.72249-0.27094-1.2192-0.24836-0.51929-0.69991-0.79023-0.45156-0.29351-1.0837-0.29351-0.63218 0-1.1063 0.29351-0.45156 0.27094-0.69992 0.79023-0.24836 0.49671-0.24836 1.2192v0.76765q0 0.79023 0.31609 1.3547 0.31609 0.56445 0.90312 0.85796 0.58702 0.27094 1.4224 0.27094 0.85796 0 1.3998-0.22578 0.56445-0.22578 1.174-0.67734l2.6642 2.6868q-0.90312 0.97085-2.2352 1.4901-1.3095 0.49671-3.1609 0.49671z"/><path d="m74.81 23.398v-11.673h-4.6285v-4.1318h14.585v4.1318h-4.6285v11.673z"/><path d="m87.104 23.398v-12.35h5.1026v12.35zm2.5513-13.344q-1.3998 0-2.2352-0.74507-0.83538-0.74507-0.83538-1.8514t0.83538-1.8514q0.83538-0.74507 2.2352-0.74507 1.3998 0 2.2352 0.69991 0.83538 0.69991 0.83538 1.8062 0 1.1741-0.83538 1.9417-0.83538 0.74507-2.2352 0.74507z"/><path d="m104.16 10.822q1.4224 0 2.5739 0.58702 1.1515 0.56445 1.8062 1.7837 0.67733 1.2192 0.67733 3.1609v7.0443h-5.1026v-6.1638q0-1.1515-0.4064-1.6256-0.40641-0.49671-1.1063-0.49671-0.51929 0-0.97085 0.24836-0.42898 0.22578-0.69992 0.76765-0.24835 0.54187-0.24835 1.4676v5.8025h-5.1026v-12.35h4.8542v3.6125l-0.97085-1.0386q0.72249-1.3998 1.9417-2.0997 1.2418-0.69992 2.7545-0.69992z"/><path d="m115.01 28.004q-1.016 0-2.0772-0.31609-1.0386-0.29351-1.6708-0.79023l1.6933-3.4996q0.38382 0.29351 0.85796 0.47414 0.49671 0.18062 0.94827 0.18062 0.67734 0 1.0386-0.29351 0.36125-0.27094 0.58703-0.83538l0.51929-1.3095 0.36125-0.49671 3.9511-10.07h4.8317l-5.08 12.598q-0.67733 1.6933-1.5804 2.6416-0.88054 0.94827-1.9868 1.3321-1.0837 0.38382-2.3933 0.38382zm1.1966-4.0414-5.3735-12.915h5.2381l3.7028 9.6182z"/></g></g></svg>