<svg xmlns="http://www.w3.org/2000/svg" xmlns:xlink="http://www.w3.org/1999/xlink" id="Layer_2" data-name="Layer 2" viewBox="0 0 592.88 259.88"><defs><style>.cls-1{fill:none}.cls-1,.cls-2,.cls-3,.cls-4{stroke-width:0}.cls-2{fill:#f2f4f9}.cls-3{fill:#18bcf2}.cls-5{clip-path:url(#clippath)}.cls-4{fill:#007fa8}</style><clipPath id="clippath"><rect width="120" height="120" x="2" y="136.88" class="cls-1" rx="8" ry="8"/></clipPath></defs><g id="Layer_1-2" data-name="Layer 1"><g><g><path d="M213.38,84.7v11.25h-43.5V25.87h43.5v11.34h-31.59v18.14h28.22v10.55h-28.22v18.8h31.59Z" class="cls-3"/><path d="M246.45,24.6c6.41,0,11.73,1.56,15.98,4.69,4.25,3.12,6.86,7.3,7.83,12.52l-11.2,3.05c-.63-3-2.09-5.31-4.38-6.94-2.3-1.62-5.13-2.44-8.51-2.44-3.63,0-6.5.87-8.62,2.6-2.13,1.73-3.19,4.04-3.19,6.91,0,4.53,2.81,7.47,8.44,8.81l11.44,2.86c5.91,1.53,10.33,3.96,13.27,7.29,2.94,3.33,4.41,7.43,4.41,12.3,0,6.25-2.27,11.3-6.8,15.16-4.53,3.86-10.59,5.79-18.19,5.79-6.84,0-12.63-1.61-17.34-4.83-4.66-3.34-7.41-7.75-8.25-13.22l11.2-2.91c.41,3.09,1.95,5.52,4.62,7.27,2.67,1.75,6.07,2.62,10.2,2.62s7.09-.84,9.35-2.51c2.27-1.67,3.4-3.94,3.4-6.82,0-4.5-2.81-7.47-8.44-8.91l-11.44-2.77c-5.88-1.34-10.29-3.73-13.24-7.15s-4.43-7.6-4.43-12.54c0-6.19,2.2-11.21,6.59-15.07,4.39-3.86,10.16-5.79,17.32-5.79Z" class="cls-3"/><path d="M333,48.7c0,6.88-2.09,12.44-6.26,16.69-4.17,4.25-9.79,6.38-16.85,6.38h-15.75v24.19h-11.91V25.87h27.75c7.12,0,12.74,2.06,16.85,6.16,4.11,4.11,6.16,9.66,6.16,16.66ZM320.53,48.42c0-3.53-1.1-6.4-3.3-8.6s-5.32-3.3-9.35-3.3h-13.73v24.8h13.55c4.12,0,7.3-1.17,9.52-3.52,2.22-2.34,3.33-5.47,3.33-9.38Z" class="cls-3"/><path d="M342.68,25.87h11.91v29.3l30.89.09v-29.39h12v70.08h-12v-30.14l-30.89-.09v30.23h-11.91V25.87Z" class="cls-3"/><path d="M432.33,47.29c7.25,0,13.16,2.33,17.72,6.98,4.56,4.66,6.84,10.64,6.84,17.95s-2.28,13.25-6.84,17.91c-4.56,4.66-10.47,6.98-17.72,6.98s-13.25-2.33-17.81-6.98c-4.56-4.66-6.84-10.62-6.84-17.91s2.28-13.34,6.84-17.98c4.56-4.64,10.5-6.96,17.81-6.96ZM432.33,86.9c3.87,0,7.02-1.37,9.45-4.1,2.42-2.73,3.63-6.29,3.63-10.66s-1.21-7.91-3.63-10.62c-2.42-2.7-5.57-4.05-9.45-4.05s-7.17,1.35-9.61,4.05c-2.44,2.7-3.66,6.24-3.66,10.62s1.22,7.93,3.66,10.66c2.44,2.74,5.64,4.1,9.61,4.1Z" class="cls-3"/><path d="M537.87,65.81v30.14h-11.02v-28.41c0-3.28-.84-5.84-2.53-7.69-1.69-1.84-3.98-2.77-6.89-2.77-3.09,0-5.56,1.01-7.41,3.02-1.84,2.02-2.77,4.84-2.77,8.46v27.38h-11.16v-28.41c0-3.28-.82-5.84-2.46-7.69-1.64-1.84-3.91-2.77-6.82-2.77-3.09,0-5.58,1.01-7.45,3.02s-2.81,4.84-2.81,8.46v27.38h-11.34v-47.34h10.55l.38,4.55c2.75-4.03,7.23-6.05,13.45-6.05,3.62,0,6.77.75,9.42,2.25,2.66,1.5,4.67,3.69,6.05,6.56,1.16-2.75,3.07-4.91,5.74-6.47,2.67-1.56,5.85-2.34,9.54-2.34,5.37,0,9.64,1.66,12.8,4.97,3.16,3.31,4.73,7.89,4.73,13.73Z" class="cls-3"/><path d="M592.88,76.45h-36.28c.38,3.56,1.72,6.28,4.03,8.16,2.31,1.88,5.25,2.81,8.81,2.81,5.78,0,9.83-2.41,12.14-7.22l9.47,3.75c-1.78,4.16-4.59,7.41-8.41,9.75-3.83,2.34-8.23,3.52-13.2,3.52-7,0-12.68-2.29-17.04-6.87-4.36-4.58-6.54-10.59-6.54-18.02s2.2-13.48,6.59-18.14c4.39-4.66,10.13-6.98,17.23-6.98s12.58,2.3,16.83,6.89c4.25,4.59,6.38,10.64,6.38,18.14v4.22ZM556.79,68.48h24.56c-.22-3.84-1.38-6.77-3.49-8.79s-4.95-3.02-8.51-3.02-6.41,1.02-8.62,3.07c-2.22,2.05-3.53,4.96-3.94,8.74Z" class="cls-3"/><path d="M220.27,180.6c-1.47-4.66-4.06-8.3-7.78-10.92-3.72-2.62-8.16-3.94-13.31-3.94-7.22,0-13.06,2.55-17.53,7.64-4.47,5.09-6.7,11.77-6.7,20.02s2.23,15.02,6.68,20.02c4.45,5,10.27,7.5,17.46,7.5,5.12,0,9.62-1.27,13.5-3.8,3.84-2.53,6.5-5.83,7.97-9.89l7.78,3.33c-2.22,5.69-5.95,10.2-11.2,13.55-5.28,3.28-11.34,4.92-18.19,4.92-9.69,0-17.55-3.27-23.58-9.82-6.03-6.55-9.05-15.15-9.05-25.8,0-7,1.38-13.21,4.12-18.63,2.75-5.42,6.62-9.62,11.6-12.61,4.98-2.98,10.69-4.48,17.13-4.48,7.28,0,13.45,1.86,18.52,5.58,5.09,3.66,8.55,8.48,10.36,14.48l-7.78,2.86Z" class="cls-4"/><path d="M259.06,179.95c6.97,0,12.66,2.34,17.09,7.01,4.42,4.67,6.63,10.52,6.63,17.55s-2.21,12.89-6.63,17.58c-4.42,4.69-10.12,7.03-17.09,7.03s-12.66-2.34-17.09-7.03c-4.42-4.69-6.63-10.55-6.63-17.58s2.22-12.88,6.66-17.55c4.44-4.67,10.12-7.01,17.06-7.01ZM259.06,221.99c4.75,0,8.55-1.62,11.39-4.88,2.91-3.34,4.36-7.55,4.36-12.61s-1.45-9.12-4.36-12.47c-2.81-3.31-6.61-4.97-11.39-4.97s-8.53,1.66-11.34,4.97c-2.88,3.31-4.31,7.47-4.31,12.47s1.44,9.3,4.31,12.61c2.84,3.25,6.62,4.88,11.34,4.88Z" class="cls-4"/><path d="M313.08,180.6c1.53,0,3.19.2,4.97.61v7.27c-1.72-.38-3.38-.56-4.97-.56-4,0-7.13,1.26-9.4,3.77-2.27,2.52-3.4,5.96-3.4,10.34v25.92h-7.97v-46.64h7.41l.38,5.86c1-2.06,2.66-3.67,4.99-4.83,2.33-1.16,4.99-1.73,7.99-1.73Z" class="cls-4"/><path d="M366.54,208.07h-37.73c.38,4.53,1.93,8.03,4.66,10.5,2.73,2.47,6.19,3.7,10.38,3.7,3.25,0,6.09-.77,8.51-2.32,2.42-1.55,4.29-3.71,5.6-6.49l6.66,2.77c-1.88,4.09-4.65,7.27-8.32,9.52-3.67,2.25-7.88,3.38-12.63,3.38-6.69,0-12.12-2.24-16.29-6.73-4.17-4.48-6.26-10.38-6.26-17.7s2.09-13.23,6.26-17.84c4.17-4.61,9.7-6.91,16.57-6.91s12.2,2.24,16.36,6.73c4.16,4.48,6.23,10.43,6.23,17.84v3.56ZM328.81,202.21h29.58c-.19-4.97-1.58-8.8-4.17-11.51-2.59-2.7-6.05-4.05-10.36-4.05s-7.8,1.37-10.48,4.1c-2.67,2.74-4.2,6.56-4.57,11.46Z" class="cls-4"/></g><rect width="120" height="120" x="2" y="136.88" class="cls-4" rx="8" ry="8"/><g><path d="M120,109.38c0,4.12-3.38,7.5-7.5,7.5H7.5c-4.12,0-7.5-3.38-7.5-7.5v-45c0-4.12,2.39-9.89,5.3-12.8L54.7,2.19c2.92-2.92,7.69-2.92,10.61,0l49.39,49.39c2.92,2.92,5.3,8.68,5.3,12.8v45Z" class="cls-3"/><path d="M80,39.21h-40c-1.66,0-3,1.34-3,3v74.67h6V45.21h34v6h-25c-1.66,0-3,1.34-3,3v12c0,1.66,1.34,3,3,3h25v6h-25c-1.66,0-3,1.34-3,3v12c0,1.66,1.34,3,3,3h25v6h-25c-1.66,0-3,1.34-3,3s1.34,3,3,3h28c1.66,0,3-1.34,3-3v-12c0-1.66-1.34-3-3-3h-25v-6h25c1.66,0,3-1.34,3-3v-12c0-1.66-1.34-3-3-3h-25v-6h25c1.66,0,3-1.34,3-3v-12c0-1.66-1.34-3-3-3Z" class="cls-2"/></g><g class="cls-5"><path d="M62,259.88c-1.66,0-3-1.34-3-3v-35.68c-12.1-1.48-21.5-11.82-21.5-24.32,0-13.51,10.99-24.5,24.5-24.5s24.5,10.99,24.5,24.5c0,8.37-4.21,16.08-11.25,20.61-1.39.9-3.25.49-4.15-.9-.9-1.39-.49-3.25.9-4.15,5.32-3.43,8.5-9.25,8.5-15.57,0-10.2-8.3-18.5-18.5-18.5s-18.5,8.3-18.5,18.5,8.3,18.5,18.5,18.5c1.66,0,3,1.34,3,3v38.5c0,1.66-1.34,3-3,3Z" class="cls-2"/></g></g></g></svg>