<svg xmlns="http://www.w3.org/2000/svg" id="Layer_2" data-name="Layer 2" viewBox="0 0 592.88 256.88"><defs><style>.cls-1{fill:#f2f4f9}.cls-1,.cls-2,.cls-3{stroke-width:0}.cls-2{fill:#18bcf2}.cls-3{fill:#007fa8}</style></defs><g id="Layer_1-2" data-name="Layer 1"><g><g><path d="M213.38,84.7v11.25h-43.5V25.87h43.5v11.34h-31.59v18.14h28.22v10.55h-28.22v18.8h31.59Z" class="cls-2"/><path d="M246.45,24.6c6.41,0,11.73,1.56,15.98,4.69,4.25,3.12,6.86,7.3,7.83,12.52l-11.2,3.05c-.63-3-2.09-5.31-4.38-6.94-2.3-1.62-5.13-2.44-8.51-2.44-3.63,0-6.5.87-8.62,2.6-2.13,1.73-3.19,4.04-3.19,6.91,0,4.53,2.81,7.47,8.44,8.81l11.44,2.86c5.91,1.53,10.33,3.96,13.27,7.29,2.94,3.33,4.41,7.43,4.41,12.3,0,6.25-2.27,11.3-6.8,15.16-4.53,3.86-10.59,5.79-18.19,5.79-6.84,0-12.63-1.61-17.34-4.83-4.66-3.34-7.41-7.75-8.25-13.22l11.2-2.91c.41,3.09,1.95,5.52,4.62,7.27,2.67,1.75,6.07,2.62,10.2,2.62s7.09-.84,9.35-2.51c2.27-1.67,3.4-3.94,3.4-6.82,0-4.5-2.81-7.47-8.44-8.91l-11.44-2.77c-5.88-1.34-10.29-3.73-13.24-7.15s-4.43-7.6-4.43-12.54c0-6.19,2.2-11.21,6.59-15.07,4.39-3.86,10.16-5.79,17.32-5.79Z" class="cls-2"/><path d="M333,48.7c0,6.88-2.09,12.44-6.26,16.69-4.17,4.25-9.79,6.38-16.85,6.38h-15.75v24.19h-11.91V25.87h27.75c7.12,0,12.74,2.06,16.85,6.16,4.11,4.11,6.16,9.66,6.16,16.66ZM320.53,48.42c0-3.53-1.1-6.4-3.3-8.6s-5.32-3.3-9.35-3.3h-13.73v24.8h13.55c4.12,0,7.3-1.17,9.52-3.52,2.22-2.34,3.33-5.47,3.33-9.38Z" class="cls-2"/><path d="M342.68,25.87h11.91v29.3l30.89.09v-29.39h12v70.08h-12v-30.14l-30.89-.09v30.23h-11.91V25.87Z" class="cls-2"/><path d="M432.33,47.29c7.25,0,13.16,2.33,17.72,6.98,4.56,4.66,6.84,10.64,6.84,17.95s-2.28,13.25-6.84,17.91c-4.56,4.66-10.47,6.98-17.72,6.98s-13.25-2.33-17.81-6.98c-4.56-4.66-6.84-10.62-6.84-17.91s2.28-13.34,6.84-17.98c4.56-4.64,10.5-6.96,17.81-6.96ZM432.33,86.9c3.87,0,7.02-1.37,9.45-4.1,2.42-2.73,3.63-6.29,3.63-10.66s-1.21-7.91-3.63-10.62c-2.42-2.7-5.57-4.05-9.45-4.05s-7.17,1.35-9.61,4.05c-2.44,2.7-3.66,6.24-3.66,10.62s1.22,7.93,3.66,10.66c2.44,2.74,5.64,4.1,9.61,4.1Z" class="cls-2"/><path d="M537.87,65.81v30.14h-11.02v-28.41c0-3.28-.84-5.84-2.53-7.69-1.69-1.84-3.98-2.77-6.89-2.77-3.09,0-5.56,1.01-7.41,3.02-1.84,2.02-2.77,4.84-2.77,8.46v27.38h-11.16v-28.41c0-3.28-.82-5.84-2.46-7.69-1.64-1.84-3.91-2.77-6.82-2.77-3.09,0-5.58,1.01-7.45,3.02s-2.81,4.84-2.81,8.46v27.38h-11.34v-47.34h10.55l.38,4.55c2.75-4.03,7.23-6.05,13.45-6.05,3.62,0,6.77.75,9.42,2.25,2.66,1.5,4.67,3.69,6.05,6.56,1.16-2.75,3.07-4.91,5.74-6.47,2.67-1.56,5.85-2.34,9.54-2.34,5.37,0,9.64,1.66,12.8,4.97,3.16,3.31,4.73,7.89,4.73,13.73Z" class="cls-2"/><path d="M592.88,76.45h-36.28c.38,3.56,1.72,6.28,4.03,8.16,2.31,1.88,5.25,2.81,8.81,2.81,5.78,0,9.83-2.41,12.14-7.22l9.47,3.75c-1.78,4.16-4.59,7.41-8.41,9.75-3.83,2.34-8.23,3.52-13.2,3.52-7,0-12.68-2.29-17.04-6.87-4.36-4.58-6.54-10.59-6.54-18.02s2.2-13.48,6.59-18.14c4.39-4.66,10.13-6.98,17.23-6.98s12.58,2.3,16.83,6.89c4.25,4.59,6.38,10.64,6.38,18.14v4.22ZM556.79,68.48h24.56c-.22-3.84-1.38-6.77-3.49-8.79s-4.95-3.02-8.51-3.02-6.41,1.02-8.62,3.07c-2.22,2.05-3.53,4.96-3.94,8.74Z" class="cls-2"/><path d="M206.34,198.65l13.83,29.3h-9.33l-12.84-28.03h-19.22v28.03h-8.25v-69.14h26.39c7.28,0,12.98,1.82,17.09,5.46,4.11,3.64,6.16,8.65,6.16,15.02,0,4.94-1.21,9.1-3.63,12.49-2.42,3.39-5.82,5.68-10.2,6.87ZM211.45,179.38c0-4.09-1.27-7.3-3.82-9.61-2.55-2.31-6.12-3.47-10.71-3.47h-18.14v26.11h18.28c4.62,0,8.18-1.14,10.66-3.42,2.48-2.28,3.73-5.48,3.73-9.61Z" class="cls-3"/><path d="M271.34,208.07h-37.73c.38,4.53,1.93,8.03,4.66,10.5,2.73,2.47,6.19,3.7,10.38,3.7,3.25,0,6.09-.77,8.51-2.32,2.42-1.55,4.29-3.71,5.6-6.49l6.66,2.77c-1.88,4.09-4.65,7.27-8.32,9.52-3.67,2.25-7.88,3.38-12.63,3.38-6.69,0-12.12-2.24-16.29-6.73-4.17-4.48-6.26-10.38-6.26-17.7s2.09-13.23,6.26-17.84c4.17-4.61,9.7-6.91,16.57-6.91s12.2,2.24,16.36,6.73c4.16,4.48,6.23,10.43,6.23,17.84v3.56ZM233.6,202.21h29.58c-.19-4.97-1.58-8.8-4.17-11.51-2.59-2.7-6.05-4.05-10.36-4.05s-7.8,1.37-10.48,4.1c-2.67,2.74-4.2,6.56-4.57,11.46Z" class="cls-3"/><path d="M281.21,157.59h7.92v70.36h-7.92v-70.36Z" class="cls-3"/><path d="M344.23,208.07h-37.73c.38,4.53,1.93,8.03,4.66,10.5,2.73,2.47,6.19,3.7,10.38,3.7,3.25,0,6.09-.77,8.51-2.32,2.42-1.55,4.29-3.71,5.6-6.49l6.66,2.77c-1.88,4.09-4.65,7.27-8.32,9.52-3.67,2.25-7.88,3.38-12.63,3.38-6.69,0-12.12-2.24-16.29-6.73-4.17-4.48-6.26-10.38-6.26-17.7s2.09-13.23,6.26-17.84c4.17-4.61,9.7-6.91,16.57-6.91s12.2,2.24,16.36,6.73c4.16,4.48,6.23,10.43,6.23,17.84v3.56ZM306.5,202.21h29.58c-.19-4.97-1.58-8.8-4.17-11.51-2.59-2.7-6.05-4.05-10.36-4.05s-7.8,1.37-10.48,4.1c-2.67,2.74-4.2,6.56-4.57,11.46Z" class="cls-3"/><path d="M383.96,227.95c-.25-.97-.52-3.23-.8-6.8-1.38,2.41-3.48,4.34-6.3,5.79-2.83,1.45-6.04,2.18-9.63,2.18-5.13,0-9.23-1.34-12.33-4.03-3.09-2.69-4.64-6.25-4.64-10.69s1.55-8.05,4.66-10.73c3.11-2.69,7.24-4.03,12.4-4.03h15.75v-1.92c0-3.78-1.03-6.59-3.09-8.41s-4.97-2.74-8.72-2.74c-6.47,0-10.91,2.56-13.31,7.69l-5.95-3.47c3.69-7.22,10.25-10.83,19.69-10.83,5.97,0,10.64,1.49,14.02,4.48,3.38,2.98,5.06,7.54,5.06,13.66v20.44c0,4.22.3,7.36.89,9.42h-7.69ZM383.07,205.59h-14.02c-3.44,0-6.1.77-7.99,2.3-1.89,1.53-2.84,3.67-2.84,6.42s.94,4.82,2.81,6.3c1.88,1.48,4.45,2.23,7.73,2.23,4.38,0,7.85-1.41,10.43-4.24,2.58-2.83,3.87-6.73,3.87-11.7v-1.31Z" class="cls-3"/><path d="M417.26,222.56c2.94,0,5.3-.6,7.1-1.8,1.8-1.2,2.7-3.02,2.7-5.46,0-3.31-2.19-5.56-6.56-6.75l-7.08-1.92c-8.34-2.22-12.52-6.56-12.52-13.03,0-3.97,1.5-7.23,4.5-9.8,3-2.56,6.95-3.84,11.86-3.84,4.47,0,8.23,1.05,11.3,3.14,3.06,2.09,4.86,4.92,5.39,8.48l-6.98,1.64c-.22-2.03-1.21-3.65-2.98-4.85-1.77-1.2-3.95-1.8-6.54-1.8s-4.84.64-6.45,1.92c-1.61,1.28-2.41,2.98-2.41,5.11,0,1.72.58,3.12,1.73,4.2,1.16,1.08,2.92,1.95,5.3,2.6l6.98,1.92c4,1,7.05,2.61,9.14,4.83,2.09,2.22,3.14,4.94,3.14,8.16,0,4.22-1.57,7.58-4.71,10.08-3.14,2.5-7.41,3.75-12.82,3.75-4.94,0-8.97-1.11-12.09-3.33-3.12-2.22-4.95-5.19-5.48-8.91l7.08-1.31c.34,2.13,1.44,3.82,3.28,5.09,1.84,1.27,4.22,1.9,7.12,1.9Z" class="cls-3"/><path d="M487.04,208.07h-37.73c.38,4.53,1.93,8.03,4.66,10.5,2.73,2.47,6.19,3.7,10.38,3.7,3.25,0,6.09-.77,8.51-2.32,2.42-1.55,4.29-3.71,5.6-6.49l6.66,2.77c-1.88,4.09-4.65,7.27-8.32,9.52-3.67,2.25-7.88,3.38-12.63,3.38-6.69,0-12.12-2.24-16.29-6.73-4.17-4.48-6.26-10.38-6.26-17.7s2.09-13.23,6.26-17.84c4.17-4.61,9.7-6.91,16.57-6.91s12.2,2.24,16.36,6.73c4.16,4.48,6.23,10.43,6.23,17.84v3.56ZM449.3,202.21h29.58c-.19-4.97-1.58-8.8-4.17-11.51-2.59-2.7-6.05-4.05-10.36-4.05s-7.8,1.37-10.48,4.1c-2.67,2.74-4.2,6.56-4.57,11.46Z" class="cls-3"/></g><rect width="120" height="120" x="2" y="136.88" class="cls-3" rx="8" ry="8"/><g><path d="M120,109.38c0,4.12-3.38,7.5-7.5,7.5H7.5c-4.12,0-7.5-3.38-7.5-7.5v-45c0-4.12,2.39-9.89,5.3-12.8L54.7,2.19c2.92-2.92,7.69-2.92,10.61,0l49.39,49.39c2.92,2.92,5.3,8.68,5.3,12.8v45Z" class="cls-2"/><path d="M80,39.21h-40c-1.66,0-3,1.34-3,3v74.67h6V45.21h34v6h-25c-1.66,0-3,1.34-3,3v12c0,1.66,1.34,3,3,3h25v6h-25c-1.66,0-3,1.34-3,3v12c0,1.66,1.34,3,3,3h25v6h-25c-1.66,0-3,1.34-3,3s1.34,3,3,3h28c1.66,0,3-1.34,3-3v-12c0-1.66-1.34-3-3-3h-25v-6h25c1.66,0,3-1.34,3-3v-12c0-1.66-1.34-3-3-3h-25v-6h25c1.66,0,3-1.34,3-3v-12c0-1.66-1.34-3-3-3Z" class="cls-1"/></g><path d="M62,237.88c-1.66,0-3-1.34-3-3v-44.76l-15.88,15.88c-1.17,1.17-3.07,1.17-4.24,0l-8.5-8.5c-1.17-1.17-1.17-3.07,0-4.24l29.5-29.5c1.17-1.17,3.07-1.17,4.24,0l30,30c1.17,1.17,1.17,3.07,0,4.24l-9,9c-.57.57-1.37.89-2.17.88-.81-.01-1.58-.35-2.14-.94l-8.25-8.75c-1.14-1.21-1.08-3.1.12-4.24,1.21-1.14,3.1-1.08,4.24.12l6.13,6.5,4.69-4.69-25.76-25.76-25.26,25.26,4.26,4.26,18.88-18.88c.86-.86,2.15-1.12,3.27-.65,1.12.46,1.85,1.56,1.85,2.77v52c0,1.66-1.34,3-3,3Z" class="cls-1"/><rect width="6" height="40" x="59" y="216.88" class="cls-1"/></g></g></svg>