<svg xmlns="http://www.w3.org/2000/svg" xmlns:svg="http://www.w3.org/2000/svg" id="svg10" width="301.333" height="61.333" version="1.1"><path id="path2" d="M19.333.8H282c10.31 0 18.667 8.357 18.667 18.667V40.8c0 10.31-8.358 18.667-18.667 18.667H19.333C9.024 59.467.667 51.109.667 40.8V19.467C.667 9.157 9.024.8 19.333.8z"/><path id="path4" fill="none" stroke="#000" stroke-linecap="round" stroke-linejoin="round" stroke-miterlimit="10" stroke-width="1.333" d="M19.333.8H282c10.31 0 18.667 8.357 18.667 18.667V40.8c0 10.31-8.358 18.667-18.667 18.667H19.333C9.024 59.467.667 51.109.667 40.8V19.467C.667 9.157 9.024.8 19.333.8z"/><g id="text3495" aria-label="MAX44009" transform="translate(-0.2512635,-36.082705)" style="font-size:47.1878px;line-height:125%;font-family:Sans;letter-spacing:0;word-spacing:0;stroke-width:1.1797px"><path style="font-weight:700;font-family:'Noto Sans Adlam';-inkscape-font-specification:'Noto Sans Adlam Bold';fill:#fff" id="path19207" d="M 12.580587,48.99312 H 23.870638 L 31.70455,67.402814 39.584544,48.99312 H 50.851553 V 83.393211 H 42.464659 V 58.232528 l -7.926076,18.54794 h -5.621984 l -7.926076,-18.54794 v 25.160683 h -8.409936 z"/><path style="font-weight:700;font-family:'Noto Sans Adlam';-inkscape-font-specification:'Noto Sans Adlam Bold';fill:#fff" id="path19209" d="M 80.413053,77.126081 H 66.54242 l -2.188887,6.26713 H 55.436698 L 68.178326,48.99312 H 78.754107 L 91.495735,83.393211 H 82.5789 Z M 68.754348,70.743747 h 9.423736 L 73.477737,57.057441 Z"/><path style="font-weight:700;font-family:'Noto Sans Adlam';-inkscape-font-specification:'Noto Sans Adlam Bold';fill:#fff" id="path19211" d="m 115.22788,65.836031 11.9352,17.55718 h -9.23941 l -8.04128,-11.750868 -7.97216,11.750868 H 92.62474 L 104.55994,65.836031 93.085558,48.99312 h 9.262452 l 7.53438,11.082682 7.51134,-11.082682 h 9.30853 z"/><path style="font-weight:700;font-family:'Noto Sans Adlam';-inkscape-font-specification:'Noto Sans Adlam Bold';fill:#fff" id="path19213" d="m 145.4806,56.297091 -9.72326,14.400574 h 9.72326 z m -1.47462,-7.303971 h 9.86152 v 21.704545 h 4.90771 v 6.428416 h -4.90771 v 6.26713 h -8.3869 v -6.26713 h -15.25308 v -7.603503 z"/><path style="font-weight:700;font-family:'Noto Sans Adlam';-inkscape-font-specification:'Noto Sans Adlam Bold';fill:#fff" id="path19215" d="m 178.31392,56.297091 -9.72327,14.400574 h 9.72327 z M 176.8393,48.99312 h 9.86151 v 21.704545 h 4.90772 v 6.428416 h -4.90772 v 6.26713 h -8.38689 v -6.26713 h -15.25309 v -7.603503 z"/><path style="font-weight:700;font-family:'Noto Sans Adlam';-inkscape-font-specification:'Noto Sans Adlam Bold';fill:#fff" id="path19217" d="m 215.47892,66.158604 q 0,-6.451457 -1.22117,-9.078122 -1.19812,-2.649705 -4.0552,-2.649705 -2.85707,0 -4.07824,2.649705 -1.22117,2.626665 -1.22117,9.078122 0,6.52058 1.22117,9.193327 1.22117,2.672746 4.07824,2.672746 2.83403,0 4.0552,-2.672746 1.22117,-2.672747 1.22117,-9.193327 z m 8.87076,0.06912 q 0,8.548181 -3.68655,13.202446 -3.68655,4.631225 -10.46058,4.631225 -6.79707,0 -10.48362,-4.631225 -3.68654,-4.654265 -3.68654,-13.202446 0,-8.571222 3.68654,-13.202446 3.68655,-4.654266 10.48362,-4.654266 6.77403,0 10.46058,4.654266 3.68655,4.631224 3.68655,13.202446 z"/><path style="font-weight:700;font-family:'Noto Sans Adlam';-inkscape-font-specification:'Noto Sans Adlam Bold';fill:#fff" id="path19219" d="m 248.31224,66.158604 q 0,-6.451457 -1.22117,-9.078122 -1.19813,-2.649705 -4.05521,-2.649705 -2.85707,0 -4.07824,2.649705 -1.22117,2.626665 -1.22117,9.078122 0,6.52058 1.22117,9.193327 1.22117,2.672746 4.07824,2.672746 2.83404,0 4.05521,-2.672746 1.22117,-2.672747 1.22117,-9.193327 z m 8.87075,0.06912 q 0,8.548181 -3.68655,13.202446 -3.68655,4.631225 -10.46058,4.631225 -6.79707,0 -10.48361,-4.631225 -3.68655,-4.654265 -3.68655,-13.202446 0,-8.571222 3.68655,-13.202446 3.68654,-4.654266 10.48361,-4.654266 6.77403,0 10.46058,4.654266 3.68655,4.631224 3.68655,13.202446 z"/><path style="font-weight:700;font-family:'Noto Sans Adlam';-inkscape-font-specification:'Noto Sans Adlam Bold';fill:#fff" id="path19221" d="m 264.16438,82.632861 v -6.359293 q 2.11976,0.990759 4.0552,1.497659 1.93543,0.48386 3.82479,0.48386 3.96304,0 6.17497,-2.188888 2.21192,-2.211928 2.60362,-6.543621 -1.56678,1.152046 -3.34093,1.728069 -1.77415,0.576023 -3.84784,0.576023 -5.27637,0 -8.52514,-3.064442 -3.22573,-3.087483 -3.22573,-8.110403 0,-5.552862 3.59439,-8.893795 3.61742,-3.340933 9.67718,-3.340933 6.72795,0 10.4145,4.539061 3.68655,4.539061 3.68655,12.833792 0,8.525139 -4.30866,13.409814 -4.30865,4.861634 -11.81999,4.861634 -2.41929,0 -4.63122,-0.368655 -2.21193,-0.345613 -4.33169,-1.059882 z m 10.94443,-16.56642 q 2.32714,0 3.50222,-1.49766 1.17509,-1.520701 1.17509,-4.539061 0,-2.99532 -1.17509,-4.51602 -1.17508,-1.520701 -3.50222,-1.520701 -2.32713,0 -3.50222,1.520701 -1.17508,1.5207 -1.17508,4.51602 0,3.01836 1.17508,4.539061 1.17509,1.49766 3.50222,1.49766 z"/></g></svg>