<svg xmlns="http://www.w3.org/2000/svg" width="301.333" height="61.333"><path d="M19.333.8H282c10.31 0 18.667 8.357 18.667 18.667V40.8c0 10.31-8.358 18.667-18.667 18.667H19.333C9.024 59.467.667 51.109.667 40.8V19.467C.667 9.157 9.024.8 19.333.8z"/><path fill="none" stroke="#000" stroke-linecap="round" stroke-linejoin="round" stroke-miterlimit="10" stroke-width="1.333" d="M19.333.8H282c10.31 0 18.667 8.357 18.667 18.667V40.8c0 10.31-8.358 18.667-18.667 18.667H19.333C9.024 59.467.667 51.109.667 40.8V19.467C.667 9.157 9.024.8 19.333.8z"/><g fill="#fff" aria-label="MCP23017"><path d="M41.687 46.8l-.094-14.887L34.5 43.86h-4.853l-7.094-11.433V46.8H12.52V14.133h9.053l10.64 17.407 10.36-17.407h9.054L51.72 46.8zM77.933 47.547q-5.18 0-9.333-2.147-4.153-2.193-6.533-6.067-2.334-3.92-2.334-8.866 0-4.947 2.334-8.82 2.38-3.92 6.533-6.067 4.153-2.193 9.333-2.193 4.76 0 8.494 1.68 3.733 1.68 6.16 4.853l-6.954 6.207Q82.6 22.3 78.493 22.3q-3.453 0-5.553 2.24-2.1 2.193-2.1 5.927 0 3.733 2.1 5.973 2.1 2.193 5.553 2.193 4.107 0 7.14-3.826l6.954 6.206q-2.427 3.174-6.16 4.854-3.734 1.68-8.494 1.68zM115.487 14.133q4.526 0 7.886 1.494 3.36 1.493 5.18 4.293 1.82 2.8 1.82 6.533 0 3.734-1.82 6.534t-5.18 4.293q-3.36 1.493-7.886 1.493h-4.714V46.8H99.76V14.133zm-.7 16.147q2.24 0 3.36-.98 1.12-1.027 1.12-2.847t-1.12-2.8q-1.12-1.026-3.36-1.026h-4.014v7.653zM162.98 38.26v8.54H136.8v-6.767l11.807-10.92q1.54-1.446 2.053-2.473.513-1.027.513-2.007 0-1.213-.84-1.866-.793-.7-2.333-.7-1.493 0-2.8.793-1.307.793-2.007 2.24l-8.306-4.153q1.866-3.5 5.46-5.507 3.593-2.053 8.68-2.053 3.873 0 6.86 1.26 2.986 1.26 4.666 3.593 1.68 2.333 1.68 5.367 0 2.706-1.166 5.086-1.12 2.334-4.434 5.32l-4.666 4.247zM187.56 27.06q3.78.933 5.787 3.407 2.053 2.426 2.053 5.88 0 2.94-1.633 5.506-1.587 2.52-4.947 4.107-3.36 1.587-8.353 1.587-3.454 0-6.907-.747-3.407-.747-5.973-2.193l3.733-8.12q2.007 1.166 4.293 1.773 2.334.607 4.48.607 1.914 0 3.08-.654 1.167-.653 1.167-1.866 0-2.24-3.873-2.24h-4.34V27.34l4.806-4.9h-11.666v-8.307h24.36V20.9zM216.713 47.547q-4.34 0-7.7-2.007-3.313-2.053-5.226-5.88-1.867-3.873-1.867-9.193 0-5.32 1.867-9.147 1.913-3.873 5.226-5.88 3.36-2.053 7.7-2.053t7.654 2.053q3.36 2.007 5.226 5.88 1.914 3.827 1.914 9.147t-1.914 9.193q-1.866 3.827-5.226 5.88-3.314 2.007-7.654 2.007zm0-8.82q3.734 0 3.734-8.26t-3.734-8.26q-3.733 0-3.733 8.26t3.733 8.26zM253.24 14.133V46.8h-11.013V22.44h-5.6v-8.307zM288.833 14.133V20.9L277.96 46.8h-12.04l10.36-24.127h-6.3v4.76h-9.1v-13.3z"/></g></svg>