<svg xmlns="http://www.w3.org/2000/svg" width="240" height="60"><path d="M19.79.667h200.42c10.31 0 18.667 8.357 18.667 18.666V40c0 10.31-8.357 18.667-18.666 18.667H19.789C9.48 58.667 1.122 50.309 1.122 40V19.333C1.122 9.024 9.48.667 19.79.667z"/><path d="M19.79.667h200.42c10.31 0 18.667 8.357 18.667 18.666V40c0 10.31-8.357 18.667-18.666 18.667H19.789C9.48 58.667 1.122 50.309 1.122 40V19.333C1.122 9.024 9.48.667 19.79.667z" fill="none" stroke="#000" stroke-width="1.333" stroke-linecap="round" stroke-linejoin="round" stroke-miterlimit="10"/><path d="M48.01 46.333l-.093-14.886-7.094 11.946H35.97L28.877 31.96v14.373H18.843V13.667h9.054l10.64 17.406 10.36-17.406h9.053l.093 32.666zM86.73 34.48v11.853H75.717V34.34l-12.32-20.673h11.62L81.69 24.96l6.72-11.293h10.64zm27.987-21.56q4.713 0 8.213 1.82 3.547 1.82 5.507 5.413 1.96 3.594 1.96 8.82 0 5.6-2.287 9.707-2.24 4.107-6.347 6.253-4.06 2.147-9.473 2.147-2.94 0-5.6-.7-2.66-.653-4.527-1.867l3.967-7.7q2.427 1.727 5.927 1.727 2.846 0 4.666-1.4 1.867-1.447 2.427-4.153-2.567 1.82-6.487 1.82-2.986 0-5.553-1.307-2.567-1.307-4.107-3.687t-1.54-5.46q0-3.406 1.727-6.02 1.773-2.613 4.807-4.013 3.033-1.4 6.72-1.4zm.746 14.28q1.494 0 2.427-.887.933-.933.933-2.473 0-1.54-.933-2.427-.933-.886-2.427-.886-1.493 0-2.426.886-.934.887-.934 2.427t.934 2.473q.933.887 2.426.887zm47.26 10.593v8.54h-26.18v-6.766l11.807-10.92q1.54-1.447 2.053-2.474.514-1.026.514-2.006 0-1.214-.84-1.867-.794-.7-2.334-.7-1.493 0-2.8.793-1.306.794-2.006 2.24l-8.307-4.153q1.867-3.5 5.46-5.507 3.593-2.053 8.68-2.053 3.873 0 6.86 1.26t4.667 3.593q1.68 2.334 1.68 5.367 0 2.707-1.167 5.087-1.12 2.333-4.433 5.32l-4.667 4.246zm24.58-11.2q3.78.934 5.787 3.407 2.053 2.427 2.053 5.88 0 2.94-1.633 5.507-1.587 2.52-4.947 4.106-3.36 1.587-8.353 1.587-3.453 0-6.907-.747-3.406-.746-5.973-2.193l3.733-8.12q2.007 1.167 4.294 1.773 2.333.607 4.48.607 1.913 0 3.08-.653 1.166-.654 1.166-1.867 0-2.24-3.873-2.24h-4.34v-6.767l4.807-4.9H169.01v-8.306h24.36v6.766zm29.854-12.926v32.666h-11.014v-24.36h-5.6v-8.306z" aria-label="MY9231" fill="#fff"/></svg>