<svg viewBox="0 0 82 25" id="svg5" xmlns="http://www.w3.org/2000/svg" xmlns:svg="http://www.w3.org/2000/svg"><defs id="defs9"/><path d="M5 0H77a5 5 0 015 5v15a5 5 0 01-5 5H5a5 5 0 01-5-5V5a5 5 0 015-5z" style="fill:#000" id="path2"/><g aria-label="Nabu" id="component-text" style="font-weight:900;font-size:25px;font-family:Montserrat;letter-spacing:1.1px;fill:#fffffc"><path d="M6.425 21V3.5h4.85l8.9 10.65h-2.25V3.5h5.75V21h-4.85l-8.9-10.65h2.25V21z" id="path11"/><path d="m35.725022 21v-2.425l-.4-.65v-4.6q0-1-.625-1.525-.6-.525-1.975-.525-.925.0-1.875.3-.95.275-1.625.775l-1.8-3.725q1.2-.75 2.875-1.15t3.275-.4q3.525.0 5.45 1.575 1.95 1.575 1.95 5V21zm-3.875.25q-1.675.0-2.8-.575t-1.7-1.525q-.575-.975-.575-2.15.0-1.325.675-2.25t2.05-1.4q1.4-.475 3.525-.475h2.85V15.6h-1.95q-.9.0-1.325.3-.4.275-.4.85.0.475.35.8.375.3 1 .3.575.0 1.05-.3.5-.325.725-1l.725 1.675q-.325 1.525-1.375 2.275t-2.825.75z" id="path13"/><path d="m53.650021 21.25q-1.875.0-3.025-.75t-1.675-2.325q-.5-1.575-.5-4.025.0-2.425.55-3.975.55-1.575 1.7-2.325 1.175-.775 2.95-.775 1.8.0 3.3.85 1.5.85 2.4 2.45.9 1.575.9 3.775t-.9 3.8q-.9 1.575-2.4 2.45-1.5.85-3.3.85zm-9.125-.25V2.45h5.65v6.7l-.25 5-.025 5V21zm7.775-4.15q.625.0 1.125-.3t.8-.9q.3-.625.3-1.5.0-.9-.3-1.475-.3-.6-.8-.9t-1.125-.3-1.125.3-.8.9q-.3.575-.3 1.475.0.875.3 1.5.3.6.8.9t1.125.3z" id="path15"/><path d="m68.825038 21.25q-1.625.0-2.95-.65-1.3-.675-2.05-2.075-.75-1.425-.75-3.65v-7.55h5.65V13.9q0 1.45.475 2.025t1.3.575q.5.0.925-.25.45-.275.725-.875.275-.625.275-1.625V7.325h5.65V21h-5.375v-3.95l1.075 1.075q-.725 1.6-2.075 2.375-1.325.75-2.875.75z" id="path17"/></g></svg>