<?xml version="1.0" encoding="UTF-8" standalone="no"?>
<svg
   width="201.333"
   height="60"
   version="1.1"
   id="svg3"
   xmlns="http://www.w3.org/2000/svg"
   xmlns:svg="http://www.w3.org/2000/svg">
  <defs
     id="defs3" />
  <path
     d="M 20.667,0.667 H 182 c 10.31,0 18.667,8.357 18.667,18.666 v 21.334 c 0,10.309 -8.358,18.666 -18.667,18.666 H 20.667 C 10.357,59.333 2,50.976 2,40.667 V 19.333 C 2,9.024 10.357,0.667 20.667,0.667 Z"
     id="path1"
     style="display:inline" />
  <path
     d="M 20.667,0.667 H 182 c 10.31,0 18.667,8.357 18.667,18.666 v 21.334 c 0,10.309 -8.358,18.666 -18.667,18.666 H 20.667 C 10.357,59.333 2,50.976 2,40.667 V 19.333 C 2,9.024 10.357,0.667 20.667,0.667 Z"
     fill="none"
     stroke="#000000"
     stroke-width="1.333"
     stroke-linecap="round"
     stroke-linejoin="round"
     stroke-miterlimit="10"
     id="path2"
     style="display:inline" />
  <path
     d="M 18.369646,13.526391 H 28.16783 L 40.540885,36.85974 V 13.526391 h 8.317063 V 47.546597 H 39.059764 L 26.686709,24.213247 v 23.33335 h -8.317063 z m 51.520216,15.084646 q 2.757163,0 3.94206,-1.025392 1.207683,-1.025391 1.207683,-3.372398 0,-2.32422 -1.207683,-3.326825 -1.184897,-1.002605 -3.94206,-1.002605 h -3.691409 v 8.72722 z m -3.691409,6.061202 V 47.546597 H 57.425661 V 13.526391 h 13.398446 q 6.72201,0 9.843757,2.255861 3.144534,2.255861 3.144534,7.132166 0,3.372398 -1.640627,5.537113 -1.617839,2.164715 -4.899091,3.190107 1.800131,0.410156 3.212892,1.868491 1.435548,1.435547 2.893883,4.375003 l 4.762373,9.661465 H 78.799373 L 74.652235,39.092815 Q 73.398979,36.54073 72.10015,35.606484 70.824107,34.672239 68.682179,34.672239 Z M 93.359926,13.526391 h 23.675144 v 6.630864 h -14.90235 v 6.33464 h 14.01368 v 6.630864 h -14.01368 v 14.423838 h -8.772794 z m 32.539084,0 h 21.80666 v 6.448572 h -14.81121 v 5.263676 q 1.00261,-0.273438 2.00521,-0.410157 1.02539,-0.159505 2.11914,-0.159505 6.22071,0 9.68425,3.121747 3.46355,3.09896 3.46355,8.65886 0,5.514326 -3.78256,8.636073 -3.75976,3.121747 -10.45899,3.121747 -2.89388,0 -5.74219,-0.569662 -2.82552,-0.546875 -5.62826,-1.686199 v -6.904301 q 2.77995,1.595053 5.26368,2.39258 2.50651,0.797526 4.7168,0.797526 3.1901,0 5.01302,-1.54948 1.84571,-1.572267 1.84571,-4.238284 0,-2.688804 -1.84571,-4.238284 -1.82292,-1.549481 -5.01302,-1.549481 -1.89128,0 -4.03321,0.501303 -2.14193,0.478516 -4.60287,1.503907 z m 40.97009,27.571633 h 14.97072 v 6.448573 h -24.72333 v -6.448573 l 12.41863,-10.960293 q 1.66341,-1.503908 2.46094,-2.939456 0.79753,-1.435547 0.79753,-2.985028 0,-2.392579 -1.61784,-3.850914 -1.59506,-1.458334 -4.26107,-1.458334 -2.05079,0 -4.48894,0.888672 -2.43815,0.865886 -5.2181,2.597658 v -7.473963 q 2.96224,-0.979818 5.85612,-1.481121 2.89388,-0.524089 5.67383,-0.524089 6.10678,0 9.47918,2.688804 3.39518,2.688804 3.39518,7.49675 0,2.77995 -1.43555,5.195316 -1.43554,2.39258 -6.03841,6.425786 z"
     id="text3"
     style="font-weight:bold;font-size:46.6667px;font-family:Sans;-inkscape-font-specification:'Sans Bold';fill:#ffffff"
     aria-label="NRF52" />
</svg>
