<svg xmlns="http://www.w3.org/2000/svg" xmlns:svg="http://www.w3.org/2000/svg" id="svg1" version="1.1" viewBox="0 0 100 25"><path d="M5,0 H95 a5 5 0 0 1 5 5 v15 a5 5 0 0 1 -5 5 H5 a5 5 0 0 1 -5 -5 V5 a5 5 0 0 1 5 -5 Z" style="fill:#000" id="path1"/><path id="component-text" d="m 5.125,7.95 h 3 V 21 h 5.9 V 3.5 h -8.9 z m 20.049982,7.95 v -4.25 h -7.5 V 15.9 Z M 47.72495,13.575 44.67495,3.5 h -5.425 l -3.225,9.95 -3.05,-9.95 h -6.075 l 5.6,17.5 h 6.325 l 2.975,-9.35 2.825,9.35 h 6.325 l 5.6,-17.5 h -5.6 z m 14.374964,-7.35 c 2.075,0 3.4,-1.25 3.4,-2.975 0,-1.625 -1.325,-2.775 -3.4,-2.775 -2.075,0 -3.4,1.25 -3.4,2.875 0,1.625 1.325,2.875 3.4,2.875 z M 64.924914,21 V 7.325 h -5.65 V 21 Z M 73.899918,7.325 h -5.375 V 21 h 5.65 v -6.075 c 0,-2.175 1.2,-2.95 2.9,-2.95 0.4,0 0.75,0.025 1.25,0.1 v -5 c -1.9,0 -3.425,0.575 -4.425,1.725 z m 21.550007,6.825 c 0,-4.625 -3.475,-7.075 -7.525,-7.075 -4.425,0 -7.75,2.925 -7.75,7.075 0,4.075 3.25,7.1 8.275,7.1 2.725,0 4.65,-0.75 5.975,-2.2 l -2.95,-2.975 c -0.9,0.675 -1.6,1 -2.85,1 -1.4,0 -2.35,-0.55 -2.75,-1.6 h 9.5 c 0.025,-0.4 0.075,-0.925 0.075,-1.325 z m -7.475,-3.225 c 1.15,0 1.975,0.675 2.2,1.825 h -4.4 c 0.225,-1.15 1.025,-1.825 2.2,-1.825 z" style="font-weight:900;font-size:25px;font-family:Montserrat;letter-spacing:1.1px;fill:#fffffc" aria-label="1-Wire"/></svg>