<svg xmlns="http://www.w3.org/2000/svg" xmlns:svg="http://www.w3.org/2000/svg" id="svg5" viewBox="0 0 160 25"><path d="M5 0H155a5 5 0 015 5v15a5 5 0 01-5 5H5a5 5 0 01-5-5V5a5 5 0 015-5z" style="fill:#000" id="path2"/><g id="component-text" aria-label="MicroNova" style="font-weight:900;font-size:25px;font-family:Montserrat;letter-spacing:1.1px;fill:#fffffc"><path id="path11" d="M6.425 21V3.5h4.85l7 11.425h-2.55L22.525 3.5h4.85L27.425 21H22.05L22 11.6h.85L18.2 19.425H15.6L10.75 11.6H11.8V21z"/><path id="path13" d="M31.200012 21V7.325h5.65V21zm2.825-14.775q-1.55.0-2.475-.825-.925-.825-.925-2.05.0-1.225.925-2.05.925-.825 2.475-.825 1.55.0 2.475.775.925.775.925 2 0 1.3-.925 2.15-.925.825-2.475.825z"/><path id="path15" d="m47.800016 21.25q-2.35.0-4.175-.9-1.825-.9-2.875-2.5-1.025-1.625-1.025-3.7t1.025-3.675q1.05-1.6 2.875-2.5t4.175-.9q2.5.0 4.275 1.075t2.45 2.975l-4.375 2.15q-.425-.95-1.05-1.375-.6-.425-1.325-.425-.625.0-1.175.3-.525.3-.85.9-.3.575-.3 1.475t.3 1.5q.325.6.85.9.55.3 1.175.3.725.0 1.325-.425.625-.425 1.05-1.375l4.375 2.15q-.675 1.9-2.45 2.975-1.775 1.075-4.275 1.075z"/><path id="path17" d="M56.925011 21V7.325h5.375v4.125l-.875-1.175q.625-1.6 2-2.4 1.375-.8 3.3-.8v5q-.375-.05-.675-.075-.275-.025-.575-.025-1.275.0-2.1.675-.8.65-.8 2.275V21z"/><path id="path19" d="m76.525018 21.25q-2.325.0-4.125-.9-1.775-.925-2.8-2.525-1.025-1.6-1.025-3.675t1.025-3.675q1.025-1.6 2.8-2.5 1.8-.9 4.125-.9t4.125.9 2.8 2.5q1.025 1.6 1.025 3.675t-1.025 3.675q-1 1.6-2.8 2.525-1.8.9-4.125.9zm0-4.4q.625.0 1.125-.3t.8-.9q.3-.625.3-1.5.0-.9-.3-1.475-.3-.6-.8-.9t-1.125-.3-1.125.3-.8.9q-.3.575-.3 1.475.0.875.3 1.5.3.6.8.9t1.125.3z"/><path id="path21" d="M87.525006 21V3.5h4.85l8.900004 10.65H99.025006V3.5h5.750004V21h-4.850004l-8.9-10.65h2.25V21z"/><path id="path23" d="m115.77503 21.25q-2.325.0-4.125-.9-1.775-.925-2.8-2.525-1.025-1.6-1.025-3.675t1.025-3.675q1.025-1.6 2.8-2.5 1.8-.9 4.125-.9t4.125.9 2.8 2.5q1.025 1.6 1.025 3.675t-1.025 3.675q-1 1.6-2.8 2.525-1.8.9-4.125.9zm0-4.4q.625.0 1.125-.3t.8-.9q.3-.625.3-1.5.0-.9-.3-1.475-.3-.6-.8-.9t-1.125-.3-1.125.3-.8.9q-.3.575-.3 1.475.0.875.3 1.5.3.6.8.9t1.125.3z"/><path id="path25" d="m130.10003 21-5.5-13.675h5.8l4.175 11.1h-2.925l4.45-11.1h5.35l-5.5 13.675z"/><path id="path27" d="m151.19999 21v-2.425l-.4-.65v-4.6q0-1-.625-1.525-.6-.525-1.975-.525-.925.0-1.875.3-.95.275-1.625.775l-1.8-3.725q1.2-.75 2.875-1.15t3.275-.4q3.525.0 5.45 1.575 1.95 1.575 1.95 5V21zm-3.875.25q-1.675.0-2.8-.575t-1.7-1.525q-.575-.975-.575-2.15.0-1.325.675-2.25t2.05-1.4q1.4-.475 3.525-.475h2.85V15.6h-1.95q-.9.0-1.325.3-.4.275-.4.85.0.475.35.8.375.3 1 .3.575.0 1.05-.3.5-.325.725-1l.725 1.675q-.325 1.525-1.375 2.275t-2.825.75z"/></g></svg>