<svg xmlns="http://www.w3.org/2000/svg" width="285.333" height="60"><path d="M20.244 1.333H265.09c10.31 0 18.667 8.358 18.667 18.667v20.667c0 10.309-8.357 18.666-18.667 18.666H20.244c-10.31 0-18.666-8.357-18.666-18.666V20c0-10.31 8.357-18.667 18.666-18.667z"/><path d="M20.244 1.333H265.09c10.31 0 18.667 8.358 18.667 18.667v20.667c0 10.309-8.357 18.666-18.667 18.666H20.244c-10.309 0-18.666-8.357-18.666-18.666V20c0-10.31 8.357-18.667 18.666-18.667z" fill="none" stroke="#000" stroke-width="1.333" stroke-linecap="round" stroke-linejoin="round" stroke-miterlimit="10"/><path d="M29.36 14.333q4.527 0 7.887 1.494 3.36 1.493 5.18 4.293 1.82 2.8 1.82 6.533 0 3.734-1.82 6.534t-5.18 4.293q-3.36 1.493-7.887 1.493h-4.713V47H13.633V14.333zm-.7 16.147q2.24 0 3.36-.98 1.12-1.027 1.12-2.847t-1.12-2.8q-1.12-1.026-3.36-1.026h-4.013v7.653zM81.007 47l-.094-14.887L73.82 44.06h-4.853l-7.094-11.433V47H51.84V14.333h9.053l10.64 17.407 10.36-17.407h9.054L91.04 47zm31.533.747q-4.06 0-7.933-.887-3.827-.933-6.3-2.473l3.546-8.027q2.334 1.353 5.227 2.193 2.893.794 5.553.794 2.287 0 3.267-.42.98-.467.98-1.354 0-1.026-1.307-1.54-1.26-.513-4.2-1.12-3.78-.793-6.3-1.68-2.52-.933-4.386-2.986-1.867-2.1-1.867-5.647 0-3.08 1.727-5.6 1.726-2.52 5.133-3.967 3.453-1.446 8.353-1.446 3.36 0 6.58.746 3.267.7 5.74 2.1l-3.313 7.98q-4.807-2.426-9.1-2.426-4.247 0-4.247 2.053 0 .98 1.26 1.493 1.26.467 4.154 1.027 3.733.7 6.3 1.633 2.566.887 4.433 2.94 1.913 2.054 1.913 5.6 0 3.08-1.726 5.6-1.727 2.474-5.18 3.967-3.407 1.447-8.307 1.447zM155.18 47l-5.647-8.727L144.027 47h-12.554l11.807-16.473-11.387-16.194h12.367l5.553 8.214 5.414-8.214h11.853l-11.34 15.774L167.78 47zm30.553.747q-4.34 0-7.7-2.007-3.313-2.053-5.226-5.88-1.867-3.873-1.867-9.193 0-5.32 1.867-9.147 1.913-3.873 5.226-5.88 3.36-2.053 7.7-2.053t7.654 2.053q3.36 2.007 5.226 5.88 1.914 3.827 1.914 9.147t-1.914 9.193q-1.866 3.827-5.226 5.88-3.314 2.007-7.654 2.007zm0-8.82q3.734 0 3.734-8.26t-3.734-8.26q-3.733 0-3.733 8.26t3.733 8.26zm36.294 8.82q-4.34 0-7.7-2.007-3.314-2.053-5.227-5.88-1.867-3.873-1.867-9.193 0-5.32 1.867-9.147 1.913-3.873 5.227-5.88 3.36-2.053 7.7-2.053t7.653 2.053q3.36 2.007 5.227 5.88 1.913 3.827 1.913 9.147t-1.913 9.193q-1.867 3.827-5.227 5.88-3.313 2.007-7.653 2.007zm0-8.82q3.733 0 3.733-8.26t-3.733-8.26q-3.734 0-3.734 8.26t3.734 8.26zm39.326-11.667q3.78.933 5.787 3.407 2.053 2.426 2.053 5.88 0 2.94-1.633 5.506-1.587 2.52-4.947 4.107-3.36 1.587-8.353 1.587-3.453 0-6.907-.747-3.406-.747-5.973-2.193l3.733-8.12q2.007 1.166 4.294 1.773 2.333.607 4.48.607 1.913 0 3.08-.654 1.166-.653 1.166-1.866 0-2.24-3.873-2.24h-4.34V27.54l4.807-4.9H243.06v-8.307h24.36V21.1z" aria-label="PMSX003" fill="#fff"/></svg>