<svg xmlns="http://www.w3.org/2000/svg" width="280" height="61.333"><path d="M20.533 1.333h239.511c10.31 0 18.667 8.358 18.667 18.667v20.667c0 10.309-8.358 18.666-18.667 18.666H20.534c-10.31 0-18.667-8.357-18.667-18.666V20c0-10.31 8.357-18.667 18.666-18.667z"/><path fill="none" stroke="#000" stroke-linecap="round" stroke-linejoin="round" stroke-miterlimit="10" stroke-width="1.333" d="M20.533 1.333h239.511c10.31 0 18.667 8.358 18.667 18.667v20.667c0 10.309-8.358 18.666-18.667 18.666H20.534c-10.31 0-18.667-8.357-18.667-18.666V20c0-10.31 8.357-18.667 18.666-18.667z"/><g fill="#fff"><path d="M30.646 14.333q4.526 0 7.886 1.494 3.36 1.493 5.18 4.293 1.82 2.8 1.82 6.533 0 3.734-1.82 6.534t-5.18 4.293q-3.36 1.493-7.886 1.493h-4.714V47H14.92V14.333zm-.7 16.147q2.24 0 3.36-.98 1.12-1.027 1.12-2.847t-1.12-2.8q-1.12-1.026-3.36-1.026h-4.014v7.653zM81.966 38.46V47H51.959v-6.767l14.933-17.36H52.426v-8.54h28.793V21.1L66.286 38.46zM116.346 38.693V47h-27.16V14.333h26.553v8.307h-15.727v3.827h13.814V34.4h-13.814v4.293zM153.759 47l-.093-14.887-7.094 11.947h-4.853l-7.093-11.433V47h-10.034V14.333h9.054l10.64 17.407 10.36-17.407h9.053L163.792 47zM213.326 41.307h-12.414L198.72 47h-11.2l14.28-32.667h10.827L226.906 47h-11.387zm-3.034-7.934l-3.173-8.213-3.173 8.213zM249.152 47.747q-5.18 0-9.333-2.147-4.153-2.193-6.533-6.067-2.334-3.92-2.334-8.866 0-4.947 2.334-8.82 2.38-3.92 6.533-6.067 4.153-2.193 9.333-2.193 4.76 0 8.494 1.68 3.733 1.68 6.16 4.853l-6.954 6.207q-3.033-3.827-7.14-3.827-3.453 0-5.553 2.24-2.1 2.193-2.1 5.927 0 3.733 2.1 5.973 2.1 2.193 5.553 2.193 4.107 0 7.14-3.826l6.954 6.206q-2.427 3.174-6.16 4.854-3.734 1.68-8.494 1.68z"/></g></svg>