<svg xmlns="http://www.w3.org/2000/svg" width="280" height="61.333"><path d="M20.533 1.733h239.511c10.31 0 18.667 8.358 18.667 18.667v20.667c0 10.309-8.358 18.666-18.667 18.666H20.534c-10.31 0-18.667-8.357-18.667-18.666V20.4c0-10.31 8.357-18.667 18.666-18.667z"/><path fill="none" stroke="#000" stroke-linecap="round" stroke-linejoin="round" stroke-miterlimit="10" stroke-width="1.333" d="M20.533 1.733h239.511c10.31 0 18.667 8.358 18.667 18.667v20.667c0 10.309-8.358 18.666-18.667 18.666H20.534c-10.31 0-18.667-8.357-18.667-18.666V20.4c0-10.31 8.357-18.667 18.666-18.667z"/><g fill="#fff"><path d="M29.946 14.733q4.526 0 7.886 1.494 3.36 1.493 5.18 4.293 1.82 2.8 1.82 6.533 0 3.734-1.82 6.534t-5.18 4.293q-3.36 1.493-7.886 1.493h-4.714V47.4H14.22V14.733zm-.7 16.147q2.24 0 3.36-.98 1.12-1.027 1.12-2.847t-1.12-2.8q-1.12-1.026-3.36-1.026h-4.014v7.653zM81.266 38.86v8.54H51.259v-6.767l14.933-17.36H51.726v-8.54h28.793V21.5L65.586 38.86zM115.646 39.093V47.4h-27.16V14.733h26.553v8.307H99.312v3.827h13.814V34.8H99.312v4.293zM153.059 47.4l-.093-14.887-7.094 11.947h-4.853l-7.093-11.433V47.4h-10.034V14.733h9.054l10.64 17.407 10.36-17.407h9.053l.093 32.667zM190.412 14.733h16.1q5.46 0 9.614 2.007 4.2 1.96 6.486 5.647 2.334 3.686 2.334 8.68 0 4.993-2.334 8.68-2.286 3.686-6.486 5.693-4.154 1.96-9.614 1.96h-16.1zm15.634 24.08q3.546 0 5.646-2.006 2.147-2.054 2.147-5.74 0-3.687-2.147-5.694-2.1-2.053-5.646-2.053h-4.62v15.493zM249.852 48.147q-5.18 0-9.333-2.147-4.153-2.193-6.533-6.067-2.334-3.92-2.334-8.866 0-4.947 2.334-8.82 2.38-3.92 6.533-6.067 4.153-2.193 9.333-2.193 4.76 0 8.494 1.68 3.733 1.68 6.16 4.853l-6.954 6.207q-3.033-3.827-7.14-3.827-3.453 0-5.553 2.24-2.1 2.193-2.1 5.927 0 3.733 2.1 5.973 2.1 2.193 5.553 2.193 4.107 0 7.14-3.826l6.954 6.206q-2.427 3.174-6.16 4.854-3.734 1.68-8.494 1.68z"/></g></svg>