<svg xmlns="http://www.w3.org/2000/svg" width="345.333" height="60"><path d="M20.533.933h305.334c10.309 0 18.666 8.358 18.666 18.667v20.667c0 10.309-8.357 18.666-18.666 18.666H20.533c-10.309 0-18.666-8.357-18.666-18.666V19.6C1.867 9.29 10.224.933 20.533.933z"/><path fill="none" stroke="#000" stroke-linecap="round" stroke-linejoin="round" stroke-miterlimit="10" stroke-width="1.333" d="M20.533.933h305.334c10.309 0 18.666 8.358 18.666 18.667v20.667c0 10.309-8.357 18.666-18.666 18.666H20.533c-10.309 0-18.666-8.357-18.666-18.666V19.6C1.867 9.29 10.224.933 20.533.933z"/><g fill="#fff"><path d="M30.506 13.933q4.527 0 7.887 1.494 3.36 1.493 5.18 4.293 1.82 2.8 1.82 6.533 0 3.734-1.82 6.534t-5.18 4.293q-3.36 1.493-7.887 1.493h-4.713V46.6H14.78V13.933zm-.7 16.147q2.24 0 3.36-.98 1.12-1.027 1.12-2.847t-1.12-2.8q-1.12-1.026-3.36-1.026h-4.013v7.653zM81.826 38.06v8.54H51.82v-6.767l14.933-17.36H52.286v-8.54H81.08V20.7L66.146 38.06zM116.206 38.293V46.6h-27.16V13.933H115.6v8.307H99.873v3.827h13.813V34H99.873v4.293zM153.62 46.6l-.094-14.887-7.093 11.947h-4.853l-7.094-11.433V46.6h-10.033V13.933h9.053l10.64 17.407 10.36-17.407h9.054l.093 32.667zM172.413 29.147h14v7.933h-14zM208.66 47.347q-4.34 0-7.7-2.007-3.314-2.053-5.227-5.88-1.867-3.873-1.867-9.193 0-5.32 1.867-9.147 1.913-3.873 5.227-5.88 3.36-2.053 7.7-2.053t7.653 2.053q3.36 2.007 5.227 5.88 1.913 3.827 1.913 9.147t-1.913 9.193q-1.867 3.827-5.227 5.88-3.313 2.007-7.653 2.007zm0-8.82q3.733 0 3.733-8.26t-3.733-8.26q-3.734 0-3.734 8.26t3.734 8.26zM244.953 47.347q-4.34 0-7.7-2.007-3.313-2.053-5.227-5.88-1.866-3.873-1.866-9.193 0-5.32 1.866-9.147 1.914-3.873 5.227-5.88 3.36-2.053 7.7-2.053t7.653 2.053q3.36 2.007 5.227 5.88 1.913 3.827 1.913 9.147t-1.913 9.193q-1.867 3.827-5.227 5.88-3.313 2.007-7.653 2.007zm0-8.82q3.733 0 3.733-8.26t-3.733-8.26q-3.733 0-3.733 8.26t3.733 8.26zM298.14 41h-4.34v5.6h-10.687V41h-16.94v-7l13.86-20.067h11.293l-12.32 18.527h4.434v-4.993h10.36v4.993h4.34zM309.513 22.473h-9.567v-8.54h30.147v8.54h-9.567V46.6h-11.013z"/></g></svg>