<svg xmlns="http://www.w3.org/2000/svg" xmlns:xlink="http://www.w3.org/1999/xlink" id="Layer_1" width="464" height="464" x="0" y="0" enable-background="new 0 0 464 464" version="1.1" viewBox="0 0 464 464" xml:space="preserve"><rect width="464" height="464" x="0" y="0" fill="#FFF"/><g><g><g style="fill:#000" transform="translate(32,32) translate(128,0) scale(0.16,0.16)"><rect width="100" height="100"/></g></g><g><g style="fill:#000" transform="translate(32,32) translate(144,0) scale(0.16,0.16)"><rect width="100" height="100"/></g></g><g><g style="fill:#000" transform="translate(32,32) translate(176,0) scale(0.16,0.16)"><rect width="100" height="100"/></g></g><g><g style="fill:#000" transform="translate(32,32) translate(224,0) scale(0.16,0.16)"><rect width="100" height="100"/></g></g><g><g style="fill:#000" transform="translate(32,32) translate(240,0) scale(0.16,0.16)"><rect width="100" height="100"/></g></g><g><g style="fill:#000" transform="translate(32,32) translate(256,0) scale(0.16,0.16)"><rect width="100" height="100"/></g></g><g><g style="fill:#000" transform="translate(32,32) translate(144,16) scale(0.16,0.16)"><rect width="100" height="100"/></g></g><g><g style="fill:#000" transform="translate(32,32) translate(160,16) scale(0.16,0.16)"><rect width="100" height="100"/></g></g><g><g style="fill:#000" transform="translate(32,32) translate(176,16) scale(0.16,0.16)"><rect width="100" height="100"/></g></g><g><g style="fill:#000" transform="translate(32,32) translate(192,16) scale(0.16,0.16)"><rect width="100" height="100"/></g></g><g><g style="fill:#000" transform="translate(32,32) translate(256,16) scale(0.16,0.16)"><rect width="100" height="100"/></g></g><g><g style="fill:#000" transform="translate(32,32) translate(144,32) scale(0.16,0.16)"><rect width="100" height="100"/></g></g><g><g style="fill:#000" transform="translate(32,32) translate(176,32) scale(0.16,0.16)"><rect width="100" height="100"/></g></g><g><g style="fill:#000" transform="translate(32,32) translate(224,32) scale(0.16,0.16)"><rect width="100" height="100"/></g></g><g><g style="fill:#000" transform="translate(32,32) translate(240,32) scale(0.16,0.16)"><rect width="100" height="100"/></g></g><g><g style="fill:#000" transform="translate(32,32) translate(256,32) scale(0.16,0.16)"><rect width="100" height="100"/></g></g><g><g style="fill:#000" transform="translate(32,32) translate(128,48) scale(0.16,0.16)"><rect width="100" height="100"/></g></g><g><g style="fill:#000" transform="translate(32,32) translate(256,48) scale(0.16,0.16)"><rect width="100" height="100"/></g></g><g><g style="fill:#000" transform="translate(32,32) translate(128,64) scale(0.16,0.16)"><rect width="100" height="100"/></g></g><g><g style="fill:#000" transform="translate(32,32) translate(224,64) scale(0.16,0.16)"><rect width="100" height="100"/></g></g><g><g style="fill:#000" transform="translate(32,32) translate(240,64) scale(0.16,0.16)"><rect width="100" height="100"/></g></g><g><g style="fill:#000" transform="translate(32,32) translate(256,64) scale(0.16,0.16)"><rect width="100" height="100"/></g></g><g><g style="fill:#000" transform="translate(32,32) translate(128,80) scale(0.16,0.16)"><rect width="100" height="100"/></g></g><g><g style="fill:#000" transform="translate(32,32) translate(144,80) scale(0.16,0.16)"><rect width="100" height="100"/></g></g><g><g style="fill:#000" transform="translate(32,32) translate(160,80) scale(0.16,0.16)"><rect width="100" height="100"/></g></g><g><g style="fill:#000" transform="translate(32,32) translate(176,80) scale(0.16,0.16)"><rect width="100" height="100"/></g></g><g><g style="fill:#000" transform="translate(32,32) translate(192,80) scale(0.16,0.16)"><rect width="100" height="100"/></g></g><g><g style="fill:#000" transform="translate(32,32) translate(128,96) scale(0.16,0.16)"><rect width="100" height="100"/></g></g><g><g style="fill:#000" transform="translate(32,32) translate(160,96) scale(0.16,0.16)"><rect width="100" height="100"/></g></g><g><g style="fill:#000" transform="translate(32,32) translate(192,96) scale(0.16,0.16)"><rect width="100" height="100"/></g></g><g><g style="fill:#000" transform="translate(32,32) translate(224,96) scale(0.16,0.16)"><rect width="100" height="100"/></g></g><g><g style="fill:#000" transform="translate(32,32) translate(256,96) scale(0.16,0.16)"><rect width="100" height="100"/></g></g><g><g style="fill:#000" transform="translate(32,32) translate(128,112) scale(0.16,0.16)"><rect width="100" height="100"/></g></g><g><g style="fill:#000" transform="translate(32,32) translate(160,112) scale(0.16,0.16)"><rect width="100" height="100"/></g></g><g><g style="fill:#000" transform="translate(32,32) translate(176,112) scale(0.16,0.16)"><rect width="100" height="100"/></g></g><g><g style="fill:#000" transform="translate(32,32) translate(208,112) scale(0.16,0.16)"><rect width="100" height="100"/></g></g><g><g style="fill:#000" transform="translate(32,32) translate(0,128) scale(0.16,0.16)"><rect width="100" height="100"/></g></g><g><g style="fill:#000" transform="translate(32,32) translate(64,128) scale(0.16,0.16)"><rect width="100" height="100"/></g></g><g><g style="fill:#000" transform="translate(32,32) translate(96,128) scale(0.16,0.16)"><rect width="100" height="100"/></g></g><g><g style="fill:#000" transform="translate(32,32) translate(112,128) scale(0.16,0.16)"><rect width="100" height="100"/></g></g><g><g style="fill:#000" transform="translate(32,32) translate(128,128) scale(0.16,0.16)"><rect width="100" height="100"/></g></g><g><g style="fill:#000" transform="translate(32,32) translate(176,128) scale(0.16,0.16)"><rect width="100" height="100"/></g></g><g><g style="fill:#000" transform="translate(32,32) translate(208,128) scale(0.16,0.16)"><rect width="100" height="100"/></g></g><g><g style="fill:#000" transform="translate(32,32) translate(240,128) scale(0.16,0.16)"><rect width="100" height="100"/></g></g><g><g style="fill:#000" transform="translate(32,32) translate(272,128) scale(0.16,0.16)"><rect width="100" height="100"/></g></g><g><g style="fill:#000" transform="translate(32,32) translate(288,128) scale(0.16,0.16)"><rect width="100" height="100"/></g></g><g><g style="fill:#000" transform="translate(32,32) translate(304,128) scale(0.16,0.16)"><rect width="100" height="100"/></g></g><g><g style="fill:#000" transform="translate(32,32) translate(320,128) scale(0.16,0.16)"><rect width="100" height="100"/></g></g><g><g style="fill:#000" transform="translate(32,32) translate(336,128) scale(0.16,0.16)"><rect width="100" height="100"/></g></g><g><g style="fill:#000" transform="translate(32,32) translate(384,128) scale(0.16,0.16)"><rect width="100" height="100"/></g></g><g><g style="fill:#000" transform="translate(32,32) translate(0,144) scale(0.16,0.16)"><rect width="100" height="100"/></g></g><g><g style="fill:#000" transform="translate(32,32) translate(16,144) scale(0.16,0.16)"><rect width="100" height="100"/></g></g><g><g style="fill:#000" transform="translate(32,32) translate(32,144) scale(0.16,0.16)"><rect width="100" height="100"/></g></g><g><g style="fill:#000" transform="translate(32,32) translate(48,144) scale(0.16,0.16)"><rect width="100" height="100"/></g></g><g><g style="fill:#000" transform="translate(32,32) translate(64,144) scale(0.16,0.16)"><rect width="100" height="100"/></g></g><g><g style="fill:#000" transform="translate(32,32) translate(80,144) scale(0.16,0.16)"><rect width="100" height="100"/></g></g><g><g style="fill:#000" transform="translate(32,32) translate(112,144) scale(0.16,0.16)"><rect width="100" height="100"/></g></g><g><g style="fill:#000" transform="translate(32,32) translate(144,144) scale(0.16,0.16)"><rect width="100" height="100"/></g></g><g><g style="fill:#000" transform="translate(32,32) translate(160,144) scale(0.16,0.16)"><rect width="100" height="100"/></g></g><g><g style="fill:#000" transform="translate(32,32) translate(192,144) scale(0.16,0.16)"><rect width="100" height="100"/></g></g><g><g style="fill:#000" transform="translate(32,32) translate(208,144) scale(0.16,0.16)"><rect width="100" height="100"/></g></g><g><g style="fill:#000" transform="translate(32,32) translate(224,144) scale(0.16,0.16)"><rect width="100" height="100"/></g></g><g><g style="fill:#000" transform="translate(32,32) translate(240,144) scale(0.16,0.16)"><rect width="100" height="100"/></g></g><g><g style="fill:#000" transform="translate(32,32) translate(272,144) scale(0.16,0.16)"><rect width="100" height="100"/></g></g><g><g style="fill:#000" transform="translate(32,32) translate(320,144) scale(0.16,0.16)"><rect width="100" height="100"/></g></g><g><g style="fill:#000" transform="translate(32,32) translate(336,144) scale(0.16,0.16)"><rect width="100" height="100"/></g></g><g><g style="fill:#000" transform="translate(32,32) translate(368,144) scale(0.16,0.16)"><rect width="100" height="100"/></g></g><g><g style="fill:#000" transform="translate(32,32) translate(0,160) scale(0.16,0.16)"><rect width="100" height="100"/></g></g><g><g style="fill:#000" transform="translate(32,32) translate(16,160) scale(0.16,0.16)"><rect width="100" height="100"/></g></g><g><g style="fill:#000" transform="translate(32,32) translate(48,160) scale(0.16,0.16)"><rect width="100" height="100"/></g></g><g><g style="fill:#000" transform="translate(32,32) translate(80,160) scale(0.16,0.16)"><rect width="100" height="100"/></g></g><g><g style="fill:#000" transform="translate(32,32) translate(96,160) scale(0.16,0.16)"><rect width="100" height="100"/></g></g><g><g style="fill:#000" transform="translate(32,32) translate(112,160) scale(0.16,0.16)"><rect width="100" height="100"/></g></g><g><g style="fill:#000" transform="translate(32,32) translate(240,160) scale(0.16,0.16)"><rect width="100" height="100"/></g></g><g><g style="fill:#000" transform="translate(32,32) translate(272,160) scale(0.16,0.16)"><rect width="100" height="100"/></g></g><g><g style="fill:#000" transform="translate(32,32) translate(304,160) scale(0.16,0.16)"><rect width="100" height="100"/></g></g><g><g style="fill:#000" transform="translate(32,32) translate(336,160) scale(0.16,0.16)"><rect width="100" height="100"/></g></g><g><g style="fill:#000" transform="translate(32,32) translate(352,160) scale(0.16,0.16)"><rect width="100" height="100"/></g></g><g><g style="fill:#000" transform="translate(32,32) translate(0,176) scale(0.16,0.16)"><rect width="100" height="100"/></g></g><g><g style="fill:#000" transform="translate(32,32) translate(64,176) scale(0.16,0.16)"><rect width="100" height="100"/></g></g><g><g style="fill:#000" transform="translate(32,32) translate(80,176) scale(0.16,0.16)"><rect width="100" height="100"/></g></g><g><g style="fill:#000" transform="translate(32,32) translate(112,176) scale(0.16,0.16)"><rect width="100" height="100"/></g></g><g><g style="fill:#000" transform="translate(32,32) translate(176,176) scale(0.16,0.16)"><rect width="100" height="100"/></g></g><g><g style="fill:#000" transform="translate(32,32) translate(224,176) scale(0.16,0.16)"><rect width="100" height="100"/></g></g><g><g style="fill:#000" transform="translate(32,32) translate(240,176) scale(0.16,0.16)"><rect width="100" height="100"/></g></g><g><g style="fill:#000" transform="translate(32,32) translate(288,176) scale(0.16,0.16)"><rect width="100" height="100"/></g></g><g><g style="fill:#000" transform="translate(32,32) translate(304,176) scale(0.16,0.16)"><rect width="100" height="100"/></g></g><g><g style="fill:#000" transform="translate(32,32) translate(352,176) scale(0.16,0.16)"><rect width="100" height="100"/></g></g><g><g style="fill:#000" transform="translate(32,32) translate(368,176) scale(0.16,0.16)"><rect width="100" height="100"/></g></g><g><g style="fill:#000" transform="translate(32,32) translate(0,192) scale(0.16,0.16)"><rect width="100" height="100"/></g></g><g><g style="fill:#000" transform="translate(32,32) translate(48,192) scale(0.16,0.16)"><rect width="100" height="100"/></g></g><g><g style="fill:#000" transform="translate(32,32) translate(96,192) scale(0.16,0.16)"><rect width="100" height="100"/></g></g><g><g style="fill:#000" transform="translate(32,32) translate(112,192) scale(0.16,0.16)"><rect width="100" height="100"/></g></g><g><g style="fill:#000" transform="translate(32,32) translate(128,192) scale(0.16,0.16)"><rect width="100" height="100"/></g></g><g><g style="fill:#000" transform="translate(32,32) translate(144,192) scale(0.16,0.16)"><rect width="100" height="100"/></g></g><g><g style="fill:#000" transform="translate(32,32) translate(176,192) scale(0.16,0.16)"><rect width="100" height="100"/></g></g><g><g style="fill:#000" transform="translate(32,32) translate(208,192) scale(0.16,0.16)"><rect width="100" height="100"/></g></g><g><g style="fill:#000" transform="translate(32,32) translate(224,192) scale(0.16,0.16)"><rect width="100" height="100"/></g></g><g><g style="fill:#000" transform="translate(32,32) translate(272,192) scale(0.16,0.16)"><rect width="100" height="100"/></g></g><g><g style="fill:#000" transform="translate(32,32) translate(288,192) scale(0.16,0.16)"><rect width="100" height="100"/></g></g><g><g style="fill:#000" transform="translate(32,32) translate(304,192) scale(0.16,0.16)"><rect width="100" height="100"/></g></g><g><g style="fill:#000" transform="translate(32,32) translate(336,192) scale(0.16,0.16)"><rect width="100" height="100"/></g></g><g><g style="fill:#000" transform="translate(32,32) translate(352,192) scale(0.16,0.16)"><rect width="100" height="100"/></g></g><g><g style="fill:#000" transform="translate(32,32) translate(368,192) scale(0.16,0.16)"><rect width="100" height="100"/></g></g><g><g style="fill:#000" transform="translate(32,32) translate(384,192) scale(0.16,0.16)"><rect width="100" height="100"/></g></g><g><g style="fill:#000" transform="translate(32,32) translate(0,208) scale(0.16,0.16)"><rect width="100" height="100"/></g></g><g><g style="fill:#000" transform="translate(32,32) translate(32,208) scale(0.16,0.16)"><rect width="100" height="100"/></g></g><g><g style="fill:#000" transform="translate(32,32) translate(48,208) scale(0.16,0.16)"><rect width="100" height="100"/></g></g><g><g style="fill:#000" transform="translate(32,32) translate(80,208) scale(0.16,0.16)"><rect width="100" height="100"/></g></g><g><g style="fill:#000" transform="translate(32,32) translate(112,208) scale(0.16,0.16)"><rect width="100" height="100"/></g></g><g><g style="fill:#000" transform="translate(32,32) translate(128,208) scale(0.16,0.16)"><rect width="100" height="100"/></g></g><g><g style="fill:#000" transform="translate(32,32) translate(144,208) scale(0.16,0.16)"><rect width="100" height="100"/></g></g><g><g style="fill:#000" transform="translate(32,32) translate(192,208) scale(0.16,0.16)"><rect width="100" height="100"/></g></g><g><g style="fill:#000" transform="translate(32,32) translate(240,208) scale(0.16,0.16)"><rect width="100" height="100"/></g></g><g><g style="fill:#000" transform="translate(32,32) translate(256,208) scale(0.16,0.16)"><rect width="100" height="100"/></g></g><g><g style="fill:#000" transform="translate(32,32) translate(272,208) scale(0.16,0.16)"><rect width="100" height="100"/></g></g><g><g style="fill:#000" transform="translate(32,32) translate(320,208) scale(0.16,0.16)"><rect width="100" height="100"/></g></g><g><g style="fill:#000" transform="translate(32,32) translate(368,208) scale(0.16,0.16)"><rect width="100" height="100"/></g></g><g><g style="fill:#000" transform="translate(32,32) translate(32,224) scale(0.16,0.16)"><rect width="100" height="100"/></g></g><g><g style="fill:#000" transform="translate(32,32) translate(48,224) scale(0.16,0.16)"><rect width="100" height="100"/></g></g><g><g style="fill:#000" transform="translate(32,32) translate(96,224) scale(0.16,0.16)"><rect width="100" height="100"/></g></g><g><g style="fill:#000" transform="translate(32,32) translate(112,224) scale(0.16,0.16)"><rect width="100" height="100"/></g></g><g><g style="fill:#000" transform="translate(32,32) translate(144,224) scale(0.16,0.16)"><rect width="100" height="100"/></g></g><g><g style="fill:#000" transform="translate(32,32) translate(160,224) scale(0.16,0.16)"><rect width="100" height="100"/></g></g><g><g style="fill:#000" transform="translate(32,32) translate(176,224) scale(0.16,0.16)"><rect width="100" height="100"/></g></g><g><g style="fill:#000" transform="translate(32,32) translate(192,224) scale(0.16,0.16)"><rect width="100" height="100"/></g></g><g><g style="fill:#000" transform="translate(32,32) translate(208,224) scale(0.16,0.16)"><rect width="100" height="100"/></g></g><g><g style="fill:#000" transform="translate(32,32) translate(224,224) scale(0.16,0.16)"><rect width="100" height="100"/></g></g><g><g style="fill:#000" transform="translate(32,32) translate(240,224) scale(0.16,0.16)"><rect width="100" height="100"/></g></g><g><g style="fill:#000" transform="translate(32,32) translate(272,224) scale(0.16,0.16)"><rect width="100" height="100"/></g></g><g><g style="fill:#000" transform="translate(32,32) translate(304,224) scale(0.16,0.16)"><rect width="100" height="100"/></g></g><g><g style="fill:#000" transform="translate(32,32) translate(320,224) scale(0.16,0.16)"><rect width="100" height="100"/></g></g><g><g style="fill:#000" transform="translate(32,32) translate(336,224) scale(0.16,0.16)"><rect width="100" height="100"/></g></g><g><g style="fill:#000" transform="translate(32,32) translate(352,224) scale(0.16,0.16)"><rect width="100" height="100"/></g></g><g><g style="fill:#000" transform="translate(32,32) translate(32,240) scale(0.16,0.16)"><rect width="100" height="100"/></g></g><g><g style="fill:#000" transform="translate(32,32) translate(48,240) scale(0.16,0.16)"><rect width="100" height="100"/></g></g><g><g style="fill:#000" transform="translate(32,32) translate(64,240) scale(0.16,0.16)"><rect width="100" height="100"/></g></g><g><g style="fill:#000" transform="translate(32,32) translate(128,240) scale(0.16,0.16)"><rect width="100" height="100"/></g></g><g><g style="fill:#000" transform="translate(32,32) translate(160,240) scale(0.16,0.16)"><rect width="100" height="100"/></g></g><g><g style="fill:#000" transform="translate(32,32) translate(176,240) scale(0.16,0.16)"><rect width="100" height="100"/></g></g><g><g style="fill:#000" transform="translate(32,32) translate(208,240) scale(0.16,0.16)"><rect width="100" height="100"/></g></g><g><g style="fill:#000" transform="translate(32,32) translate(240,240) scale(0.16,0.16)"><rect width="100" height="100"/></g></g><g><g style="fill:#000" transform="translate(32,32) translate(272,240) scale(0.16,0.16)"><rect width="100" height="100"/></g></g><g><g style="fill:#000" transform="translate(32,32) translate(304,240) scale(0.16,0.16)"><rect width="100" height="100"/></g></g><g><g style="fill:#000" transform="translate(32,32) translate(320,240) scale(0.16,0.16)"><rect width="100" height="100"/></g></g><g><g style="fill:#000" transform="translate(32,32) translate(352,240) scale(0.16,0.16)"><rect width="100" height="100"/></g></g><g><g style="fill:#000" transform="translate(32,32) translate(368,240) scale(0.16,0.16)"><rect width="100" height="100"/></g></g><g><g style="fill:#000" transform="translate(32,32) translate(0,256) scale(0.16,0.16)"><rect width="100" height="100"/></g></g><g><g style="fill:#000" transform="translate(32,32) translate(16,256) scale(0.16,0.16)"><rect width="100" height="100"/></g></g><g><g style="fill:#000" transform="translate(32,32) translate(48,256) scale(0.16,0.16)"><rect width="100" height="100"/></g></g><g><g style="fill:#000" transform="translate(32,32) translate(64,256) scale(0.16,0.16)"><rect width="100" height="100"/></g></g><g><g style="fill:#000" transform="translate(32,32) translate(80,256) scale(0.16,0.16)"><rect width="100" height="100"/></g></g><g><g style="fill:#000" transform="translate(32,32) translate(96,256) scale(0.16,0.16)"><rect width="100" height="100"/></g></g><g><g style="fill:#000" transform="translate(32,32) translate(112,256) scale(0.16,0.16)"><rect width="100" height="100"/></g></g><g><g style="fill:#000" transform="translate(32,32) translate(128,256) scale(0.16,0.16)"><rect width="100" height="100"/></g></g><g><g style="fill:#000" transform="translate(32,32) translate(144,256) scale(0.16,0.16)"><rect width="100" height="100"/></g></g><g><g style="fill:#000" transform="translate(32,32) translate(192,256) scale(0.16,0.16)"><rect width="100" height="100"/></g></g><g><g style="fill:#000" transform="translate(32,32) translate(208,256) scale(0.16,0.16)"><rect width="100" height="100"/></g></g><g><g style="fill:#000" transform="translate(32,32) translate(240,256) scale(0.16,0.16)"><rect width="100" height="100"/></g></g><g><g style="fill:#000" transform="translate(32,32) translate(256,256) scale(0.16,0.16)"><rect width="100" height="100"/></g></g><g><g style="fill:#000" transform="translate(32,32) translate(272,256) scale(0.16,0.16)"><rect width="100" height="100"/></g></g><g><g style="fill:#000" transform="translate(32,32) translate(288,256) scale(0.16,0.16)"><rect width="100" height="100"/></g></g><g><g style="fill:#000" transform="translate(32,32) translate(304,256) scale(0.16,0.16)"><rect width="100" height="100"/></g></g><g><g style="fill:#000" transform="translate(32,32) translate(320,256) scale(0.16,0.16)"><rect width="100" height="100"/></g></g><g><g style="fill:#000" transform="translate(32,32) translate(336,256) scale(0.16,0.16)"><rect width="100" height="100"/></g></g><g><g style="fill:#000" transform="translate(32,32) translate(352,256) scale(0.16,0.16)"><rect width="100" height="100"/></g></g><g><g style="fill:#000" transform="translate(32,32) translate(128,272) scale(0.16,0.16)"><rect width="100" height="100"/></g></g><g><g style="fill:#000" transform="translate(32,32) translate(144,272) scale(0.16,0.16)"><rect width="100" height="100"/></g></g><g><g style="fill:#000" transform="translate(32,32) translate(160,272) scale(0.16,0.16)"><rect width="100" height="100"/></g></g><g><g style="fill:#000" transform="translate(32,32) translate(208,272) scale(0.16,0.16)"><rect width="100" height="100"/></g></g><g><g style="fill:#000" transform="translate(32,32) translate(224,272) scale(0.16,0.16)"><rect width="100" height="100"/></g></g><g><g style="fill:#000" transform="translate(32,32) translate(256,272) scale(0.16,0.16)"><rect width="100" height="100"/></g></g><g><g style="fill:#000" transform="translate(32,32) translate(320,272) scale(0.16,0.16)"><rect width="100" height="100"/></g></g><g><g style="fill:#000" transform="translate(32,32) translate(128,288) scale(0.16,0.16)"><rect width="100" height="100"/></g></g><g><g style="fill:#000" transform="translate(32,32) translate(256,288) scale(0.16,0.16)"><rect width="100" height="100"/></g></g><g><g style="fill:#000" transform="translate(32,32) translate(288,288) scale(0.16,0.16)"><rect width="100" height="100"/></g></g><g><g style="fill:#000" transform="translate(32,32) translate(320,288) scale(0.16,0.16)"><rect width="100" height="100"/></g></g><g><g style="fill:#000" transform="translate(32,32) translate(144,304) scale(0.16,0.16)"><rect width="100" height="100"/></g></g><g><g style="fill:#000" transform="translate(32,32) translate(192,304) scale(0.16,0.16)"><rect width="100" height="100"/></g></g><g><g style="fill:#000" transform="translate(32,32) translate(224,304) scale(0.16,0.16)"><rect width="100" height="100"/></g></g><g><g style="fill:#000" transform="translate(32,32) translate(256,304) scale(0.16,0.16)"><rect width="100" height="100"/></g></g><g><g style="fill:#000" transform="translate(32,32) translate(320,304) scale(0.16,0.16)"><rect width="100" height="100"/></g></g><g><g style="fill:#000" transform="translate(32,32) translate(336,304) scale(0.16,0.16)"><rect width="100" height="100"/></g></g><g><g style="fill:#000" transform="translate(32,32) translate(352,304) scale(0.16,0.16)"><rect width="100" height="100"/></g></g><g><g style="fill:#000" transform="translate(32,32) translate(368,304) scale(0.16,0.16)"><rect width="100" height="100"/></g></g><g><g style="fill:#000" transform="translate(32,32) translate(384,304) scale(0.16,0.16)"><rect width="100" height="100"/></g></g><g><g style="fill:#000" transform="translate(32,32) translate(128,320) scale(0.16,0.16)"><rect width="100" height="100"/></g></g><g><g style="fill:#000" transform="translate(32,32) translate(176,320) scale(0.16,0.16)"><rect width="100" height="100"/></g></g><g><g style="fill:#000" transform="translate(32,32) translate(208,320) scale(0.16,0.16)"><rect width="100" height="100"/></g></g><g><g style="fill:#000" transform="translate(32,32) translate(224,320) scale(0.16,0.16)"><rect width="100" height="100"/></g></g><g><g style="fill:#000" transform="translate(32,32) translate(256,320) scale(0.16,0.16)"><rect width="100" height="100"/></g></g><g><g style="fill:#000" transform="translate(32,32) translate(272,320) scale(0.16,0.16)"><rect width="100" height="100"/></g></g><g><g style="fill:#000" transform="translate(32,32) translate(288,320) scale(0.16,0.16)"><rect width="100" height="100"/></g></g><g><g style="fill:#000" transform="translate(32,32) translate(304,320) scale(0.16,0.16)"><rect width="100" height="100"/></g></g><g><g style="fill:#000" transform="translate(32,32) translate(320,320) scale(0.16,0.16)"><rect width="100" height="100"/></g></g><g><g style="fill:#000" transform="translate(32,32) translate(336,320) scale(0.16,0.16)"><rect width="100" height="100"/></g></g><g><g style="fill:#000" transform="translate(32,32) translate(352,320) scale(0.16,0.16)"><rect width="100" height="100"/></g></g><g><g style="fill:#000" transform="translate(32,32) translate(384,320) scale(0.16,0.16)"><rect width="100" height="100"/></g></g><g><g style="fill:#000" transform="translate(32,32) translate(192,336) scale(0.16,0.16)"><rect width="100" height="100"/></g></g><g><g style="fill:#000" transform="translate(32,32) translate(240,336) scale(0.16,0.16)"><rect width="100" height="100"/></g></g><g><g style="fill:#000" transform="translate(32,32) translate(256,336) scale(0.16,0.16)"><rect width="100" height="100"/></g></g><g><g style="fill:#000" transform="translate(32,32) translate(272,336) scale(0.16,0.16)"><rect width="100" height="100"/></g></g><g><g style="fill:#000" transform="translate(32,32) translate(288,336) scale(0.16,0.16)"><rect width="100" height="100"/></g></g><g><g style="fill:#000" transform="translate(32,32) translate(304,336) scale(0.16,0.16)"><rect width="100" height="100"/></g></g><g><g style="fill:#000" transform="translate(32,32) translate(352,336) scale(0.16,0.16)"><rect width="100" height="100"/></g></g><g><g style="fill:#000" transform="translate(32,32) translate(368,336) scale(0.16,0.16)"><rect width="100" height="100"/></g></g><g><g style="fill:#000" transform="translate(32,32) translate(384,336) scale(0.16,0.16)"><rect width="100" height="100"/></g></g><g><g style="fill:#000" transform="translate(32,32) translate(144,352) scale(0.16,0.16)"><rect width="100" height="100"/></g></g><g><g style="fill:#000" transform="translate(32,32) translate(176,352) scale(0.16,0.16)"><rect width="100" height="100"/></g></g><g><g style="fill:#000" transform="translate(32,32) translate(192,352) scale(0.16,0.16)"><rect width="100" height="100"/></g></g><g><g style="fill:#000" transform="translate(32,32) translate(208,352) scale(0.16,0.16)"><rect width="100" height="100"/></g></g><g><g style="fill:#000" transform="translate(32,32) translate(224,352) scale(0.16,0.16)"><rect width="100" height="100"/></g></g><g><g style="fill:#000" transform="translate(32,32) translate(272,352) scale(0.16,0.16)"><rect width="100" height="100"/></g></g><g><g style="fill:#000" transform="translate(32,32) translate(288,352) scale(0.16,0.16)"><rect width="100" height="100"/></g></g><g><g style="fill:#000" transform="translate(32,32) translate(336,352) scale(0.16,0.16)"><rect width="100" height="100"/></g></g><g><g style="fill:#000" transform="translate(32,32) translate(368,352) scale(0.16,0.16)"><rect width="100" height="100"/></g></g><g><g style="fill:#000" transform="translate(32,32) translate(144,368) scale(0.16,0.16)"><rect width="100" height="100"/></g></g><g><g style="fill:#000" transform="translate(32,32) translate(160,368) scale(0.16,0.16)"><rect width="100" height="100"/></g></g><g><g style="fill:#000" transform="translate(32,32) translate(176,368) scale(0.16,0.16)"><rect width="100" height="100"/></g></g><g><g style="fill:#000" transform="translate(32,32) translate(208,368) scale(0.16,0.16)"><rect width="100" height="100"/></g></g><g><g style="fill:#000" transform="translate(32,32) translate(240,368) scale(0.16,0.16)"><rect width="100" height="100"/></g></g><g><g style="fill:#000" transform="translate(32,32) translate(272,368) scale(0.16,0.16)"><rect width="100" height="100"/></g></g><g><g style="fill:#000" transform="translate(32,32) translate(288,368) scale(0.16,0.16)"><rect width="100" height="100"/></g></g><g><g style="fill:#000" transform="translate(32,32) translate(304,368) scale(0.16,0.16)"><rect width="100" height="100"/></g></g><g><g style="fill:#000" transform="translate(32,32) translate(320,368) scale(0.16,0.16)"><rect width="100" height="100"/></g></g><g><g style="fill:#000" transform="translate(32,32) translate(336,368) scale(0.16,0.16)"><rect width="100" height="100"/></g></g><g><g style="fill:#000" transform="translate(32,32) translate(352,368) scale(0.16,0.16)"><rect width="100" height="100"/></g></g><g><g style="fill:#000" transform="translate(32,32) translate(368,368) scale(0.16,0.16)"><rect width="100" height="100"/></g></g><g><g style="fill:#000" transform="translate(32,32) translate(128,384) scale(0.16,0.16)"><rect width="100" height="100"/></g></g><g><g style="fill:#000" transform="translate(32,32) translate(144,384) scale(0.16,0.16)"><rect width="100" height="100"/></g></g><g><g style="fill:#000" transform="translate(32,32) translate(192,384) scale(0.16,0.16)"><rect width="100" height="100"/></g></g><g><g style="fill:#000" transform="translate(32,32) translate(208,384) scale(0.16,0.16)"><rect width="100" height="100"/></g></g><g><g style="fill:#000" transform="translate(32,32) translate(240,384) scale(0.16,0.16)"><rect width="100" height="100"/></g></g><g><g style="fill:#000" transform="translate(32,32) translate(288,384) scale(0.16,0.16)"><rect width="100" height="100"/></g></g><g><g style="fill:#000" transform="translate(32,32) translate(352,384) scale(0.16,0.16)"><rect width="100" height="100"/></g></g><g><g style="fill:#000" transform="translate(32,32) translate(368,384) scale(0.16,0.16)"><rect width="100" height="100"/></g></g><g><g style="fill:#000" transform="translate(32,32) translate(384,384) scale(0.16,0.16)"><rect width="100" height="100"/></g></g><g><g style="fill:#000"><g transform="translate(32,32) translate(0,0) scale(1.12, 1.12)"><rect width="70" height="70" x="15" y="15" style="fill:none"/><path d="M85,0H15H0v15v70v15h15h70h15V85V15V0H85z M85,85H15V15h70V85z"/></g></g></g><g><g style="fill:#000"><g transform="translate(32,32) translate(288,0) scale(1.12, 1.12)"><rect width="70" height="70" x="15" y="15" style="fill:none"/><path d="M85,0H15H0v15v70v15h15h70h15V85V15V0H85z M85,85H15V15h70V85z"/></g></g></g><g><g style="fill:#000"><g transform="translate(32,32) translate(0,288) scale(1.12, 1.12)"><rect width="70" height="70" x="15" y="15" style="fill:none"/><path d="M85,0H15H0v15v70v15h15h70h15V85V15V0H85z M85,85H15V15h70V85z"/></g></g></g><g><g style="fill:#000" transform="translate(32,32) translate(32,32) scale(0.48, 0.48)"><rect width="100" height="100"/></g></g><g><g style="fill:#000" transform="translate(32,32) translate(320,32) scale(0.48, 0.48)"><rect width="100" height="100"/></g></g><g><g style="fill:#000" transform="translate(32,32) translate(32,320) scale(0.48, 0.48)"><rect width="100" height="100"/></g></g></g></svg>