<svg width="320" height="374" viewBox="0 0 320 374" fill="none" xmlns="http://www.w3.org/2000/svg">
<path fill-rule="evenodd" clip-rule="evenodd" d="M210 94.5005L115.657 0H99.1346V125.615L23.2966 49.65L0 72.9855L92.3604 165.5L0 258.015L23.2966 281.35L99.1346 205.385V331H115.657L174 273C166 244.5 165.5 224 176 202L138.954 165.5L210 94.5005ZM163.242 94.5005L132.179 63.3865V125.615L163.242 94.5005ZM132.179 267.613L163.242 236.5L132.179 205.385V267.613Z" fill="black"/>
<path fill-rule="evenodd" clip-rule="evenodd" d="M178 237C178 197.788 209.788 166 249 166C288.212 166 320 197.788 320 237C320 276.212 285 340.5 278.5 351C272 361.5 261.703 374 249 374C236.297 374 225.5 361.5 219.5 351C213.5 340.5 178 276.212 178 237ZM249 264C266.673 264 281 249.673 281 232C281 214.327 266.673 200 249 200C231.327 200 217 214.327 217 232C217 249.673 231.327 264 249 264Z" fill="black"/>
</svg>
