<svg xmlns="http://www.w3.org/2000/svg" xmlns:svg="http://www.w3.org/2000/svg" id="svg8" width="409.873" height="94.488" version="1.1" viewBox="0 0 108.446 25"><metadata id="metadata5"/><g id="layer1"><path id="rect833" style="stroke-width:.133497" d="m 5,0 h 98.44565 c 2.77,0 5,2.23 5,5 v 15 c 0,2.77 -2.23,5 -5,5 H 5 C 2.23,25 0,22.77 0,20 V 5 C 0,2.23 2.23,0 5,0 Z"/><g id="text837" aria-label="RP2040" style="font-size:10.5833px;line-height:1.25;letter-spacing:1.08479px;fill:#fffffc;stroke-width:.264583"><path d="m 15.353522,20.665705 -2.686758,-3.973693 h -1.44498 v 3.973693 H 5.8934233 V 4.8612442 h 7.6087187 q 2.190047,0 3.815649,0.7224896 1.625601,0.7224896 2.506135,2.0771577 0.880535,1.354668 0.880535,3.1608925 0,1.693335 -0.767646,2.957691 -0.767645,1.264357 -2.212624,2.009425 l 3.318937,4.876805 z m -0.02258,-9.843921 q 0,-0.8805346 -0.541867,-1.3546684 -0.541865,-0.4967117 -1.6256,-0.4967117 h -1.941691 v 3.7027591 h 1.941691 q 1.083735,0 1.625602,-0.474134 0.541867,-0.496711 0.541867,-1.377245 z" style="font-weight:900;font-size:22.5778px;font-family:Montserrat;-inkscape-font-specification:'Montserrat Heavy'" id="path414"/><path d="m 31.407412,4.8612442 q 2.190046,0 3.815648,0.7224896 1.625602,0.7224896 2.506136,2.0771577 0.880534,1.354668 0.880534,3.1608925 0,1.806224 -0.880534,3.160892 -0.880534,1.354668 -2.506136,2.077157 -1.625602,0.72249 -3.815648,0.72249 h -2.280358 v 3.883382 H 23.798693 V 4.8612442 Z m -0.338667,7.8119188 q 1.083734,0 1.625601,-0.474134 0.541868,-0.496711 0.541868,-1.377245 0,-0.8805346 -0.541868,-1.3546684 -0.541867,-0.4967117 -1.625601,-0.4967117 h -1.941691 v 3.7027591 z" style="font-weight:900;font-size:22.5778px;font-family:Montserrat;-inkscape-font-specification:'Montserrat Heavy'" id="path416"/><path d="m 48.228949,16.533967 h 5.328361 v 4.131738 H 40.891163 v -3.273781 l 5.712184,-5.283206 q 0.745067,-0.699912 0.993423,-1.196623 0.248356,-0.496712 0.248356,-0.9708456 0,-0.5870228 -0.4064,-0.9031121 -0.383823,-0.338667 -1.12889,-0.338667 -0.72249,0 -1.354668,0.3838226 -0.632179,0.3838227 -0.970846,1.0837341 L 39.965474,8.1576031 q 0.903112,-1.693335 2.641602,-2.6641805 1.738491,-0.9934232 4.199471,-0.9934232 1.873958,0 3.318937,0.6096006 1.444979,0.6096006 2.25778,1.7384907 0.812801,1.12889 0.812801,2.5964471 0,1.3095122 -0.564445,2.4609802 -0.541867,1.12889 -2.144891,2.573869 z" style="font-weight:900;font-size:22.5778px;font-family:Montserrat;-inkscape-font-specification:'Montserrat Heavy'" id="path418"/><path d="m 62.882996,21.02695 q -2.099736,0 -3.725337,-0.970846 -1.603024,-0.993423 -2.528714,-2.844803 -0.903112,-1.873957 -0.903112,-4.447827 0,-2.573869 0.903112,-4.4252485 0.92569,-1.8739574 2.528714,-2.8448029 1.625601,-0.9934232 3.725337,-0.9934232 2.099735,0 3.702759,0.9934232 1.625602,0.9708455 2.528714,2.8448029 0.92569,1.8513795 0.92569,4.4252485 0,2.57387 -0.92569,4.447827 -0.903112,1.85138 -2.528714,2.844803 -1.603024,0.970846 -3.702759,0.970846 z m 0,-4.267205 q 1.806224,0 1.806224,-3.996271 0,-3.9962703 -1.806224,-3.9962703 -1.806224,0 -1.806224,3.9962703 0,3.996271 1.806224,3.996271 z" style="font-weight:900;font-size:22.5778px;font-family:Montserrat;-inkscape-font-specification:'Montserrat Heavy'" id="path420"/><path d="m 85.665039,13.824631 h 2.099735 v 4.131738 h -2.099735 v 2.709336 h -5.170317 v -2.709336 h -8.195741 v -3.38667 l 6.705606,-9.7084548 h 5.463828 l -5.960539,8.9633868 h 2.144891 v -2.415825 h 5.012272 z" style="font-weight:900;font-size:22.5778px;font-family:Montserrat;-inkscape-font-specification:'Montserrat Heavy'" id="path422"/><path d="m 96.751789,21.02695 q -2.099735,0 -3.725337,-0.970846 -1.603024,-0.993423 -2.528713,-2.844803 -0.903112,-1.873957 -0.903112,-4.447827 0,-2.573869 0.903112,-4.4252485 0.925689,-1.8739574 2.528713,-2.8448029 1.625602,-0.9934232 3.725337,-0.9934232 2.099736,0 3.702761,0.9934232 1.6256,0.9708455 2.52871,2.8448029 0.92569,1.8513795 0.92569,4.4252485 0,2.57387 -0.92569,4.447827 -0.90311,1.85138 -2.52871,2.844803 -1.603025,0.970846 -3.702761,0.970846 z m 0,-4.267205 q 1.806224,0 1.806224,-3.996271 0,-3.9962703 -1.806224,-3.9962703 -1.806224,0 -1.806224,3.9962703 0,3.996271 1.806224,3.996271 z" style="font-weight:900;font-size:22.5778px;font-family:Montserrat;-inkscape-font-specification:'Montserrat Heavy'" id="path424"/></g></g></svg>