<svg xmlns="http://www.w3.org/2000/svg" width="454.57" height="94.488" version="1.1" viewBox="0 0 120.27 25"><g><path stroke-width="2.306" d="m5.0006-2.5483e-5h110.27c2.7704 0 5.0006 2.2303 5.0006 5.0006v14.999c0 2.7704-2.2303 5.0006-5.0006 5.0006h-110.27c-2.7704 0-5.0006-2.2303-5.0006-5.0006v-14.999c0-2.7704 2.2303-5.0006 5.0006-5.0006z"/><g fill="#fffffc" stroke-width=".265" aria-label="RTL87xx"><path d="m5.8934 20.666v-15.805h7.6088q2.2126 0 3.8157 0.72249 1.6256 0.72249 2.5061 2.0772 0.88054 1.3321 0.88054 3.1609 0 1.8288-0.88054 3.1609-0.88054 1.3095-2.5061 2.0094-1.603 0.69992-3.8157 0.69992h-4.651l2.3707-2.1901v6.1638zm9.4601 0-3.8834-5.7574h5.6445l3.9286 5.7574zm-4.1318-5.5767-2.3707-2.4158h4.3124q1.1063 0 1.6256-0.49671 0.54187-0.49671 0.54187-1.3547 0-0.85796-0.54187-1.3547-0.51929-0.49671-1.6256-0.49671h-4.3124l2.3707-2.4158z"/><path d="m27.017 20.666v-11.673h-4.6285v-4.1318h14.585v4.1318h-4.6285v11.673z"/><path d="m39.469 20.666v-15.805h5.3284v11.673h7.1346v4.1318z"/><path d="m60.882 21.027q-2.0997 0-3.7028-0.6096-1.5805-0.63218-2.4836-1.7611-0.90312-1.1515-0.90312-2.6868t0.92569-2.619q0.92569-1.0837 2.5287-1.6482 1.603-0.56445 3.635-0.56445t3.635 0.56445q1.603 0.56445 2.5287 1.6482 0.92569 1.0837 0.92569 2.619t-0.90312 2.6868q-0.90312 1.1289-2.5061 1.7611-1.5805 0.6096-3.6802 0.6096zm0-3.5899q0.76765 0 1.2418-0.42898 0.49671-0.45156 0.49671-1.2192 0-0.76765-0.49671-1.1966-0.47414-0.45156-1.2418-0.45156-0.76765 0-1.2644 0.45156-0.47414 0.42898-0.47414 1.1966 0 0.76765 0.47414 1.2192 0.49671 0.42898 1.2644 0.42898zm0-3.7254q-1.8514 0-3.3415-0.51929-1.4676-0.54187-2.3255-1.5353-0.85796-1.016-0.85796-2.4384 0-1.445 0.83538-2.4836 0.83538-1.0612 2.3029-1.6482 1.4676-0.58703 3.3867-0.58703 1.9191 0 3.3867 0.58703 1.4676 0.58703 2.3029 1.6482 0.83538 1.0386 0.83538 2.4836 0 1.4224-0.85796 2.4384-0.85796 0.99343-2.3255 1.5353-1.4676 0.51929-3.3415 0.51929zm0-2.9125q0.54187 0 0.90312-0.36125 0.36125-0.36125 0.36125-0.99343 0-0.65476-0.36125-0.99343-0.36125-0.36125-0.90312-0.36125-0.54187 0-0.90312 0.36125-0.36125 0.33867-0.36125 0.99343 0 0.63218 0.36125 0.99343 0.36125 0.36125 0.90312 0.36125z"/><path d="m72.554 20.666 5.9606-13.908 1.4224 2.2352h-7.4959l2.0772-2.4158v4.7188h-4.4027v-6.4347h13.524v3.2738l-5.2607 12.531z"/><path d="m85.102 20.666 5.8251-7.6313-0.13547 2.9351-5.5542-7.6539h5.7574l2.7319 4.0866-2.1223 0.15804 3.0029-4.2446h5.351l-5.5767 7.4056v-2.8222l5.6896 7.7668h-5.8477l-2.8222-4.3575 2.1449 0.29351-2.9125 4.064z"/><path d="m100.76 20.666 5.8251-7.6313-0.13546 2.9351-5.5542-7.6539h5.7574l2.7319 4.0866-2.1223 0.15804 3.0029-4.2446h5.351l-5.5767 7.4056v-2.8222l5.6896 7.7668h-5.8477l-2.8222-4.3575 2.1449 0.29351-2.9126 4.064z"/></g></g></svg>