<svg xmlns="http://www.w3.org/2000/svg" width="212" height="61.333"><path d="M20 1.333h172c10.31 0 18.667 8.358 18.667 18.667v21.333C210.667 51.643 202.309 60 192 60H20C9.69 60 1.333 51.643 1.333 41.333V20C1.333 9.69 9.691 1.333 20 1.333z"/><path fill="none" stroke="#000" stroke-linecap="round" stroke-linejoin="round" stroke-miterlimit="10" stroke-width="1.333" d="M20 1.333h172c10.31 0 18.667 8.358 18.667 18.667v21.333C210.667 51.643 202.309 60 192 60H20C9.69 60 1.333 51.643 1.333 41.333V20C1.333 9.69 9.691 1.333 20 1.333z"/><g fill="#fff" aria-label="SERVO"><path d="M26.92 48.08q-4.06 0-7.933-.887-3.827-.933-6.3-2.473l3.547-8.027q2.333 1.354 5.226 2.194 2.894.793 5.554.793 2.286 0 3.266-.42.98-.467.98-1.353 0-1.027-1.306-1.54-1.26-.514-4.2-1.12-3.78-.794-6.3-1.68-2.52-.934-4.387-2.987-1.867-2.1-1.867-5.647 0-3.08 1.727-5.6 1.727-2.52 5.133-3.966 3.454-1.447 8.354-1.447 3.36 0 6.58.747 3.266.7 5.74 2.1l-3.314 7.98q-4.806-2.427-9.1-2.427-4.246 0-4.246 2.053 0 .98 1.26 1.494 1.26.466 4.153 1.026 3.733.7 6.3 1.634 2.567.886 4.433 2.94 1.914 2.053 1.914 5.6 0 3.08-1.727 5.6-1.727 2.473-5.18 3.966-3.407 1.447-8.307 1.447zM76.56 39.027v8.306H49.4V14.667h26.554v8.306H60.227V26.8H74.04v7.933H60.227v4.294zM98.807 39.12H95.82v8.213H84.807V14.667h15.727q4.526 0 7.886 1.493 3.36 1.493 5.18 4.293 1.82 2.8 1.82 6.534 0 3.5-1.586 6.113-1.587 2.613-4.574 4.153l6.86 10.08h-11.76zm5.507-12.133q0-1.82-1.12-2.8-1.12-1.027-3.36-1.027H95.82v7.653h4.014q2.24 0 3.36-.98 1.12-1.026 1.12-2.846zM158.434 14.667L144.62 47.333h-10.826L119.98 14.667h11.854l7.793 19.086 7.98-19.086zM180.214 48.08q-5.274 0-9.474-2.193-4.2-2.194-6.58-6.067-2.38-3.92-2.38-8.82t2.38-8.773q2.38-3.92 6.58-6.114 4.2-2.193 9.474-2.193 5.273 0 9.473 2.193 4.2 2.194 6.58 6.114 2.38 3.873 2.38 8.773 0 4.9-2.38 8.82-2.38 3.873-6.58 6.067-4.2 2.193-9.473 2.193zm0-8.913q2.053 0 3.686-.98 1.68-1.027 2.66-2.847.98-1.867.98-4.34t-.98-4.293q-.98-1.867-2.66-2.847-1.633-1.027-3.686-1.027-2.054 0-3.734 1.027-1.633.98-2.613 2.847-.98 1.82-.98 4.293t.98 4.34q.98 1.82 2.613 2.847 1.68.98 3.734.98z"/></g></svg>