<svg viewBox="0 0 105 25" id="svg5" xmlns="http://www.w3.org/2000/svg" xmlns:svg="http://www.w3.org/2000/svg"><defs id="defs9"/><path d="M5 0h95a5 5 0 015 5v15a5 5 0 01-5 5H5a5 5 0 01-5-5V5a5 5 0 015-5z" style="fill:#000" id="path2"/><g aria-label="SERVO" id="component-text" style="font-weight:900;font-size:25px;font-family:Montserrat;letter-spacing:1.1px;fill:#fffffc"><path d="m12.95 21.4q-2.2.0-4.25-.5-2.05-.5-3.375-1.3l1.9-4.3q1.25.725 2.775 1.175 1.55.425 3 .425.85.0 1.325-.1.5-.125.725-.325.225-.225.225-.525.0-.475-.525-.75t-1.4-.45q-.85-.2-1.875-.4Q10.45 14.125 9.4 13.775 8.375 13.425 7.5 12.85 6.65 12.275 6.125 11.35 5.6 10.4 5.6 9q0-1.625.9-2.95Q7.425 4.7 9.225 3.9q1.825-.8 4.525-.8 1.775.0 3.5.375t3.1 1.15L18.575 8.9Q17.275 8.25 16.05 7.925 14.85 7.6 13.7 7.6q-.85.0-1.35.15t-.725.4q-.2.25-.2.55.0.45.525.725.525.25 1.375.425.875.175 1.9.375 1.05.2 2.075.55 1.025.35 1.875.925.875.575 1.4 1.5t.525 2.3q0 1.6-.925 2.95-.9 1.325-2.7 2.15-1.8.8-4.525.8z" id="path11"/><path d="m29.34999 10h7.8v4.25h-7.8zm.4 6.55h8.75V21h-14.55V3.5h14.225v4.45h-8.425z" id="path13"/><path d="M41.874997 21V3.5h8.425q2.45.0 4.225.8 1.8.8 2.775 2.3.975 1.475.975 3.5t-.975 3.5q-.975 1.45-2.775 2.225-1.775.775-4.225.775h-5.15l2.625-2.425V21zm10.475.0-4.3-6.375h6.25l4.35 6.375zm-4.575-6.175-2.625-2.675h4.775q1.225.0 1.8-.55.6-.55.6-1.5t-.6-1.5q-.575-.55-1.8-.55h-4.775l2.625-2.675z" id="path15"/><path d="m67.100018 21-7.4-17.5h6.35l6.025 14.775h-3.775l6.2-14.775h5.8l-7.4 17.5z" id="path17"/><path d="m90.925011 21.4q-2.15.0-3.975-.675-1.8-.675-3.125-1.9-1.325-1.25-2.075-2.925-.725-1.675-.725-3.65.0-2 .725-3.65.75-1.675 2.075-2.9 1.325-1.25 3.125-1.925 1.825-.675 3.95-.675 2.15.0 3.95.675t3.125 1.925q1.325 1.225 2.049999 2.9.75 1.65.75 3.65.0 1.975-.75 3.65-.724999 1.675-2.049999 2.925-1.325 1.225-3.125 1.9-1.8.675-3.925.675zm-.025-4.775q.825.0 1.525-.3.725-.3 1.25-.85.55-.575.85-1.375.3-.825.3-1.85t-.3-1.825q-.3-.825-.85-1.375-.525-.575-1.25-.875-.7-.3-1.525-.3t-1.55.3q-.7.3-1.25.875-.525.55-.825 1.375-.3.8-.3 1.825.0 1.025.3 1.85.3.8.825 1.375.55.55 1.25.85.725.3 1.55.3z" id="path19"/></g></svg>