<svg xmlns="http://www.w3.org/2000/svg" viewBox="0 0 192 43"><g fill="none" fill-rule="evenodd"><path d="M10 0h172c5.54 0 10 4.46 10 10v23c0 5.54-4.46 10-10 10H10C4.46 43 0 38.54 0 33V10C0 4.46 4.46 0 10 0z" fill="#000"/><g aria-label="GitHub" fill="#fff"><path d="M26.713 35v-4.443q-1.06 1.862-2.068 2.734-1.008.872-2.29 1.401-1.265.53-3.4.513-1.06-.017-2.12-.24-1.06-.238-2.05-.649-.992-.427-1.95-1.008-.939-.598-1.708-1.367-1.897-1.914-2.957-4.426-1.042-2.53-1.042-5.503 0-1.829.444-3.538.445-1.709 1.248-3.196.803-1.486 1.931-2.7 1.145-1.23 2.53-2.102 1.4-.872 3.007-1.35 1.607-.479 3.367-.479 2.016 0 3.503.547 1.487.53 3.196 2h3.828v5.776h-5.28q-.787-1.213-1.487-1.76-.684-.547-1.504-.906-.804-.359-2.256-.359-1.436 0-2.666.65t-2.136 1.76q-.89 1.094-1.402 2.598-.513 1.486-.513 3.059 0 1.555.462 2.956.461 1.402 1.401 2.53.94 1.11 2.188 1.709 1.247.598 2.666.598 1.811 0 3.161-1.06t1.949-2.888h-4.94v-4.683h11.998V35zM35.326 17.295h7.947v13.022h2.46V35H35.327v-4.683h2.666v-8.34h-2.666zm2.393-5.708q0-.632.222-1.18.24-.563.65-.973.41-.41.956-.65.564-.24 1.214-.24.615 0 1.162.24.547.24.957.65.41.41.65.974.239.547.239 1.179t-.24 1.196q-.239.547-.65.957-.41.41-.956.65-.547.239-1.162.239-.65 0-1.214-.24-.547-.239-.957-.649-.41-.41-.65-.957-.221-.564-.221-1.196zM55.543 17.295h3.538v4.477H55.51l-.034 7.486q0 .65.103 1.06.102.392.29.632.205.239.479.324.273.086.632.086.65 0 1.145-.12.496-.136.991-.307l.735 3.298q-.871.547-1.948.872-1.06.324-2.53.324-1.042 0-1.999-.359-.94-.359-1.658-1.076-.717-.735-1.145-1.829-.427-1.094-.41-2.546l.051-7.845h-2.546v-4.477h2.564l.034-4.238 5.315-2.53zM80.443 9.092h11.109v4.7h-2.735v16.525h2.735V35H80.443v-4.683h2.7v-6.63H71.455v6.63h2.734V35h-11.09v-4.683h2.682V13.792h-2.683v-4.7h11.091v4.7h-2.734v5.383h11.69v-5.383h-2.7zM105.856 17.295h8.374v13.022h2.136V35h-7.502v-1.504q-.906.82-2.12 1.265-1.213.444-2.802.444-1.47 0-2.769-.461-1.298-.462-2.273-1.385-.957-.94-1.52-2.34-.547-1.402-.547-3.3v-5.741h-2.308v-4.683h7.828V27.72q0 1.777.905 2.666.906.871 2.359.871 1.025 0 1.862-.632.838-.632 1.214-1.709v-6.938h-2.837zM118.126 8.408h7.725v9.28q.923-.444 1.897-.684.974-.239 2-.239 1.965 0 3.64.735 1.674.735 2.888 2 1.213 1.264 1.897 2.956.7 1.692.7 3.589 0 1.914-.683 3.606-.667 1.692-1.88 2.956-1.213 1.248-2.888 1.983-1.675.718-3.674.718-1.077 0-2.051-.205-.974-.206-1.846-.582V35h-5.247V13.09h-2.478zm11.263 13.074q-1.128 0-2.034.513-.889.512-1.504 1.47v5.297q.547.82 1.453 1.333.923.496 2.05.496.872 0 1.658-.308.786-.325 1.367-.906.599-.598.94-1.418.342-.837.342-1.88 0-1.06-.342-1.914-.341-.854-.923-1.453-.58-.598-1.367-.905-.769-.325-1.64-.325z"/></g><path d="M165.5 4C155.283 4 147 11.8 147 21.422c0 7.7 5.31 14.234 12.654 16.551.925.14 1.221-.4 1.221-.871v-2.944c-5.125 1.045-6.216-2.335-6.216-2.335-.851-2.02-2.054-2.561-2.054-2.561-1.683-1.08.13-1.045.13-1.045 1.85.122 2.83 1.794 2.83 1.794 1.61 2.648 4.33 1.864 5.384 1.446.166-1.132.647-1.899 1.165-2.334-4.107-.436-8.417-1.934-8.417-8.572 0-1.934.703-3.484 1.905-4.721-.185-.436-.832-2.248.185-4.6 0 0 1.554-.47 5.088 1.777a18.446 18.446 0 0 1 4.625-.575c1.573 0 3.163.192 4.625.575 3.534-2.247 5.088-1.777 5.088-1.777 1.017 2.352.37 4.164.185 4.6 1.202 1.237 1.905 2.787 1.905 4.721 0 6.655-4.329 8.119-8.454 8.554.666.54 1.276 1.603 1.276 3.223v4.774c0 .47.296 1.028 1.24.871 7.344-2.335 12.635-8.85 12.635-16.55 0-4.622-1.95-9.053-5.419-12.32C175.112 5.836 170.407 4 165.5 4z" fill="#fff" fill-rule="nonzero"/></g></svg>