<svg xmlns="http://www.w3.org/2000/svg" viewBox="0 0 209 43"><g fill="none" fill-rule="evenodd"><path d="M10 0h189c5.54 0 10 4.46 10 10v23c0 5.54-4.46 10-10 10H10C4.46 43 0 38.54 0 33V10C0 4.46 4.46 0 10 0z" fill="#000"/><path d="M179.5 9.326c-8.162 0-13.887 3.244-13.887 3.244 3.137-2.596 8.618-4.09 8.618-4.09l-.517-.48c-5.147.085-9.807 3.385-9.807 3.385-5.238 10.126-4.903 18.87-4.903 18.87 4.264 5.106 10.598 4.74 10.598 4.74l2.163-2.54c-3.807-.761-6.213-3.892-6.213-3.892s5.725 3.61 13.948 3.61 13.948-3.61 13.948-3.61-2.406 3.131-6.213 3.893l2.163 2.538s6.334.367 10.598-4.739c0 0 .335-8.744-4.903-18.87 0 0-4.66-3.3-9.807-3.385l-.517.48s5.481 1.494 8.618 4.09c0 0-5.725-3.244-13.887-3.244z" fill="#fff" fill-rule="nonzero"/><path d="M173.485 20c1.952 0 3.545 1.57 3.515 3.5a3.52 3.52 0 0 1-3.515 3.5c-1.923 0-3.485-1.598-3.485-3.5 0-1.93 1.532-3.5 3.485-3.5zM185.485 20A3.503 3.503 0 0 1 189 23.5a3.52 3.52 0 0 1-3.515 3.5c-1.923 0-3.485-1.598-3.485-3.5 0-1.93 1.532-3.5 3.485-3.5z" fill="#000" fill-rule="nonzero"/><g aria-label="Discord" fill="#fff"><path d="M9.401 8.092h9.947q1.777 0 3.4.461 1.641.462 3.043 1.3 1.418.836 2.563 2.016 1.162 1.162 1.982 2.597.82 1.436 1.265 3.094.444 1.657.444 3.452 0 1.794-.444 3.452t-1.265 3.11q-.82 1.436-1.982 2.632-1.145 1.18-2.563 2.034-1.402.837-3.042 1.299-1.624.461-3.401.461H9.4v-4.683h2.068V12.792H9.401zm7.742 4.7v16.525h2.17q1.385 0 2.615-.649 1.23-.65 2.136-1.76.906-1.128 1.436-2.632.53-1.521.53-3.264 0-1.726-.53-3.23t-1.436-2.615q-.905-1.11-2.136-1.743-1.23-.632-2.615-.632zM34.455 16.295h7.947v13.022h2.46V34H34.456v-4.683h2.666v-8.34h-2.666zm2.393-5.708q0-.632.222-1.18.24-.563.65-.973.41-.41.956-.65.564-.24 1.214-.24.615 0 1.162.24.547.24.957.65.41.41.65.974.238.547.238 1.179t-.239 1.196q-.24.547-.65.957-.41.41-.956.65-.547.239-1.162.239-.65 0-1.214-.24-.547-.239-.957-.649-.41-.41-.65-.957-.221-.564-.221-1.196zM59.287 21.712q0-.41-.274-.786-.256-.376-.769-.65-.513-.29-1.265-.46-.734-.171-1.674-.171-.36 0-.77.068-.41.051-.768.205-.342.154-.581.427-.223.257-.223.667 0 .205.052.393.068.188.239.359.17.17.461.324.308.137.786.223l3.213.632q1.744.342 2.923.854 1.179.513 1.897 1.197.717.683 1.025 1.52.325.838.325 1.812 0 1.521-.718 2.666-.7 1.145-1.863 1.914-1.145.752-2.597 1.128-1.436.393-2.906.393-.957 0-1.743-.12-.769-.119-1.401-.324-.615-.205-1.111-.479-.479-.29-.889-.632h-3.093v-4.75h4.836v.102q.018.495.308.871.29.36.752.615.479.257 1.077.394.598.12 1.264.12 1.538 0 2.24-.394.7-.41.7-1.042 0-.496-.342-.838-.342-.359-1.213-.564l-3.282-.7q-3.093-.599-4.665-1.983-1.572-1.401-1.572-3.589 0-1.281.598-2.324.598-1.06 1.623-1.794 1.026-.752 2.393-1.163 1.384-.41 2.956-.41 1.077 0 1.914.137.838.12 1.504.325.667.205 1.162.495.513.274.906.581h2.974v4.751zM80.12 22.413q-.736-.923-1.641-1.384-.906-.479-2.137-.41-.99-.069-1.811.273-.803.342-1.402.957-.58.615-.905 1.47-.325.837-.325 1.897 0 .94.342 1.777.342.838.923 1.453.598.598 1.4.94.821.342 1.778.41.804-.068 1.453-.325.666-.273 1.18-.683.512-.428.87-.94.377-.53.582-.992l4.7 1.3q-.291 1.025-1.009 2.136-.7 1.11-1.846 2.033-1.127.906-2.7 1.504-1.555.598-3.554.598-2.034 0-3.743-.735-1.71-.752-2.94-2.033-1.23-1.282-1.93-3.008-.684-1.726-.684-3.709 0-1.965.7-3.64.718-1.692 1.966-2.94 1.247-1.264 2.956-1.965 1.726-.7 3.743-.632 1.435-.068 2.786.325 1.35.393 2.563 1.179h3.4v5.144zM86.887 25.08q0-1.932.7-3.624.701-1.692 1.949-2.956 1.247-1.265 2.973-2 1.726-.735 3.794-.735t3.794.735q1.743.735 2.99 2 1.248 1.264 1.932 2.956.7 1.692.7 3.623 0 1.931-.683 3.64-.666 1.692-1.914 2.974-1.23 1.265-2.974 2-1.726.734-3.845.734-2.136 0-3.88-.735-1.725-.734-2.956-2-1.23-1.264-1.914-2.956-.666-1.709-.666-3.657zm5.11 0q0 1.007.341 1.862.342.837.923 1.453.598.615 1.367.957.787.341 1.675.341.906 0 1.675-.324.786-.342 1.35-.957.581-.616.906-1.453.325-.855.325-1.88 0-1.06-.325-1.914-.325-.854-.906-1.453-.564-.598-1.35-.905-.769-.325-1.675-.308-.888-.017-1.675.308-.769.307-1.367.905-.58.599-.923 1.453-.341.855-.341 1.914zM124.348 22.738h-4.803v-1.829q-.7 0-1.281.103-.581.085-1.026.307-.427.223-.735.616-.29.393-.41.974v6.408h3.606V34h-11.553v-4.683h2.65v-8.34h-2.615v-4.682h7.878v1.247q.752-.598 1.692-.922.94-.325 2.05-.325 1.129 0 2.325.017 1.196.017 2.222.017zM137.763 7.408h7.742v21.91h3.452V34h-8.716v-.684q-.923.479-1.897.752-.957.274-1.948.274-2.034 0-3.743-.718-1.692-.735-2.922-2-1.213-1.264-1.897-2.956-.684-1.709-.684-3.657t.667-3.623q.683-1.692 1.88-2.94 1.213-1.247 2.888-1.965 1.692-.718 3.708-.718 1.111 0 2.085.222.975.205 1.863.598v-4.494h-2.478zm-1.076 22.217q1.127-.034 2.033-.581.923-.547 1.521-1.436v-5.212q-.598-.906-1.555-1.401-.94-.513-2-.496-.888-.017-1.674.308-.77.324-1.367.922-.582.599-.923 1.436-.342.837-.342 1.897 0 1.042.342 1.897.341.837.923 1.436.598.58 1.367.888.786.308 1.675.342z"/></g></g></svg>