<svg xmlns="http://www.w3.org/2000/svg" viewBox="0 0 183 43"><g fill="none" fill-rule="evenodd"><path d="M10 0h163c5.54 0 10 4.46 10 10v23c0 5.54-4.46 10-10 10H10C4.46 43 0 38.54 0 33V10C0 4.46 4.46 0 10 0z" fill="#000"/><g aria-label="Donate" fill="#fff"><path d="M9.401 8.092h9.947q1.777 0 3.4.461 1.641.462 3.043 1.3 1.418.836 2.563 2.016 1.162 1.162 1.982 2.597.82 1.436 1.265 3.094.444 1.657.444 3.452 0 1.794-.444 3.452t-1.265 3.11q-.82 1.436-1.982 2.632-1.145 1.18-2.563 2.034-1.402.837-3.042 1.299-1.624.461-3.401.461H9.4v-4.683h2.068V12.792H9.401zm7.742 4.7v16.525h2.17q1.385 0 2.615-.649 1.23-.65 2.136-1.76.906-1.128 1.436-2.632.53-1.521.53-3.264 0-1.726-.53-3.23t-1.436-2.615q-.905-1.11-2.136-1.743-1.23-.632-2.615-.632zM34.318 25.08q0-1.932.701-3.624.7-1.692 1.948-2.956 1.248-1.265 2.974-2 1.726-.735 3.794-.735t3.794.735q1.743.735 2.99 2 1.248 1.264 1.932 2.956.7 1.692.7 3.623 0 1.931-.683 3.64-.667 1.692-1.914 2.974-1.23 1.265-2.974 2-1.726.734-3.845.734-2.136 0-3.88-.735-1.726-.734-2.956-2-1.23-1.264-1.914-2.956-.667-1.709-.667-3.657zm5.11 0q0 1.007.342 1.862.342.837.923 1.453.598.615 1.367.957.786.341 1.675.341.906 0 1.675-.324.786-.342 1.35-.957.58-.616.906-1.453.324-.855.324-1.88 0-1.06-.324-1.914-.325-.854-.906-1.453-.564-.598-1.35-.905-.77-.325-1.675-.308-.889-.017-1.675.308-.769.307-1.367.905-.581.599-.923 1.453-.342.855-.342 1.914zM70.275 23.814q0-1.486-.786-2.324-.786-.854-2.085-.854-.888 0-1.794.393t-1.76 1.47v6.818h2.87V34H55.716v-4.683h2.597v-8.34H55.75v-4.682h8.066v1.555q1.111-.871 2.478-1.367 1.385-.513 2.906-.513 3.196 0 4.922 1.795 1.726 1.777 1.726 5.212v6.34h2.512V34h-8.084zM91.552 33.043q-.598.376-1.094.65-.495.256-.99.41-.496.17-1.026.239-.53.085-1.162.085-1.59 0-2.854-.427-1.248-.444-2.12-1.196-.854-.77-1.315-1.795-.462-1.042-.462-2.256 0-1.23.462-2.273.478-1.042 1.367-1.777.889-.752 2.17-1.162 1.3-.427 2.957-.427 1.213 0 2.204.136 1.009.12 1.863.308v-.547q0-.666-.256-1.145-.256-.495-.718-.803-.461-.325-1.11-.461-.65-.154-1.42-.154-1.606 0-2.836.324-1.213.308-2.341.906l-1.641-3.315q1.743-1.196 3.64-1.829 1.914-.632 4.05-.632 1.658 0 3.06.376 1.418.359 2.426 1.196 1.009.82 1.573 2.153.58 1.333.58 3.248v6.442h2.376V34h-7.383zm-3.896-2.649q1.213 0 2.204-.393.992-.393 1.692-.957v-2.256h-4.101q-.393 0-.77.12-.375.12-.683.342-.29.222-.478.546-.171.325-.171.752 0 .786.564 1.316.58.53 1.743.53zM109.223 16.295h3.538v4.477h-3.572l-.034 7.486q0 .65.102 1.06.103.392.29.632.206.239.48.324.273.086.632.086.65 0 1.145-.12.495-.136.99-.307l.736 3.298q-.872.547-1.948.872-1.06.324-2.53.324-1.042 0-2-.359-.94-.359-1.657-1.076-.718-.735-1.145-1.829-.427-1.094-.41-2.546l.051-7.845h-2.546v-4.477h2.563l.034-4.238 5.315-2.53zM120.81 26.258l.051.53q.188.77.633 1.35.461.581 1.076.974.616.393 1.368.598.751.188 1.52.188.77 0 1.453-.085.7-.103 1.35-.256.65-.171 1.265-.376.615-.223 1.247-.462l1.88 3.504q-.974.598-1.794 1.025-.803.41-1.624.684-.82.273-1.743.393-.923.136-2.153.136-2.307 0-4.102-.752-1.794-.769-3.025-2.067-1.213-1.3-1.862-3.042-.633-1.744-.633-3.692 0-1.948.667-3.657.683-1.709 1.914-2.974 1.23-1.281 2.94-2.016 1.708-.735 3.793-.735t3.692.7q1.623.684 2.734 1.915 1.11 1.213 1.71 2.87.597 1.641.648 3.538.052.428.052.855.017.41-.017.854zm4.085-6.46q-.958 0-1.641.24-.667.222-1.128.632-.461.393-.735.906-.273.512-.427 1.076h7.4q-.12-.58-.342-1.093-.222-.513-.615-.906t-1.009-.615q-.598-.24-1.503-.24z"/></g><path d="M154.46 36.955c-.185-.075-.405-.315-.439-.48-.05-.225-.101.165 1.014-6.137 1.014-5.703.997-5.613 1.132-5.778.22-.255.186-.255 2.72-.27 2.231-.045 2.704-.045 3.701-.18 5.492-.675 8.888-3.541 10.071-8.493.068-.33.135-.615.152-.615 0-.015.119.06.254.15 1.74 1.17 2.332 3.331 1.673 6.212-.778 3.437-2.84 5.717-6.05 6.693-1.368.42-2.517.585-4.545.63-1.352.06-1.386.06-1.774.285-.288.255-.27.21-.93 3.826-.456 2.551-.625 3.377-.693 3.527-.118.24-.354.45-.625.57l-.186.105H157.3c-2.18 0-2.737 0-2.839-.045z" fill="#fff" fill-rule="nonzero"/><path d="M146.535 32.937c-.318-.157-.535-.425-.535-.74 0-.425 4.36-26.126 4.478-26.41.15-.283.534-.582.835-.693l.25-.094h5.899c6.533 0 6.282 0 7.753.315 4.377.866 6.382 3.622 5.63 7.764-.835 4.614-3.308 7.354-7.519 8.346-1.453.33-2.472.425-5.246.425-2.189 0-2.356.016-2.79.237a1.972 1.972 0 0 0-.936 1.18c-.067.111-.451 2.316-.885 4.883a359.853 359.853 0 0 0-.786 4.756l-.05.094h-2.974c-2.64 0-3.007 0-3.124-.063z" fill="#fff" fill-rule="nonzero"/></g></svg>