<svg xmlns="http://www.w3.org/2000/svg" viewBox="0 0 202 43"><g fill="none" fill-rule="evenodd"><path d="M10 0h182c5.54 0 10 4.46 10 10v23c0 5.54-4.46 10-10 10H10C4.46 43 0 38.54 0 33V10C0 4.46 4.46 0 10 0z" fill="#000"/><path d="M195 11.294a19.31 19.31 0 0 1-4.821 1.137c1.724-.873 3.057-2.257 3.684-3.92-1.626.823-3.43 1.4-5.33 1.729-1.549-1.416-3.724-2.24-6.194-2.24-4.605 0-8.368 3.162-8.368 7.066 0 .56.078 1.103.215 1.614-6.977-.296-13.19-3.113-17.325-7.379a6.163 6.163 0 0 0-1.136 3.541c0 2.454 1.47 4.629 3.743 5.864-1.392 0-2.685-.33-3.822-.824v.05c0 3.426 2.9 6.292 6.742 6.934a9.755 9.755 0 0 1-3.782.115c1.058 2.784 4.135 4.859 7.839 4.908-2.861 1.911-6.487 3.031-10.446 3.031-.666 0-1.333-.033-1.999-.099 3.724 2.01 8.153 3.179 12.896 3.179 15.443 0 23.93-10.772 23.93-20.11 0-.314 0-.61-.02-.923A15.58 15.58 0 0 0 195 11.294z" fill="#fff" fill-rule="nonzero"/><g aria-label="Twitter" fill="#fff"><path d="M14.375 29.317h2.683V12.621h-3.145v3.35H8.342V8.09h23.567v7.88h-5.606v-3.35h-3.572v16.696h2.735V34H14.375zM33.173 16.295h9.246v4.683h-2l1.88 6.306 3.64-10.99h5.008l3.674 11.554 2.256-6.87H54.98v-4.683h9.246v4.683H61.85l-4.734 13.09h-5.11l-3.708-11.296-3.777 11.296h-4.973l-4.392-13.09h-1.983zM66.31 16.295h7.947v13.022h2.461V34H66.311v-4.683h2.666v-8.34H66.31zm2.393-5.708q0-.632.222-1.18.24-.563.65-.973.41-.41.957-.65.564-.24 1.213-.24.615 0 1.162.24.547.24.957.65.41.41.65.974.239.547.239 1.179t-.24 1.196q-.239.547-.649.957-.41.41-.957.65-.547.239-1.162.239-.65 0-1.213-.24-.547-.239-.957-.649-.41-.41-.65-.957-.222-.564-.222-1.196zM86.528 16.295h3.537v4.477h-3.571l-.035 7.486q0 .65.103 1.06.103.392.29.632.206.239.48.324.272.086.631.086.65 0 1.145-.12.496-.136.992-.307l.734 3.298q-.871.547-1.948.872-1.06.324-2.53.324-1.042 0-1.999-.359-.94-.359-1.657-1.076-.718-.735-1.145-1.829-.428-1.094-.41-2.546l.05-7.845H78.65v-4.477h2.564l.034-4.238 5.315-2.53zM100.2 16.295h3.537v4.477h-3.571l-.035 7.486q0 .65.103 1.06.102.392.29.632.205.239.479.324.273.086.632.086.65 0 1.145-.12.496-.136.991-.307l.735 3.298q-.871.547-1.948.872-1.06.324-2.53.324-1.042 0-1.999-.359-.94-.359-1.657-1.076-.718-.735-1.145-1.829-.428-1.094-.41-2.546l.05-7.845h-2.546v-4.477h2.564l.034-4.238 5.315-2.53zM111.787 26.258l.05.53q.189.77.633 1.35.462.581 1.077.974t1.367.598q.752.188 1.521.188.77 0 1.453-.085.7-.103 1.35-.256.65-.171 1.264-.376.616-.223 1.248-.462l1.88 3.504q-.974.598-1.795 1.025-.803.41-1.623.684-.82.273-1.743.393-.923.136-2.154.136-2.307 0-4.101-.752-1.795-.769-3.025-2.067-1.213-1.3-1.863-3.042-.632-1.744-.632-3.692 0-1.948.666-3.657.684-1.709 1.914-2.974 1.23-1.281 2.94-2.016 1.709-.735 3.794-.735t3.691.7q1.624.684 2.735 1.915 1.11 1.213 1.709 2.87.598 1.641.649 3.538.051.428.051.855.017.41-.017.854zm4.084-6.46q-.957 0-1.64.24-.667.222-1.128.632-.462.393-.735.906-.274.512-.428 1.076h7.4q-.12-.58-.341-1.093-.223-.513-.616-.906t-1.008-.615q-.598-.24-1.504-.24zM143.557 22.738h-4.803v-1.829q-.7 0-1.281.103-.581.085-1.026.307-.427.223-.735.616-.29.393-.41.974v6.408h3.606V34h-11.553v-4.683h2.65v-8.34h-2.615v-4.682h7.878v1.247q.752-.598 1.692-.922.94-.325 2.05-.325 1.129 0 2.325.017 1.196.017 2.222.017z"/></g></g></svg>