<svg xmlns="http://www.w3.org/2000/svg" width="260" height="61.333"><path d="M20.456 1.6h219.3c10.31 0 18.667 8.357 18.667 18.667v20.666c0 10.31-8.358 18.667-18.667 18.667h-219.3c-10.31 0-18.667-8.357-18.667-18.667V20.267C1.79 9.957 10.146 1.6 20.456 1.6z"/><path fill="none" stroke="#000" stroke-linecap="round" stroke-linejoin="round" stroke-miterlimit="10" stroke-width="1.333" d="M20.456 1.6h219.3c10.31 0 18.667 8.357 18.667 18.667v20.666c0 10.31-8.358 18.667-18.667 18.667h-219.3c-10.31 0-18.667-8.357-18.667-18.667V20.267C1.79 9.957 10.146 1.6 20.456 1.6z"/><g fill="#fff"><path d="M27.719 48.013q-4.06 0-7.934-.886-3.826-.934-6.3-2.474l3.547-8.026q2.333 1.353 5.227 2.193 2.893.793 5.553.793 2.287 0 3.267-.42.98-.466.98-1.353 0-1.027-1.307-1.54-1.26-.513-4.2-1.12-3.78-.793-6.3-1.68-2.52-.933-4.387-2.987Q14 28.413 14 24.867q0-3.08 1.726-5.6 1.727-2.52 5.134-3.967 3.453-1.447 8.353-1.447 3.36 0 6.58.747 3.267.7 5.74 2.1l-3.313 7.98q-4.807-2.427-9.1-2.427-4.247 0-4.247 2.054 0 .98 1.26 1.493 1.26.467 4.153 1.027 3.734.7 6.3 1.633 2.567.887 4.434 2.94 1.913 2.053 1.913 5.6 0 3.08-1.727 5.6-1.726 2.473-5.18 3.967-3.406 1.446-8.306 1.446zM79.365 47.267l-.093-14.887-7.093 11.947h-4.854l-7.093-11.434v14.374H50.199V14.6h9.053l10.64 17.407L80.252 14.6h9.053l.094 32.667zM112.905 14.6v32.667h-11.013v-24.36h-5.6V14.6zM138.652 26.127q2.987 0 5.553 1.306 2.567 1.307 4.107 3.687t1.54 5.46q0 3.407-1.773 6.02-1.727 2.613-4.76 4.013-3.034 1.4-6.72 1.4-4.714 0-8.26-1.82-3.5-1.82-5.46-5.413t-1.96-8.82q0-5.6 2.24-9.707 2.286-4.106 6.346-6.253 4.107-2.147 9.52-2.147 2.94 0 5.6.7 2.66.654 4.527 1.867l-3.967 7.7q-2.426-1.727-5.926-1.727-2.847 0-4.714 1.447-1.82 1.4-2.38 4.107 2.567-1.82 6.487-1.82zm-2.8 14.28q1.493 0 2.427-.887.933-.887.933-2.427t-.933-2.426q-.934-.934-2.427-.934-1.493 0-2.427.934-.933.886-.933 2.426t.933 2.427q.934.887 2.427.887zM183.345 14.6v6.767l-10.873 25.9h-12.04l10.36-24.127h-6.3v4.76h-9.1V14.6zM205.825 14.6v32.667h-11.013v-24.36h-5.6V14.6zM231.572 26.127q2.987 0 5.553 1.306 2.567 1.307 4.107 3.687t1.54 5.46q0 3.407-1.773 6.02-1.727 2.613-4.76 4.013-3.034 1.4-6.72 1.4-4.714 0-8.26-1.82-3.5-1.82-5.46-5.413t-1.96-8.82q0-5.6 2.24-9.707 2.286-4.106 6.346-6.253 4.107-2.147 9.52-2.147 2.94 0 5.6.7 2.66.654 4.527 1.867l-3.967 7.7q-2.426-1.727-5.926-1.727-2.847 0-4.714 1.447-1.82 1.4-2.38 4.107 2.567-1.82 6.487-1.82zm-2.8 14.28q1.493 0 2.427-.887.933-.887.933-2.427t-.933-2.426q-.934-.934-2.427-.934-1.493 0-2.427.934-.933.886-.933 2.426t.933 2.427q.934.887 2.427.887z"/></g></svg>