<svg viewBox="0 0 127 25" id="svg5" xmlns="http://www.w3.org/2000/svg" xmlns:svg="http://www.w3.org/2000/svg"><defs id="defs9"/><path d="M5 0H122a5 5 0 015 5v15a5 5 0 01-5 5H5a5 5 0 01-5-5V5a5 5 0 015-5z" style="fill:#000" id="path2"/><g aria-label="SM16716" id="component-text" style="font-weight:900;font-size:25px;font-family:Montserrat;letter-spacing:1.1px;fill:#fffffc"><path d="m12.95 21.4q-2.2.0-4.25-.5-2.05-.5-3.375-1.3l1.9-4.3q1.25.725 2.775 1.175 1.55.425 3 .425.85.0 1.325-.1.5-.125.725-.325.225-.225.225-.525.0-.475-.525-.75t-1.4-.45q-.85-.2-1.875-.4Q10.45 14.125 9.4 13.775 8.375 13.425 7.5 12.85 6.65 12.275 6.125 11.35 5.6 10.4 5.6 9q0-1.625.9-2.95Q7.425 4.7 9.225 3.9q1.825-.8 4.525-.8 1.775.0 3.5.375t3.1 1.15L18.575 8.9Q17.275 8.25 16.05 7.925 14.85 7.6 13.7 7.6q-.85.0-1.35.15t-.725.4q-.2.25-.2.55.0.45.525.725.525.25 1.375.425.875.175 1.9.375 1.05.2 2.075.55 1.025.35 1.875.925.875.575 1.4 1.5t.525 2.3q0 1.6-.925 2.95-.9 1.325-2.7 2.15-1.8.8-4.525.8z" id="path11"/><path d="M23.94999 21V3.5h4.85l7 11.425h-2.55l6.8-11.425h4.85l.05 17.5h-5.375l-.05-9.4h.85l-4.65 7.825h-2.6l-4.85-7.825h1.05V21z" id="path13"/><path d="M50.600002 21V5.55l2.525 2.4h-5.525V3.5h8.9V21z" id="path15"/><path d="m68.149982 21.4q-2.5.0-4.4-.95-1.875-.975-2.95-2.875-1.05-1.925-1.05-4.775.0-3.075 1.225-5.225 1.225-2.175 3.4-3.325 2.2-1.15 5.075-1.15 1.55.0 2.975.375 1.45.35 2.45 1l-2.125 4.125q-.775-.55-1.575-.725-.775-.2-1.6-.2-1.775.0-2.85 1.075-1.05 1.05-1.05 3.075.0.375.0.75.0.35.0.725l-1.35-.975q.5-.85 1.175-1.425.675-.6 1.6-.9.925-.325 2.15-.325 1.6.0 2.95.7 1.375.675 2.2 1.925.85 1.25.85 2.975.0 1.875-.95 3.25t-2.575 2.125q-1.6.75-3.575.75zm-.4-4.075q.525.0.925-.2.425-.225.65-.625.225-.4.225-.95.0-.825-.5-1.3-.5-.5-1.3-.5-.525.0-.925.225-.4.225-.65.625-.225.4-.225.95t.225.95q.25.4.65.625.4.2.925.2z" id="path17"/><path d="m79.874963 21 6.6-15.4 1.575 2.475h-8.3l2.3-2.675v5.225h-4.875V3.5h14.975V7.125L86.324963 21z" id="path19"/><path d="M97.249985 21V5.55l2.525 2.4h-5.525V3.5h8.899995V21z" id="path21"/><path d="m114.79996 21.4q-2.5.0-4.4-.95-1.875-.975-2.95-2.875-1.05-1.925-1.05-4.775.0-3.075 1.225-5.225 1.225-2.175 3.4-3.325 2.2-1.15 5.075-1.15 1.55.0 2.975.375 1.45.35 2.45 1l-2.125 4.125q-.775-.55-1.575-.725-.775-.2-1.6-.2-1.775.0-2.85 1.075-1.05 1.05-1.05 3.075.0.375.0.75.0.35.0.725l-1.35-.975q.5-.85 1.175-1.425.675-.6 1.6-.9.925-.325 2.15-.325 1.6.0 2.95.7 1.375.675 2.2 1.925.85 1.25.85 2.975.0 1.875-.95 3.25t-2.575 2.125q-1.6.75-3.575.75zm-.4-4.075q.525.0.925-.2.425-.225.65-.625.225-.4.225-.95.0-.825-.5-1.3-.5-.5-1.3-.5-.525.0-.925.225-.4.225-.65.625-.225.4-.225.95t.225.95q.25.4.65.625.4.2.925.2z" id="path23"/></g></svg>