<?xml version="1.0" encoding="UTF-8" standalone="no"?>
<svg
   xmlns:dc="http://purl.org/dc/elements/1.1/"
   xmlns:cc="http://creativecommons.org/ns#"
   xmlns:rdf="http://www.w3.org/1999/02/22-rdf-syntax-ns#"
   xmlns:svg="http://www.w3.org/2000/svg"
   xmlns="http://www.w3.org/2000/svg"
   xmlns:sodipodi="http://sodipodi.sourceforge.net/DTD/sodipodi-0.dtd"
   xmlns:inkscape="http://www.inkscape.org/namespaces/inkscape"
   width="260"
   height="61.333"
   version="1.1"
   id="svg10"
   sodipodi:docname="sm2135.svg"
   inkscape:version="1.0.2 (e86c870879, 2021-01-15)">
  <metadata
     id="metadata16">
    <rdf:RDF>
      <cc:Work
         rdf:about="">
        <dc:format>image/svg+xml</dc:format>
        <dc:type
           rdf:resource="http://purl.org/dc/dcmitype/StillImage" />
        <dc:title></dc:title>
      </cc:Work>
    </rdf:RDF>
  </metadata>
  <defs
     id="defs14" />
  <sodipodi:namedview
     pagecolor="#ffffff"
     bordercolor="#666666"
     borderopacity="1"
     objecttolerance="10"
     gridtolerance="10"
     guidetolerance="10"
     inkscape:pageopacity="0"
     inkscape:pageshadow="2"
     inkscape:window-width="1920"
     inkscape:window-height="1016"
     id="namedview12"
     showgrid="false"
     inkscape:zoom="2.6523438"
     inkscape:cx="157.86732"
     inkscape:cy="8.179514"
     inkscape:window-x="0"
     inkscape:window-y="0"
     inkscape:window-maximized="1"
     inkscape:current-layer="svg10" />
  <path
     d="M20.456 1.6h219.3c10.31 0 18.667 8.357 18.667 18.667v20.666c0 10.31-8.358 18.667-18.667 18.667h-219.3c-10.31 0-18.667-8.357-18.667-18.667V20.267C1.79 9.957 10.146 1.6 20.456 1.6z"
     id="path2" />
  <path
     fill="none"
     stroke="#000"
     stroke-linecap="round"
     stroke-linejoin="round"
     stroke-miterlimit="10"
     stroke-width="1.333"
     d="M20.456 1.6h219.3c10.31 0 18.667 8.357 18.667 18.667v20.666c0 10.31-8.358 18.667-18.667 18.667h-219.3c-10.31 0-18.667-8.357-18.667-18.667V20.267C1.79 9.957 10.146 1.6 20.456 1.6z"
     id="path4" />
  <text
     xml:space="preserve"
     style="font-style:normal;font-weight:normal;font-size:49.4582px;line-height:1.25;font-family:sans-serif;fill:#ffffff;fill-opacity:1;stroke:none;stroke-width:1.23645"
     x="35.866905"
     y="46.913731"
     id="text24"
     transform="scale(0.95547305,1.046602)"><tspan
       sodipodi:role="line"
       id="tspan22"
       x="35.866905"
       y="46.913731"
       style="fill:#ffffff;stroke-width:1.23645">SM2135</tspan></text>
</svg>
