<svg xmlns="http://www.w3.org/2000/svg" xmlns:svg="http://www.w3.org/2000/svg" id="svg10" width="260" height="61.333" version="1.1"><metadata id="metadata16"/><path id="path2" d="M20.456 1.6h219.3c10.31 0 18.667 8.357 18.667 18.667v20.666c0 10.31-8.358 18.667-18.667 18.667h-219.3c-10.31 0-18.667-8.357-18.667-18.667V20.267C1.79 9.957 10.146 1.6 20.456 1.6z"/><path id="path4" fill="none" stroke="#000" stroke-linecap="round" stroke-linejoin="round" stroke-miterlimit="10" stroke-width="1.333" d="M20.456 1.6h219.3c10.31 0 18.667 8.357 18.667 18.667v20.666c0 10.31-8.358 18.667-18.667 18.667h-219.3c-10.31 0-18.667-8.357-18.667-18.667V20.267C1.79 9.957 10.146 1.6 20.456 1.6z"/><text style="font-style:normal;font-weight:400;font-size:49.4582px;line-height:1.25;font-family:sans-serif;fill:#fff;fill-opacity:1;stroke:none;stroke-width:1.23645" id="text24" x="35.867" y="46.914" transform="scale(0.95547305,1.046602)" xml:space="preserve"><tspan id="tspan22" x="35.867" y="46.914" style="fill:#fff;stroke-width:1.23645">SM2235</tspan></text></svg>