<svg xmlns="http://www.w3.org/2000/svg" width="124" height="60" version="1.1"><path d="M20.49 1.333H104c10.31 0 18.667 8.358 18.667 18.667v20.667c0 10.309-8.358 18.666-18.667 18.666H20.49c-10.31 0-18.668-8.357-18.668-18.666V20c0-10.31 8.358-18.667 18.667-18.667z"/><path d="M20.49 1.333H104c10.31 0 18.667 8.358 18.667 18.667v20.667c0 10.309-8.358 18.666-18.667 18.666H20.49c-10.31 0-18.668-8.357-18.668-18.666V20c0-10.31 8.358-18.667 18.667-18.667z" fill="none" stroke="#000" stroke-linecap="round" stroke-linejoin="round" stroke-miterlimit="10" stroke-width="1.333"/><g transform="translate(1.0749 2.0002)" fill="#fff"><path d="m24.374 45.413c-2.7067 0-5.351-0.29567-7.933-0.887-2.5513-0.622-4.6513-1.4463-6.3-2.473l3.547-8.027c1.5553 0.902 3.2973 1.633 5.226 2.193 1.9293 0.52933 3.7807 0.794 5.554 0.794 1.524 0 2.6127-0.14 3.266-0.42 0.65333-0.31133 0.98-0.76267 0.98-1.354 0-0.684-0.43533-1.1973-1.306-1.54-0.84-0.342-2.24-0.71533-4.2-1.12-2.52-0.52867-4.62-1.0887-6.3-1.68-1.68-0.622-3.1423-1.6173-4.387-2.986-1.2447-1.4-1.867-3.2823-1.867-5.647 0-2.0533 0.57567-3.92 1.727-5.6s2.8623-3.0023 5.133-3.967c2.3027-0.964 5.0873-1.446 8.354-1.446 2.24 0 4.4333 0.24867 6.58 0.746 2.1773 0.46667 4.0907 1.1667 5.74 2.1l-3.314 7.98c-3.204-1.6173-6.2373-2.426-9.1-2.426-2.8307 0-4.246 0.68433-4.246 2.053 0 0.65333 0.42 1.151 1.26 1.493 0.84 0.31133 2.2243 0.65367 4.153 1.027 2.4887 0.46667 4.5887 1.011 6.3 1.633 1.7113 0.59133 3.189 1.5713 4.433 2.94 1.276 1.3693 1.914 3.236 1.914 5.6 0 2.0533-0.57567 3.92-1.727 5.6-1.1513 1.6493-2.878 2.9717-5.18 3.967-2.2713 0.96467-5.0403 1.447-8.307 1.447z" aria-label="SPL"/><path d="m73.238 45.37-0.093-15.528-7.093 12.462h-4.854l-7.093-11.927v14.993h-10.033v-34.075h9.053l10.64 18.157 10.36-18.157h9.053l0.094 34.075z" stroke-width="1.0213"/><path d="m87.756 11.295h10.45v25.168h13.992v8.9085h-24.442z" stroke-width=".99488"/></g></svg>