<?xml version="1.0" encoding="UTF-8" standalone="no"?>
<svg
   width="183.333"
   height="60"
   version="1.1"
   id="svg180"
   xmlns="http://www.w3.org/2000/svg"
   xmlns:svg="http://www.w3.org/2000/svg">
  <defs
     id="defs184" />
  <path
     d="M19.333.667h145C174.643.667 183 9.024 183 19.333V40c0 10.31-8.358 18.667-18.667 18.667h-145C9.024 58.667.667 50.309.667 40V19.333C.667 9.024 9.024.667 19.333.667z"
     id="path172" />
  <path
     d="M19.333.667h144C173.643.667 182 9.024 182 19.333V40c0 10.31-8.358 18.667-18.667 18.667h-144C9.024 58.667.667 50.309.667 40V19.333C.667 9.024 9.024.667 19.333.667z"
     stroke-miterlimit="10"
     fill="none"
     stroke="#000"
     stroke-width="1.333"
     stroke-linecap="round"
     stroke-linejoin="round"
     id="path174" />
  <g
     aria-label="SNMP"
     id="text326"
     style="font-weight:800;font-size:46.6667px;line-height:1.25;font-family:Montserrat;-inkscape-font-specification:'Montserrat, Ultra-Bold';fill:#f9f9f9">
    <path
       d="m 33.236888,46.653677 q -4.013336,0 -7.746672,-0.980001 -3.686669,-1.026667 -6.020004,-2.613335 l 3.033336,-6.813338 q 2.193334,1.400001 5.040003,2.333335 2.893335,0.886668 5.740004,0.886668 1.913335,0 3.080002,-0.326667 1.166667,-0.373334 1.680001,-0.933334 0.560001,-0.606667 0.560001,-1.400001 0,-1.120001 -1.026668,-1.773335 -1.026667,-0.653334 -2.660002,-1.073334 -1.633334,-0.42 -3.640002,-0.84 -1.960001,-0.420001 -3.96667,-1.073335 -1.960001,-0.653333 -3.593335,-1.680001 -1.633335,-1.073334 -2.660002,-2.753335 -1.026667,-1.726668 -1.026667,-4.340003 0,-2.940002 1.586667,-5.320003 1.633335,-2.380002 4.853337,-3.82667 3.220002,-1.446667 8.026672,-1.446667 3.220002,0 6.300004,0.746667 3.126669,0.7 5.553337,2.100001 l -2.846668,6.860005 q -2.333335,-1.260001 -4.620003,-1.866668 -2.286669,-0.653334 -4.433337,-0.653334 -1.913334,0 -3.080002,0.42 -1.166667,0.373334 -1.680001,1.026668 -0.513334,0.653334 -0.513334,1.493334 0,1.073334 0.980001,1.726668 1.026667,0.606667 2.660002,1.026667 1.680001,0.373334 3.640002,0.793334 2.006668,0.420001 3.96667,1.073334 2.006668,0.606667 3.640002,1.680001 1.633335,1.026668 2.613335,2.753336 1.026668,1.680001 1.026668,4.246669 0,2.846669 -1.633335,5.273337 -1.586667,2.380002 -4.80667,3.826669 -3.173335,1.446668 -8.026672,1.446668 z"
       id="path1102" />
    <path
       d="M 51.950204,46.000343 V 13.333654 h 7.606671 L 77.570221,35.080336 H 73.976885 V 13.333654 h 9.05334 V 46.000343 H 75.423553 L 57.410207,24.253662 h 3.593336 v 21.746681 z"
       id="path1104" />
    <path
       d="M 89.563552,46.000343 V 13.333654 h 7.606671 l 13.533347,22.213349 h -4.01334 l 13.16001,-22.213349 h 7.60667 l 0.0933,32.666689 h -8.49334 l -0.0933,-19.740013 h 1.44667 l -9.84667,16.520011 H 106.4569 L 96.330223,26.26033 h 1.773334 v 19.740013 z"
       id="path1106" />
    <path
       d="M 134.0836,46.000343 V 13.333654 h 14.93335 q 4.48,0 7.7,1.446668 3.26667,1.446668 5.04,4.200003 1.77334,2.706668 1.77334,6.440004 0,3.686669 -1.77334,6.393338 -1.77333,2.706669 -5.04,4.200003 -3.22,1.446668 -7.7,1.446668 h -9.80001 l 4.10667,-4.013337 v 12.553342 z m 9.24001,-11.573341 -4.10667,-4.246669 h 9.24 q 2.89334,0 4.29334,-1.260001 1.44667,-1.260001 1.44667,-3.500003 0,-2.286668 -1.44667,-3.546669 -1.4,-1.260001 -4.29334,-1.260001 h -9.24 l 4.10667,-4.246669 z"
       id="path1108" />
  </g>
</svg>
