<svg width="400" height="172.647" xmlns="http://www.w3.org/2000/svg"><path d="M97.792 21.033c-1.091 1.144-1.267 1.487-.986 1.928.19.3 1.872 2.177 2.319 2.588.206.189.375.409.375.488 0 .079.3.55.667 1.046.366.497.666.977.666 1.068 0 .091.104.226.231.299.128.073.385.433.572.8.929 1.822 1.364 2.754 1.364 2.925 0 .104.141.369.314.588.173.22.365.737.427 1.149.061.412.212.807.333.877.122.07.313.578.425 1.128.112.55.273 1.085.358 1.19.085.105.228.855.319 1.667s.255 1.738.365 2.059c.273.795.265 7.331-.01 8.276-.111.38-.272 1.245-.358 1.922-.086.677-.272 1.453-.413 1.725-.142.272-.259.719-.26.994-.001.275-.147.738-.324 1.03a4.084 4.084 0 0 0-.44 1.166c-.065.351-.257.816-.427 1.035-.17.218-.309.504-.309.633 0 .203-.344.955-.863 1.886-.076.137-.27.51-.43.828-.16.318-.403.702-.54.854-.138.151-.475.658-.75 1.127-.275.468-.558.853-.629.855-.071.001-.201.19-.288.419-.087.23-.23.417-.318.417s-.204.131-.258.292c-.055.16-.585.809-1.178 1.442-.594.632-1.079 1.288-1.079 1.456 0 .553 2.202 2.81 2.74 2.81.283 0 2.26-1.896 2.26-2.167 0-.085.15-.235.333-.333.183-.098.333-.263.333-.367 0-.104.115-.307.254-.452.547-.57 1.246-1.572 1.246-1.787 0-.125.105-.227.234-.227s.319-.207.423-.459c.104-.252.374-.758.599-1.125.225-.366.529-.929.676-1.25.148-.321.364-.696.482-.833a2.17 2.17 0 0 0 .336-.667c.068-.229.22-.529.338-.666.118-.138.295-.553.393-.922.099-.37.291-.82.427-1 .137-.181.251-.516.255-.745.003-.229.124-.642.269-.917.145-.275.335-.938.422-1.473.087-.536.262-1.136.389-1.333.126-.198.278-.885.336-1.527.059-.642.234-1.504.389-1.917.415-1.101.417-8.681.003-9.916-.153-.459-.327-1.328-.385-1.933-.059-.604-.214-1.306-.345-1.559-.132-.253-.309-.896-.395-1.428-.086-.533-.274-1.197-.417-1.475-.144-.278-.262-.622-.262-.764 0-.143-.15-.539-.333-.881-.184-.342-.334-.78-.334-.974 0-.193-.15-.487-.333-.653-.183-.166-.333-.43-.333-.586 0-.156-.188-.56-.417-.898-.229-.338-.417-.719-.417-.847s-.066-.274-.147-.324c-.081-.05-.3-.416-.487-.813-.186-.397-.607-1.073-.936-1.503-.328-.43-.596-.856-.596-.947a.165.165 0 0 0-.164-.165c-.089 0-.307-.283-.483-.628-.176-.345-.59-.922-.92-1.283-.33-.36-.6-.715-.6-.789 0-.073-.115-.134-.255-.134a.411.411 0 0 1-.352-.252c-.598-1.557-1.647-1.573-3.101-.048m-6.125 6.384c-.114.137-.306.25-.426.25s-.266.15-.324.333c-.059.183-.202.333-.318.333-.117 0-.298.188-.402.417-.104.229-.304.417-.443.417-.14 0-.254.088-.254.195 0 .107-.13.339-.289.515-.275.304-.275.33 0 .531.159.117.289.27.289.341 0 .071.169.296.375.499.568.559 1.511 1.731 1.792 2.227.137.243.343.502.458.575.115.073.208.263.208.421 0 .159.123.463.273.677.431.616 1.227 2.158 1.233 2.391.003.116.151.511.328.878.177.366.324.907.327 1.202.003.295.137.895.297 1.334.421 1.151.416 6.779-.006 7.86-.157.401-.285.949-.285 1.217 0 .269-.143.803-.318 1.187a6.98 6.98 0 0 0-.433 1.313c-.063.338-.213.651-.333.697-.12.046-.267.309-.328.584-.06.274-.221.592-.358.706-.137.114-.359.437-.494.72-.451.945-.709 1.342-1.308 2.013-1.507 1.688-1.761 2.02-1.761 2.305 0 .302 2.448 2.943 2.729 2.944.435.003 3.084-3.15 3.349-3.983.061-.192.203-.349.316-.349.113 0 .298-.256.411-.568.112-.312.315-.61.45-.661.134-.052.245-.228.245-.391.001-.163.138-.522.305-.797.168-.275.361-.725.429-1 .069-.275.222-.613.34-.75.118-.138.266-.586.328-.996.062-.41.227-.871.366-1.024.139-.153.295-.718.348-1.254.053-.537.217-1.201.365-1.476.346-.644.405-8.201.067-8.608-.11-.133-.29-.801-.399-1.484-.109-.683-.293-1.354-.41-1.491-.116-.138-.265-.55-.33-.917s-.217-.854-.336-1.083c-.34-.652-1.022-2.211-1.148-2.625-.063-.207-.185-.375-.271-.375-.086 0-.275-.295-.419-.654-.144-.36-.368-.695-.498-.745a.392.392 0 0 1-.237-.338.503.503 0 0 0-.209-.38c-.114-.073-.467-.508-.784-.967-.504-.729-2.066-2.416-2.238-2.416-.034 0-.155.112-.269.25m-8.44 8.5c-.053.137-.165.25-.25.25-.188 0-1.31 1.102-1.31 1.287 0 .073-.15.226-.334.341-.402.251-.46 1.167-.083 1.311.137.053.25.175.25.271 0 .096.206.443.458.771 1.398 1.819 1.936 3.943 1.497 5.901-.149.66-.316 1.438-.373 1.729-.056.29-.201.565-.321.611-.12.046-.271.293-.335.548-.064.256-.261.566-.438.69s-.321.315-.321.426c0 .11-.15.294-.334.408-.706.441.565 2.872 1.501 2.872.079 0 .191.15.249.334.23.722 1.833-.116 2.154-1.126.065-.206.264-.452.441-.547.177-.095.322-.289.322-.432 0-.143.15-.45.333-.683.184-.233.334-.591.334-.796 0-.204.15-.562.333-.795.183-.233.333-.628.333-.877s.161-1.137.358-1.974c.309-1.314.33-1.633.161-2.354a38.459 38.459 0 0 1-.408-2.137c-.117-.717-.293-1.354-.391-1.416-.098-.062-.234-.376-.302-.697-.15-.702-.878-1.995-1.192-2.115a.389.389 0 0 1-.226-.338c0-.71-1.891-2.024-2.106-1.463m-58.983 2.625c-.044.114-.06 12.246-.037 26.958l.043 26.75 17.361.083c9.549.046 17.395.121 17.436.167.421.47.453 1.282.453 11.48v10.668l-.37.259c-.33.231-2.273.26-17.566.26-15.526 0-17.205.025-17.296.263-.056.145-.101 2.989-.101 6.32 0 3.331.045 6.175.101 6.32.174.453 48.068.397 48.352-.057.379-.607.33-49.516-.05-49.793-.244-.179-3.524-.22-17.44-.22-16.168 0-17.147-.017-17.26-.292-.169-.411-.15-25.65.019-25.819.076-.077 7.871-.159 17.323-.183 15.659-.04 17.21-.068 17.486-.317.434-.394.471-12.788.038-12.955-.568-.218-48.409-.112-48.492.108m62.5 40.499c-.044.115-.06 11.272-.037 24.792l.043 24.584h48.833v-49.5l-24.38-.043c-19.416-.033-24.396.001-24.459.167m59.666 0c-.142.371.002 49.093.145 49.237.195.194 12.134.247 12.445.055.219-.135.255-2.317.294-17.702l.044-17.548.373-.288c.344-.266 1.193-.288 11.087-.291l10.715-.004.494.365.493.364v17.277c0 16.525.013 17.288.305 17.552.451.408 11.86.42 12.267.013.237-.237.258-2.649.22-24.708l-.042-24.446-24.38-.043c-19.416-.033-24.396.001-24.46.167m59.525.055c-.262.683-.108 48.488.158 48.867l.259.37h47.758l.198-.375c.151-.285.187-6.187.153-24.708l-.044-24.333-24.191-.043c-21.95-.038-24.199-.017-24.291.222m59.142-.054c-.044.114-.06 11.271-.036 24.791l.042 24.584 6.287.043 6.286.044.243-.377c.2-.312.251-1.648.296-7.699.05-6.787.076-7.349.358-7.708l.305-.387h17.165c11.514 0 17.272-.056 17.488-.172.31-.166.322-.418.322-6.798v-6.624l-.521-.308c-.502-.297-1.165-.304-17.548-.185-14.264.104-17.056.087-17.211-.103-.315-.385-.395-5.118-.098-5.766l.248-.539 17.488-.044c15.329-.039 17.508-.075 17.65-.294.292-.45.127-12.314-.174-12.504-.412-.259-48.491-.215-48.59.046m59.402.067c-.191.23-.237 4.122-.28 23.542-.051 23.683-.027 25.164.41 25.601.296.296 11.702.375 12.463.085l.428-.162v-7.576c0-6.664.031-7.607.262-7.837a8.16 8.16 0 0 0 .292-.302c.016-.022 7.867-.078 17.446-.125l17.417-.085.04-6.75c.024-4.087-.023-6.849-.119-7-.141-.22-2.266-.25-17.473-.25-14.429 0-17.359-.038-17.589-.229-.236-.196-.276-.62-.276-2.954v-2.725l.492-.254c.431-.223 2.597-.255 17.661-.255 16.804 0 17.172-.007 17.341-.322.226-.422.235-11.659.01-12.25l-.162-.428h-24.067c-22.183 0-24.085.022-24.296.276M122.004 92.667c.362.574.2 21.468-.169 21.665-.367.197-21.221.171-21.419-.027-.15-.15-.103-21.519.048-21.667.379-.374 21.303-.346 21.54.029m118.329.149l.417.116v21.485l-10.481.043c-7.604.031-10.544-.009-10.709-.146-.187-.155-.227-2.026-.227-10.647 0-11.036-.024-10.69.75-10.88.523-.128 19.784-.101 20.25.029" fill="#1e100f" fill-rule="evenodd"/></svg>