<svg xmlns="http://www.w3.org/2000/svg" width="124" height="60"><path d="M20.49 1.333H104c10.31 0 18.667 8.358 18.667 18.667v20.667c0 10.309-8.358 18.666-18.667 18.666H20.49c-10.31 0-18.668-8.357-18.668-18.666V20c0-10.31 8.358-18.667 18.667-18.667z"/><path d="M20.49 1.333H104c10.31 0 18.667 8.358 18.667 18.667v20.667c0 10.309-8.358 18.666-18.667 18.666H20.49c-10.31 0-18.668-8.357-18.668-18.666V20c0-10.31 8.358-18.667 18.667-18.667z" fill="none" stroke="#000" stroke-width="1.333" stroke-linecap="round" stroke-linejoin="round" stroke-miterlimit="10"/><path d="M30.484 47.747q-4.06 0-7.933-.887-3.827-.933-6.3-2.473l3.547-8.027q2.333 1.353 5.226 2.193 2.894.794 5.554.794 2.286 0 3.266-.42.98-.467.98-1.354 0-1.026-1.306-1.54-1.26-.513-4.2-1.12-3.78-.793-6.3-1.68-2.52-.933-4.387-2.986-1.867-2.1-1.867-5.647 0-3.08 1.727-5.6 1.727-2.52 5.133-3.967 3.454-1.446 8.354-1.446 3.36 0 6.58.746 3.266.7 5.74 2.1l-3.314 7.98q-4.806-2.426-9.1-2.426-4.246 0-4.246 2.053 0 .98 1.26 1.493 1.26.467 4.153 1.027 3.733.7 6.3 1.633 2.567.887 4.433 2.94 1.914 2.054 1.914 5.6 0 3.08-1.727 5.6-1.727 2.474-5.18 3.967-3.407 1.447-8.307 1.447zM68.69 14.333q4.528 0 7.888 1.494 3.36 1.493 5.18 4.293 1.82 2.8 1.82 6.533 0 3.734-1.82 6.534t-5.18 4.293q-3.36 1.493-7.887 1.493h-4.713V47H52.964V14.333zm-.7 16.147q2.24 0 3.36-.98 1.12-1.027 1.12-2.847t-1.12-2.8q-1.12-1.026-3.36-1.026h-4.012v7.653zm23.18-16.147h11.014V47H91.171z" aria-label="SPI" fill="#fff"/></svg>