<svg xmlns="http://www.w3.org/2000/svg" viewBox="0 0 109 25"><path d="M5 0h99a5 5 0 0 1 5 5v15a5 5 0 0 1-5 5H5a5 5 0 0 1-5-5V5a5 5 0 0 1 5-5Z" style="fill:#000"/><g aria-label="ST7796" style="font-weight:700;font-size:25px;font-family:Montserrat;letter-spacing:1.1px;fill:#fffffc"><path d="M12.825 21.3q-2.075 0-4.025-.55-1.925-.575-3.1-1.475l1.375-3.05Q8.2 17.05 9.75 17.55q1.55.5 3.1.5 1.725 0 2.55-.5.825-.525.825-1.375 0-.625-.5-1.025-.475-.425-1.25-.675-.75-.25-2.05-.55-2-.475-3.275-.95t-2.2-1.525q-.9-1.05-.9-2.8 0-1.525.825-2.75Q7.7 4.65 9.35 3.925q1.675-.725 4.075-.725 1.675 0 3.275.4 1.6.4 2.8 1.15l-1.25 3.075Q15.825 6.45 13.4 6.45q-1.7 0-2.525.55-.8.55-.8 1.45 0 .9.925 1.35.95.425 2.875.85 2 .475 3.275.95t2.175 1.5q.925 1.025.925 2.775 0 1.5-.85 2.75-.825 1.225-2.5 1.95-1.675.725-4.075.725zM31.55 21H27.5V6.8h-5.6V3.5h15.25v3.3h-5.6zM39.5 9.65V3.5h14.025v2.625L47.025 21h-4.4L48.9 6.8h-5.8v2.85zM56.1 9.65V3.5h14.025v2.625L63.625 21h-4.4L65.5 6.8h-5.8v2.85zM79.175 3.2q3.675 0 5.75 2.25Q87 7.675 87 11.875q0 2.975-1.125 5.1-1.1 2.125-3.125 3.225t-4.675 1.1q-1.4 0-2.675-.3-1.275-.325-2.175-.9l1.5-2.975Q76 18 78 18q2.225 0 3.525-1.3 1.3-1.325 1.4-3.8-1.575 1.575-4.35 1.575-1.675 0-3.05-.675-1.375-.675-2.175-1.9-.8-1.25-.8-2.875 0-1.75.875-3.075.875-1.325 2.375-2.025 1.525-.725 3.375-.725zm.3 8.25q1.325 0 2.15-.725.85-.75.85-1.9T81.65 6.95q-.8-.725-2.225-.725-1.3 0-2.125.7-.8.7-.8 1.9t.8 1.925q.825.7 2.175.7zM98.475 10.025q1.675 0 3.05.675 1.375.675 2.175 1.925.8 1.225.8 2.85 0 1.75-.875 3.075-.875 1.325-2.4 2.05-1.5.7-3.35.7-3.675 0-5.75-2.25t-2.075-6.425q0-2.975 1.125-5.1Q92.3 5.4 94.3 4.3q2.025-1.1 4.675-1.1 1.4 0 2.675.325 1.3.3 2.2.875l-1.5 2.975q-1.3-.875-3.275-.875-2.225 0-3.525 1.3-1.3 1.3-1.4 3.775 1.55-1.55 4.325-1.55zm-.825 8.25q1.3 0 2.1-.7.825-.7.825-1.9t-.825-1.9q-.8-.725-2.15-.725-1.325 0-2.175.75-.85.725-.85 1.875t.825 1.875q.825.725 2.25.725z"/></g></svg>