<svg xmlns="http://www.w3.org/2000/svg" width="280" height="60"><path d="M20.244 1.333h239.512c10.31 0 18.667 8.358 18.667 18.667v20.667c0 10.309-8.358 18.666-18.667 18.666H20.244c-10.31 0-18.666-8.357-18.666-18.666V20c0-10.31 8.357-18.667 18.666-18.667z"/><path d="M20.244 1.333h239.512c10.31 0 18.667 8.358 18.667 18.667v20.667c0 10.309-8.358 18.666-18.667 18.666H20.244c-10.309 0-18.666-8.357-18.666-18.666V20c0-10.31 8.357-18.667 18.666-18.667z" fill="none" stroke="#000" stroke-width="1.333" stroke-linecap="round" stroke-linejoin="round" stroke-miterlimit="10"/><path d="M27.487 47.747q-4.06 0-7.933-.887-3.827-.933-6.3-2.473L16.8 36.36q2.334 1.353 5.227 2.193 2.893.794 5.553.794 2.287 0 3.267-.42.98-.467.98-1.354 0-1.026-1.307-1.54-1.26-.513-4.2-1.12-3.78-.793-6.3-1.68-2.52-.933-4.386-2.986-1.867-2.1-1.867-5.647 0-3.08 1.727-5.6 1.726-2.52 5.133-3.967 3.453-1.446 8.353-1.446 3.36 0 6.58.746 3.267.7 5.74 2.1l-3.313 7.98q-4.807-2.426-9.1-2.426-4.247 0-4.247 2.053 0 .98 1.26 1.493 1.26.467 4.154 1.027 3.733.7 6.3 1.633 2.566.887 4.433 2.94 1.913 2.054 1.913 5.6 0 3.08-1.726 5.6-1.727 2.474-5.18 3.967-3.407 1.447-8.307 1.447zm29.107-24.874h-9.567v-8.54h30.147v8.54h-9.567V47H56.594zm54.586 15.82V47H84.02V14.333h26.554v8.307H94.847v3.827h13.813V34.4H94.847v4.293zm23.974-24.36q4.526 0 7.886 1.494 3.36 1.493 5.18 4.293 1.82 2.8 1.82 6.533 0 3.734-1.82 6.534t-5.18 4.293q-3.36 1.493-7.886 1.493h-4.714V47h-11.013V14.333zm-.7 16.147q2.24 0 3.36-.98 1.12-1.027 1.12-2.847t-1.12-2.8q-1.12-1.026-3.36-1.026h-4.014v7.653zm38.906-16.147q4.527 0 7.887 1.494 3.36 1.493 5.18 4.293 1.82 2.8 1.82 6.533 0 3.734-1.82 6.534t-5.18 4.293q-3.36 1.493-7.887 1.493h-4.713V47h-11.013V14.333zm-.7 16.147q2.24 0 3.36-.98 1.12-1.027 1.12-2.847t-1.12-2.8q-1.12-1.026-3.36-1.026h-4.013v7.653zM223 38.693V47h-27.16V14.333h26.554v8.307h-15.727v3.827h13.813V34.4h-13.813v4.293zm22.247.094h-2.987V47h-11.013V14.333h15.727q4.526 0 7.886 1.494 3.36 1.493 5.18 4.293 1.82 2.8 1.82 6.533 0 3.5-1.586 6.114-1.587 2.613-4.574 4.153L262.56 47H250.8zm5.507-12.134q0-1.82-1.12-2.8-1.12-1.026-3.36-1.026h-4.014v7.653h4.014q2.24 0 3.36-.98 1.12-1.027 1.12-2.847z" aria-label="STEPPER" fill="#fff"/></svg>