<svg viewBox="0 0 79.37 79.37" xmlns="http://www.w3.org/2000/svg" xmlns:xlink="http://www.w3.org/1999/xlink" id="Layer_1" overflow="hidden"><defs></defs><path d="M39.58 79.37C61.4394 79.37 79.16 61.6494 79.16 39.79 79.16 17.9306 61.4394 0.210001 39.58 0.210001 17.7206 0.210001 1.83105e-06 17.9306 1.83105e-06 39.79 1.83105e-06 61.6494 17.7206 79.37 39.58 79.37Z" fill="#FFFFFF"/><path d="M20.58 14.27C25.73 10.27 40.81 16.86 44.47 20.27 44.19 19.15 44.23 17.17 45.18 16.27 46.43 16.58 47.47 18.11 47.89 19.32 49.64 15.9 62.15-4.35 67.49 3.54 71.18 8.98 67.88 19.35 63.7 23.08 70.26 26.4 75 31.52 69.27 38.3 62.51 46.3 55.65 39.04 50.8 33.68 51.86 36.44 52.8 40.61 52.29 42.91 51.01 41.36 49.53 36.91 49.05 34.06 47.51 40.49 46.57 47.61 38.63 47.78 27.16 48.04 27.75 37.38 32.25 31.23 26.51 31.7 20.4 22.23 19.8 16.63 19.6643 15.7636 19.9548 14.8849 20.58 14.27" fill="#3CB4E6"/><path d="M14.87 61.68 14.87 62C14.87 63.14 15.2 63.87 16.48 63.87 17.2524 63.9052 17.9071 63.3075 17.9422 62.5351 17.9447 62.4801 17.944 62.4249 17.94 62.37 17.94 61.27 17.38 60.87 15.77 60.31 13.6 59.56 12.6 58.66 12.6 56.64 12.6 54.29 14.04 53.08 16.35 53.08 18.66 53.08 20.1 54.02 20.1 56.34L20.1 56.68 17.76 56.68C17.76 55.54 17.37 54.88 16.43 54.88 15.7484 54.7702 15.1069 55.2337 14.9971 55.9153 14.975 56.0527 14.976 56.1929 15 56.33 15 57.07 15.22 57.53 16.26 57.97L18.14 58.79C19.97 59.58 20.45 60.51 20.45 61.99 20.45 64.55 18.89 65.7 16.24 65.7 13.59 65.7 12.39 64.41 12.39 62.18L12.39 61.68Z" fill="#3CB4E6"/><path d="M28.79 53.36 28.79 55.36 26.15 55.36 26.15 65.47 23.71 65.47 23.71 55.36 21.06 55.36 21.06 53.36Z" fill="#3CB4E6"/><path d="M29.9 53.36 33.52 53.36 35.25 61.91 35.25 61.91 37 53.36 40.61 53.36 40.61 65.47 38.4 65.47 38.4 55.8 38.4 55.8 36.25 65.47 34.35 65.47 32.17 55.8 32.17 55.8 32.17 65.47 29.9 65.47Z" fill="#3CB4E6"/><path d="M44.59 58.7 45.34 58.7C46.61 58.7 47.17 57.79 47.17 56.58 47.17 55.37 46.76 54.58 45.61 54.58 44.03 54.58 43.88 56.04 43.88 56.92L42.39 56.92C42.39 54.87 43.39 53.46 45.58 53.46 47.136 53.313 48.5166 54.4552 48.6637 56.0112 48.6815 56.2005 48.6803 56.391 48.66 56.58 48.7457 57.7767 47.9624 58.8631 46.8 59.16L46.8 59.16C48.1831 59.3518 49.1599 60.6129 49 62 49 64.19 47.9 65.71 45.59 65.71 43.8266 65.8279 42.3016 64.4939 42.1837 62.7305 42.1757 62.6105 42.1745 62.4901 42.18 62.37L42.18 62.22 43.68 62.22C43.68 63.32 44.22 64.59 45.59 64.59 46.47 64.59 47.51 64.15 47.51 62.12 47.6753 61.0279 46.9239 60.0085 45.8318 59.8432 45.669 59.8186 45.5039 59.8142 45.34 59.83L44.57 59.83Z" fill="#3CB4E6"/><path d="M57.11 65.47 50.39 65.47C50.4634 63.5176 51.4246 61.7056 53 60.55L54 59.72C54.9723 59.0807 55.5671 58.0034 55.59 56.84 55.59 55.84 55.13 54.68 53.85 54.68 52 54.68 51.95 56.6 51.95 57.28L50.43 57.28C50.43 55.01 51.43 53.46 53.83 53.46 55.4821 53.3341 56.9234 54.5713 57.0493 56.2233 57.0606 56.372 57.0609 56.5213 57.05 56.67 57.05 58.5 56.29 59.46 54.95 60.62L53.26 62.09C52.6179 62.5969 52.1581 63.2989 51.95 64.09L57.11 64.09Z" fill="#3CB4E6"/></svg>