<svg xmlns="http://www.w3.org/2000/svg" width="290.667" height="62.667"><path d="M19.333 2h252C281.643 2 290 10.357 290 20.667V42c0 10.31-8.357 18.667-18.667 18.667h-252C9.024 60.667.667 52.309.667 42V20.667C.667 10.357 9.024 2 19.333 2z"/><path d="M19.333 2h252C281.643 2 290 10.357 290 20.667V42c0 10.31-8.357 18.667-18.667 18.667h-252C9.024 60.667.667 52.309.667 42V20.667C.667 10.357 9.024 2 19.333 2z" fill="none" stroke="#000" stroke-width="1.333" stroke-linecap="round" stroke-linejoin="round" stroke-miterlimit="10"/><path d="M24.935 23.495H14.822v-9.028h31.87v9.028H36.577V49H24.935zm46.522 19.486H58.334L56.015 49h-11.84l15.096-34.533h11.446L85.813 49H73.775zm-3.207-8.386l-3.355-8.683-3.354 8.683zm32.363 15.195q-4.292 0-8.387-.938-4.045-.987-6.66-2.615l3.75-8.485q2.466 1.43 5.525 2.319 3.058.838 5.87.838 2.418 0 3.454-.444 1.036-.493 1.036-1.43 0-1.086-1.382-1.628-1.332-.543-4.44-1.184-3.996-.839-6.66-1.776-2.664-.987-4.637-3.158-1.973-2.22-1.973-5.969 0-3.256 1.825-5.92t5.427-4.193q3.65-1.53 8.83-1.53 3.552 0 6.956.79 3.454.74 6.068 2.22l-3.502 8.436q-5.082-2.566-9.62-2.566-4.49 0-4.49 2.171 0 1.036 1.332 1.579 1.332.493 4.39 1.085 3.948.74 6.66 1.727 2.714.937 4.688 3.108 2.022 2.17 2.022 5.92 0 3.256-1.825 5.92-1.825 2.614-5.476 4.193-3.601 1.53-8.781 1.53zm50.369-.79l-.099-15.737-7.498 12.629h-5.131l-7.499-12.087V49H120.15V14.467h9.57l11.248 18.401 10.952-18.401h9.57l.1 34.533zm34.336.79q-5.575 0-10.015-2.32-4.44-2.318-6.956-6.413-2.516-4.144-2.516-9.324t2.516-9.274q2.516-4.144 6.956-6.463t10.015-2.319q5.575 0 10.015 2.319t6.956 6.463q2.516 4.094 2.516 9.274 0 5.18-2.516 9.324-2.516 4.095-6.956 6.414-4.44 2.318-10.015 2.318zm0-9.423q2.17 0 3.897-1.036 1.776-1.086 2.812-3.01 1.036-1.973 1.036-4.588 0-2.614-1.036-4.538-1.036-1.974-2.812-3.01-1.726-1.085-3.897-1.085-2.17 0-3.947 1.085-1.726 1.036-2.762 3.01-1.036 1.924-1.036 4.538 0 2.615 1.036 4.588 1.036 1.924 2.762 3.01 1.776 1.036 3.947 1.036zm30.735-16.872h-10.114v-9.028h31.87v9.028h-10.114V49h-11.642zm46.521 19.486H249.45L247.133 49h-11.84l15.096-34.533h11.445L276.93 49h-12.037zm-3.207-8.386l-3.354-8.683-3.355 8.683z" aria-label="TASMOTA" fill="#fff"/></svg>