<?xml version="1.0" encoding="UTF-8"?>
<svg version="1.1" viewBox="0 0 24 24" xmlns="http://www.w3.org/2000/svg" xmlns:cc="http://creativecommons.org/ns#" xmlns:dc="http://purl.org/dc/elements/1.1/" xmlns:rdf="http://www.w3.org/1999/02/22-rdf-syntax-ns#" xmlns:xlink="http://www.w3.org/1999/xlink">
<metadata>
<rdf:RDF>
<cc:Work rdf:about="">
<dc:format>image/svg+xml</dc:format>
<dc:type rdf:resource="http://purl.org/dc/dcmitype/StillImage"/>
<dc:title/>
</cc:Work>
</rdf:RDF>
</metadata>
<defs>
<path id="d" d="M0 0h24v24H0V0z"/>
</defs>
<clipPath id="c">
<use overflow="visible" xlink:href="#d"/>
</clipPath>
<path transform="translate(-1.2402 .076996)" d="m18.84 15.87-4.54-2.26c-0.17-0.07-0.35-0.11-0.54-0.11h-0.76v-6c0-0.83-0.67-1.5-1.5-1.5s-1.5 0.67-1.5 1.5v10.74l-3.43-0.72c-0.08-0.01-0.15-0.03-0.24-0.03-0.31 0-0.59 0.13-0.79 0.33l-0.79 0.8 4.94 4.94c0.27 0.27 0.65 0.44 1.06 0.44h6.79c0.75 0 1.33-0.55 1.44-1.28l0.75-5.27c0.01-0.07 0.02-0.14 0.02-0.2 0-0.62-0.38-1.16-0.91-1.38z" clip-path="url(#c)"/>
<path d="m3.0534 1.9787c-1.1-0.00364-1.7885 0.88001-1.7856 1.98l0.02663 10.116c0 1.1 0.69123 1.9576 1.9703 1.8865l4.645 0.05152 9.182e-4 -1.991-4.6528-0.027013v-10.003h16v10l-4.1938-0.01818 4.2506 2.0331c1.1337-0.01225 1.9287-0.54995 1.9432-1.9331v-10.082c0.0011-1.1-0.9-2.0087-2-2.0087-5.8724-0.039797-11.065 0.01272-16.204-0.0043" color="#000000" color-rendering="auto" dominant-baseline="auto" image-rendering="auto" shape-rendering="auto" solid-color="#000000" stop-color="#000000" stroke="#000" stroke-linejoin="round" stroke-width=".1" style="font-feature-settings:normal;font-variant-alternates:normal;font-variant-caps:normal;font-variant-east-asian:normal;font-variant-ligatures:normal;font-variant-numeric:normal;font-variant-position:normal;font-variation-settings:normal;inline-size:0;isolation:auto;mix-blend-mode:normal;shape-margin:0;shape-padding:0;text-decoration-color:#000000;text-decoration-line:none;text-decoration-style:solid;text-indent:0;text-orientation:mixed;text-transform:none;white-space:normal"/>
</svg>
