<svg xmlns="http://www.w3.org/2000/svg" width="182.667" height="60"><path d="M19.822.667h143.511C173.643.667 182 9.024 182 19.333V40c0 10.31-8.357 18.667-18.667 18.667H19.823C9.512 58.667 1.155 50.309 1.155 40V19.333C1.156 9.024 9.513.667 19.822.667z"/><path d="M19.822.667h143.511C173.643.667 182 9.024 182 19.333V40c0 10.31-8.357 18.667-18.667 18.667H19.823C9.512 58.667 1.155 50.309 1.155 40V19.333C1.156 9.024 9.513.667 19.822.667z" fill="none" stroke="#000" stroke-width="1.333" stroke-linecap="round" stroke-linejoin="round" stroke-miterlimit="10"/><path d="M32.711 47.08q-7.513 0-11.713-4.06-4.2-4.06-4.2-11.387V13.667H27.81v17.64q0 3.593 1.26 5.226 1.307 1.634 3.733 1.634 2.427 0 3.687-1.634 1.307-1.633 1.307-5.226v-17.64h10.826v17.966q0 7.327-4.2 11.387-4.2 4.06-11.713 4.06zm46.467-6.44H66.764l-2.193 5.693h-11.2l14.28-32.666h10.827l14.28 32.666H81.37zm-3.034-7.933l-3.173-8.214-3.173 8.214zm36.434 5.413h-2.987v8.213H98.578V13.667h15.726q4.527 0 7.887 1.493 3.36 1.493 5.18 4.293 1.82 2.8 1.82 6.534 0 3.5-1.587 6.113-1.586 2.613-4.573 4.153l6.86 10.08h-11.76zm5.506-12.133q0-1.82-1.12-2.8-1.12-1.027-3.36-1.027h-4.013v7.653h4.013q2.24 0 3.36-.98 1.12-1.026 1.12-2.846zm25.887-3.78h-9.567v-8.54h30.147v8.54h-9.567v24.126h-11.013z" aria-label="UART" fill="#fff"/></svg>