<svg xmlns="http://www.w3.org/2000/svg" xmlns:svg="http://www.w3.org/2000/svg" id="svg2217" width="105" height="27" version="1.0" viewBox="-0.561 -0.624 105 27" xml:space="preserve"><g id="g2241"><path d="M 26.743,0 C 22.23,0 18.574,3.659 18.574,8.171 L 18.574,11.094 L 18.572,11.094 L 18.572,23.803 C 18.572,24.807 19.387,25.62 20.387,25.62 L 22.201,25.62 C 23.206,25.62 24.02,24.807 24.02,23.803 L 24.02,19.707 C 24.871,20.009 25.786,20.172 26.742,20.172 C 31.256,20.172 34.913,16.514 34.913,12.002 L 34.913,8.171 C 34.914,3.659 31.257,0 26.743,0 M 29.467,13.818 C 29.467,15.322 28.246,16.541 26.743,16.541 C 25.239,16.541 24.021,15.322 24.021,13.818 L 24.021,6.357 C 24.021,4.852 25.239,3.631 26.743,3.631 C 28.246,3.631 29.467,4.852 29.467,6.357 L 29.467,13.818 z" style="fill:#0074be;fill-rule:evenodd" id="path2221"/><path d="M 14.522,0 L 12.707,0 C 11.704,0 10.893,0.813 10.893,1.816 L 10.893,13.818 C 10.893,15.322 9.673,16.541 8.168,16.541 C 6.665,16.541 5.445,15.322 5.445,13.818 L 5.445,1.816 C 5.445,0.813 4.633,0 3.63,0 L 1.815,0 C 0.813,0 0,0.813 0,1.816 L 0,12.002 C 0,16.514 3.657,20.172 8.168,20.172 C 12.68,20.172 16.338,16.514 16.338,12.002 L 16.338,1.816 C 16.338,0.813 15.524,0 14.522,0" style="fill:#0074be;fill-rule:evenodd" id="path2223"/><path d="M 101.95,0 L 101.041,0 C 96.528,0 92.873,3.659 92.873,8.171 L 92.873,18.357 C 92.873,19.359 93.683,20.172 94.687,20.172 L 96.503,20.172 C 97.504,20.172 98.315,19.359 98.315,18.357 L 98.315,6.357 C 98.315,4.852 99.536,3.631 101.041,3.631 L 101.95,3.631 C 102.952,3.631 103.764,2.819 103.764,1.816 C 103.764,0.813 102.952,0 101.95,0" style="fill:#0074be;fill-rule:evenodd" id="path2225"/><path d="M 82.467,0 C 77.956,0 74.296,3.659 74.296,8.171 L 74.296,12.002 C 74.296,16.514 77.956,20.172 82.467,20.172 C 86.978,20.172 90.638,16.514 90.638,12.002 L 90.638,8.171 C 90.638,3.659 86.978,0 82.467,0 M 85.188,13.818 C 85.188,15.322 83.97,16.541 82.466,16.541 C 80.961,16.541 79.742,15.322 79.742,13.818 L 79.742,6.357 C 79.742,4.852 80.961,3.631 82.466,3.631 C 83.97,3.631 85.188,4.852 85.188,6.357 L 85.188,13.818 z" style="fill:#0074be;fill-rule:evenodd" id="path2227"/><path d="M 63.892,0 C 59.379,0 55.722,3.659 55.722,8.171 L 55.722,18.357 C 55.722,19.359 56.535,20.172 57.539,20.172 L 59.353,20.172 C 60.356,20.172 61.169,19.359 61.169,18.357 L 61.169,6.357 C 61.169,4.852 62.388,3.631 63.891,3.631 C 65.395,3.631 66.616,4.852 66.616,6.357 L 66.616,18.357 C 66.616,19.359 67.429,20.172 68.43,20.172 L 70.245,20.172 C 71.251,20.172 72.062,19.359 72.062,18.357 L 72.062,8.171 C 72.063,3.659 68.405,0 63.892,0" style="fill:#0074be;fill-rule:evenodd" id="path2231"/><path d="M 45.317,0 C 40.806,0 37.149,3.659 37.149,8.171 L 37.149,12.002 C 37.149,16.514 40.806,20.172 45.317,20.172 C 49.831,20.172 53.488,16.514 53.488,12.002 L 53.488,8.171 C 53.488,3.659 49.831,0 45.317,0 M 48.041,13.818 C 48.041,15.322 46.821,16.541 45.317,16.541 C 43.814,16.541 42.593,15.322 42.593,13.818 L 42.593,6.357 C 42.593,4.852 43.814,3.631 45.317,3.631 C 46.821,3.631 48.041,4.852 48.041,6.357 L 48.041,13.818 z" style="fill:#0074be;fill-rule:evenodd" id="path2233"/></g></svg>