<svg xmlns="http://www.w3.org/2000/svg" width="280" height="60"><path d="M20.533.8h239.511c10.31 0 18.667 8.357 18.667 18.667v20.666c0 10.31-8.358 18.667-18.667 18.667H20.534c-10.31 0-18.667-8.357-18.667-18.667V19.467C1.867 9.157 10.224.8 20.533.8z"/><path fill="none" stroke="#000" stroke-linecap="round" stroke-linejoin="round" stroke-miterlimit="10" stroke-width="1.333" d="M20.533.8h239.511c10.31 0 18.667 8.357 18.667 18.667v20.666c0 10.31-8.358 18.667-18.667 18.667H20.534c-10.31 0-18.667-8.357-18.667-18.667V19.467C1.867 9.157 10.224.8 20.533.8z"/><g fill="#fff"><path d="M55.612 13.8L41.8 46.467H30.972L17.16 13.8h11.853l7.793 19.087 7.98-19.087zM60.732 13.8h11.013v24.127h14.747v8.54h-25.76zM105.565 25.327q6.86 0 10.08 2.893 3.267 2.847 3.267 7.513 0 3.08-1.633 5.694-1.587 2.566-4.947 4.2-3.36 1.586-8.353 1.586-3.454 0-6.907-.746-3.407-.747-5.973-2.194l3.733-8.12q2.053 1.167 4.293 1.774 2.287.606 4.434.606 1.913 0 3.08-.653 1.213-.7 1.213-1.913 0-1.167-1.073-1.727-1.074-.607-3.874-.607h-9.473L95.065 13.8h21.7v8.307H104.12l-.234 3.22zM143.165 26.727q3.78.933 5.787 3.406 2.053 2.427 2.053 5.88 0 2.94-1.633 5.507-1.587 2.52-4.947 4.107-3.36 1.586-8.353 1.586-3.453 0-6.907-.746-3.406-.747-5.973-2.194l3.733-8.12q2.007 1.167 4.294 1.774 2.333.606 4.48.606 1.913 0 3.08-.653 1.166-.653 1.166-1.867 0-2.24-3.873-2.24h-4.34v-6.766l4.807-4.9h-11.667V13.8h24.36v6.767zM158.832 13.8h11.013v24.127h14.747v8.54h-25.76zM204.645 47.213q-4.34 0-7.7-2.006-3.313-2.054-5.226-5.88-1.867-3.874-1.867-9.194t1.867-9.146q1.913-3.874 5.226-5.88 3.36-2.054 7.7-2.054t7.654 2.054q3.36 2.006 5.226 5.88 1.914 3.826 1.914 9.146t-1.914 9.194q-1.866 3.826-5.226 5.88-3.314 2.006-7.654 2.006zm0-8.82q3.734 0 3.734-8.26t-3.734-8.26q-3.733 0-3.733 8.26t3.733 8.26zM246.212 46.467l-5.647-8.727-5.506 8.727h-12.554l11.807-16.474L222.925 13.8h12.367l5.553 8.213 5.414-8.213h11.853l-11.34 15.773 12.04 16.894z"/></g></svg>