<?xml version="1.0" encoding="utf-8"?><svg version="1.1" id="Layer_1" xmlns="http://www.w3.org/2000/svg" xmlns:xlink="http://www.w3.org/1999/xlink" x="0px" y="0px" viewBox="0 0 122.88 118.77" style="enable-background:new 0 0 122.88 118.77" xml:space="preserve"><style type="text/css"><![CDATA[
	.st0{fill-rule:evenodd;clip-rule:evenodd;}
]]></style><g><path class="st0" d="M1.22,0.04h115.79c0.14-0.02,0.28-0.04,0.43-0.04c0.15,0,0.29,0.01,0.43,0.04c0.21,0.01,0.4,0.06,0.57,0.16 c0.91,0.38,1.54,1.25,1.54,2.27v99.12c0,0.09-0.01,0.19-0.02,0.28c1.73,0.91,2.92,2.73,2.92,4.82v6.65c0,2.99-2.45,5.44-5.44,5.44 l0,0c-2.99,0-5.44-2.45-5.44-5.44v-6.65c0-2.08,1.19-3.9,2.92-4.82c-0.01-0.09-0.02-0.18-0.02-0.28V10.29H1.22 C0.55,10.29,0,9.75,0,9.08V1.25C0,0.58,0.55,0.04,1.22,0.04L1.22,0.04z M3.21,92.21h103.98v4.91H3.21V92.21L3.21,92.21z M3.21,79.71h103.98v4.91H3.21V79.71L3.21,79.71z M3.21,67.21h103.98v4.91H3.21V67.21L3.21,67.21z M3.21,54.71h103.98v4.91H3.21 V54.71L3.21,54.71z M3.21,42.2h103.98v4.91H3.21V42.2L3.21,42.2z M3.21,29.7h103.98v4.91H3.21V29.7L3.21,29.7z M3.21,17.2h103.98 v4.91H3.21V17.2L3.21,17.2z"/></g></svg>