<svg xmlns="http://www.w3.org/2000/svg" xmlns:svg="http://www.w3.org/2000/svg" id="svg8" width="282" height="188" version="1.1"><metadata id="metadata14"/><path id="path2" d="m 21.2435,127.36317 h 239.512 c 10.31,0 18.667,8.358 18.667,18.667 v 20.667 c 0,10.309 -8.358,18.666 -18.667,18.666 H 21.2435 c -10.31,0 -18.666,-8.357 -18.666,-18.666 v -20.667 c 0,-10.31 8.357,-18.667 18.666,-18.667 z"/><path id="path4" fill="none" stroke="#000" stroke-linecap="round" stroke-linejoin="round" stroke-miterlimit="10" stroke-width="1.333" d="m 21.2435,127.36317 h 239.512 c 10.31,0 18.667,8.358 18.667,18.667 v 20.667 c 0,10.309 -8.358,18.666 -18.667,18.666 H 21.2435 c -10.309,0 -18.666,-8.357 -18.666,-18.666 v -20.667 c 0,-10.31 8.357,-18.667 18.666,-18.667 z"/><g id="text18" aria-label="WIREGUARD®" style="font-size:42.6667px;line-height:125%;font-family:'Neuropol Nova';-inkscape-font-specification:'Neuropol Nova';text-align:center;letter-spacing:2px;word-spacing:0;text-anchor:middle;fill:#fff;fill-opacity:1;stroke:#fff;stroke-width:1px;stroke-linecap:butt;stroke-linejoin:miter;stroke-opacity:1"><path d="m 20.982449,141.10321 h 4.250003 l 6.541672,26.29168 6.520838,-26.29168 h 4.72917 l 6.541671,26.29168 6.520839,-26.29168 h 4.270836 l -7.812506,31.10419 h -5.29167 l -6.562505,-27.00002 -6.625005,27.00002 h -5.291671 z" style="font-style:normal;font-variant:normal;font-weight:400;font-stretch:normal;font-size:42.6667px;font-family:sans-serif;-inkscape-font-specification:sans-serif;fill:#fff;fill-opacity:1;stroke:#fff;stroke-opacity:1" id="path851"/><path d="m 66.611383,150.82331 h 2.893225 v 21.38409 h -2.893225 z" style="font-size:29.3333px" id="path853"/><path d="m 87.403027,162.18137 q 0.930989,0.3151 1.804686,1.34635 0.88802,1.03125 1.776039,2.83593 l 2.936195,5.84375 h -3.108069 l -2.735674,-5.48567 q -1.059895,-2.14844 -2.062498,-2.85026 -0.98828,-0.70182 -2.707028,-0.70182 H 80.15564 v 9.03775 h -2.893226 v -21.38409 h 6.531243 q 3.666662,0 5.471347,1.53255 1.804686,1.53255 1.804686,4.62629 0,2.01953 -0.945312,3.35156 -0.930988,1.33203 -2.721351,1.84766 z m -7.247387,-8.98046 v 7.59114 h 3.638017 q 2.091143,0 3.151038,-0.95964 1.074217,-0.97396 1.074217,-2.85026 0,-1.8763 -1.074217,-2.82161 -1.059895,-0.95963 -3.151038,-0.95963 z" style="font-size:29.3333px" id="path855"/><path d="m 99.658223,150.82331 h 13.520817 v 2.43489 h -10.62759 v 6.33072 h 10.18358 v 2.4349 h -10.18358 v 7.74868 h 10.8854 v 2.4349 H 99.658223 Z" style="font-size:29.3333px" id="path857"/><path d="m 142.73765,167.76989 v -8.35417 h -6.87501 v -3.45833 h 11.04168 v 13.35417 q -2.4375,1.72917 -5.375,2.625 -2.93751,0.875 -6.27084,0.875 -7.29167,0 -11.41668,-4.25 -4.10417,-4.27084 -4.10417,-11.87501 0,-7.625 4.10417,-11.87501 4.12501,-4.27083 11.41668,-4.27083 3.04167,0 5.77084,0.75 2.75,0.75 5.0625,2.20833 v 4.47917 q -2.33334,-1.97917 -4.95834,-2.97917 -2.625,-1 -5.52084,-1 -5.70833,0 -8.58334,3.18751 -2.85416,3.1875 -2.85416,9.5 0,6.29167 2.85416,9.47918 2.87501,3.1875 8.58334,3.1875 2.22917,0 3.97917,-0.375 1.75001,-0.39584 3.14584,-1.20834 z" style="font-style:normal;font-variant:normal;font-weight:400;font-stretch:normal;font-size:42.6667px;font-family:sans-serif;-inkscape-font-specification:sans-serif;fill:#fff;fill-opacity:1;stroke:#fff;stroke-opacity:1" id="path859"/><path d="m 154.97463,150.82331 h 2.90755 v 12.99087 q 0,3.43749 1.24609,4.95572 1.2461,1.50391 4.03906,1.50391 2.77864,0 4.02474,-1.50391 1.24609,-1.51823 1.24609,-4.95572 v -12.99087 h 2.90755 v 13.34894 q 0,4.18229 -2.07682,6.3164 -2.0625,2.13411 -6.10156,2.13411 -4.05338,0 -6.1302,-2.13411 -2.0625,-2.13411 -2.0625,-6.3164 z" style="font-size:29.3333px" id="path861"/><path d="m 185.93553,153.67356 -3.92447,10.64192 h 7.86327 z m -1.63281,-2.85025 h 3.27994 l 8.14973,21.38409 h -3.0078 l -1.94792,-5.48567 h -9.63931 l -1.94792,5.48567 h -3.05077 z" style="font-size:29.3333px" id="path864"/><path d="m 210.98108,162.18137 q 0.93099,0.3151 1.80469,1.34635 0.88802,1.03125 1.77603,2.83593 l 2.9362,5.84375 h -3.10807 l -2.73567,-5.48567 q -1.0599,-2.14844 -2.0625,-2.85026 -0.98828,-0.70182 -2.70703,-0.70182 h -3.15104 v 9.03775 h -2.89322 v -21.38409 h 6.53124 q 3.66666,0 5.47135,1.53255 1.80468,1.53255 1.80468,4.62629 0,2.01953 -0.94531,3.35156 -0.93099,1.33203 -2.72135,1.84766 z m -7.24739,-8.98046 v 7.59114 h 3.63802 q 2.09114,0 3.15104,-0.95964 1.07421,-0.97396 1.07421,-2.85026 0,-1.8763 -1.07421,-2.82161 -1.0599,-0.95963 -3.15104,-0.95963 z" style="font-size:29.3333px" id="path866"/><path d="m 226.12951,153.20091 v 16.62889 h 3.49478 q 4.42578,0 6.47395,-2.00521 2.0625,-2.00521 2.0625,-6.33072 0,-4.29687 -2.0625,-6.28776 -2.04817,-2.0052 -6.47395,-2.0052 z m -2.89323,-2.3776 h 5.944 q 6.21614,0 9.12369,2.59244 2.90755,2.57812 2.90755,8.07812 0,5.52864 -2.92187,8.12108 -2.92187,2.59245 -9.10937,2.59245 h -5.944 z" style="font-size:29.3333px" id="path868"/><path d="m 254.26362,142.54434 q -1.19401,0 -2.22396,0.42839 -1.02995,0.42838 -1.88673,1.28516 -0.85677,0.85677 -1.29427,1.90495 -0.4375,1.03906 -0.4375,2.22396 0,1.17578 0.4375,2.21485 0.4375,1.02995 1.29427,1.88672 0.85678,0.85677 1.88673,1.29427 1.02995,0.42839 2.22396,0.42839 1.20313,0 2.23307,-0.42839 1.03907,-0.4375 1.89584,-1.29427 0.84766,-0.84766 1.26693,-1.87761 0.42839,-1.02995 0.42839,-2.22396 0,-1.21224 -0.42839,-2.24219 -0.42839,-1.03907 -1.26693,-1.88672 -0.85677,-0.85678 -1.89584,-1.28516 -1.02994,-0.42839 -2.23307,-0.42839 z m 0,-0.9388 q 1.38542,0 2.57943,0.5013 1.20313,0.5013 2.19662,1.4948 0.99349,0.99349 1.48568,2.1875 0.49219,1.19401 0.49219,2.59766 0,1.38542 -0.49219,2.57943 -0.49219,1.1849 -1.48568,2.17839 -0.99349,0.99349 -2.19662,1.4948 -1.19401,0.5013 -2.57943,0.5013 -1.38542,0 -2.58855,-0.5013 -1.19401,-0.50131 -2.1875,-1.4948 -0.99349,-0.99349 -1.48568,-2.17839 -0.49219,-1.19401 -0.49219,-2.57943 0,-1.40365 0.49219,-2.59766 0.49219,-1.19401 1.48568,-2.1875 0.99349,-0.9935 2.1875,-1.4948 1.20313,-0.5013 2.58855,-0.5013 z m -0.2461,3.77344 h -1.12109 v 2.51563 h 1.12109 q 1.00261,0 1.39454,-0.28255 0.40104,-0.28255 0.40104,-0.96615 0,-0.69271 -0.40104,-0.97526 -0.40104,-0.29167 -1.39454,-0.29167 z m 0.0638,-0.9388 q 1.60417,0 2.39714,0.54687 0.79297,0.53777 0.79297,1.64063 0,0.78386 -0.48308,1.29428 -0.47396,0.51041 -1.34896,0.66536 0.21875,0.0729 0.51953,0.42839 0.3099,0.34635 0.72917,1.01172 l 1.2487,2.03255 h -1.56771 l -1.17578,-1.90495 q -0.53776,-0.875 -0.875,-1.10286 -0.32813,-0.23698 -0.82032,-0.23698 h -0.60156 v 3.24479 h -1.41276 v -7.6198 z" style="font-size:18.6667px;baseline-shift:super;stroke:none" id="path870"/></g><path id="path863" d="M 117.67886,1.97033 H 164.3211 L 140.99998,25.29145 117.67886,1.97033 m 11.66056,75.093997 c -2.33211,2.643067 -3.88685,6.529913 -3.88685,10.416768 a 15.547412,15.547412 0 0 0 15.54741,15.547415 15.547412,15.547412 0 0 0 15.54741,-15.547415 c 0,-4.27554 -1.71021,-8.162386 -4.58649,-10.960923 l 11.03867,-11.038667 c 5.59707,5.674809 9.09524,13.448519 9.09524,21.99959 A 31.094826,31.094826 0 0 1 140.99998,118.57592 31.094826,31.094826 0 0 1 109.90515,87.481095 c 0,-8.317865 3.26496,-15.858362 8.55108,-21.377691 l -0.0777,-0.07773 55.03784,-54.960104 v 0 c 5.59707,-5.59708 13.37078,-9.09524 21.99959,-9.09524 a 31.094826,31.094826 0 0 1 31.09483,31.094832 31.094826,31.094826 0 0 1 -31.09483,31.094824 c -8.55107,0 -16.32478,-3.49817 -21.99959,-9.095234 l 11.03867,-11.038667 c 2.79853,2.876271 6.68539,4.586489 10.96092,4.586489 A 15.547412,15.547412 0 0 0 210.96337,33.065162 15.547412,15.547412 0 0 0 195.41596,17.51774 c -4.27553,0 -8.16239,1.71021 -10.96092,4.58648 L 129.33946,77.064332 M 97.54496,22.10422 C 94.74643,19.22795 90.85957,17.51774 86.58403,17.51774 A 15.547412,15.547412 0 0 0 71.03662,33.065157 15.547412,15.547412 0 0 0 86.58403,48.612569 c 4.27554,0 8.1624,-1.710218 10.96093,-4.586489 l 11.03866,11.038658 c -5.67481,5.597073 -13.44851,9.095243 -21.99959,9.095243 A 31.094826,31.094826 0 0 1 55.48921,33.065157 31.094826,31.094826 0 0 1 86.58403,1.97033 c 8.62882,0 16.40252,3.49816 21.99959,9.09524 v 0 l 21.45543,21.455423 -11.03866,11.038667 z" style="stroke-width:7.77371"/></svg>