<svg width="449.839" height="147.145" viewBox="0 0 119.02 38.932" xmlns="http://www.w3.org/2000/svg"><path transform="matrix(.26442 0 0 .26506 -6.326 -134.576)" d="M25.816 509.63v143.1h446.35v-143.1zm16.273 8.84a7.438 7.438 0 0 1 7.438 7.437 7.438 7.438 0 0 1-7.438 7.44 7.438 7.438 0 0 1-7.44-7.44 7.438 7.438 0 0 1 7.44-7.437zm411.85 0a7.438 7.438 0 0 1 7.44 7.437 7.438 7.438 0 0 1-7.44 7.44 7.438 7.438 0 0 1-7.438-7.44 7.438 7.438 0 0 1 7.438-7.437zM42.089 629.68a7.438 7.438 0 0 1 7.438 7.44 7.438 7.438 0 0 1-7.438 7.437 7.438 7.438 0 0 1-7.44-7.438 7.438 7.438 0 0 1 7.44-7.44zm411.85 0a7.438 7.438 0 0 1 7.44 7.44 7.438 7.438 0 0 1-7.44 7.437 7.438 7.438 0 0 1-7.438-7.438 7.438 7.438 0 0 1 7.438-7.44z" stroke="#fff" stroke-width="3.78"/><g transform="matrix(.99938 0 0 1.0018 -52.75 -158.516)"><g stroke="#fff"><path d="M84.626 168.7v-1.813a1.153 1.153 0 1 1 2.307 0v1.813m-6.19 0v-1.813c0-.638.517-1.154 1.154-1.154a1.15 1.15 0 0 1 1.154 1.15v1.813m-6.194.005v-1.813a1.153 1.153 0 1 1 2.307 0v1.813m-6.194 0v-1.813a1.153 1.153 0 1 1 2.308 0v1.813m-6.195 0v-1.813a1.153 1.153 0 1 1 2.308 0v1.813m-6.19 0v-1.813a1.153 1.153 0 1 1 2.308 0v1.813m19.425 17.303v2.03a1.153 1.153 0 1 1-2.308 0v-2.03m-1.575 0v2.03a1.153 1.153 0 1 1-2.307 0v-2.03m-1.58 0v2.03a1.153 1.153 0 1 1-2.307 0v-2.03m-1.58 0v2.03a1.153 1.153 0 1 1-2.307 0v-2.03m-1.579 0v2.03a1.153 1.153 0 1 1-2.308 0v-2.03m-1.574.113v1.922a1.153 1.153 0 1 1-2.308 0v-1.922" fill="none" stroke-width="1.000095"/><path d="M87.516 168.7H64.621a.42.42 0 0 0-.421.421v16.467c0 .23.186.421.42.421h22.891c.23 0 .421-.187.421-.42V169.12a.417.417 0 0 0-.416-.42z" fill="none" stroke-width="1.000095"/><path d="M71.123 178.308h1.245v3.362h7.483v-3.362h1.245l-1.254-1.258v-2.2h-.78v1.423l-2.955-2.954z" fill="#fff" fill-rule="evenodd" stroke-linecap="round" stroke-linejoin="round" stroke-width=".8509005000000001"/><path d="M64.112 185.013H57.25v-1.687h5.145v-1.687H57.25v-1.684h5.145v-1.687H57.25v-1.687h5.145v-1.683H57.25V169.7" fill="none" stroke-linecap="round" stroke-linejoin="round" stroke-width="1.000095"/></g><path d="M92.954 177.14h8.418v3.325h-1.59v-1.984H95.59v3.76h3.527v1.333H95.59v3.984h4.194v-1.984h1.589v3.317h-8.418v-1.333h1.116v-9.077h-1.116zm16.007 3.193q0-.682-.248-1.023-.248-.34-.55-.519-.295-.186-.652-.28-.356-.1-.713-.1-.589 0-1.03.14-.443.132-.737.364-.287.233-.434.542-.147.31-.147.652 0 .511.178.83.186.31.465.503.279.186.612.295.341.108.651.217l1.566.511q.706.225 1.24.512.543.287.907.682.365.387.55.9.194.51.194 1.185 0 .729-.302 1.349-.294.62-.83 1.077-.534.458-1.278.721-.737.256-1.62.256-.907 0-1.55-.21-.644-.2-1.086-.542-.434-.349-.698-.79-.263-.442-.41-.907h-.59v-1.334h1.954q0 .86.178 1.217.186.357.512.597.325.233.775.357.45.116.992.116.527 0 .946-.124.426-.124.72-.357.303-.24.458-.573.163-.341.163-.768 0-.472-.202-.798-.194-.333-.503-.566-.31-.232-.683-.38-.364-.147-.705-.256l-1.698-.48q-.558-.17-1.023-.434-.457-.264-.79-.644-.326-.38-.504-.883-.178-.512-.178-1.179 0-.674.263-1.263.264-.589.775-1.03.512-.443 1.248-.69.744-.257 1.698-.257.628 0 1.155.148.535.147.961.418.434.264.76.644.333.372.558.821h.581v1.334zm3.372-3.193h4.751q.791 0 1.45.21.667.2 1.147.604.488.395.752.992.271.597.271 1.372 0 .643-.263 1.217-.264.566-.744.992-.481.426-1.156.675-.666.248-1.488.248h-2.085v4.108h1.178v1.333h-3.813v-1.333h1.116v-9.077h-1.116zm2.635 1.34v3.699h2.116q.442 0 .806-.117.373-.124.636-.356.271-.233.419-.581.155-.35.155-.807 0-.868-.527-1.348-.528-.489-1.683-.489zm15.48-1.34h3.814v1.333h-1.116v9.085h1.116v1.333h-3.814v-1.333h1.178v-4.224h-6.798v4.224h1.178v1.333h-3.813v-1.333h1.116v-9.085h-1.116v-1.333h3.813v1.333h-1.178v3.558h6.798v-3.558h-1.178zm5.597 7.736q.008-.953.302-1.736.302-.783.837-1.342.535-.565 1.271-.867.737-.303 1.62-.303.892 0 1.628.302.744.303 1.271.86.527.551.822 1.334.295.783.295 1.737 0 .937-.295 1.728-.295.783-.822 1.349-.527.566-1.271.883-.736.31-1.628.31-.907 0-1.643-.31t-1.263-.868q-.527-.566-.822-1.349-.295-.783-.302-1.728zm1.527 0q0 .69.194 1.248.2.558.542.953.349.388.798.605.458.209.97.209.534 0 .992-.209.465-.21.806-.597.341-.395.535-.953.193-.559.193-1.256 0-.729-.193-1.295-.194-.565-.535-.945-.334-.38-.799-.574-.465-.194-1-.194-.511 0-.969.194-.45.194-.798.574-.341.38-.542.945-.194.566-.194 1.295zm8.069-4.015h2.558v.938h.015q.264-.225.55-.419.295-.201.613-.349.318-.147.659-.232.349-.086.72-.086.87 0 1.497.326.628.318.969 1 .294-.264.62-.504.325-.248.675-.426.356-.179.744-.287.387-.109.806-.109.65 0 1.17.179.52.178.884.542t.55.938q.194.566.194 1.341v3.845h1.116v1.333h-3.752v-1.333h1.132v-3.666q0-.923-.465-1.395-.465-.48-1.341-.48-.52 0-1.062.247-.542.248-.93.628v4.666h1.109v1.333h-3.745v-1.333h1.132v-3.666q0-.923-.473-1.395-.465-.481-1.34-.481-.505 0-1.016.24-.512.24-.97.597v4.705h1.132v1.333h-3.751v-1.333h1.116v-5.364h-1.116zm17.27 4.201q0 .341.046.628.055.279.148.535.286.775.914 1.17.636.388 1.434.388.628 0 1.217-.17.597-.18 1.248-.551l.582.984q-.79.543-1.59.807-.798.263-1.658.263-.814 0-1.512-.271-.69-.272-1.193-.807-.497-.534-.784-1.333-.278-.798-.278-1.86 0-.86.24-1.62.24-.767.713-1.334.48-.573 1.186-.906.705-.334 1.643-.334.907 0 1.512.28.612.271.992.728.388.45.581 1.031.202.582.28 1.186.038.295.046.597.015.302.015.589zm2.255-3.201q-.503 0-.883.147-.372.14-.636.41-.263.264-.426.652-.155.387-.233.868h4.163q-.031-.45-.147-.83-.109-.38-.342-.658-.232-.28-.596-.434-.365-.155-.9-.155z" fill="#fff" fill-rule="evenodd" aria-label="ESPHome"/><g fill="#fff" stroke-width=".265" aria-label="Made for"><path d="m97.167 173.91 2.17-6.466v6.466h.93v-7.715h-1.364l-2.244 6.72-2.286-6.72h-1.365v7.715h.931v-6.466l2.19 6.466zM106.69 173.4c-.095.021-.138.021-.19.021-.307 0-.477-.159-.477-.434v-3.26c0-.984-.72-1.513-2.085-1.513-.815 0-1.46.233-1.841.646-.254.286-.36.603-.381 1.153h.889c.074-.677.476-.984 1.302-.984.804 0 1.238.296 1.238.826v.232c-.01.381-.201.519-.921.614-1.249.159-1.44.201-1.778.339-.646.275-.974.762-.974 1.482 0 1.005.699 1.64 1.82 1.64.7 0 1.26-.243 1.884-.815.064.572.34.815.91.815.191 0 .308-.021.604-.095zm-1.545-1.228c0 .297-.085.477-.35.72-.36.328-.793.497-1.312.497-.688 0-1.09-.328-1.09-.889 0-.582.381-.878 1.334-1.016.942-.127 1.121-.169 1.418-.307zM112.15 166.2h-.878v2.868c-.37-.56-.963-.857-1.704-.857-1.44 0-2.382 1.153-2.382 2.92 0 1.874.91 3.028 2.413 3.028.762 0 1.292-.286 1.768-.974v.73h.783zm-2.434 2.836c.952 0 1.556.836 1.556 2.17 0 1.28-.614 2.127-1.546 2.127-.973 0-1.619-.857-1.619-2.148s.646-2.149 1.609-2.149zM118.23 171.44c0-.847-.064-1.355-.222-1.767-.36-.91-1.207-1.46-2.244-1.46-1.545 0-2.54 1.174-2.54 3.005s.953 2.942 2.519 2.942c1.27 0 2.148-.72 2.37-1.926h-.888c-.244.73-.741 1.111-1.45 1.111a1.53 1.53 0 0 1-1.334-.72c-.212-.317-.286-.635-.296-1.185zm-4.064-.72c.074-1.026.699-1.693 1.587-1.693.9 0 1.525.699 1.525 1.693zM124.36 168.37h-.92v-.868c0-.37.2-.56.613-.56.074 0 .106 0 .307.01v-.73a2.099 2.099 0 0 0-.497-.053c-.815 0-1.302.465-1.302 1.26v.941h-.741v.72h.74v4.826h.88v-4.826h.92zM127.34 168.21c-1.566 0-2.498 1.111-2.498 2.974 0 1.873.932 2.974 2.509 2.974 1.566 0 2.508-1.111 2.508-2.932 0-1.926-.91-3.016-2.52-3.016zm.01.815c.995 0 1.588.815 1.588 2.19 0 1.313-.614 2.128-1.587 2.128-.985 0-1.588-.815-1.588-2.16s.603-2.158 1.588-2.158zM131.08 168.37v5.546h.889v-2.88c.01-1.333.56-1.925 1.778-1.893v-.9a2.23 2.23 0 0 0-.339-.032c-.571 0-1.005.339-1.513 1.164v-1.005z"/></g></g></svg>
