<svg xmlns="http://www.w3.org/2000/svg" id="Layer_2" data-name="Layer 2" viewBox="0 0 681.98 201.98"><defs><style>.cls-1{fill:none;stroke:#fff;stroke-miterlimit:10;stroke-width:1.01px}.cls-2{fill:#fff;stroke-width:0}</style></defs><g id="Layer_1-2" data-name="Layer 1"><g><g><path d="M236.13,43.11v26.53h-5.29v-14.5l-5.68,14.5h-5.08l-5.61-14.4v14.4h-5.12v-26.53h5.12l8.16,20.27,8.21-20.27h5.29Z" class="cls-2"/><path d="M259.54,63.84h-9.04l-2.02,5.8h-5.59l9.51-26.53h5.33l9.47,26.53h-5.7l-1.97-5.8ZM258,59.34l-2.95-8.7-2.99,8.7h5.94Z" class="cls-2"/><path d="M296.93,56.42c.02,1.89-.3,3.66-.98,5.31s-1.61,3.06-2.8,4.22-2.61,2.07-4.26,2.73-3.4.98-5.26.96h-9.65v-26.53h9.65c2.43-.04,4.66.52,6.71,1.68s3.67,2.76,4.86,4.82,1.78,4.33,1.74,6.81ZM291.25,56.42c0-2.46-.71-4.46-2.12-5.99s-3.27-2.29-5.58-2.29h-4.22v16.52h4.22c2.34,0,4.21-.75,5.61-2.26s2.09-3.5,2.09-5.99Z" class="cls-2"/><path d="M321.38,64.59v5.04h-16.7v-26.53h16.7v5.1h-11.34v5.66h10.07v4.75h-10.07v5.98h11.34Z" class="cls-2"/><path d="M348.35,48.17v6.1h9.58l-.04,4.82h-9.54v10.55h-5.36v-26.53h16.73l-.04,5.06h-11.34Z" class="cls-2"/><path d="M378.62,42.64c1.9,0,3.66.34,5.27,1.03s2.99,1.63,4.11,2.84,2,2.66,2.63,4.35.94,3.52.94,5.49c.02,1.95-.28,3.77-.91,5.48s-1.52,3.17-2.65,4.39-2.52,2.17-4.15,2.86-3.39,1.03-5.27,1c-2.5.04-4.74-.54-6.72-1.72s-3.52-2.82-4.6-4.92-1.6-4.45-1.56-7.05c-.02-1.95.28-3.77.91-5.48s1.51-3.18,2.65-4.39,2.51-2.17,4.13-2.87,3.37-1.03,5.23-1ZM378.65,64.82c2.24,0,4.01-.76,5.32-2.28s1.96-3.58,1.96-6.2-.65-4.71-1.95-6.22-3.08-2.27-5.33-2.27-4.03.76-5.33,2.27-1.95,3.59-1.95,6.22.65,4.71,1.95,6.21,3.08,2.26,5.33,2.26Z" class="cls-2"/><path d="M419.5,69.64h-6.01l-4.08-9.58h-4.89v9.58h-5.36v-26.53h10.21c3.28.01,5.76.74,7.44,2.19s2.51,3.55,2.51,6.3c0,1.79-.39,3.34-1.17,4.65s-1.89,2.28-3.33,2.91l4.68,10.48ZM413.63,51.6c0-1.15-.36-2.05-1.07-2.72s-1.78-.99-3.18-.99h-4.85v7.49h4.85c1.41,0,2.47-.34,3.18-1.01s1.07-1.6,1.07-2.77Z" class="cls-2"/></g><g><rect width="680.97" height="200.97" x=".51" y=".51" class="cls-1" rx="40.48" ry="40.48"/><g><path d="M251.92,146.83v11.25h-43.5v-70.08h43.5v11.34h-31.59v18.14h28.22v10.55h-28.22v18.8h31.59Z" class="cls-2"/><path d="M285,86.74c6.41,0,11.73,1.56,15.98,4.69,4.25,3.12,6.86,7.3,7.83,12.52l-11.2,3.05c-.62-3-2.09-5.31-4.38-6.94-2.3-1.62-5.13-2.44-8.51-2.44-3.62,0-6.5.87-8.62,2.6s-3.19,4.04-3.19,6.91c0,4.53,2.81,7.47,8.44,8.81l11.44,2.86c5.91,1.53,10.33,3.96,13.27,7.29s4.41,7.43,4.41,12.3c0,6.25-2.27,11.3-6.8,15.16-4.53,3.86-10.59,5.79-18.19,5.79-6.84,0-12.62-1.61-17.34-4.83-4.66-3.34-7.41-7.75-8.25-13.22l11.2-2.91c.41,3.09,1.95,5.52,4.62,7.27,2.67,1.75,6.07,2.62,10.2,2.62s7.09-.84,9.35-2.51c2.27-1.67,3.4-3.94,3.4-6.82,0-4.5-2.81-7.47-8.44-8.91l-11.44-2.77c-5.88-1.34-10.29-3.73-13.24-7.15s-4.43-7.6-4.43-12.54c0-6.19,2.2-11.21,6.59-15.07,4.39-3.86,10.16-5.79,17.32-5.79Z" class="cls-2"/><path d="M371.55,110.83c0,6.88-2.09,12.44-6.26,16.69-4.17,4.25-9.79,6.38-16.85,6.38h-15.75v24.19h-11.91v-70.08h27.75c7.12,0,12.74,2.06,16.85,6.16,4.11,4.11,6.16,9.66,6.16,16.66ZM359.08,110.55c0-3.53-1.1-6.4-3.3-8.6s-5.32-3.3-9.35-3.3h-13.73v24.8h13.55c4.12,0,7.3-1.17,9.52-3.52s3.33-5.47,3.33-9.38Z" class="cls-2"/><path d="M381.23,88h11.91v29.3l30.89.09v-29.39h12v70.08h-12v-30.14l-30.89-.09v30.23h-11.91v-70.08Z" class="cls-2"/><path d="M470.88,109.43c7.25,0,13.16,2.33,17.72,6.98,4.56,4.66,6.84,10.64,6.84,17.95s-2.28,13.25-6.84,17.91c-4.56,4.66-10.47,6.98-17.72,6.98s-13.25-2.33-17.81-6.98c-4.56-4.66-6.84-10.62-6.84-17.91s2.28-13.34,6.84-17.98,10.5-6.96,17.81-6.96ZM470.88,149.04c3.88,0,7.02-1.37,9.45-4.1,2.42-2.73,3.63-6.29,3.63-10.66s-1.21-7.91-3.63-10.62c-2.42-2.7-5.57-4.05-9.45-4.05s-7.17,1.35-9.61,4.05c-2.44,2.7-3.66,6.24-3.66,10.62s1.22,7.93,3.66,10.66c2.44,2.73,5.64,4.1,9.61,4.1Z" class="cls-2"/><path d="M576.42,127.94v30.14h-11.02v-28.41c0-3.28-.84-5.84-2.53-7.69-1.69-1.84-3.98-2.77-6.89-2.77-3.09,0-5.56,1.01-7.41,3.02s-2.77,4.84-2.77,8.46v27.38h-11.16v-28.41c0-3.28-.82-5.84-2.46-7.69-1.64-1.84-3.91-2.77-6.82-2.77-3.09,0-5.58,1.01-7.45,3.02s-2.81,4.84-2.81,8.46v27.38h-11.34v-47.34h10.55l.38,4.55c2.75-4.03,7.23-6.05,13.45-6.05,3.62,0,6.77.75,9.42,2.25s4.67,3.69,6.05,6.56c1.16-2.75,3.07-4.91,5.74-6.47,2.67-1.56,5.85-2.34,9.54-2.34,5.38,0,9.64,1.66,12.8,4.97,3.16,3.31,4.73,7.89,4.73,13.73Z" class="cls-2"/><path d="M631.43,138.58h-36.28c.38,3.56,1.72,6.28,4.03,8.16s5.25,2.81,8.81,2.81c5.78,0,9.83-2.41,12.14-7.22l9.47,3.75c-1.78,4.16-4.59,7.41-8.41,9.75s-8.23,3.52-13.2,3.52c-7,0-12.68-2.29-17.04-6.87-4.36-4.58-6.54-10.59-6.54-18.02s2.2-13.48,6.59-18.14c4.39-4.66,10.13-6.98,17.23-6.98s12.58,2.3,16.83,6.89,6.38,10.64,6.38,18.14v4.22ZM595.34,130.61h24.56c-.22-3.84-1.38-6.77-3.49-8.79s-4.95-3.02-8.51-3.02-6.41,1.02-8.62,3.07c-2.22,2.05-3.53,4.96-3.94,8.74Z" class="cls-2"/></g><path d="M165.25,95.69l-49.39-49.39c-2.92-2.92-7.69-2.92-10.61,0l-49.39,49.39c-2.92,2.92-5.3,8.68-5.3,12.8v45c0,4.12,3.38,7.5,7.5,7.5h105c4.12,0,7.5-3.38,7.5-7.5v-45c0-4.12-2.39-9.89-5.3-12.8ZM133.55,98.32c0,1.66-1.34,3-3,3h-25v6h25c1.66,0,3,1.34,3,3v12c0,1.66-1.34,3-3,3h-25v6h25c1.66,0,3,1.34,3,3v12c0,1.66-1.34,3-3,3h-28c-1.66,0-3-1.34-3-3s1.34-3,3-3h25v-6h-25c-1.66,0-3-1.34-3-3v-12c0-1.66,1.34-3,3-3h25v-6h-25c-1.66,0-3-1.34-3-3v-12c0-1.66,1.34-3,3-3h25v-6h-34v71.67h-6v-74.67c0-1.66,1.34-3,3-3h40c1.66,0,3,1.34,3,3v12Z" class="cls-2"/></g></g></g></svg>