<?xml version="1.0" standalone="no"?>
<!DOCTYPE svg PUBLIC "-//W3C//DTD SVG 20010904//EN"
 "http://www.w3.org/TR/2001/REC-SVG-20010904/DTD/svg10.dtd">
<svg version="1.0" xmlns="http://www.w3.org/2000/svg"
 width="1040.000000pt" height="1040.000000pt" viewBox="0 0 1040.000000 1040.000000"
 preserveAspectRatio="xMidYMid meet">
<metadata>
Created by potrace 1.11, written by Peter Selinger 2001-2013
</metadata>
<g transform="translate(0.000000,1040.000000) scale(0.100000,-0.100000)"
fill="#000000" stroke="none">
<path d="M3445 8564 c-122 -32 -247 -129 -298 -230 -51 -100 -58 -145 -60
-390 l-2 -229 -54 -3 c-103 -6 -195 -73 -231 -169 -20 -53 -20 -78 -20 -2247
l0 -2193 -885 0 -884 0 1 93 1 94 663 0 c409 0 673 4 689 10 38 15 83 65 90
102 4 18 5 155 3 303 -3 295 -4 300 -66 342 -28 19 -85 20 -1294 23 l-87 0 2
93 1 94 673 0 673 0 36 28 c61 47 64 63 64 359 0 163 -4 276 -11 293 -15 41
-57 81 -93 89 -17 4 -326 8 -686 8 l-655 1 -2 93 c-1 88 0 92 20 93 12 0 315
2 672 3 358 1 659 6 670 11 25 11 46 32 67 66 14 23 17 65 18 303 1 307 -2
325 -64 369 l-31 22 -676 3 -676 3 0 669 0 669 -23 36 c-24 39 -78 71 -125 73
-41 2 -105 -36 -129 -77 -19 -33 -19 -55 -19 -796 0 -737 0 -764 19 -796 11
-18 35 -42 54 -54 34 -19 52 -20 700 -21 366 -1 667 -2 670 -3 3 0 5 -42 5
-93 l0 -91 -670 -1 c-655 -1 -671 -1 -705 -21 -19 -12 -43 -36 -54 -54 -18
-31 -19 -54 -19 -310 0 -308 4 -329 66 -366 31 -19 60 -20 707 -25 l675 -5 1
-80 c0 -44 -1 -85 -4 -91 -2 -9 -178 -12 -668 -12 l-664 -1 -40 -22 c-70 -40
-74 -56 -73 -371 1 -310 3 -321 73 -363 34 -19 51 -20 640 -22 333 -1 634 -2
670 -3 l65 0 0 -93 0 -92 -660 1 c-709 1 -704 1 -752 -51 -12 -13 -25 -36 -29
-51 -10 -38 -9 -543 0 -574 11 -32 54 -79 86 -92 16 -6 390 -10 998 -10 712 0
972 -4 973 -12 1 -6 1 -14 0 -18 0 -4 8 -32 19 -62 36 -94 133 -162 237 -167
l51 -2 0 -211 c0 -116 3 -231 7 -255 27 -177 160 -327 340 -382 45 -14 169
-17 229 -6 109 20 252 127 309 231 49 89 59 150 60 396 l2 225 68 1 67 2 1
-224 c1 -123 2 -227 3 -231 1 -5 5 -25 9 -45 29 -143 157 -286 301 -337 71
-25 184 -33 254 -19 122 26 242 110 306 217 61 101 70 148 71 406 l0 230 68 1
c66 1 67 1 68 -25 0 -14 1 -112 0 -218 0 -133 5 -210 15 -254 71 -303 408
-455 685 -308 105 57 196 171 230 289 8 27 14 119 15 235 2 105 3 212 3 238
l1 48 65 -2 c38 -1 66 -7 66 -13 1 -6 2 -105 3 -221 1 -115 6 -230 10 -255 28
-159 175 -317 336 -360 57 -16 174 -20 214 -9 17 5 43 12 58 14 76 14 214 126
263 213 58 104 64 139 64 424 l1 207 68 -2 67 -2 1 -220 c1 -122 6 -243 12
-273 47 -215 246 -372 467 -367 164 4 297 76 385 207 71 106 80 156 80 423 l0
233 70 0 70 0 1 -216 c0 -257 1 -271 29 -345 65 -173 234 -295 419 -302 221
-8 401 118 471 329 21 63 23 88 24 300 l1 231 60 6 c111 11 199 78 230 175 15
49 17 229 17 2409 -1 1838 -3 2363 -13 2393 -35 107 -134 180 -251 185 l-43 2
-1 210 c-1 272 -6 303 -57 405 -56 111 -198 217 -325 240 -245 45 -484 -106
-547 -345 -11 -45 -15 -114 -15 -285 l0 -227 -70 -1 -70 -1 0 227 c0 246 -7
298 -55 392 -56 111 -197 216 -319 239 -253 47 -499 -109 -557 -355 -7 -29
-11 -140 -11 -275 l0 -227 -69 0 -69 0 0 211 c-1 117 -3 230 -6 252 -26 187
-165 340 -354 389 -52 13 -179 14 -225 2 -144 -38 -261 -136 -319 -268 -36
-82 -39 -107 -40 -353 l-2 -230 -67 -3 c-59 -3 -67 -1 -68 15 0 10 -1 101 -1
203 1 228 -8 295 -53 385 -86 173 -243 267 -440 260 -214 -7 -387 -150 -442
-366 -5 -21 -12 -252 -13 -440 l0 -56 -67 1 -67 1 -2 230 c-1 250 -3 271 -44
360 -51 112 -158 207 -279 249 -62 22 -180 28 -250 14 -126 -27 -257 -126
-314 -240 -50 -100 -57 -143 -57 -389 l0 -227 -69 1 -69 1 0 222 c0 240 -7
292 -51 384 -51 107 -193 220 -306 245 -58 13 -181 12 -230 -1z m2380 -315
c19 -13 45 -43 56 -67 20 -40 21 -60 21 -235 0 -106 -1 -201 -1 -213 -1 -21
-5 -21 -176 -22 -159 -1 -175 0 -176 16 0 9 0 106 0 215 0 182 1 202 21 242
47 96 164 126 255 64z m1060 16 c33 -13 82 -74 92 -113 5 -20 9 -127 8 -237
l0 -200 -178 -2 -178 -2 3 227 c3 223 3 228 28 264 52 76 130 98 225 63z
m1107 -16 c15 -11 37 -36 49 -56 22 -35 23 -47 24 -248 1 -115 0 -215 -2 -221
-3 -7 -61 -11 -178 -12 l-173 0 0 216 c1 187 3 222 18 252 51 101 172 132 262
69z m1050 21 c4 0 23 -14 42 -30 59 -52 65 -82 64 -317 l0 -210 -176 1 -177 1
0 215 c0 198 1 218 20 254 36 69 117 110 184 95 20 -5 39 -9 43 -9z m-5411 -4
c19 -8 44 -25 56 -38 44 -47 50 -81 51 -288 0 -107 -1 -202 -4 -211 -4 -13
-29 -15 -178 -16 l-173 -1 1 221 c1 183 4 227 18 252 44 82 143 117 229 81z
m1076 3 c34 -12 80 -55 98 -90 10 -18 14 -83 15 -246 l1 -221 -178 2 -178 1 0
215 c1 209 2 216 25 260 42 76 136 110 217 79z m4743 -3139 l0 -2280 -3185 0
-3185 0 0 2280 0 2280 3185 0 3185 0 0 -2280z m-5713 -2783 c1 -111 -3 -219
-8 -240 -39 -149 -252 -171 -325 -35 -15 28 -18 66 -20 248 -1 118 0 218 2
222 3 4 82 7 177 7 l173 -1 1 -201z m1081 -26 l-3 -229 -31 -39 c-63 -79 -156
-96 -236 -43 -75 50 -82 78 -83 319 -1 113 0 209 2 213 2 3 82 7 179 7 l175 1
-3 -229z m1083 195 c6 -190 -1 -396 -14 -427 -30 -69 -91 -109 -167 -109 -67
0 -135 49 -160 114 -9 26 -13 157 -11 403 l1 53 175 -2 175 -1 1 -31z m1083
-186 c0 -201 -2 -218 -22 -257 -53 -102 -192 -124 -275 -45 -52 49 -57 75 -57
308 l0 213 178 -2 177 -2 -1 -215z m1081 0 c0 -241 -5 -266 -73 -318 -30 -23
-45 -27 -102 -27 -57 0 -72 4 -103 28 -68 51 -71 67 -74 302 -1 116 0 215 2
222 3 9 50 11 177 10 l173 -2 0 -215z m1083 13 c0 -113 -5 -221 -9 -238 -31
-113 -178 -162 -271 -91 -66 50 -72 75 -73 311 -1 116 0 213 2 217 2 3 81 7
177 7 l174 1 0 -207z"/>
<path d="M6175 6369 c-11 -6 -329 -320 -708 -698 -742 -741 -724 -720 -694
-793 28 -66 44 -73 193 -76 l133 -4 3 -469 3 -469 33 -32 32 -33 1043 -3 c767
-2 1049 1 1070 9 15 6 36 24 47 39 19 27 20 46 20 494 l0 466 125 0 c142 0
174 10 201 62 11 21 14 45 11 71 -5 36 -23 58 -171 206 l-166 166 0 273 c0
369 4 362 -223 362 -123 0 -137 -2 -168 -23 -37 -24 -58 -70 -58 -127 -1 -34
-8 -27 -314 278 -306 305 -314 312 -352 312 -22 0 -49 -5 -60 -11z"/>
</g>
</svg>
