<svg xmlns="http://www.w3.org/2000/svg" width="512" height="512" fill="none" viewBox="0 0 512 512"><g clip-path="url(#clip0_2_408)"><path fill="#F2F4F9" d="M372.68 238.9L267.32 133.52C261.1 127.3 250.92 127.3 244.7 133.52L139.32 238.9C133.1 245.12 128 257.42 128 266.22V362.22C128 371.02 135.2 378.22 144 378.22H206.94V218.92C206.94 215.38 209.8 212.52 213.34 212.52H298.68C302.22 212.52 305.08 215.38 305.08 218.92V244.52C305.08 248.06 302.22 250.92 298.68 250.92H245.34V263.72H298.68C302.22 263.72 305.08 266.58 305.08 270.12V295.72C305.08 299.26 302.22 302.12 298.68 302.12H245.34V314.92H298.68C302.22 314.92 305.08 317.78 305.08 321.32V346.92C305.08 350.46 302.22 353.32 298.68 353.32H238.94C235.4 353.32 232.54 350.46 232.54 346.92C232.54 343.38 235.4 340.52 238.94 340.52H292.28V327.72H238.94C235.4 327.72 232.54 324.86 232.54 321.32V295.72C232.54 292.18 235.4 289.32 238.94 289.32H292.28V276.52H238.94C235.4 276.52 232.54 273.66 232.54 270.12V244.52C232.54 240.98 235.4 238.12 238.94 238.12H292.28V225.32H219.74V378.22H368C376.8 378.22 384 371.02 384 362.22V266.22C384 257.42 378.9 245.12 372.68 238.9Z"/></g><defs><clipPath id="clip0_2_408"><rect width="256" height="256" fill="#fff" transform="translate(128 128.62)"/></clipPath></defs></svg>