<?xml version="1.0" standalone="no"?>
<!DOCTYPE svg PUBLIC "-//W3C//DTD SVG 20010904//EN"
 "http://www.w3.org/TR/2001/REC-SVG-20010904/DTD/svg10.dtd">
<svg version="1.0" xmlns="http://www.w3.org/2000/svg"
 width="800.000000pt" height="800.000000pt" viewBox="0 0 800.000000 800.000000"
 preserveAspectRatio="xMidYMid meet">
<metadata>
Created by potrace 1.11, written by Peter Selinger 2001-2013
</metadata>
<g transform="translate(0.000000,800.000000) scale(0.100000,-0.100000)"
fill="#000000" stroke="none">
<path d="M2665 6504 c-124 -31 -194 -81 -245 -175 l-35 -64 -3 -176 -4 -176
-43 -6 c-61 -9 -111 -42 -143 -96 l-27 -46 -3 -1602 -2 -1603 -610 0 -610 0 0
75 0 75 490 0 c344 0 496 3 514 11 50 23 57 61 54 274 l-3 195 -28 27 -27 28
-500 3 -500 3 0 74 0 75 495 0 495 0 32 29 33 29 0 211 0 211 -28 27 -27 28
-500 3 -500 3 0 74 0 74 500 3 500 3 27 28 28 27 0 211 0 211 -33 29 -32 29
-495 0 -495 0 0 499 0 499 -26 31 c-36 43 -93 44 -135 2 l-29 -29 0 -567 0
-567 29 -29 29 -29 496 0 496 0 0 -80 0 -80 -496 0 -496 0 -29 -29 -29 -29 0
-207 0 -207 29 -29 29 -29 496 0 496 0 0 -80 0 -80 -496 0 -496 0 -29 -29 -29
-29 0 -205 0 -205 26 -31 26 -31 499 0 499 0 0 -80 0 -80 -494 0 -495 0 -28
-24 -28 -24 -3 -210 -3 -210 30 -34 29 -33 675 -3 675 -2 7 -43 c4 -23 13 -53
20 -67 28 -54 101 -100 159 -100 l35 0 3 -197 c3 -190 4 -200 30 -255 54 -116
152 -181 283 -186 98 -5 171 19 237 77 93 82 118 170 118 414 l0 147 60 0 60
0 0 -153 c0 -84 5 -180 11 -213 22 -119 99 -214 208 -255 78 -29 194 -24 266
13 64 34 128 100 157 163 21 46 23 67 26 248 l4 197 63 0 63 0 4 -197 c3 -177
6 -203 25 -245 29 -63 97 -134 158 -166 72 -37 188 -42 266 -13 79 30 141 88
181 169 l33 67 3 193 4 193 61 -3 62 -3 5 -200 c5 -195 6 -201 33 -253 35 -67
90 -122 153 -153 41 -20 64 -24 144 -24 81 0 103 4 145 24 63 32 124 93 156
156 22 47 24 63 29 250 l5 200 61 3 62 3 3 -193 4 -193 33 -67 c40 -81 102
-139 181 -169 78 -29 194 -24 266 13 61 32 129 103 158 166 20 42 22 67 25
245 l4 197 63 0 63 0 4 -197 c3 -226 13 -261 91 -341 64 -67 127 -95 222 -100
98 -5 170 19 237 77 92 82 118 170 118 412 l0 146 45 5 c54 7 102 37 136 87
l24 36 3 1730 c2 1210 0 1741 -8 1767 -21 72 -102 137 -171 138 l-26 0 -5 169
c-4 166 -5 170 -36 234 -59 120 -169 190 -296 190 -136 0 -248 -70 -304 -191
-25 -54 -27 -67 -30 -229 l-4 -173 -64 0 -64 0 0 153 c0 172 -11 224 -61 301
-65 97 -205 158 -319 138 -119 -21 -207 -89 -257 -197 -26 -56 -27 -70 -31
-227 l-4 -168 -64 0 -64 0 0 165 c0 141 -3 172 -20 219 -29 76 -88 139 -166
177 -57 28 -76 33 -144 33 -68 0 -87 -5 -144 -33 -71 -35 -122 -86 -158 -160
-21 -42 -23 -63 -26 -223 l-4 -178 -63 0 -63 0 -4 168 c-6 197 -17 237 -88
315 -86 95 -205 132 -321 102 -105 -26 -182 -90 -228 -185 -24 -51 -26 -66
-29 -227 l-4 -173 -64 0 -64 0 0 153 c0 172 -11 224 -61 301 -65 97 -205 158
-319 138 -119 -21 -207 -90 -258 -201 -24 -51 -26 -70 -30 -223 l-5 -168 -58
0 -59 0 0 123 c0 213 -28 307 -113 384 -70 62 -200 104 -272 87z m115 -209
c15 -8 38 -30 49 -48 19 -31 21 -49 21 -186 l0 -151 -140 0 -140 0 0 139 c0
77 5 152 11 168 13 34 47 72 74 83 32 14 94 11 125 -5z m816 -16 c46 -42 54
-76 54 -229 l0 -140 -140 0 -140 0 0 150 c0 169 8 196 63 231 45 28 127 22
163 -12z m775 16 c60 -31 69 -63 69 -232 l0 -153 -141 0 -141 0 4 153 c2 127
6 158 21 180 40 61 124 84 188 52z m804 -5 c55 -34 65 -69 65 -234 l0 -146
-140 0 -140 0 0 146 c0 130 2 150 21 183 11 21 33 45 47 54 37 23 107 22 147
-3z m815 -15 c41 -40 50 -79 50 -232 l0 -133 -140 0 -140 0 0 150 c0 169 8
196 63 231 48 30 127 22 167 -16z m771 20 c60 -31 69 -63 69 -232 l0 -153
-140 0 -140 0 0 139 c0 77 5 152 11 168 13 34 47 72 74 83 33 14 94 11 126 -5z
m267 -2267 l-3 -1663 -2322 -3 -2323 -2 0 1665 0 1665 2325 0 2325 0 -2 -1662z
m-4178 -2051 c0 -148 -3 -177 -18 -206 -37 -68 -129 -91 -193 -48 -61 40 -69
71 -69 260 l0 167 140 0 140 0 0 -173z m795 -7 c0 -195 -5 -212 -68 -250 -64
-39 -154 -15 -189 51 -15 29 -18 58 -18 207 l0 173 138 -3 137 -3 0 -175z
m795 3 c0 -157 -2 -182 -19 -209 -37 -61 -134 -81 -196 -40 -50 33 -60 68 -63
239 -2 87 -1 164 2 172 4 12 32 15 141 15 l135 0 0 -177z m800 5 c0 -155 -2
-176 -20 -206 -43 -70 -128 -92 -191 -49 -61 40 -69 71 -69 260 l0 167 140 0
140 0 0 -172z m795 -8 c0 -195 -5 -212 -68 -250 -61 -38 -149 -17 -187 45 -18
29 -20 49 -20 209 l0 177 138 -3 137 -3 0 -175z m795 7 c0 -148 -3 -177 -18
-206 -37 -68 -129 -91 -193 -48 -60 40 -69 71 -69 253 0 88 3 164 7 167 3 4
66 7 140 7 l133 0 0 -173z"/>
<path d="M4137 4402 c-395 -395 -537 -543 -537 -560 0 -35 28 -81 53 -87 12
-3 63 -6 112 -8 l90 -2 5 -323 5 -324 24 -19 c22 -18 51 -19 821 -19 770 0
799 1 821 19 l24 19 5 324 5 323 90 2 c118 4 132 8 150 43 28 54 21 66 -115
205 l-130 132 0 224 c-1 160 -4 229 -13 240 -24 31 -56 39 -157 39 -99 0 -102
-1 -131 -29 -24 -25 -29 -37 -29 -80 0 -28 -3 -51 -8 -51 -4 0 -113 106 -242
235 -218 218 -237 235 -270 235 -33 0 -66 -31 -573 -538z"/>
</g>
</svg>
